  0
SECTION
  2
HEADER
  9
$ANGBASE
  50
0.0
  9
$ANGDIR
  70
1
  9
$MEASUREMENT
  70
1
  9
$INSUNITS
  70
4
  0
ENDSEC
  0
SECTION
  2
TABLES
  0
TABLE
  2
LTYPE
  70
4
  0
LTYPE
  5
40F
  2
CONTINUOUS
  70
0
  3
Solid line
  72
65
  73
0
  40
0.0
  0
LTYPE
  5
410
  2
DASHDOT
 70
0
  3
Dash Dot ____ _ ____ _
 72
65
 73
4
 40
2.0
 49
1.25
 49
-0.25
 49
0.25
 49
-0.25
  0
LTYPE
  5
411
  2
DASHED
 70
0
  3
Dashed __ __ __ __ __
 72
65
 73
2
 40
0.75
 49
0.5
 49
-0.25
  0
LTYPE
  5
43B
  2
DOTTED
 70
0
  3
Dotted .  .  .  .
 72
65
 73
2
 40
0.2
 49
0.0
 49
-0.2
  0
ENDTAB
  0
TABLE
  2
STYLE
  70
4
  0
STYLE
  2
KICAD
  70
0
  40
0
  41
1
  42
1
  50
0
  71
0
  3
isocp.shx
  0
STYLE
  2
KICADB
  70
0
  40
0
  41
1
  42
1
  50
0
  71
0
  3
isocp.shx
  0
STYLE
  2
KICADI
  70
0
  40
0
  41
1
  42
1
  50
15
  71
0
  3
isocp.shx
  0
STYLE
  2
KICADBI
  70
0
  40
0
  41
1
  42
1
  50
15
  71
0
  3
isocp.shx
  0
ENDTAB
  0
TABLE
  2
LAYER
  70
1
  0
LAYER
  2
BLACK
  70
0
  62
250
  6
CONTINUOUS
  0
ENDTAB
  0
ENDSEC
  0
SECTION
  2
ENTITIES
0
LINE
8
BLACK
6
CONTINUOUS
10
88.1062500000000028
20
-61.9124999999999943
11
88.1062500000000028
21
-142.875
0
LINE
8
BLACK
6
CONTINUOUS
10
88.1062500000000028
20
-61.9124999999999943
11
135.7312499999999886
21
-61.9124999999999943
0
LINE
8
BLACK
6
CONTINUOUS
10
135.7312499999999886
20
-42.8624999999999972
11
192.8812499999999943
21
-42.8624999999999972
0
LINE
8
BLACK
6
CONTINUOUS
10
135.7312499999999886
20
-61.9124999999999943
11
135.7312499999999886
21
-42.8624999999999972
0
LINE
8
BLACK
6
CONTINUOUS
10
192.8812499999999943
20
-42.8624999999999972
11
192.8812499999999943
21
-61.9124999999999943
0
LINE
8
BLACK
6
CONTINUOUS
10
192.8812499999999943
20
-61.9124999999999943
11
238.125
21
-61.9124999999999943
0
LINE
8
BLACK
6
CONTINUOUS
10
238.125
20
-61.9124999999999943
11
238.125
21
-142.875
0
LINE
8
BLACK
6
CONTINUOUS
10
238.125
20
-142.875
11
88.1062500000000028
21
-142.875
0
LINE
8
BLACK
6
CONTINUOUS
10
141.0962499999999977
20
-59.5026060000000001
11
141.7962499999999864
21
-60.2026059999999958
0
LINE
8
BLACK
6
CONTINUOUS
10
141.7962499999999864
20
-59.5026060000000001
11
141.0962499999999977
21
-60.2026059999999958
0
LINE
8
BLACK
6
CONTINUOUS
10
146.1762499999999818
20
-59.5026060000000001
11
146.8762499999999989
21
-60.2026059999999958
0
LINE
8
BLACK
6
CONTINUOUS
10
146.8762499999999989
20
-59.5026060000000001
11
146.1762499999999818
21
-60.2026059999999958
0
LINE
8
BLACK
6
CONTINUOUS
10
183.0062499999999943
20
-59.5026060000000001
11
183.7062499999999829
21
-60.2026059999999958
0
LINE
8
BLACK
6
CONTINUOUS
10
183.7062499999999829
20
-59.5026060000000001
11
183.0062499999999943
21
-60.2026059999999958
0
LINE
8
BLACK
6
CONTINUOUS
10
188.0862499999999784
20
-59.5026060000000001
11
188.7862499999999955
21
-60.2026059999999958
0
LINE
8
BLACK
6
CONTINUOUS
10
188.7862499999999955
20
-59.5026060000000001
11
188.0862499999999784
21
-60.2026059999999958
0
CIRCLE
8
BLACK
10
156.6862500000000011
20
-68.5799999999999983
40
0.4445
0
CIRCLE
8
BLACK
10
156.6862500000000011
20
-71.1199999999999903
40
0.4445
0
CIRCLE
8
BLACK
10
156.6862500000000011
20
-73.6599999999999966
40
0.4445
0
CIRCLE
8
BLACK
10
156.6862500000000011
20
-76.2000000000000028
40
0.4445
0
CIRCLE
8
BLACK
10
156.6862500000000011
20
-78.7399999999999949
40
0.4445
0
CIRCLE
8
BLACK
10
156.6862500000000011
20
-81.2800000000000011
40
0.4445
0
CIRCLE
8
BLACK
10
156.6862500000000011
20
-83.8199999999999932
40
0.4445
0
CIRCLE
8
BLACK
10
171.9262499999999818
20
-68.5799999999999983
40
0.4445
0
CIRCLE
8
BLACK
10
171.9262499999999818
20
-71.1199999999999903
40
0.4445
0
CIRCLE
8
BLACK
10
171.9262499999999818
20
-73.6599999999999966
40
0.4445
0
CIRCLE
8
BLACK
10
171.9262499999999818
20
-76.2000000000000028
40
0.4445
0
CIRCLE
8
BLACK
10
171.9262499999999818
20
-78.7399999999999949
40
0.4445
0
CIRCLE
8
BLACK
10
171.9262499999999818
20
-81.2800000000000011
40
0.4445
0
CIRCLE
8
BLACK
10
171.9262499999999818
20
-83.8199999999999932
40
0.4445
0
LINE
8
BLACK
6
CONTINUOUS
10
142.875
20
-49.4012499999999974
11
142.875
21
-50.6112499999999983
0
LINE
8
BLACK
6
CONTINUOUS
10
142.2699999999999818
20
-50.0062499999999943
11
143.4799999999999898
21
-50.0062499999999943
0
LINE
8
BLACK
6
CONTINUOUS
10
145.414999999999992
20
-49.4012499999999974
11
145.414999999999992
21
-50.6112499999999983
0
LINE
8
BLACK
6
CONTINUOUS
10
144.8100000000000023
20
-50.0062499999999943
11
146.0199999999999818
21
-50.0062499999999943
0
LINE
8
BLACK
6
CONTINUOUS
10
184.4675000000000011
20
-49.722605999999999
11
184.4675000000000011
21
-50.9326059999999998
0
LINE
8
BLACK
6
CONTINUOUS
10
183.8624999999999829
20
-50.3276059999999958
11
185.0724999999999909
21
-50.3276059999999958
0
LINE
8
BLACK
6
CONTINUOUS
10
187.0074999999999932
20
-49.722605999999999
11
187.0074999999999932
21
-50.9326059999999998
0
LINE
8
BLACK
6
CONTINUOUS
10
186.4025000000000034
20
-50.3276059999999958
11
187.6124999999999829
21
-50.3276059999999958
0
LINE
8
BLACK
6
CONTINUOUS
10
99.1140849999999887
20
-100.3840849999999989
11
99.1140849999999887
21
-99.3234149999999971
0
LINE
8
BLACK
6
CONTINUOUS
10
99.1140849999999887
20
-99.3234149999999971
11
98.0534150000000011
21
-99.3234149999999971
0
LINE
8
BLACK
6
CONTINUOUS
10
98.0534150000000011
20
-99.3234149999999971
11
98.0534150000000011
21
-100.3840849999999989
0
LINE
8
BLACK
6
CONTINUOUS
10
98.0534150000000011
20
-100.3840849999999989
11
99.1140849999999887
21
-100.3840849999999989
0
LINE
8
BLACK
6
CONTINUOUS
10
105.4640849999999972
20
-97.8440849999999926
11
105.4640849999999972
21
-96.7834149999999909
0
LINE
8
BLACK
6
CONTINUOUS
10
105.4640849999999972
20
-96.7834149999999909
11
104.4034149999999954
21
-96.7834149999999909
0
LINE
8
BLACK
6
CONTINUOUS
10
104.4034149999999954
20
-96.7834149999999909
11
104.4034149999999954
21
-97.8440849999999926
0
LINE
8
BLACK
6
CONTINUOUS
10
104.4034149999999954
20
-97.8440849999999926
11
105.4640849999999972
21
-97.8440849999999926
0
LINE
8
BLACK
6
CONTINUOUS
10
118.164085
20
-81.3340850000000017
11
118.164085
21
-80.273415
0
LINE
8
BLACK
6
CONTINUOUS
10
118.164085
20
-80.273415
11
117.1034149999999983
21
-80.273415
0
LINE
8
BLACK
6
CONTINUOUS
10
117.1034149999999983
20
-80.273415
11
117.1034149999999983
21
-81.3340850000000017
0
LINE
8
BLACK
6
CONTINUOUS
10
117.1034149999999983
20
-81.3340850000000017
11
118.164085
21
-81.3340850000000017
0
LINE
8
BLACK
6
CONTINUOUS
10
118.2628349999999955
20
-100.3840849999999989
11
118.2628349999999955
21
-99.3234149999999971
0
LINE
8
BLACK
6
CONTINUOUS
10
118.2628349999999955
20
-99.3234149999999971
11
117.2021649999999937
21
-99.3234149999999971
0
LINE
8
BLACK
6
CONTINUOUS
10
117.2021649999999937
20
-99.3234149999999971
11
117.2021649999999937
21
-100.3840849999999989
0
LINE
8
BLACK
6
CONTINUOUS
10
117.2021649999999937
20
-100.3840849999999989
11
118.2628349999999955
21
-100.3840849999999989
0
LINE
8
BLACK
6
CONTINUOUS
10
124.5140849999999944
20
-78.7940849999999955
11
124.5140849999999944
21
-77.7334149999999937
0
LINE
8
BLACK
6
CONTINUOUS
10
124.5140849999999944
20
-77.7334149999999937
11
123.4534149999999926
21
-77.7334149999999937
0
LINE
8
BLACK
6
CONTINUOUS
10
123.4534149999999926
20
-77.7334149999999937
11
123.4534149999999926
21
-78.7940849999999955
0
LINE
8
BLACK
6
CONTINUOUS
10
123.4534149999999926
20
-78.7940849999999955
11
124.5140849999999944
21
-78.7940849999999955
0
LINE
8
BLACK
6
CONTINUOUS
10
124.6128349999999898
20
-97.8440849999999926
11
124.6128349999999898
21
-96.7834149999999909
0
LINE
8
BLACK
6
CONTINUOUS
10
124.6128349999999898
20
-96.7834149999999909
11
123.552164999999988
21
-96.7834149999999909
0
LINE
8
BLACK
6
CONTINUOUS
10
123.552164999999988
20
-96.7834149999999909
11
123.552164999999988
21
-97.8440849999999926
0
LINE
8
BLACK
6
CONTINUOUS
10
123.552164999999988
20
-97.8440849999999926
11
124.6128349999999898
21
-97.8440849999999926
0
LINE
8
BLACK
6
CONTINUOUS
10
137.214084999999983
20
-100.3840849999999989
11
137.214084999999983
21
-99.3234149999999971
0
LINE
8
BLACK
6
CONTINUOUS
10
137.214084999999983
20
-99.3234149999999971
11
136.1534149999999954
21
-99.3234149999999971
0
LINE
8
BLACK
6
CONTINUOUS
10
136.1534149999999954
20
-99.3234149999999971
11
136.1534149999999954
21
-100.3840849999999989
0
LINE
8
BLACK
6
CONTINUOUS
10
136.1534149999999954
20
-100.3840849999999989
11
137.214084999999983
21
-100.3840849999999989
0
LINE
8
BLACK
6
CONTINUOUS
10
143.5640850000000057
20
-97.8440849999999926
11
143.5640850000000057
21
-96.7834149999999909
0
LINE
8
BLACK
6
CONTINUOUS
10
143.5640850000000057
20
-96.7834149999999909
11
142.5034149999999897
21
-96.7834149999999909
0
LINE
8
BLACK
6
CONTINUOUS
10
142.5034149999999897
20
-96.7834149999999909
11
142.5034149999999897
21
-97.8440849999999926
0
LINE
8
BLACK
6
CONTINUOUS
10
142.5034149999999897
20
-97.8440849999999926
11
143.5640850000000057
21
-97.8440849999999926
0
LINE
8
BLACK
6
CONTINUOUS
10
151.5015850000000057
20
-126.7365849999999909
11
151.5015850000000057
21
-125.6759149999999892
0
LINE
8
BLACK
6
CONTINUOUS
10
151.5015850000000057
20
-125.6759149999999892
11
150.4409149999999897
21
-125.6759149999999892
0
LINE
8
BLACK
6
CONTINUOUS
10
150.4409149999999897
20
-125.6759149999999892
11
150.4409149999999897
21
-126.7365849999999909
0
LINE
8
BLACK
6
CONTINUOUS
10
150.4409149999999897
20
-126.7365849999999909
11
151.5015850000000057
21
-126.7365849999999909
0
LINE
8
BLACK
6
CONTINUOUS
10
157.851585
20
-124.1965849999999989
11
157.851585
21
-123.1359149999999971
0
LINE
8
BLACK
6
CONTINUOUS
10
157.851585
20
-123.1359149999999971
11
156.790914999999984
21
-123.1359149999999971
0
LINE
8
BLACK
6
CONTINUOUS
10
156.790914999999984
20
-123.1359149999999971
11
156.790914999999984
21
-124.1965849999999989
0
LINE
8
BLACK
6
CONTINUOUS
10
156.790914999999984
20
-124.1965849999999989
11
157.851585
21
-124.1965849999999989
0
LINE
8
BLACK
6
CONTINUOUS
10
170.5515849999999887
20
-126.7365849999999909
11
170.5515849999999887
21
-125.6759149999999892
0
LINE
8
BLACK
6
CONTINUOUS
10
170.5515849999999887
20
-125.6759149999999892
11
169.4909150000000011
21
-125.6759149999999892
0
LINE
8
BLACK
6
CONTINUOUS
10
169.4909150000000011
20
-125.6759149999999892
11
169.4909150000000011
21
-126.7365849999999909
0
LINE
8
BLACK
6
CONTINUOUS
10
169.4909150000000011
20
-126.7365849999999909
11
170.5515849999999887
21
-126.7365849999999909
0
LINE
8
BLACK
6
CONTINUOUS
10
176.901584999999983
20
-124.1965849999999989
11
176.901584999999983
21
-123.1359149999999971
0
LINE
8
BLACK
6
CONTINUOUS
10
176.901584999999983
20
-123.1359149999999971
11
175.8409149999999954
21
-123.1359149999999971
0
LINE
8
BLACK
6
CONTINUOUS
10
175.8409149999999954
20
-123.1359149999999971
11
175.8409149999999954
21
-124.1965849999999989
0
LINE
8
BLACK
6
CONTINUOUS
10
175.8409149999999954
20
-124.1965849999999989
11
176.901584999999983
21
-124.1965849999999989
0
LINE
8
BLACK
6
CONTINUOUS
10
192.3003349999999898
20
-100.3840849999999989
11
192.3003349999999898
21
-99.3234149999999971
0
LINE
8
BLACK
6
CONTINUOUS
10
192.3003349999999898
20
-99.3234149999999971
11
191.2396650000000022
21
-99.3234149999999971
0
LINE
8
BLACK
6
CONTINUOUS
10
191.2396650000000022
20
-99.3234149999999971
11
191.2396650000000022
21
-100.3840849999999989
0
LINE
8
BLACK
6
CONTINUOUS
10
191.2396650000000022
20
-100.3840849999999989
11
192.3003349999999898
21
-100.3840849999999989
0
LINE
8
BLACK
6
CONTINUOUS
10
198.6503349999999841
20
-97.8440849999999926
11
198.6503349999999841
21
-96.7834149999999909
0
LINE
8
BLACK
6
CONTINUOUS
10
198.6503349999999841
20
-96.7834149999999909
11
197.5896649999999966
21
-96.7834149999999909
0
LINE
8
BLACK
6
CONTINUOUS
10
197.5896649999999966
20
-96.7834149999999909
11
197.5896649999999966
21
-97.8440849999999926
0
LINE
8
BLACK
6
CONTINUOUS
10
197.5896649999999966
20
-97.8440849999999926
11
198.6503349999999841
21
-97.8440849999999926
0
LINE
8
BLACK
6
CONTINUOUS
10
201.8253349999999955
20
-81.3340850000000017
11
201.8253349999999955
21
-80.273415
0
LINE
8
BLACK
6
CONTINUOUS
10
201.8253349999999955
20
-80.273415
11
200.7646649999999795
21
-80.273415
0
LINE
8
BLACK
6
CONTINUOUS
10
200.7646649999999795
20
-80.273415
11
200.7646649999999795
21
-81.3340850000000017
0
LINE
8
BLACK
6
CONTINUOUS
10
200.7646649999999795
20
-81.3340850000000017
11
201.8253349999999955
21
-81.3340850000000017
0
LINE
8
BLACK
6
CONTINUOUS
10
208.1753349999999898
20
-78.7940849999999955
11
208.1753349999999898
21
-77.7334149999999937
0
LINE
8
BLACK
6
CONTINUOUS
10
208.1753349999999898
20
-77.7334149999999937
11
207.1146650000000022
21
-77.7334149999999937
0
LINE
8
BLACK
6
CONTINUOUS
10
207.1146650000000022
20
-77.7334149999999937
11
207.1146650000000022
21
-78.7940849999999955
0
LINE
8
BLACK
6
CONTINUOUS
10
207.1146650000000022
20
-78.7940849999999955
11
208.1753349999999898
21
-78.7940849999999955
0
LINE
8
BLACK
6
CONTINUOUS
10
211.3503350000000012
20
-100.3840849999999989
11
211.3503350000000012
21
-99.3234149999999971
0
LINE
8
BLACK
6
CONTINUOUS
10
211.3503350000000012
20
-99.3234149999999971
11
210.2896649999999852
21
-99.3234149999999971
0
LINE
8
BLACK
6
CONTINUOUS
10
210.2896649999999852
20
-99.3234149999999971
11
210.2896649999999852
21
-100.3840849999999989
0
LINE
8
BLACK
6
CONTINUOUS
10
210.2896649999999852
20
-100.3840849999999989
11
211.3503350000000012
21
-100.3840849999999989
0
LINE
8
BLACK
6
CONTINUOUS
10
217.7003349999999955
20
-97.8440849999999926
11
217.7003349999999955
21
-96.7834149999999909
0
LINE
8
BLACK
6
CONTINUOUS
10
217.7003349999999955
20
-96.7834149999999909
11
216.6396649999999795
21
-96.7834149999999909
0
LINE
8
BLACK
6
CONTINUOUS
10
216.6396649999999795
20
-96.7834149999999909
11
216.6396649999999795
21
-97.8440849999999926
0
LINE
8
BLACK
6
CONTINUOUS
10
216.6396649999999795
20
-97.8440849999999926
11
217.7003349999999955
21
-97.8440849999999926
0
LINE
8
BLACK
6
CONTINUOUS
10
90.6890179999999901
20
-146.0148379999999975
11
90.6890179999999901
21
-144.0148379999999975
0
LINE
8
BLACK
6
CONTINUOUS
10
90.6890179999999901
20
-144.0148379999999975
11
91.1652079999999927
21
-144.0148379999999975
0
LINE
8
BLACK
6
CONTINUOUS
10
91.1652079999999927
20
-144.0148379999999975
11
91.4509229999999889
21
-144.1100759999999923
0
LINE
8
BLACK
6
CONTINUOUS
10
91.4509229999999889
20
-144.1100759999999923
11
91.6413989999999927
21
-144.3005519999999819
0
LINE
8
BLACK
6
CONTINUOUS
10
91.6413989999999927
20
-144.3005519999999819
11
91.7366370000000018
21
-144.491028
0
LINE
8
BLACK
6
CONTINUOUS
10
91.7366370000000018
20
-144.491028
11
91.8318749999999966
21
-144.8719799999999793
0
LINE
8
BLACK
6
CONTINUOUS
10
91.8318749999999966
20
-144.8719799999999793
11
91.8318749999999966
21
-145.1576949999999897
0
LINE
8
BLACK
6
CONTINUOUS
10
91.8318749999999966
20
-145.1576949999999897
11
91.7366370000000018
21
-145.5386469999999974
0
LINE
8
BLACK
6
CONTINUOUS
10
91.7366370000000018
20
-145.5386469999999974
11
91.6413989999999927
21
-145.7291229999999871
0
LINE
8
BLACK
6
CONTINUOUS
10
91.6413989999999927
20
-145.7291229999999871
11
91.4509229999999889
21
-145.9196000000000026
0
LINE
8
BLACK
6
CONTINUOUS
10
91.4509229999999889
20
-145.9196000000000026
11
91.1652079999999927
21
-146.0148379999999975
0
LINE
8
BLACK
6
CONTINUOUS
10
91.1652079999999927
20
-146.0148379999999975
11
90.6890179999999901
21
-146.0148379999999975
0
LINE
8
BLACK
6
CONTINUOUS
10
92.6890179999999901
20
-146.0148379999999975
11
92.6890179999999901
21
-144.6815039999999897
0
LINE
8
BLACK
6
CONTINUOUS
10
92.6890179999999901
20
-145.0624569999999949
11
92.7842559999999992
21
-144.8719799999999793
0
LINE
8
BLACK
6
CONTINUOUS
10
92.7842559999999992
20
-144.8719799999999793
11
92.879493999999994
21
-144.7767419999999845
0
LINE
8
BLACK
6
CONTINUOUS
10
92.879493999999994
20
-144.7767419999999845
11
93.0699699999999979
21
-144.6815039999999897
0
LINE
8
BLACK
6
CONTINUOUS
10
93.0699699999999979
20
-144.6815039999999897
11
93.2604469999999992
21
-144.6815039999999897
0
LINE
8
BLACK
6
CONTINUOUS
10
93.9271129999999914
20
-146.0148379999999975
11
93.9271129999999914
21
-144.6815039999999897
0
LINE
8
BLACK
6
CONTINUOUS
10
93.9271129999999914
20
-144.0148379999999975
11
93.8318749999999966
21
-144.1100759999999923
0
LINE
8
BLACK
6
CONTINUOUS
10
93.8318749999999966
20
-144.1100759999999923
11
93.9271129999999914
21
-144.2053139999999871
0
LINE
8
BLACK
6
CONTINUOUS
10
93.9271129999999914
20
-144.2053139999999871
11
94.0223510000000005
21
-144.1100759999999923
0
LINE
8
BLACK
6
CONTINUOUS
10
94.0223510000000005
20
-144.1100759999999923
11
93.9271129999999914
21
-144.0148379999999975
0
LINE
8
BLACK
6
CONTINUOUS
10
93.9271129999999914
20
-144.0148379999999975
11
93.9271129999999914
21
-144.2053139999999871
0
LINE
8
BLACK
6
CONTINUOUS
10
95.1652079999999927
20
-146.0148379999999975
11
94.9747319999999888
21
-145.9196000000000026
0
LINE
8
BLACK
6
CONTINUOUS
10
94.9747319999999888
20
-145.9196000000000026
11
94.879493999999994
21
-145.7291229999999871
0
LINE
8
BLACK
6
CONTINUOUS
10
94.879493999999994
20
-145.7291229999999871
11
94.879493999999994
21
-144.0148379999999975
0
LINE
8
BLACK
6
CONTINUOUS
10
96.2128269999999901
20
-146.0148379999999975
11
96.0223510000000005
21
-145.9196000000000026
0
LINE
8
BLACK
6
CONTINUOUS
10
96.0223510000000005
20
-145.9196000000000026
11
95.9271129999999914
21
-145.7291229999999871
0
LINE
8
BLACK
6
CONTINUOUS
10
95.9271129999999914
20
-145.7291229999999871
11
95.9271129999999914
21
-144.0148379999999975
0
LINE
8
BLACK
6
CONTINUOUS
10
98.4985420000000005
20
-146.0148379999999975
11
98.4985420000000005
21
-144.0148379999999975
0
LINE
8
BLACK
6
CONTINUOUS
10
98.4985420000000005
20
-144.0148379999999975
11
99.1652089999999902
21
-145.4434090000000026
0
LINE
8
BLACK
6
CONTINUOUS
10
99.1652089999999902
20
-145.4434090000000026
11
99.8318749999999966
21
-144.0148379999999975
0
LINE
8
BLACK
6
CONTINUOUS
10
99.8318749999999966
20
-144.0148379999999975
11
99.8318749999999966
21
-146.0148379999999975
0
LINE
8
BLACK
6
CONTINUOUS
10
101.6413989999999927
20
-146.0148379999999975
11
101.6413989999999927
21
-144.9672190000000001
0
LINE
8
BLACK
6
CONTINUOUS
10
101.6413989999999927
20
-144.9672190000000001
11
101.5461609999999979
21
-144.7767419999999845
0
LINE
8
BLACK
6
CONTINUOUS
10
101.5461609999999979
20
-144.7767419999999845
11
101.355684999999994
21
-144.6815039999999897
0
LINE
8
BLACK
6
CONTINUOUS
10
101.355684999999994
20
-144.6815039999999897
11
100.9747319999999888
21
-144.6815039999999897
0
LINE
8
BLACK
6
CONTINUOUS
10
100.9747319999999888
20
-144.6815039999999897
11
100.7842559999999992
21
-144.7767419999999845
0
LINE
8
BLACK
6
CONTINUOUS
10
101.6413989999999927
20
-145.9196000000000026
11
101.4509229999999889
21
-146.0148379999999975
0
LINE
8
BLACK
6
CONTINUOUS
10
101.4509229999999889
20
-146.0148379999999975
11
100.9747319999999888
21
-146.0148379999999975
0
LINE
8
BLACK
6
CONTINUOUS
10
100.9747319999999888
20
-146.0148379999999975
11
100.7842559999999992
21
-145.9196000000000026
0
LINE
8
BLACK
6
CONTINUOUS
10
100.7842559999999992
20
-145.9196000000000026
11
100.6890179999999901
21
-145.7291229999999871
0
LINE
8
BLACK
6
CONTINUOUS
10
100.6890179999999901
20
-145.7291229999999871
11
100.6890179999999901
21
-145.5386469999999974
0
LINE
8
BLACK
6
CONTINUOUS
10
100.6890179999999901
20
-145.5386469999999974
11
100.7842559999999992
21
-145.3481709999999794
0
LINE
8
BLACK
6
CONTINUOUS
10
100.7842559999999992
20
-145.3481709999999794
11
100.9747319999999888
21
-145.2529329999999845
0
LINE
8
BLACK
6
CONTINUOUS
10
100.9747319999999888
20
-145.2529329999999845
11
101.4509229999999889
21
-145.2529329999999845
0
LINE
8
BLACK
6
CONTINUOUS
10
101.4509229999999889
20
-145.2529329999999845
11
101.6413989999999927
21
-145.1576949999999897
0
LINE
8
BLACK
6
CONTINUOUS
10
102.5937799999999953
20
-144.6815039999999897
11
102.5937799999999953
21
-146.6815039999999897
0
LINE
8
BLACK
6
CONTINUOUS
10
102.5937799999999953
20
-144.7767419999999845
11
102.7842559999999992
21
-144.6815039999999897
0
LINE
8
BLACK
6
CONTINUOUS
10
102.7842559999999992
20
-144.6815039999999897
11
103.1652089999999902
21
-144.6815039999999897
0
LINE
8
BLACK
6
CONTINUOUS
10
103.1652089999999902
20
-144.6815039999999897
11
103.355684999999994
21
-144.7767419999999845
0
LINE
8
BLACK
6
CONTINUOUS
10
103.355684999999994
20
-144.7767419999999845
11
103.4509229999999889
21
-144.8719799999999793
0
LINE
8
BLACK
6
CONTINUOUS
10
103.4509229999999889
20
-144.8719799999999793
11
103.5461609999999979
21
-145.0624569999999949
0
LINE
8
BLACK
6
CONTINUOUS
10
103.5461609999999979
20
-145.0624569999999949
11
103.5461609999999979
21
-145.6338849999999923
0
LINE
8
BLACK
6
CONTINUOUS
10
103.5461609999999979
20
-145.6338849999999923
11
103.4509229999999889
21
-145.8243609999999819
0
LINE
8
BLACK
6
CONTINUOUS
10
103.4509229999999889
20
-145.8243609999999819
11
103.355684999999994
21
-145.9196000000000026
0
LINE
8
BLACK
6
CONTINUOUS
10
103.355684999999994
20
-145.9196000000000026
11
103.1652089999999902
21
-146.0148379999999975
0
LINE
8
BLACK
6
CONTINUOUS
10
103.1652089999999902
20
-146.0148379999999975
11
102.7842559999999992
21
-146.0148379999999975
0
LINE
8
BLACK
6
CONTINUOUS
10
102.7842559999999992
20
-146.0148379999999975
11
102.5937799999999953
21
-145.9196000000000026
0
LINE
8
BLACK
6
CONTINUOUS
10
104.4033039999999914
20
-145.8243609999999819
11
104.4985420000000005
21
-145.9196000000000026
0
LINE
8
BLACK
6
CONTINUOUS
10
104.4985420000000005
20
-145.9196000000000026
11
104.4033039999999914
21
-146.0148379999999975
0
LINE
8
BLACK
6
CONTINUOUS
10
104.4033039999999914
20
-146.0148379999999975
11
104.3080659999999966
21
-145.9196000000000026
0
LINE
8
BLACK
6
CONTINUOUS
10
104.3080659999999966
20
-145.9196000000000026
11
104.4033039999999914
21
-145.8243609999999819
0
LINE
8
BLACK
6
CONTINUOUS
10
104.4033039999999914
20
-145.8243609999999819
11
104.4033039999999914
21
-146.0148379999999975
0
LINE
8
BLACK
6
CONTINUOUS
10
104.4033039999999914
20
-144.7767419999999845
11
104.4985420000000005
21
-144.8719799999999793
0
LINE
8
BLACK
6
CONTINUOUS
10
104.4985420000000005
20
-144.8719799999999793
11
104.4033039999999914
21
-144.9672190000000001
0
LINE
8
BLACK
6
CONTINUOUS
10
104.4033039999999914
20
-144.9672190000000001
11
104.3080659999999966
21
-144.8719799999999793
0
LINE
8
BLACK
6
CONTINUOUS
10
104.3080659999999966
20
-144.8719799999999793
11
104.4033039999999914
21
-144.7767419999999845
0
LINE
8
BLACK
6
CONTINUOUS
10
104.4033039999999914
20
-144.7767419999999845
11
104.4033039999999914
21
-144.9672190000000001
0
LINE
8
BLACK
6
CONTINUOUS
10
87.3812499999999943
20
-148.9499999999999886
11
88.0812499999999972
21
-149.6500000000000057
0
LINE
8
BLACK
6
CONTINUOUS
10
88.0812499999999972
20
-148.9499999999999886
11
87.3812499999999943
21
-149.6500000000000057
0
LINE
8
BLACK
6
CONTINUOUS
10
91.0699699999999979
20
-148.2148379999999861
11
91.2604469999999992
21
-148.2148379999999861
0
LINE
8
BLACK
6
CONTINUOUS
10
91.2604469999999992
20
-148.2148379999999861
11
91.4509229999999889
21
-148.3100759999999809
0
LINE
8
BLACK
6
CONTINUOUS
10
91.4509229999999889
20
-148.3100759999999809
11
91.5461609999999979
21
-148.4053140000000042
0
LINE
8
BLACK
6
CONTINUOUS
10
91.5461609999999979
20
-148.4053140000000042
11
91.6413989999999927
21
-148.5957899999999938
0
LINE
8
BLACK
6
CONTINUOUS
10
91.6413989999999927
20
-148.5957899999999938
11
91.7366370000000018
21
-148.9767420000000016
0
LINE
8
BLACK
6
CONTINUOUS
10
91.7366370000000018
20
-148.9767420000000016
11
91.7366370000000018
21
-149.4529330000000016
0
LINE
8
BLACK
6
CONTINUOUS
10
91.7366370000000018
20
-149.4529330000000016
11
91.6413989999999927
21
-149.8338849999999809
0
LINE
8
BLACK
6
CONTINUOUS
10
91.6413989999999927
20
-149.8338849999999809
11
91.5461609999999979
21
-150.024360999999999
0
LINE
8
BLACK
6
CONTINUOUS
10
91.5461609999999979
20
-150.024360999999999
11
91.4509229999999889
21
-150.1195999999999913
0
LINE
8
BLACK
6
CONTINUOUS
10
91.4509229999999889
20
-150.1195999999999913
11
91.2604469999999992
21
-150.2148379999999861
0
LINE
8
BLACK
6
CONTINUOUS
10
91.2604469999999992
20
-150.2148379999999861
11
91.0699699999999979
21
-150.2148379999999861
0
LINE
8
BLACK
6
CONTINUOUS
10
91.0699699999999979
20
-150.2148379999999861
11
90.879493999999994
21
-150.1195999999999913
0
LINE
8
BLACK
6
CONTINUOUS
10
90.879493999999994
20
-150.1195999999999913
11
90.7842559999999992
21
-150.024360999999999
0
LINE
8
BLACK
6
CONTINUOUS
10
90.7842559999999992
20
-150.024360999999999
11
90.6890179999999901
21
-149.8338849999999809
0
LINE
8
BLACK
6
CONTINUOUS
10
90.6890179999999901
20
-149.8338849999999809
11
90.5937799999999953
21
-149.4529330000000016
0
LINE
8
BLACK
6
CONTINUOUS
10
90.5937799999999953
20
-149.4529330000000016
11
90.5937799999999953
21
-148.9767420000000016
0
LINE
8
BLACK
6
CONTINUOUS
10
90.5937799999999953
20
-148.9767420000000016
11
90.6890179999999901
21
-148.5957899999999938
0
LINE
8
BLACK
6
CONTINUOUS
10
90.6890179999999901
20
-148.5957899999999938
11
90.7842559999999992
21
-148.4053140000000042
0
LINE
8
BLACK
6
CONTINUOUS
10
90.7842559999999992
20
-148.4053140000000042
11
90.879493999999994
21
-148.3100759999999809
0
LINE
8
BLACK
6
CONTINUOUS
10
90.879493999999994
20
-148.3100759999999809
11
91.0699699999999979
21
-148.2148379999999861
0
LINE
8
BLACK
6
CONTINUOUS
10
92.5937799999999953
20
-150.024360999999999
11
92.6890179999999901
21
-150.1195999999999913
0
LINE
8
BLACK
6
CONTINUOUS
10
92.6890179999999901
20
-150.1195999999999913
11
92.5937799999999953
21
-150.2148379999999861
0
LINE
8
BLACK
6
CONTINUOUS
10
92.5937799999999953
20
-150.2148379999999861
11
92.4985420000000005
21
-150.1195999999999913
0
LINE
8
BLACK
6
CONTINUOUS
10
92.4985420000000005
20
-150.1195999999999913
11
92.5937799999999953
21
-150.024360999999999
0
LINE
8
BLACK
6
CONTINUOUS
10
92.5937799999999953
20
-150.024360999999999
11
92.5937799999999953
21
-150.2148379999999861
0
LINE
8
BLACK
6
CONTINUOUS
10
93.355684999999994
20
-148.2148379999999861
11
94.6890179999999901
21
-148.2148379999999861
0
LINE
8
BLACK
6
CONTINUOUS
10
94.6890179999999901
20
-148.2148379999999861
11
93.8318749999999966
21
-150.2148379999999861
0
LINE
8
BLACK
6
CONTINUOUS
10
95.8318749999999966
20
-148.2148379999999861
11
96.0223519999999979
21
-148.2148379999999861
0
LINE
8
BLACK
6
CONTINUOUS
10
96.0223519999999979
20
-148.2148379999999861
11
96.2128280000000018
21
-148.3100759999999809
0
LINE
8
BLACK
6
CONTINUOUS
10
96.2128280000000018
20
-148.3100759999999809
11
96.3080659999999966
21
-148.4053140000000042
0
LINE
8
BLACK
6
CONTINUOUS
10
96.3080659999999966
20
-148.4053140000000042
11
96.4033039999999914
21
-148.5957899999999938
0
LINE
8
BLACK
6
CONTINUOUS
10
96.4033039999999914
20
-148.5957899999999938
11
96.4985420000000005
21
-148.9767420000000016
0
LINE
8
BLACK
6
CONTINUOUS
10
96.4985420000000005
20
-148.9767420000000016
11
96.4985420000000005
21
-149.4529330000000016
0
LINE
8
BLACK
6
CONTINUOUS
10
96.4985420000000005
20
-149.4529330000000016
11
96.4033039999999914
21
-149.8338849999999809
0
LINE
8
BLACK
6
CONTINUOUS
10
96.4033039999999914
20
-149.8338849999999809
11
96.3080659999999966
21
-150.024360999999999
0
LINE
8
BLACK
6
CONTINUOUS
10
96.3080659999999966
20
-150.024360999999999
11
96.2128280000000018
21
-150.1195999999999913
0
LINE
8
BLACK
6
CONTINUOUS
10
96.2128280000000018
20
-150.1195999999999913
11
96.0223519999999979
21
-150.2148379999999861
0
LINE
8
BLACK
6
CONTINUOUS
10
96.0223519999999979
20
-150.2148379999999861
11
95.8318749999999966
21
-150.2148379999999861
0
LINE
8
BLACK
6
CONTINUOUS
10
95.8318749999999966
20
-150.2148379999999861
11
95.6413989999999927
21
-150.1195999999999913
0
LINE
8
BLACK
6
CONTINUOUS
10
95.6413989999999927
20
-150.1195999999999913
11
95.5461609999999979
21
-150.024360999999999
0
LINE
8
BLACK
6
CONTINUOUS
10
95.5461609999999979
20
-150.024360999999999
11
95.4509229999999889
21
-149.8338849999999809
0
LINE
8
BLACK
6
CONTINUOUS
10
95.4509229999999889
20
-149.8338849999999809
11
95.355684999999994
21
-149.4529330000000016
0
LINE
8
BLACK
6
CONTINUOUS
10
95.355684999999994
20
-149.4529330000000016
11
95.355684999999994
21
-148.9767420000000016
0
LINE
8
BLACK
6
CONTINUOUS
10
95.355684999999994
20
-148.9767420000000016
11
95.4509229999999889
21
-148.5957899999999938
0
LINE
8
BLACK
6
CONTINUOUS
10
95.4509229999999889
20
-148.5957899999999938
11
95.5461609999999979
21
-148.4053140000000042
0
LINE
8
BLACK
6
CONTINUOUS
10
95.5461609999999979
20
-148.4053140000000042
11
95.6413989999999927
21
-148.3100759999999809
0
LINE
8
BLACK
6
CONTINUOUS
10
95.6413989999999927
20
-148.3100759999999809
11
95.8318749999999966
21
-148.2148379999999861
0
LINE
8
BLACK
6
CONTINUOUS
10
97.7366370000000018
20
-148.2148379999999861
11
97.9271139999999889
21
-148.2148379999999861
0
LINE
8
BLACK
6
CONTINUOUS
10
97.9271139999999889
20
-148.2148379999999861
11
98.1175899999999928
21
-148.3100759999999809
0
LINE
8
BLACK
6
CONTINUOUS
10
98.1175899999999928
20
-148.3100759999999809
11
98.2128280000000018
21
-148.4053140000000042
0
LINE
8
BLACK
6
CONTINUOUS
10
98.2128280000000018
20
-148.4053140000000042
11
98.3080659999999966
21
-148.5957899999999938
0
LINE
8
BLACK
6
CONTINUOUS
10
98.3080659999999966
20
-148.5957899999999938
11
98.4033039999999914
21
-148.9767420000000016
0
LINE
8
BLACK
6
CONTINUOUS
10
98.4033039999999914
20
-148.9767420000000016
11
98.4033039999999914
21
-149.4529330000000016
0
LINE
8
BLACK
6
CONTINUOUS
10
98.4033039999999914
20
-149.4529330000000016
11
98.3080659999999966
21
-149.8338849999999809
0
LINE
8
BLACK
6
CONTINUOUS
10
98.3080659999999966
20
-149.8338849999999809
11
98.2128280000000018
21
-150.024360999999999
0
LINE
8
BLACK
6
CONTINUOUS
10
98.2128280000000018
20
-150.024360999999999
11
98.1175899999999928
21
-150.1195999999999913
0
LINE
8
BLACK
6
CONTINUOUS
10
98.1175899999999928
20
-150.1195999999999913
11
97.9271139999999889
21
-150.2148379999999861
0
LINE
8
BLACK
6
CONTINUOUS
10
97.9271139999999889
20
-150.2148379999999861
11
97.7366370000000018
21
-150.2148379999999861
0
LINE
8
BLACK
6
CONTINUOUS
10
97.7366370000000018
20
-150.2148379999999861
11
97.5461609999999979
21
-150.1195999999999913
0
LINE
8
BLACK
6
CONTINUOUS
10
97.5461609999999979
20
-150.1195999999999913
11
97.4509229999999889
21
-150.024360999999999
0
LINE
8
BLACK
6
CONTINUOUS
10
97.4509229999999889
20
-150.024360999999999
11
97.355684999999994
21
-149.8338849999999809
0
LINE
8
BLACK
6
CONTINUOUS
10
97.355684999999994
20
-149.8338849999999809
11
97.2604469999999992
21
-149.4529330000000016
0
LINE
8
BLACK
6
CONTINUOUS
10
97.2604469999999992
20
-149.4529330000000016
11
97.2604469999999992
21
-148.9767420000000016
0
LINE
8
BLACK
6
CONTINUOUS
10
97.2604469999999992
20
-148.9767420000000016
11
97.355684999999994
21
-148.5957899999999938
0
LINE
8
BLACK
6
CONTINUOUS
10
97.355684999999994
20
-148.5957899999999938
11
97.4509229999999889
21
-148.4053140000000042
0
LINE
8
BLACK
6
CONTINUOUS
10
97.4509229999999889
20
-148.4053140000000042
11
97.5461609999999979
21
-148.3100759999999809
0
LINE
8
BLACK
6
CONTINUOUS
10
97.5461609999999979
20
-148.3100759999999809
11
97.7366370000000018
21
-148.2148379999999861
0
LINE
8
BLACK
6
CONTINUOUS
10
99.2604469999999992
20
-150.2148379999999861
11
99.2604469999999992
21
-148.8815040000000067
0
LINE
8
BLACK
6
CONTINUOUS
10
99.2604469999999992
20
-149.0719799999999964
11
99.355684999999994
21
-148.9767420000000016
0
LINE
8
BLACK
6
CONTINUOUS
10
99.355684999999994
20
-148.9767420000000016
11
99.5461609999999979
21
-148.8815040000000067
0
LINE
8
BLACK
6
CONTINUOUS
10
99.5461609999999979
20
-148.8815040000000067
11
99.8318759999999941
21
-148.8815040000000067
0
LINE
8
BLACK
6
CONTINUOUS
10
99.8318759999999941
20
-148.8815040000000067
11
100.0223519999999979
21
-148.9767420000000016
0
LINE
8
BLACK
6
CONTINUOUS
10
100.0223519999999979
20
-148.9767420000000016
11
100.1175899999999928
21
-149.1672189999999887
0
LINE
8
BLACK
6
CONTINUOUS
10
100.1175899999999928
20
-149.1672189999999887
11
100.1175899999999928
21
-150.2148379999999861
0
LINE
8
BLACK
6
CONTINUOUS
10
100.1175899999999928
20
-149.1672189999999887
11
100.2128280000000018
21
-148.9767420000000016
0
LINE
8
BLACK
6
CONTINUOUS
10
100.2128280000000018
20
-148.9767420000000016
11
100.4033039999999914
21
-148.8815040000000067
0
LINE
8
BLACK
6
CONTINUOUS
10
100.4033039999999914
20
-148.8815040000000067
11
100.6890179999999901
21
-148.8815040000000067
0
LINE
8
BLACK
6
CONTINUOUS
10
100.6890179999999901
20
-148.8815040000000067
11
100.8794949999999915
21
-148.9767420000000016
0
LINE
8
BLACK
6
CONTINUOUS
10
100.8794949999999915
20
-148.9767420000000016
11
100.9747330000000005
21
-149.1672189999999887
0
LINE
8
BLACK
6
CONTINUOUS
10
100.9747330000000005
20
-149.1672189999999887
11
100.9747330000000005
21
-150.2148379999999861
0
LINE
8
BLACK
6
CONTINUOUS
10
101.9271139999999889
20
-150.2148379999999861
11
101.9271139999999889
21
-148.8815040000000067
0
LINE
8
BLACK
6
CONTINUOUS
10
101.9271139999999889
20
-149.0719799999999964
11
102.0223519999999979
21
-148.9767420000000016
0
LINE
8
BLACK
6
CONTINUOUS
10
102.0223519999999979
20
-148.9767420000000016
11
102.2128280000000018
21
-148.8815040000000067
0
LINE
8
BLACK
6
CONTINUOUS
10
102.2128280000000018
20
-148.8815040000000067
11
102.498542999999998
21
-148.8815040000000067
0
LINE
8
BLACK
6
CONTINUOUS
10
102.498542999999998
20
-148.8815040000000067
11
102.6890190000000018
21
-148.9767420000000016
0
LINE
8
BLACK
6
CONTINUOUS
10
102.6890190000000018
20
-148.9767420000000016
11
102.7842569999999967
21
-149.1672189999999887
0
LINE
8
BLACK
6
CONTINUOUS
10
102.7842569999999967
20
-149.1672189999999887
11
102.7842569999999967
21
-150.2148379999999861
0
LINE
8
BLACK
6
CONTINUOUS
10
102.7842569999999967
20
-149.1672189999999887
11
102.8794949999999915
21
-148.9767420000000016
0
LINE
8
BLACK
6
CONTINUOUS
10
102.8794949999999915
20
-148.9767420000000016
11
103.0699709999999953
21
-148.8815040000000067
0
LINE
8
BLACK
6
CONTINUOUS
10
103.0699709999999953
20
-148.8815040000000067
11
103.355684999999994
21
-148.8815040000000067
0
LINE
8
BLACK
6
CONTINUOUS
10
103.355684999999994
20
-148.8815040000000067
11
103.5461619999999954
21
-148.9767420000000016
0
LINE
8
BLACK
6
CONTINUOUS
10
103.5461619999999954
20
-148.9767420000000016
11
103.6413999999999902
21
-149.1672189999999887
0
LINE
8
BLACK
6
CONTINUOUS
10
103.6413999999999902
20
-149.1672189999999887
11
103.6413999999999902
21
-150.2148379999999861
0
LINE
8
BLACK
6
CONTINUOUS
10
107.5461619999999954
20
-148.1195999999999913
11
105.8318769999999915
21
-150.6910279999999887
0
LINE
8
BLACK
6
CONTINUOUS
10
110.1175909999999902
20
-148.2148379999999861
11
110.3080679999999916
21
-148.2148379999999861
0
LINE
8
BLACK
6
CONTINUOUS
10
110.3080679999999916
20
-148.2148379999999861
11
110.4985439999999954
21
-148.3100759999999809
0
LINE
8
BLACK
6
CONTINUOUS
10
110.4985439999999954
20
-148.3100759999999809
11
110.5937819999999903
21
-148.4053140000000042
0
LINE
8
BLACK
6
CONTINUOUS
10
110.5937819999999903
20
-148.4053140000000042
11
110.6890199999999993
21
-148.5957899999999938
0
LINE
8
BLACK
6
CONTINUOUS
10
110.6890199999999993
20
-148.5957899999999938
11
110.7842579999999941
21
-148.9767420000000016
0
LINE
8
BLACK
6
CONTINUOUS
10
110.7842579999999941
20
-148.9767420000000016
11
110.7842579999999941
21
-149.4529330000000016
0
LINE
8
BLACK
6
CONTINUOUS
10
110.7842579999999941
20
-149.4529330000000016
11
110.6890199999999993
21
-149.8338849999999809
0
LINE
8
BLACK
6
CONTINUOUS
10
110.6890199999999993
20
-149.8338849999999809
11
110.5937819999999903
21
-150.024360999999999
0
LINE
8
BLACK
6
CONTINUOUS
10
110.5937819999999903
20
-150.024360999999999
11
110.4985439999999954
21
-150.1195999999999913
0
LINE
8
BLACK
6
CONTINUOUS
10
110.4985439999999954
20
-150.1195999999999913
11
110.3080679999999916
21
-150.2148379999999861
0
LINE
8
BLACK
6
CONTINUOUS
10
110.3080679999999916
20
-150.2148379999999861
11
110.1175909999999902
21
-150.2148379999999861
0
LINE
8
BLACK
6
CONTINUOUS
10
110.1175909999999902
20
-150.2148379999999861
11
109.9271150000000006
21
-150.1195999999999913
0
LINE
8
BLACK
6
CONTINUOUS
10
109.9271150000000006
20
-150.1195999999999913
11
109.8318769999999915
21
-150.024360999999999
0
LINE
8
BLACK
6
CONTINUOUS
10
109.8318769999999915
20
-150.024360999999999
11
109.7366389999999967
21
-149.8338849999999809
0
LINE
8
BLACK
6
CONTINUOUS
10
109.7366389999999967
20
-149.8338849999999809
11
109.6414010000000019
21
-149.4529330000000016
0
LINE
8
BLACK
6
CONTINUOUS
10
109.6414010000000019
20
-149.4529330000000016
11
109.6414010000000019
21
-148.9767420000000016
0
LINE
8
BLACK
6
CONTINUOUS
10
109.6414010000000019
20
-148.9767420000000016
11
109.7366389999999967
21
-148.5957899999999938
0
LINE
8
BLACK
6
CONTINUOUS
10
109.7366389999999967
20
-148.5957899999999938
11
109.8318769999999915
21
-148.4053140000000042
0
LINE
8
BLACK
6
CONTINUOUS
10
109.8318769999999915
20
-148.4053140000000042
11
109.9271150000000006
21
-148.3100759999999809
0
LINE
8
BLACK
6
CONTINUOUS
10
109.9271150000000006
20
-148.3100759999999809
11
110.1175909999999902
21
-148.2148379999999861
0
LINE
8
BLACK
6
CONTINUOUS
10
111.6414010000000019
20
-150.024360999999999
11
111.7366389999999967
21
-150.1195999999999913
0
LINE
8
BLACK
6
CONTINUOUS
10
111.7366389999999967
20
-150.1195999999999913
11
111.6414010000000019
21
-150.2148379999999861
0
LINE
8
BLACK
6
CONTINUOUS
10
111.6414010000000019
20
-150.2148379999999861
11
111.5461629999999928
21
-150.1195999999999913
0
LINE
8
BLACK
6
CONTINUOUS
10
111.5461629999999928
20
-150.1195999999999913
11
111.6414010000000019
21
-150.024360999999999
0
LINE
8
BLACK
6
CONTINUOUS
10
111.6414010000000019
20
-150.024360999999999
11
111.6414010000000019
21
-150.2148379999999861
0
LINE
8
BLACK
6
CONTINUOUS
10
112.974733999999998
20
-148.2148379999999861
11
113.1652109999999993
21
-148.2148379999999861
0
LINE
8
BLACK
6
CONTINUOUS
10
113.1652109999999993
20
-148.2148379999999861
11
113.355686999999989
21
-148.3100759999999809
0
LINE
8
BLACK
6
CONTINUOUS
10
113.355686999999989
20
-148.3100759999999809
11
113.450924999999998
21
-148.4053140000000042
0
LINE
8
BLACK
6
CONTINUOUS
10
113.450924999999998
20
-148.4053140000000042
11
113.5461629999999928
21
-148.5957899999999938
0
LINE
8
BLACK
6
CONTINUOUS
10
113.5461629999999928
20
-148.5957899999999938
11
113.6414010000000019
21
-148.9767420000000016
0
LINE
8
BLACK
6
CONTINUOUS
10
113.6414010000000019
20
-148.9767420000000016
11
113.6414010000000019
21
-149.4529330000000016
0
LINE
8
BLACK
6
CONTINUOUS
10
113.6414010000000019
20
-149.4529330000000016
11
113.5461629999999928
21
-149.8338849999999809
0
LINE
8
BLACK
6
CONTINUOUS
10
113.5461629999999928
20
-149.8338849999999809
11
113.450924999999998
21
-150.024360999999999
0
LINE
8
BLACK
6
CONTINUOUS
10
113.450924999999998
20
-150.024360999999999
11
113.355686999999989
21
-150.1195999999999913
0
LINE
8
BLACK
6
CONTINUOUS
10
113.355686999999989
20
-150.1195999999999913
11
113.1652109999999993
21
-150.2148379999999861
0
LINE
8
BLACK
6
CONTINUOUS
10
113.1652109999999993
20
-150.2148379999999861
11
112.974733999999998
21
-150.2148379999999861
0
LINE
8
BLACK
6
CONTINUOUS
10
112.974733999999998
20
-150.2148379999999861
11
112.7842579999999941
21
-150.1195999999999913
0
LINE
8
BLACK
6
CONTINUOUS
10
112.7842579999999941
20
-150.1195999999999913
11
112.6890199999999993
21
-150.024360999999999
0
LINE
8
BLACK
6
CONTINUOUS
10
112.6890199999999993
20
-150.024360999999999
11
112.5937819999999903
21
-149.8338849999999809
0
LINE
8
BLACK
6
CONTINUOUS
10
112.5937819999999903
20
-149.8338849999999809
11
112.4985439999999954
21
-149.4529330000000016
0
LINE
8
BLACK
6
CONTINUOUS
10
112.4985439999999954
20
-149.4529330000000016
11
112.4985439999999954
21
-148.9767420000000016
0
LINE
8
BLACK
6
CONTINUOUS
10
112.4985439999999954
20
-148.9767420000000016
11
112.5937819999999903
21
-148.5957899999999938
0
LINE
8
BLACK
6
CONTINUOUS
10
112.5937819999999903
20
-148.5957899999999938
11
112.6890199999999993
21
-148.4053140000000042
0
LINE
8
BLACK
6
CONTINUOUS
10
112.6890199999999993
20
-148.4053140000000042
11
112.7842579999999941
21
-148.3100759999999809
0
LINE
8
BLACK
6
CONTINUOUS
10
112.7842579999999941
20
-148.3100759999999809
11
112.974733999999998
21
-148.2148379999999861
0
LINE
8
BLACK
6
CONTINUOUS
10
114.4033060000000006
20
-148.4053140000000042
11
114.4985439999999954
21
-148.3100759999999809
0
LINE
8
BLACK
6
CONTINUOUS
10
114.4985439999999954
20
-148.3100759999999809
11
114.6890199999999993
21
-148.2148379999999861
0
LINE
8
BLACK
6
CONTINUOUS
10
114.6890199999999993
20
-148.2148379999999861
11
115.1652109999999993
21
-148.2148379999999861
0
LINE
8
BLACK
6
CONTINUOUS
10
115.1652109999999993
20
-148.2148379999999861
11
115.355686999999989
21
-148.3100759999999809
0
LINE
8
BLACK
6
CONTINUOUS
10
115.355686999999989
20
-148.3100759999999809
11
115.450924999999998
21
-148.4053140000000042
0
LINE
8
BLACK
6
CONTINUOUS
10
115.450924999999998
20
-148.4053140000000042
11
115.5461629999999928
21
-148.5957899999999938
0
LINE
8
BLACK
6
CONTINUOUS
10
115.5461629999999928
20
-148.5957899999999938
11
115.5461629999999928
21
-148.7862659999999835
0
LINE
8
BLACK
6
CONTINUOUS
10
115.5461629999999928
20
-148.7862659999999835
11
115.450924999999998
21
-149.0719799999999964
0
LINE
8
BLACK
6
CONTINUOUS
10
115.450924999999998
20
-149.0719799999999964
11
114.3080679999999916
21
-150.2148379999999861
0
LINE
8
BLACK
6
CONTINUOUS
10
114.3080679999999916
20
-150.2148379999999861
11
115.5461629999999928
21
-150.2148379999999861
0
LINE
8
BLACK
6
CONTINUOUS
10
116.2128299999999967
20
-148.2148379999999861
11
117.5461629999999928
21
-148.2148379999999861
0
LINE
8
BLACK
6
CONTINUOUS
10
117.5461629999999928
20
-148.2148379999999861
11
116.6890199999999993
21
-150.2148379999999861
0
LINE
8
BLACK
6
CONTINUOUS
10
119.1652109999999993
20
-148.2148379999999861
11
118.7842579999999941
21
-148.2148379999999861
0
LINE
8
BLACK
6
CONTINUOUS
10
118.7842579999999941
20
-148.2148379999999861
11
118.5937819999999903
21
-148.3100759999999809
0
LINE
8
BLACK
6
CONTINUOUS
10
118.5937819999999903
20
-148.3100759999999809
11
118.4985439999999954
21
-148.4053140000000042
0
LINE
8
BLACK
6
CONTINUOUS
10
118.4985439999999954
20
-148.4053140000000042
11
118.3080679999999916
21
-148.6910279999999887
0
LINE
8
BLACK
6
CONTINUOUS
10
118.3080679999999916
20
-148.6910279999999887
11
118.2128299999999967
21
-149.0719799999999964
0
LINE
8
BLACK
6
CONTINUOUS
10
118.2128299999999967
20
-149.0719799999999964
11
118.2128299999999967
21
-149.8338849999999809
0
LINE
8
BLACK
6
CONTINUOUS
10
118.2128299999999967
20
-149.8338849999999809
11
118.3080679999999916
21
-150.024360999999999
0
LINE
8
BLACK
6
CONTINUOUS
10
118.3080679999999916
20
-150.024360999999999
11
118.4033060000000006
21
-150.1195999999999913
0
LINE
8
BLACK
6
CONTINUOUS
10
118.4033060000000006
20
-150.1195999999999913
11
118.5937819999999903
21
-150.2148379999999861
0
LINE
8
BLACK
6
CONTINUOUS
10
118.5937819999999903
20
-150.2148379999999861
11
118.9747349999999955
21
-150.2148379999999861
0
LINE
8
BLACK
6
CONTINUOUS
10
118.9747349999999955
20
-150.2148379999999861
11
119.1652109999999993
21
-150.1195999999999913
0
LINE
8
BLACK
6
CONTINUOUS
10
119.1652109999999993
20
-150.1195999999999913
11
119.2604489999999942
21
-150.024360999999999
0
LINE
8
BLACK
6
CONTINUOUS
10
119.2604489999999942
20
-150.024360999999999
11
119.355686999999989
21
-149.8338849999999809
0
LINE
8
BLACK
6
CONTINUOUS
10
119.355686999999989
20
-149.8338849999999809
11
119.355686999999989
21
-149.3576950000000068
0
LINE
8
BLACK
6
CONTINUOUS
10
119.355686999999989
20
-149.3576950000000068
11
119.2604489999999942
21
-149.1672189999999887
0
LINE
8
BLACK
6
CONTINUOUS
10
119.2604489999999942
20
-149.1672189999999887
11
119.1652109999999993
21
-149.0719799999999964
0
LINE
8
BLACK
6
CONTINUOUS
10
119.1652109999999993
20
-149.0719799999999964
11
118.9747349999999955
21
-148.9767420000000016
0
LINE
8
BLACK
6
CONTINUOUS
10
118.9747349999999955
20
-148.9767420000000016
11
118.5937819999999903
21
-148.9767420000000016
0
LINE
8
BLACK
6
CONTINUOUS
10
118.5937819999999903
20
-148.9767420000000016
11
118.4033060000000006
21
-149.0719799999999964
0
LINE
8
BLACK
6
CONTINUOUS
10
118.4033060000000006
20
-149.0719799999999964
11
118.3080679999999916
21
-149.1672189999999887
0
LINE
8
BLACK
6
CONTINUOUS
10
118.3080679999999916
20
-149.1672189999999887
11
118.2128299999999967
21
-149.3576950000000068
0
LINE
8
BLACK
6
CONTINUOUS
10
120.1175919999999877
20
-148.2148379999999861
11
120.1175919999999877
21
-148.5957899999999938
0
LINE
8
BLACK
6
CONTINUOUS
10
120.8794970000000006
20
-148.2148379999999861
11
120.8794970000000006
21
-148.5957899999999938
0
LINE
8
BLACK
6
CONTINUOUS
10
123.8318790000000007
20
-150.9767420000000016
11
123.7366399999999942
21
-150.8815040000000067
0
LINE
8
BLACK
6
CONTINUOUS
10
123.7366399999999942
20
-150.8815040000000067
11
123.5461639999999903
21
-150.5957899999999938
0
LINE
8
BLACK
6
CONTINUOUS
10
123.5461639999999903
20
-150.5957899999999938
11
123.4509259999999955
21
-150.4053140000000042
0
LINE
8
BLACK
6
CONTINUOUS
10
123.4509259999999955
20
-150.4053140000000042
11
123.3556880000000007
21
-150.1195999999999913
0
LINE
8
BLACK
6
CONTINUOUS
10
123.3556880000000007
20
-150.1195999999999913
11
123.2604499999999916
21
-149.6434089999999912
0
LINE
8
BLACK
6
CONTINUOUS
10
123.2604499999999916
20
-149.6434089999999912
11
123.2604499999999916
21
-149.2624569999999835
0
LINE
8
BLACK
6
CONTINUOUS
10
123.2604499999999916
20
-149.2624569999999835
11
123.3556880000000007
21
-148.7862659999999835
0
LINE
8
BLACK
6
CONTINUOUS
10
123.3556880000000007
20
-148.7862659999999835
11
123.4509259999999955
21
-148.500551999999999
0
LINE
8
BLACK
6
CONTINUOUS
10
123.4509259999999955
20
-148.500551999999999
11
123.5461639999999903
21
-148.3100759999999809
0
LINE
8
BLACK
6
CONTINUOUS
10
123.5461639999999903
20
-148.3100759999999809
11
123.7366399999999942
21
-148.024360999999999
0
LINE
8
BLACK
6
CONTINUOUS
10
123.7366399999999942
20
-148.024360999999999
11
123.8318790000000007
21
-147.9291230000000041
0
LINE
8
BLACK
6
CONTINUOUS
10
125.4509259999999955
20
-148.8815040000000067
11
125.4509259999999955
21
-150.2148379999999861
0
LINE
8
BLACK
6
CONTINUOUS
10
124.9747349999999955
20
-148.1195999999999913
11
124.4985449999999929
21
-149.5481709999999964
0
LINE
8
BLACK
6
CONTINUOUS
10
124.4985449999999929
20
-149.5481709999999964
11
125.7366399999999942
21
-149.5481709999999964
0
LINE
8
BLACK
6
CONTINUOUS
10
128.0223550000000046
20
-150.2148379999999861
11
128.0223550000000046
21
-148.2148379999999861
0
LINE
8
BLACK
6
CONTINUOUS
10
128.8794979999999839
20
-150.2148379999999861
11
128.8794979999999839
21
-149.1672189999999887
0
LINE
8
BLACK
6
CONTINUOUS
10
128.8794979999999839
20
-149.1672189999999887
11
128.7842599999999891
21
-148.9767420000000016
0
LINE
8
BLACK
6
CONTINUOUS
10
128.7842599999999891
20
-148.9767420000000016
11
128.5937839999999994
21
-148.8815040000000067
0
LINE
8
BLACK
6
CONTINUOUS
10
128.5937839999999994
20
-148.8815040000000067
11
128.308068999999989
21
-148.8815040000000067
0
LINE
8
BLACK
6
CONTINUOUS
10
128.308068999999989
20
-148.8815040000000067
11
128.1175929999999994
21
-148.9767420000000016
0
LINE
8
BLACK
6
CONTINUOUS
10
128.1175929999999994
20
-148.9767420000000016
11
128.0223550000000046
21
-149.0719799999999964
0
LINE
8
BLACK
6
CONTINUOUS
10
130.1175929999999994
20
-150.2148379999999861
11
129.9271169999999813
21
-150.1195999999999913
0
LINE
8
BLACK
6
CONTINUOUS
10
129.9271169999999813
20
-150.1195999999999913
11
129.8318789999999865
21
-150.024360999999999
0
LINE
8
BLACK
6
CONTINUOUS
10
129.8318789999999865
20
-150.024360999999999
11
129.7366409999999917
21
-149.8338849999999809
0
LINE
8
BLACK
6
CONTINUOUS
10
129.7366409999999917
20
-149.8338849999999809
11
129.7366409999999917
21
-149.2624569999999835
0
LINE
8
BLACK
6
CONTINUOUS
10
129.7366409999999917
20
-149.2624569999999835
11
129.8318789999999865
21
-149.0719799999999964
0
LINE
8
BLACK
6
CONTINUOUS
10
129.8318789999999865
20
-149.0719799999999964
11
129.9271169999999813
21
-148.9767420000000016
0
LINE
8
BLACK
6
CONTINUOUS
10
129.9271169999999813
20
-148.9767420000000016
11
130.1175929999999994
21
-148.8815040000000067
0
LINE
8
BLACK
6
CONTINUOUS
10
130.1175929999999994
20
-148.8815040000000067
11
130.4033079999999813
21
-148.8815040000000067
0
LINE
8
BLACK
6
CONTINUOUS
10
130.4033079999999813
20
-148.8815040000000067
11
130.5937839999999994
21
-148.9767420000000016
0
LINE
8
BLACK
6
CONTINUOUS
10
130.5937839999999994
20
-148.9767420000000016
11
130.6890219999999943
21
-149.0719799999999964
0
LINE
8
BLACK
6
CONTINUOUS
10
130.6890219999999943
20
-149.0719799999999964
11
130.7842599999999891
21
-149.2624569999999835
0
LINE
8
BLACK
6
CONTINUOUS
10
130.7842599999999891
20
-149.2624569999999835
11
130.7842599999999891
21
-149.8338849999999809
0
LINE
8
BLACK
6
CONTINUOUS
10
130.7842599999999891
20
-149.8338849999999809
11
130.6890219999999943
21
-150.024360999999999
0
LINE
8
BLACK
6
CONTINUOUS
10
130.6890219999999943
20
-150.024360999999999
11
130.5937839999999994
21
-150.1195999999999913
0
LINE
8
BLACK
6
CONTINUOUS
10
130.5937839999999994
20
-150.1195999999999913
11
130.4033079999999813
21
-150.2148379999999861
0
LINE
8
BLACK
6
CONTINUOUS
10
130.4033079999999813
20
-150.2148379999999861
11
130.1175929999999994
21
-150.2148379999999861
0
LINE
8
BLACK
6
CONTINUOUS
10
131.9271169999999813
20
-150.2148379999999861
11
131.7366409999999917
21
-150.1195999999999913
0
LINE
8
BLACK
6
CONTINUOUS
10
131.7366409999999917
20
-150.1195999999999913
11
131.6414029999999968
21
-149.9291230000000041
0
LINE
8
BLACK
6
CONTINUOUS
10
131.6414029999999968
20
-149.9291230000000041
11
131.6414029999999968
21
-148.2148379999999861
0
LINE
8
BLACK
6
CONTINUOUS
10
133.4509270000000072
20
-150.1195999999999913
11
133.2604509999999891
21
-150.2148379999999861
0
LINE
8
BLACK
6
CONTINUOUS
10
133.2604509999999891
20
-150.2148379999999861
11
132.8794979999999839
21
-150.2148379999999861
0
LINE
8
BLACK
6
CONTINUOUS
10
132.8794979999999839
20
-150.2148379999999861
11
132.6890219999999943
21
-150.1195999999999913
0
LINE
8
BLACK
6
CONTINUOUS
10
132.6890219999999943
20
-150.1195999999999913
11
132.5937839999999994
21
-149.9291230000000041
0
LINE
8
BLACK
6
CONTINUOUS
10
132.5937839999999994
20
-149.9291230000000041
11
132.5937839999999994
21
-149.1672189999999887
0
LINE
8
BLACK
6
CONTINUOUS
10
132.5937839999999994
20
-149.1672189999999887
11
132.6890219999999943
21
-148.9767420000000016
0
LINE
8
BLACK
6
CONTINUOUS
10
132.6890219999999943
20
-148.9767420000000016
11
132.8794979999999839
21
-148.8815040000000067
0
LINE
8
BLACK
6
CONTINUOUS
10
132.8794979999999839
20
-148.8815040000000067
11
133.2604509999999891
21
-148.8815040000000067
0
LINE
8
BLACK
6
CONTINUOUS
10
133.2604509999999891
20
-148.8815040000000067
11
133.4509270000000072
21
-148.9767420000000016
0
LINE
8
BLACK
6
CONTINUOUS
10
133.4509270000000072
20
-148.9767420000000016
11
133.546165000000002
21
-149.1672189999999887
0
LINE
8
BLACK
6
CONTINUOUS
10
133.546165000000002
20
-149.1672189999999887
11
133.546165000000002
21
-149.3576950000000068
0
LINE
8
BLACK
6
CONTINUOUS
10
133.546165000000002
20
-149.3576950000000068
11
132.5937839999999994
21
-149.5481709999999964
0
LINE
8
BLACK
6
CONTINUOUS
10
134.3080699999999865
20
-150.1195999999999913
11
134.4985460000000046
21
-150.2148379999999861
0
LINE
8
BLACK
6
CONTINUOUS
10
134.4985460000000046
20
-150.2148379999999861
11
134.8794979999999839
21
-150.2148379999999861
0
LINE
8
BLACK
6
CONTINUOUS
10
134.8794979999999839
20
-150.2148379999999861
11
135.0699749999999995
21
-150.1195999999999913
0
LINE
8
BLACK
6
CONTINUOUS
10
135.0699749999999995
20
-150.1195999999999913
11
135.1652129999999943
21
-149.9291230000000041
0
LINE
8
BLACK
6
CONTINUOUS
10
135.1652129999999943
20
-149.9291230000000041
11
135.1652129999999943
21
-149.8338849999999809
0
LINE
8
BLACK
6
CONTINUOUS
10
135.1652129999999943
20
-149.8338849999999809
11
135.0699749999999995
21
-149.6434089999999912
0
LINE
8
BLACK
6
CONTINUOUS
10
135.0699749999999995
20
-149.6434089999999912
11
134.8794979999999839
21
-149.5481709999999964
0
LINE
8
BLACK
6
CONTINUOUS
10
134.8794979999999839
20
-149.5481709999999964
11
134.5937839999999994
21
-149.5481709999999964
0
LINE
8
BLACK
6
CONTINUOUS
10
134.5937839999999994
20
-149.5481709999999964
11
134.4033079999999813
21
-149.4529330000000016
0
LINE
8
BLACK
6
CONTINUOUS
10
134.4033079999999813
20
-149.4529330000000016
11
134.3080699999999865
21
-149.2624569999999835
0
LINE
8
BLACK
6
CONTINUOUS
10
134.3080699999999865
20
-149.2624569999999835
11
134.3080699999999865
21
-149.1672189999999887
0
LINE
8
BLACK
6
CONTINUOUS
10
134.3080699999999865
20
-149.1672189999999887
11
134.4033079999999813
21
-148.9767420000000016
0
LINE
8
BLACK
6
CONTINUOUS
10
134.4033079999999813
20
-148.9767420000000016
11
134.5937839999999994
21
-148.8815040000000067
0
LINE
8
BLACK
6
CONTINUOUS
10
134.5937839999999994
20
-148.8815040000000067
11
134.8794979999999839
21
-148.8815040000000067
0
LINE
8
BLACK
6
CONTINUOUS
10
134.8794979999999839
20
-148.8815040000000067
11
135.0699749999999995
21
-148.9767420000000016
0
LINE
8
BLACK
6
CONTINUOUS
10
135.831879999999984
20
-150.9767420000000016
11
135.9271180000000072
21
-150.8815040000000067
0
LINE
8
BLACK
6
CONTINUOUS
10
135.9271180000000072
20
-150.8815040000000067
11
136.1175939999999969
21
-150.5957899999999938
0
LINE
8
BLACK
6
CONTINUOUS
10
136.1175939999999969
20
-150.5957899999999938
11
136.2128319999999917
21
-150.4053140000000042
0
LINE
8
BLACK
6
CONTINUOUS
10
136.2128319999999917
20
-150.4053140000000042
11
136.3080699999999865
21
-150.1195999999999913
0
LINE
8
BLACK
6
CONTINUOUS
10
136.3080699999999865
20
-150.1195999999999913
11
136.4033079999999813
21
-149.6434089999999912
0
LINE
8
BLACK
6
CONTINUOUS
10
136.4033079999999813
20
-149.6434089999999912
11
136.4033079999999813
21
-149.2624569999999835
0
LINE
8
BLACK
6
CONTINUOUS
10
136.4033079999999813
20
-149.2624569999999835
11
136.3080699999999865
21
-148.7862659999999835
0
LINE
8
BLACK
6
CONTINUOUS
10
136.3080699999999865
20
-148.7862659999999835
11
136.2128319999999917
21
-148.500551999999999
0
LINE
8
BLACK
6
CONTINUOUS
10
136.2128319999999917
20
-148.500551999999999
11
136.1175939999999969
21
-148.3100759999999809
0
LINE
8
BLACK
6
CONTINUOUS
10
136.1175939999999969
20
-148.3100759999999809
11
135.9271180000000072
21
-148.024360999999999
0
LINE
8
BLACK
6
CONTINUOUS
10
135.9271180000000072
20
-148.024360999999999
11
135.831879999999984
21
-147.9291230000000041
0
CIRCLE
8
BLACK
10
87.6367499999999922
20
-151.9399999999999977
40
0.4445
0
LINE
8
BLACK
6
CONTINUOUS
10
91.0699699999999979
20
-150.8548380000000009
11
91.2604469999999992
21
-150.8548380000000009
0
LINE
8
BLACK
6
CONTINUOUS
10
91.2604469999999992
20
-150.8548380000000009
11
91.4509229999999889
21
-150.9500759999999957
0
LINE
8
BLACK
6
CONTINUOUS
10
91.4509229999999889
20
-150.9500759999999957
11
91.5461609999999979
21
-151.0453139999999905
0
LINE
8
BLACK
6
CONTINUOUS
10
91.5461609999999979
20
-151.0453139999999905
11
91.6413989999999927
21
-151.2357899999999802
0
LINE
8
BLACK
6
CONTINUOUS
10
91.6413989999999927
20
-151.2357899999999802
11
91.7366370000000018
21
-151.6167419999999879
0
LINE
8
BLACK
6
CONTINUOUS
10
91.7366370000000018
20
-151.6167419999999879
11
91.7366370000000018
21
-152.0929329999999879
0
LINE
8
BLACK
6
CONTINUOUS
10
91.7366370000000018
20
-152.0929329999999879
11
91.6413989999999927
21
-152.4738849999999957
0
LINE
8
BLACK
6
CONTINUOUS
10
91.6413989999999927
20
-152.4738849999999957
11
91.5461609999999979
21
-152.6643609999999853
0
LINE
8
BLACK
6
CONTINUOUS
10
91.5461609999999979
20
-152.6643609999999853
11
91.4509229999999889
21
-152.759600000000006
0
LINE
8
BLACK
6
CONTINUOUS
10
91.4509229999999889
20
-152.759600000000006
11
91.2604469999999992
21
-152.8548380000000009
0
LINE
8
BLACK
6
CONTINUOUS
10
91.2604469999999992
20
-152.8548380000000009
11
91.0699699999999979
21
-152.8548380000000009
0
LINE
8
BLACK
6
CONTINUOUS
10
91.0699699999999979
20
-152.8548380000000009
11
90.879493999999994
21
-152.759600000000006
0
LINE
8
BLACK
6
CONTINUOUS
10
90.879493999999994
20
-152.759600000000006
11
90.7842559999999992
21
-152.6643609999999853
0
LINE
8
BLACK
6
CONTINUOUS
10
90.7842559999999992
20
-152.6643609999999853
11
90.6890179999999901
21
-152.4738849999999957
0
LINE
8
BLACK
6
CONTINUOUS
10
90.6890179999999901
20
-152.4738849999999957
11
90.5937799999999953
21
-152.0929329999999879
0
LINE
8
BLACK
6
CONTINUOUS
10
90.5937799999999953
20
-152.0929329999999879
11
90.5937799999999953
21
-151.6167419999999879
0
LINE
8
BLACK
6
CONTINUOUS
10
90.5937799999999953
20
-151.6167419999999879
11
90.6890179999999901
21
-151.2357899999999802
0
LINE
8
BLACK
6
CONTINUOUS
10
90.6890179999999901
20
-151.2357899999999802
11
90.7842559999999992
21
-151.0453139999999905
0
LINE
8
BLACK
6
CONTINUOUS
10
90.7842559999999992
20
-151.0453139999999905
11
90.879493999999994
21
-150.9500759999999957
0
LINE
8
BLACK
6
CONTINUOUS
10
90.879493999999994
20
-150.9500759999999957
11
91.0699699999999979
21
-150.8548380000000009
0
LINE
8
BLACK
6
CONTINUOUS
10
92.5937799999999953
20
-152.6643609999999853
11
92.6890179999999901
21
-152.759600000000006
0
LINE
8
BLACK
6
CONTINUOUS
10
92.6890179999999901
20
-152.759600000000006
11
92.5937799999999953
21
-152.8548380000000009
0
LINE
8
BLACK
6
CONTINUOUS
10
92.5937799999999953
20
-152.8548380000000009
11
92.4985420000000005
21
-152.759600000000006
0
LINE
8
BLACK
6
CONTINUOUS
10
92.4985420000000005
20
-152.759600000000006
11
92.5937799999999953
21
-152.6643609999999853
0
LINE
8
BLACK
6
CONTINUOUS
10
92.5937799999999953
20
-152.6643609999999853
11
92.5937799999999953
21
-152.8548380000000009
0
LINE
8
BLACK
6
CONTINUOUS
10
93.8318749999999966
20
-151.7119799999999827
11
93.6413989999999927
21
-151.6167419999999879
0
LINE
8
BLACK
6
CONTINUOUS
10
93.6413989999999927
20
-151.6167419999999879
11
93.5461609999999979
21
-151.5215039999999931
0
LINE
8
BLACK
6
CONTINUOUS
10
93.5461609999999979
20
-151.5215039999999931
11
93.4509229999999889
21
-151.3310280000000034
0
LINE
8
BLACK
6
CONTINUOUS
10
93.4509229999999889
20
-151.3310280000000034
11
93.4509229999999889
21
-151.2357899999999802
0
LINE
8
BLACK
6
CONTINUOUS
10
93.4509229999999889
20
-151.2357899999999802
11
93.5461609999999979
21
-151.0453139999999905
0
LINE
8
BLACK
6
CONTINUOUS
10
93.5461609999999979
20
-151.0453139999999905
11
93.6413989999999927
21
-150.9500759999999957
0
LINE
8
BLACK
6
CONTINUOUS
10
93.6413989999999927
20
-150.9500759999999957
11
93.8318749999999966
21
-150.8548380000000009
0
LINE
8
BLACK
6
CONTINUOUS
10
93.8318749999999966
20
-150.8548380000000009
11
94.2128280000000018
21
-150.8548380000000009
0
LINE
8
BLACK
6
CONTINUOUS
10
94.2128280000000018
20
-150.8548380000000009
11
94.4033039999999914
21
-150.9500759999999957
0
LINE
8
BLACK
6
CONTINUOUS
10
94.4033039999999914
20
-150.9500759999999957
11
94.4985420000000005
21
-151.0453139999999905
0
LINE
8
BLACK
6
CONTINUOUS
10
94.4985420000000005
20
-151.0453139999999905
11
94.5937799999999953
21
-151.2357899999999802
0
LINE
8
BLACK
6
CONTINUOUS
10
94.5937799999999953
20
-151.2357899999999802
11
94.5937799999999953
21
-151.3310280000000034
0
LINE
8
BLACK
6
CONTINUOUS
10
94.5937799999999953
20
-151.3310280000000034
11
94.4985420000000005
21
-151.5215039999999931
0
LINE
8
BLACK
6
CONTINUOUS
10
94.4985420000000005
20
-151.5215039999999931
11
94.4033039999999914
21
-151.6167419999999879
0
LINE
8
BLACK
6
CONTINUOUS
10
94.4033039999999914
20
-151.6167419999999879
11
94.2128280000000018
21
-151.7119799999999827
0
LINE
8
BLACK
6
CONTINUOUS
10
94.2128280000000018
20
-151.7119799999999827
11
93.8318749999999966
21
-151.7119799999999827
0
LINE
8
BLACK
6
CONTINUOUS
10
93.8318749999999966
20
-151.7119799999999827
11
93.6413989999999927
21
-151.8072190000000035
0
LINE
8
BLACK
6
CONTINUOUS
10
93.6413989999999927
20
-151.8072190000000035
11
93.5461609999999979
21
-151.9024569999999983
0
LINE
8
BLACK
6
CONTINUOUS
10
93.5461609999999979
20
-151.9024569999999983
11
93.4509229999999889
21
-152.0929329999999879
0
LINE
8
BLACK
6
CONTINUOUS
10
93.4509229999999889
20
-152.0929329999999879
11
93.4509229999999889
21
-152.4738849999999957
0
LINE
8
BLACK
6
CONTINUOUS
10
93.4509229999999889
20
-152.4738849999999957
11
93.5461609999999979
21
-152.6643609999999853
0
LINE
8
BLACK
6
CONTINUOUS
10
93.5461609999999979
20
-152.6643609999999853
11
93.6413989999999927
21
-152.759600000000006
0
LINE
8
BLACK
6
CONTINUOUS
10
93.6413989999999927
20
-152.759600000000006
11
93.8318749999999966
21
-152.8548380000000009
0
LINE
8
BLACK
6
CONTINUOUS
10
93.8318749999999966
20
-152.8548380000000009
11
94.2128280000000018
21
-152.8548380000000009
0
LINE
8
BLACK
6
CONTINUOUS
10
94.2128280000000018
20
-152.8548380000000009
11
94.4033039999999914
21
-152.759600000000006
0
LINE
8
BLACK
6
CONTINUOUS
10
94.4033039999999914
20
-152.759600000000006
11
94.4985420000000005
21
-152.6643609999999853
0
LINE
8
BLACK
6
CONTINUOUS
10
94.4985420000000005
20
-152.6643609999999853
11
94.5937799999999953
21
-152.4738849999999957
0
LINE
8
BLACK
6
CONTINUOUS
10
94.5937799999999953
20
-152.4738849999999957
11
94.5937799999999953
21
-152.0929329999999879
0
LINE
8
BLACK
6
CONTINUOUS
10
94.5937799999999953
20
-152.0929329999999879
11
94.4985420000000005
21
-151.9024569999999983
0
LINE
8
BLACK
6
CONTINUOUS
10
94.4985420000000005
20
-151.9024569999999983
11
94.4033039999999914
21
-151.8072190000000035
0
LINE
8
BLACK
6
CONTINUOUS
10
94.4033039999999914
20
-151.8072190000000035
11
94.2128280000000018
21
-151.7119799999999827
0
LINE
8
BLACK
6
CONTINUOUS
10
95.7366370000000018
20
-151.7119799999999827
11
95.5461609999999979
21
-151.6167419999999879
0
LINE
8
BLACK
6
CONTINUOUS
10
95.5461609999999979
20
-151.6167419999999879
11
95.4509229999999889
21
-151.5215039999999931
0
LINE
8
BLACK
6
CONTINUOUS
10
95.4509229999999889
20
-151.5215039999999931
11
95.355684999999994
21
-151.3310280000000034
0
LINE
8
BLACK
6
CONTINUOUS
10
95.355684999999994
20
-151.3310280000000034
11
95.355684999999994
21
-151.2357899999999802
0
LINE
8
BLACK
6
CONTINUOUS
10
95.355684999999994
20
-151.2357899999999802
11
95.4509229999999889
21
-151.0453139999999905
0
LINE
8
BLACK
6
CONTINUOUS
10
95.4509229999999889
20
-151.0453139999999905
11
95.5461609999999979
21
-150.9500759999999957
0
LINE
8
BLACK
6
CONTINUOUS
10
95.5461609999999979
20
-150.9500759999999957
11
95.7366370000000018
21
-150.8548380000000009
0
LINE
8
BLACK
6
CONTINUOUS
10
95.7366370000000018
20
-150.8548380000000009
11
96.1175899999999928
21
-150.8548380000000009
0
LINE
8
BLACK
6
CONTINUOUS
10
96.1175899999999928
20
-150.8548380000000009
11
96.3080659999999966
21
-150.9500759999999957
0
LINE
8
BLACK
6
CONTINUOUS
10
96.3080659999999966
20
-150.9500759999999957
11
96.4033039999999914
21
-151.0453139999999905
0
LINE
8
BLACK
6
CONTINUOUS
10
96.4033039999999914
20
-151.0453139999999905
11
96.4985420000000005
21
-151.2357899999999802
0
LINE
8
BLACK
6
CONTINUOUS
10
96.4985420000000005
20
-151.2357899999999802
11
96.4985420000000005
21
-151.3310280000000034
0
LINE
8
BLACK
6
CONTINUOUS
10
96.4985420000000005
20
-151.3310280000000034
11
96.4033039999999914
21
-151.5215039999999931
0
LINE
8
BLACK
6
CONTINUOUS
10
96.4033039999999914
20
-151.5215039999999931
11
96.3080659999999966
21
-151.6167419999999879
0
LINE
8
BLACK
6
CONTINUOUS
10
96.3080659999999966
20
-151.6167419999999879
11
96.1175899999999928
21
-151.7119799999999827
0
LINE
8
BLACK
6
CONTINUOUS
10
96.1175899999999928
20
-151.7119799999999827
11
95.7366370000000018
21
-151.7119799999999827
0
LINE
8
BLACK
6
CONTINUOUS
10
95.7366370000000018
20
-151.7119799999999827
11
95.5461609999999979
21
-151.8072190000000035
0
LINE
8
BLACK
6
CONTINUOUS
10
95.5461609999999979
20
-151.8072190000000035
11
95.4509229999999889
21
-151.9024569999999983
0
LINE
8
BLACK
6
CONTINUOUS
10
95.4509229999999889
20
-151.9024569999999983
11
95.355684999999994
21
-152.0929329999999879
0
LINE
8
BLACK
6
CONTINUOUS
10
95.355684999999994
20
-152.0929329999999879
11
95.355684999999994
21
-152.4738849999999957
0
LINE
8
BLACK
6
CONTINUOUS
10
95.355684999999994
20
-152.4738849999999957
11
95.4509229999999889
21
-152.6643609999999853
0
LINE
8
BLACK
6
CONTINUOUS
10
95.4509229999999889
20
-152.6643609999999853
11
95.5461609999999979
21
-152.759600000000006
0
LINE
8
BLACK
6
CONTINUOUS
10
95.5461609999999979
20
-152.759600000000006
11
95.7366370000000018
21
-152.8548380000000009
0
LINE
8
BLACK
6
CONTINUOUS
10
95.7366370000000018
20
-152.8548380000000009
11
96.1175899999999928
21
-152.8548380000000009
0
LINE
8
BLACK
6
CONTINUOUS
10
96.1175899999999928
20
-152.8548380000000009
11
96.3080659999999966
21
-152.759600000000006
0
LINE
8
BLACK
6
CONTINUOUS
10
96.3080659999999966
20
-152.759600000000006
11
96.4033039999999914
21
-152.6643609999999853
0
LINE
8
BLACK
6
CONTINUOUS
10
96.4033039999999914
20
-152.6643609999999853
11
96.4985420000000005
21
-152.4738849999999957
0
LINE
8
BLACK
6
CONTINUOUS
10
96.4985420000000005
20
-152.4738849999999957
11
96.4985420000000005
21
-152.0929329999999879
0
LINE
8
BLACK
6
CONTINUOUS
10
96.4985420000000005
20
-152.0929329999999879
11
96.4033039999999914
21
-151.9024569999999983
0
LINE
8
BLACK
6
CONTINUOUS
10
96.4033039999999914
20
-151.9024569999999983
11
96.3080659999999966
21
-151.8072190000000035
0
LINE
8
BLACK
6
CONTINUOUS
10
96.3080659999999966
20
-151.8072190000000035
11
96.1175899999999928
21
-151.7119799999999827
0
LINE
8
BLACK
6
CONTINUOUS
10
97.4509229999999889
20
-152.8548380000000009
11
97.8318749999999966
21
-152.8548380000000009
0
LINE
8
BLACK
6
CONTINUOUS
10
97.8318749999999966
20
-152.8548380000000009
11
98.0223519999999979
21
-152.759600000000006
0
LINE
8
BLACK
6
CONTINUOUS
10
98.0223519999999979
20
-152.759600000000006
11
98.1175899999999928
21
-152.6643609999999853
0
LINE
8
BLACK
6
CONTINUOUS
10
98.1175899999999928
20
-152.6643609999999853
11
98.3080659999999966
21
-152.3786470000000008
0
LINE
8
BLACK
6
CONTINUOUS
10
98.3080659999999966
20
-152.3786470000000008
11
98.4033039999999914
21
-151.9976949999999931
0
LINE
8
BLACK
6
CONTINUOUS
10
98.4033039999999914
20
-151.9976949999999931
11
98.4033039999999914
21
-151.2357899999999802
0
LINE
8
BLACK
6
CONTINUOUS
10
98.4033039999999914
20
-151.2357899999999802
11
98.3080659999999966
21
-151.0453139999999905
0
LINE
8
BLACK
6
CONTINUOUS
10
98.3080659999999966
20
-151.0453139999999905
11
98.2128280000000018
21
-150.9500759999999957
0
LINE
8
BLACK
6
CONTINUOUS
10
98.2128280000000018
20
-150.9500759999999957
11
98.0223519999999979
21
-150.8548380000000009
0
LINE
8
BLACK
6
CONTINUOUS
10
98.0223519999999979
20
-150.8548380000000009
11
97.6413989999999927
21
-150.8548380000000009
0
LINE
8
BLACK
6
CONTINUOUS
10
97.6413989999999927
20
-150.8548380000000009
11
97.4509229999999889
21
-150.9500759999999957
0
LINE
8
BLACK
6
CONTINUOUS
10
97.4509229999999889
20
-150.9500759999999957
11
97.355684999999994
21
-151.0453139999999905
0
LINE
8
BLACK
6
CONTINUOUS
10
97.355684999999994
20
-151.0453139999999905
11
97.2604469999999992
21
-151.2357899999999802
0
LINE
8
BLACK
6
CONTINUOUS
10
97.2604469999999992
20
-151.2357899999999802
11
97.2604469999999992
21
-151.7119799999999827
0
LINE
8
BLACK
6
CONTINUOUS
10
97.2604469999999992
20
-151.7119799999999827
11
97.355684999999994
21
-151.9024569999999983
0
LINE
8
BLACK
6
CONTINUOUS
10
97.355684999999994
20
-151.9024569999999983
11
97.4509229999999889
21
-151.9976949999999931
0
LINE
8
BLACK
6
CONTINUOUS
10
97.4509229999999889
20
-151.9976949999999931
11
97.6413989999999927
21
-152.0929329999999879
0
LINE
8
BLACK
6
CONTINUOUS
10
97.6413989999999927
20
-152.0929329999999879
11
98.0223519999999979
21
-152.0929329999999879
0
LINE
8
BLACK
6
CONTINUOUS
10
98.0223519999999979
20
-152.0929329999999879
11
98.2128280000000018
21
-151.9976949999999931
0
LINE
8
BLACK
6
CONTINUOUS
10
98.2128280000000018
20
-151.9976949999999931
11
98.3080659999999966
21
-151.9024569999999983
0
LINE
8
BLACK
6
CONTINUOUS
10
98.3080659999999966
20
-151.9024569999999983
11
98.4033039999999914
21
-151.7119799999999827
0
LINE
8
BLACK
6
CONTINUOUS
10
99.2604469999999992
20
-152.8548380000000009
11
99.2604469999999992
21
-151.5215039999999931
0
LINE
8
BLACK
6
CONTINUOUS
10
99.2604469999999992
20
-151.7119799999999827
11
99.355684999999994
21
-151.6167419999999879
0
LINE
8
BLACK
6
CONTINUOUS
10
99.355684999999994
20
-151.6167419999999879
11
99.5461609999999979
21
-151.5215039999999931
0
LINE
8
BLACK
6
CONTINUOUS
10
99.5461609999999979
20
-151.5215039999999931
11
99.8318759999999941
21
-151.5215039999999931
0
LINE
8
BLACK
6
CONTINUOUS
10
99.8318759999999941
20
-151.5215039999999931
11
100.0223519999999979
21
-151.6167419999999879
0
LINE
8
BLACK
6
CONTINUOUS
10
100.0223519999999979
20
-151.6167419999999879
11
100.1175899999999928
21
-151.8072190000000035
0
LINE
8
BLACK
6
CONTINUOUS
10
100.1175899999999928
20
-151.8072190000000035
11
100.1175899999999928
21
-152.8548380000000009
0
LINE
8
BLACK
6
CONTINUOUS
10
100.1175899999999928
20
-151.8072190000000035
11
100.2128280000000018
21
-151.6167419999999879
0
LINE
8
BLACK
6
CONTINUOUS
10
100.2128280000000018
20
-151.6167419999999879
11
100.4033039999999914
21
-151.5215039999999931
0
LINE
8
BLACK
6
CONTINUOUS
10
100.4033039999999914
20
-151.5215039999999931
11
100.6890179999999901
21
-151.5215039999999931
0
LINE
8
BLACK
6
CONTINUOUS
10
100.6890179999999901
20
-151.5215039999999931
11
100.8794949999999915
21
-151.6167419999999879
0
LINE
8
BLACK
6
CONTINUOUS
10
100.8794949999999915
20
-151.6167419999999879
11
100.9747330000000005
21
-151.8072190000000035
0
LINE
8
BLACK
6
CONTINUOUS
10
100.9747330000000005
20
-151.8072190000000035
11
100.9747330000000005
21
-152.8548380000000009
0
LINE
8
BLACK
6
CONTINUOUS
10
101.9271139999999889
20
-152.8548380000000009
11
101.9271139999999889
21
-151.5215039999999931
0
LINE
8
BLACK
6
CONTINUOUS
10
101.9271139999999889
20
-151.7119799999999827
11
102.0223519999999979
21
-151.6167419999999879
0
LINE
8
BLACK
6
CONTINUOUS
10
102.0223519999999979
20
-151.6167419999999879
11
102.2128280000000018
21
-151.5215039999999931
0
LINE
8
BLACK
6
CONTINUOUS
10
102.2128280000000018
20
-151.5215039999999931
11
102.498542999999998
21
-151.5215039999999931
0
LINE
8
BLACK
6
CONTINUOUS
10
102.498542999999998
20
-151.5215039999999931
11
102.6890190000000018
21
-151.6167419999999879
0
LINE
8
BLACK
6
CONTINUOUS
10
102.6890190000000018
20
-151.6167419999999879
11
102.7842569999999967
21
-151.8072190000000035
0
LINE
8
BLACK
6
CONTINUOUS
10
102.7842569999999967
20
-151.8072190000000035
11
102.7842569999999967
21
-152.8548380000000009
0
LINE
8
BLACK
6
CONTINUOUS
10
102.7842569999999967
20
-151.8072190000000035
11
102.8794949999999915
21
-151.6167419999999879
0
LINE
8
BLACK
6
CONTINUOUS
10
102.8794949999999915
20
-151.6167419999999879
11
103.0699709999999953
21
-151.5215039999999931
0
LINE
8
BLACK
6
CONTINUOUS
10
103.0699709999999953
20
-151.5215039999999931
11
103.355684999999994
21
-151.5215039999999931
0
LINE
8
BLACK
6
CONTINUOUS
10
103.355684999999994
20
-151.5215039999999931
11
103.5461619999999954
21
-151.6167419999999879
0
LINE
8
BLACK
6
CONTINUOUS
10
103.5461619999999954
20
-151.6167419999999879
11
103.6413999999999902
21
-151.8072190000000035
0
LINE
8
BLACK
6
CONTINUOUS
10
103.6413999999999902
20
-151.8072190000000035
11
103.6413999999999902
21
-152.8548380000000009
0
LINE
8
BLACK
6
CONTINUOUS
10
107.5461619999999954
20
-150.759600000000006
11
105.8318769999999915
21
-153.3310280000000034
0
LINE
8
BLACK
6
CONTINUOUS
10
110.1175909999999902
20
-150.8548380000000009
11
110.3080679999999916
21
-150.8548380000000009
0
LINE
8
BLACK
6
CONTINUOUS
10
110.3080679999999916
20
-150.8548380000000009
11
110.4985439999999954
21
-150.9500759999999957
0
LINE
8
BLACK
6
CONTINUOUS
10
110.4985439999999954
20
-150.9500759999999957
11
110.5937819999999903
21
-151.0453139999999905
0
LINE
8
BLACK
6
CONTINUOUS
10
110.5937819999999903
20
-151.0453139999999905
11
110.6890199999999993
21
-151.2357899999999802
0
LINE
8
BLACK
6
CONTINUOUS
10
110.6890199999999993
20
-151.2357899999999802
11
110.7842579999999941
21
-151.6167419999999879
0
LINE
8
BLACK
6
CONTINUOUS
10
110.7842579999999941
20
-151.6167419999999879
11
110.7842579999999941
21
-152.0929329999999879
0
LINE
8
BLACK
6
CONTINUOUS
10
110.7842579999999941
20
-152.0929329999999879
11
110.6890199999999993
21
-152.4738849999999957
0
LINE
8
BLACK
6
CONTINUOUS
10
110.6890199999999993
20
-152.4738849999999957
11
110.5937819999999903
21
-152.6643609999999853
0
LINE
8
BLACK
6
CONTINUOUS
10
110.5937819999999903
20
-152.6643609999999853
11
110.4985439999999954
21
-152.759600000000006
0
LINE
8
BLACK
6
CONTINUOUS
10
110.4985439999999954
20
-152.759600000000006
11
110.3080679999999916
21
-152.8548380000000009
0
LINE
8
BLACK
6
CONTINUOUS
10
110.3080679999999916
20
-152.8548380000000009
11
110.1175909999999902
21
-152.8548380000000009
0
LINE
8
BLACK
6
CONTINUOUS
10
110.1175909999999902
20
-152.8548380000000009
11
109.9271150000000006
21
-152.759600000000006
0
LINE
8
BLACK
6
CONTINUOUS
10
109.9271150000000006
20
-152.759600000000006
11
109.8318769999999915
21
-152.6643609999999853
0
LINE
8
BLACK
6
CONTINUOUS
10
109.8318769999999915
20
-152.6643609999999853
11
109.7366389999999967
21
-152.4738849999999957
0
LINE
8
BLACK
6
CONTINUOUS
10
109.7366389999999967
20
-152.4738849999999957
11
109.6414010000000019
21
-152.0929329999999879
0
LINE
8
BLACK
6
CONTINUOUS
10
109.6414010000000019
20
-152.0929329999999879
11
109.6414010000000019
21
-151.6167419999999879
0
LINE
8
BLACK
6
CONTINUOUS
10
109.6414010000000019
20
-151.6167419999999879
11
109.7366389999999967
21
-151.2357899999999802
0
LINE
8
BLACK
6
CONTINUOUS
10
109.7366389999999967
20
-151.2357899999999802
11
109.8318769999999915
21
-151.0453139999999905
0
LINE
8
BLACK
6
CONTINUOUS
10
109.8318769999999915
20
-151.0453139999999905
11
109.9271150000000006
21
-150.9500759999999957
0
LINE
8
BLACK
6
CONTINUOUS
10
109.9271150000000006
20
-150.9500759999999957
11
110.1175909999999902
21
-150.8548380000000009
0
LINE
8
BLACK
6
CONTINUOUS
10
111.6414010000000019
20
-152.6643609999999853
11
111.7366389999999967
21
-152.759600000000006
0
LINE
8
BLACK
6
CONTINUOUS
10
111.7366389999999967
20
-152.759600000000006
11
111.6414010000000019
21
-152.8548380000000009
0
LINE
8
BLACK
6
CONTINUOUS
10
111.6414010000000019
20
-152.8548380000000009
11
111.5461629999999928
21
-152.759600000000006
0
LINE
8
BLACK
6
CONTINUOUS
10
111.5461629999999928
20
-152.759600000000006
11
111.6414010000000019
21
-152.6643609999999853
0
LINE
8
BLACK
6
CONTINUOUS
10
111.6414010000000019
20
-152.6643609999999853
11
111.6414010000000019
21
-152.8548380000000009
0
LINE
8
BLACK
6
CONTINUOUS
10
112.974733999999998
20
-150.8548380000000009
11
113.1652109999999993
21
-150.8548380000000009
0
LINE
8
BLACK
6
CONTINUOUS
10
113.1652109999999993
20
-150.8548380000000009
11
113.355686999999989
21
-150.9500759999999957
0
LINE
8
BLACK
6
CONTINUOUS
10
113.355686999999989
20
-150.9500759999999957
11
113.450924999999998
21
-151.0453139999999905
0
LINE
8
BLACK
6
CONTINUOUS
10
113.450924999999998
20
-151.0453139999999905
11
113.5461629999999928
21
-151.2357899999999802
0
LINE
8
BLACK
6
CONTINUOUS
10
113.5461629999999928
20
-151.2357899999999802
11
113.6414010000000019
21
-151.6167419999999879
0
LINE
8
BLACK
6
CONTINUOUS
10
113.6414010000000019
20
-151.6167419999999879
11
113.6414010000000019
21
-152.0929329999999879
0
LINE
8
BLACK
6
CONTINUOUS
10
113.6414010000000019
20
-152.0929329999999879
11
113.5461629999999928
21
-152.4738849999999957
0
LINE
8
BLACK
6
CONTINUOUS
10
113.5461629999999928
20
-152.4738849999999957
11
113.450924999999998
21
-152.6643609999999853
0
LINE
8
BLACK
6
CONTINUOUS
10
113.450924999999998
20
-152.6643609999999853
11
113.355686999999989
21
-152.759600000000006
0
LINE
8
BLACK
6
CONTINUOUS
10
113.355686999999989
20
-152.759600000000006
11
113.1652109999999993
21
-152.8548380000000009
0
LINE
8
BLACK
6
CONTINUOUS
10
113.1652109999999993
20
-152.8548380000000009
11
112.974733999999998
21
-152.8548380000000009
0
LINE
8
BLACK
6
CONTINUOUS
10
112.974733999999998
20
-152.8548380000000009
11
112.7842579999999941
21
-152.759600000000006
0
LINE
8
BLACK
6
CONTINUOUS
10
112.7842579999999941
20
-152.759600000000006
11
112.6890199999999993
21
-152.6643609999999853
0
LINE
8
BLACK
6
CONTINUOUS
10
112.6890199999999993
20
-152.6643609999999853
11
112.5937819999999903
21
-152.4738849999999957
0
LINE
8
BLACK
6
CONTINUOUS
10
112.5937819999999903
20
-152.4738849999999957
11
112.4985439999999954
21
-152.0929329999999879
0
LINE
8
BLACK
6
CONTINUOUS
10
112.4985439999999954
20
-152.0929329999999879
11
112.4985439999999954
21
-151.6167419999999879
0
LINE
8
BLACK
6
CONTINUOUS
10
112.4985439999999954
20
-151.6167419999999879
11
112.5937819999999903
21
-151.2357899999999802
0
LINE
8
BLACK
6
CONTINUOUS
10
112.5937819999999903
20
-151.2357899999999802
11
112.6890199999999993
21
-151.0453139999999905
0
LINE
8
BLACK
6
CONTINUOUS
10
112.6890199999999993
20
-151.0453139999999905
11
112.7842579999999941
21
-150.9500759999999957
0
LINE
8
BLACK
6
CONTINUOUS
10
112.7842579999999941
20
-150.9500759999999957
11
112.974733999999998
21
-150.8548380000000009
0
LINE
8
BLACK
6
CONTINUOUS
10
114.3080679999999916
20
-150.8548380000000009
11
115.5461629999999928
21
-150.8548380000000009
0
LINE
8
BLACK
6
CONTINUOUS
10
115.5461629999999928
20
-150.8548380000000009
11
114.879495999999989
21
-151.6167419999999879
0
LINE
8
BLACK
6
CONTINUOUS
10
114.879495999999989
20
-151.6167419999999879
11
115.1652109999999993
21
-151.6167419999999879
0
LINE
8
BLACK
6
CONTINUOUS
10
115.1652109999999993
20
-151.6167419999999879
11
115.355686999999989
21
-151.7119799999999827
0
LINE
8
BLACK
6
CONTINUOUS
10
115.355686999999989
20
-151.7119799999999827
11
115.450924999999998
21
-151.8072190000000035
0
LINE
8
BLACK
6
CONTINUOUS
10
115.450924999999998
20
-151.8072190000000035
11
115.5461629999999928
21
-151.9976949999999931
0
LINE
8
BLACK
6
CONTINUOUS
10
115.5461629999999928
20
-151.9976949999999931
11
115.5461629999999928
21
-152.4738849999999957
0
LINE
8
BLACK
6
CONTINUOUS
10
115.5461629999999928
20
-152.4738849999999957
11
115.450924999999998
21
-152.6643609999999853
0
LINE
8
BLACK
6
CONTINUOUS
10
115.450924999999998
20
-152.6643609999999853
11
115.355686999999989
21
-152.759600000000006
0
LINE
8
BLACK
6
CONTINUOUS
10
115.355686999999989
20
-152.759600000000006
11
115.1652109999999993
21
-152.8548380000000009
0
LINE
8
BLACK
6
CONTINUOUS
10
115.1652109999999993
20
-152.8548380000000009
11
114.5937819999999903
21
-152.8548380000000009
0
LINE
8
BLACK
6
CONTINUOUS
10
114.5937819999999903
20
-152.8548380000000009
11
114.4033060000000006
21
-152.759600000000006
0
LINE
8
BLACK
6
CONTINUOUS
10
114.4033060000000006
20
-152.759600000000006
11
114.3080679999999916
21
-152.6643609999999853
0
LINE
8
BLACK
6
CONTINUOUS
10
117.355686999999989
20
-150.8548380000000009
11
116.4033060000000006
21
-150.8548380000000009
0
LINE
8
BLACK
6
CONTINUOUS
10
116.4033060000000006
20
-150.8548380000000009
11
116.3080679999999916
21
-151.8072190000000035
0
LINE
8
BLACK
6
CONTINUOUS
10
116.3080679999999916
20
-151.8072190000000035
11
116.4033060000000006
21
-151.7119799999999827
0
LINE
8
BLACK
6
CONTINUOUS
10
116.4033060000000006
20
-151.7119799999999827
11
116.5937819999999903
21
-151.6167419999999879
0
LINE
8
BLACK
6
CONTINUOUS
10
116.5937819999999903
20
-151.6167419999999879
11
117.0699729999999903
21
-151.6167419999999879
0
LINE
8
BLACK
6
CONTINUOUS
10
117.0699729999999903
20
-151.6167419999999879
11
117.2604489999999942
21
-151.7119799999999827
0
LINE
8
BLACK
6
CONTINUOUS
10
117.2604489999999942
20
-151.7119799999999827
11
117.355686999999989
21
-151.8072190000000035
0
LINE
8
BLACK
6
CONTINUOUS
10
117.355686999999989
20
-151.8072190000000035
11
117.450924999999998
21
-151.9976949999999931
0
LINE
8
BLACK
6
CONTINUOUS
10
117.450924999999998
20
-151.9976949999999931
11
117.450924999999998
21
-152.4738849999999957
0
LINE
8
BLACK
6
CONTINUOUS
10
117.450924999999998
20
-152.4738849999999957
11
117.355686999999989
21
-152.6643609999999853
0
LINE
8
BLACK
6
CONTINUOUS
10
117.355686999999989
20
-152.6643609999999853
11
117.2604489999999942
21
-152.759600000000006
0
LINE
8
BLACK
6
CONTINUOUS
10
117.2604489999999942
20
-152.759600000000006
11
117.0699729999999903
21
-152.8548380000000009
0
LINE
8
BLACK
6
CONTINUOUS
10
117.0699729999999903
20
-152.8548380000000009
11
116.5937819999999903
21
-152.8548380000000009
0
LINE
8
BLACK
6
CONTINUOUS
10
116.5937819999999903
20
-152.8548380000000009
11
116.4033060000000006
21
-152.759600000000006
0
LINE
8
BLACK
6
CONTINUOUS
10
116.4033060000000006
20
-152.759600000000006
11
116.3080679999999916
21
-152.6643609999999853
0
LINE
8
BLACK
6
CONTINUOUS
10
118.6890199999999993
20
-150.8548380000000009
11
118.8794970000000006
21
-150.8548380000000009
0
LINE
8
BLACK
6
CONTINUOUS
10
118.8794970000000006
20
-150.8548380000000009
11
119.0699729999999903
21
-150.9500759999999957
0
LINE
8
BLACK
6
CONTINUOUS
10
119.0699729999999903
20
-150.9500759999999957
11
119.1652109999999993
21
-151.0453139999999905
0
LINE
8
BLACK
6
CONTINUOUS
10
119.1652109999999993
20
-151.0453139999999905
11
119.2604489999999942
21
-151.2357899999999802
0
LINE
8
BLACK
6
CONTINUOUS
10
119.2604489999999942
20
-151.2357899999999802
11
119.355686999999989
21
-151.6167419999999879
0
LINE
8
BLACK
6
CONTINUOUS
10
119.355686999999989
20
-151.6167419999999879
11
119.355686999999989
21
-152.0929329999999879
0
LINE
8
BLACK
6
CONTINUOUS
10
119.355686999999989
20
-152.0929329999999879
11
119.2604489999999942
21
-152.4738849999999957
0
LINE
8
BLACK
6
CONTINUOUS
10
119.2604489999999942
20
-152.4738849999999957
11
119.1652109999999993
21
-152.6643609999999853
0
LINE
8
BLACK
6
CONTINUOUS
10
119.1652109999999993
20
-152.6643609999999853
11
119.0699729999999903
21
-152.759600000000006
0
LINE
8
BLACK
6
CONTINUOUS
10
119.0699729999999903
20
-152.759600000000006
11
118.8794970000000006
21
-152.8548380000000009
0
LINE
8
BLACK
6
CONTINUOUS
10
118.8794970000000006
20
-152.8548380000000009
11
118.6890199999999993
21
-152.8548380000000009
0
LINE
8
BLACK
6
CONTINUOUS
10
118.6890199999999993
20
-152.8548380000000009
11
118.4985439999999954
21
-152.759600000000006
0
LINE
8
BLACK
6
CONTINUOUS
10
118.4985439999999954
20
-152.759600000000006
11
118.4033060000000006
21
-152.6643609999999853
0
LINE
8
BLACK
6
CONTINUOUS
10
118.4033060000000006
20
-152.6643609999999853
11
118.3080679999999916
21
-152.4738849999999957
0
LINE
8
BLACK
6
CONTINUOUS
10
118.3080679999999916
20
-152.4738849999999957
11
118.2128299999999967
21
-152.0929329999999879
0
LINE
8
BLACK
6
CONTINUOUS
10
118.2128299999999967
20
-152.0929329999999879
11
118.2128299999999967
21
-151.6167419999999879
0
LINE
8
BLACK
6
CONTINUOUS
10
118.2128299999999967
20
-151.6167419999999879
11
118.3080679999999916
21
-151.2357899999999802
0
LINE
8
BLACK
6
CONTINUOUS
10
118.3080679999999916
20
-151.2357899999999802
11
118.4033060000000006
21
-151.0453139999999905
0
LINE
8
BLACK
6
CONTINUOUS
10
118.4033060000000006
20
-151.0453139999999905
11
118.4985439999999954
21
-150.9500759999999957
0
LINE
8
BLACK
6
CONTINUOUS
10
118.4985439999999954
20
-150.9500759999999957
11
118.6890199999999993
21
-150.8548380000000009
0
LINE
8
BLACK
6
CONTINUOUS
10
120.1175919999999877
20
-150.8548380000000009
11
120.1175919999999877
21
-151.2357899999999802
0
LINE
8
BLACK
6
CONTINUOUS
10
120.8794970000000006
20
-150.8548380000000009
11
120.8794970000000006
21
-151.2357899999999802
0
LINE
8
BLACK
6
CONTINUOUS
10
123.8318790000000007
20
-153.6167419999999879
11
123.7366399999999942
21
-153.5215039999999931
0
LINE
8
BLACK
6
CONTINUOUS
10
123.7366399999999942
20
-153.5215039999999931
11
123.5461639999999903
21
-153.2357899999999802
0
LINE
8
BLACK
6
CONTINUOUS
10
123.5461639999999903
20
-153.2357899999999802
11
123.4509259999999955
21
-153.0453139999999905
0
LINE
8
BLACK
6
CONTINUOUS
10
123.4509259999999955
20
-153.0453139999999905
11
123.3556880000000007
21
-152.759600000000006
0
LINE
8
BLACK
6
CONTINUOUS
10
123.3556880000000007
20
-152.759600000000006
11
123.2604499999999916
21
-152.283409000000006
0
LINE
8
BLACK
6
CONTINUOUS
10
123.2604499999999916
20
-152.283409000000006
11
123.2604499999999916
21
-151.9024569999999983
0
LINE
8
BLACK
6
CONTINUOUS
10
123.2604499999999916
20
-151.9024569999999983
11
123.3556880000000007
21
-151.4262659999999983
0
LINE
8
BLACK
6
CONTINUOUS
10
123.3556880000000007
20
-151.4262659999999983
11
123.4509259999999955
21
-151.1405519999999854
0
LINE
8
BLACK
6
CONTINUOUS
10
123.4509259999999955
20
-151.1405519999999854
11
123.5461639999999903
21
-150.9500759999999957
0
LINE
8
BLACK
6
CONTINUOUS
10
123.5461639999999903
20
-150.9500759999999957
11
123.7366399999999942
21
-150.6643609999999853
0
LINE
8
BLACK
6
CONTINUOUS
10
123.7366399999999942
20
-150.6643609999999853
11
123.8318790000000007
21
-150.5691229999999905
0
LINE
8
BLACK
6
CONTINUOUS
10
125.6414019999999994
20
-152.8548380000000009
11
124.4985449999999929
21
-152.8548380000000009
0
LINE
8
BLACK
6
CONTINUOUS
10
125.0699729999999903
20
-152.8548380000000009
11
125.0699729999999903
21
-150.8548380000000009
0
LINE
8
BLACK
6
CONTINUOUS
10
125.0699729999999903
20
-150.8548380000000009
11
124.8794970000000006
21
-151.1405519999999854
0
LINE
8
BLACK
6
CONTINUOUS
10
124.8794970000000006
20
-151.1405519999999854
11
124.6890209999999968
21
-151.3310280000000034
0
LINE
8
BLACK
6
CONTINUOUS
10
124.6890209999999968
20
-151.3310280000000034
11
124.4985449999999929
21
-151.4262659999999983
0
LINE
8
BLACK
6
CONTINUOUS
10
127.3556880000000007
20
-151.5215039999999931
11
127.3556880000000007
21
-152.8548380000000009
0
LINE
8
BLACK
6
CONTINUOUS
10
126.8794970000000006
20
-150.759600000000006
11
126.4033069999999981
21
-152.1881709999999828
0
LINE
8
BLACK
6
CONTINUOUS
10
126.4033069999999981
20
-152.1881709999999828
11
127.6414019999999994
21
-152.1881709999999828
0
LINE
8
BLACK
6
CONTINUOUS
10
129.9271169999999813
20
-152.8548380000000009
11
129.9271169999999813
21
-150.8548380000000009
0
LINE
8
BLACK
6
CONTINUOUS
10
130.7842599999999891
20
-152.8548380000000009
11
130.7842599999999891
21
-151.8072190000000035
0
LINE
8
BLACK
6
CONTINUOUS
10
130.7842599999999891
20
-151.8072190000000035
11
130.6890219999999943
21
-151.6167419999999879
0
LINE
8
BLACK
6
CONTINUOUS
10
130.6890219999999943
20
-151.6167419999999879
11
130.4985460000000046
21
-151.5215039999999931
0
LINE
8
BLACK
6
CONTINUOUS
10
130.4985460000000046
20
-151.5215039999999931
11
130.2128309999999942
21
-151.5215039999999931
0
LINE
8
BLACK
6
CONTINUOUS
10
130.2128309999999942
20
-151.5215039999999931
11
130.0223550000000046
21
-151.6167419999999879
0
LINE
8
BLACK
6
CONTINUOUS
10
130.0223550000000046
20
-151.6167419999999879
11
129.9271169999999813
21
-151.7119799999999827
0
LINE
8
BLACK
6
CONTINUOUS
10
132.0223550000000046
20
-152.8548380000000009
11
131.8318789999999865
21
-152.759600000000006
0
LINE
8
BLACK
6
CONTINUOUS
10
131.8318789999999865
20
-152.759600000000006
11
131.7366409999999917
21
-152.6643609999999853
0
LINE
8
BLACK
6
CONTINUOUS
10
131.7366409999999917
20
-152.6643609999999853
11
131.6414029999999968
21
-152.4738849999999957
0
LINE
8
BLACK
6
CONTINUOUS
10
131.6414029999999968
20
-152.4738849999999957
11
131.6414029999999968
21
-151.9024569999999983
0
LINE
8
BLACK
6
CONTINUOUS
10
131.6414029999999968
20
-151.9024569999999983
11
131.7366409999999917
21
-151.7119799999999827
0
LINE
8
BLACK
6
CONTINUOUS
10
131.7366409999999917
20
-151.7119799999999827
11
131.8318789999999865
21
-151.6167419999999879
0
LINE
8
BLACK
6
CONTINUOUS
10
131.8318789999999865
20
-151.6167419999999879
11
132.0223550000000046
21
-151.5215039999999931
0
LINE
8
BLACK
6
CONTINUOUS
10
132.0223550000000046
20
-151.5215039999999931
11
132.3080699999999865
21
-151.5215039999999931
0
LINE
8
BLACK
6
CONTINUOUS
10
132.3080699999999865
20
-151.5215039999999931
11
132.4985460000000046
21
-151.6167419999999879
0
LINE
8
BLACK
6
CONTINUOUS
10
132.4985460000000046
20
-151.6167419999999879
11
132.5937839999999994
21
-151.7119799999999827
0
LINE
8
BLACK
6
CONTINUOUS
10
132.5937839999999994
20
-151.7119799999999827
11
132.6890219999999943
21
-151.9024569999999983
0
LINE
8
BLACK
6
CONTINUOUS
10
132.6890219999999943
20
-151.9024569999999983
11
132.6890219999999943
21
-152.4738849999999957
0
LINE
8
BLACK
6
CONTINUOUS
10
132.6890219999999943
20
-152.4738849999999957
11
132.5937839999999994
21
-152.6643609999999853
0
LINE
8
BLACK
6
CONTINUOUS
10
132.5937839999999994
20
-152.6643609999999853
11
132.4985460000000046
21
-152.759600000000006
0
LINE
8
BLACK
6
CONTINUOUS
10
132.4985460000000046
20
-152.759600000000006
11
132.3080699999999865
21
-152.8548380000000009
0
LINE
8
BLACK
6
CONTINUOUS
10
132.3080699999999865
20
-152.8548380000000009
11
132.0223550000000046
21
-152.8548380000000009
0
LINE
8
BLACK
6
CONTINUOUS
10
133.8318789999999865
20
-152.8548380000000009
11
133.6414029999999968
21
-152.759600000000006
0
LINE
8
BLACK
6
CONTINUOUS
10
133.6414029999999968
20
-152.759600000000006
11
133.546165000000002
21
-152.5691229999999905
0
LINE
8
BLACK
6
CONTINUOUS
10
133.546165000000002
20
-152.5691229999999905
11
133.546165000000002
21
-150.8548380000000009
0
LINE
8
BLACK
6
CONTINUOUS
10
135.3556889999999839
20
-152.759600000000006
11
135.1652129999999943
21
-152.8548380000000009
0
LINE
8
BLACK
6
CONTINUOUS
10
135.1652129999999943
20
-152.8548380000000009
11
134.7842599999999891
21
-152.8548380000000009
0
LINE
8
BLACK
6
CONTINUOUS
10
134.7842599999999891
20
-152.8548380000000009
11
134.5937839999999994
21
-152.759600000000006
0
LINE
8
BLACK
6
CONTINUOUS
10
134.5937839999999994
20
-152.759600000000006
11
134.4985460000000046
21
-152.5691229999999905
0
LINE
8
BLACK
6
CONTINUOUS
10
134.4985460000000046
20
-152.5691229999999905
11
134.4985460000000046
21
-151.8072190000000035
0
LINE
8
BLACK
6
CONTINUOUS
10
134.4985460000000046
20
-151.8072190000000035
11
134.5937839999999994
21
-151.6167419999999879
0
LINE
8
BLACK
6
CONTINUOUS
10
134.5937839999999994
20
-151.6167419999999879
11
134.7842599999999891
21
-151.5215039999999931
0
LINE
8
BLACK
6
CONTINUOUS
10
134.7842599999999891
20
-151.5215039999999931
11
135.1652129999999943
21
-151.5215039999999931
0
LINE
8
BLACK
6
CONTINUOUS
10
135.1652129999999943
20
-151.5215039999999931
11
135.3556889999999839
21
-151.6167419999999879
0
LINE
8
BLACK
6
CONTINUOUS
10
135.3556889999999839
20
-151.6167419999999879
11
135.4509270000000072
21
-151.8072190000000035
0
LINE
8
BLACK
6
CONTINUOUS
10
135.4509270000000072
20
-151.8072190000000035
11
135.4509270000000072
21
-151.9976949999999931
0
LINE
8
BLACK
6
CONTINUOUS
10
135.4509270000000072
20
-151.9976949999999931
11
134.4985460000000046
21
-152.1881709999999828
0
LINE
8
BLACK
6
CONTINUOUS
10
136.2128319999999917
20
-152.759600000000006
11
136.4033079999999813
21
-152.8548380000000009
0
LINE
8
BLACK
6
CONTINUOUS
10
136.4033079999999813
20
-152.8548380000000009
11
136.7842599999999891
21
-152.8548380000000009
0
LINE
8
BLACK
6
CONTINUOUS
10
136.7842599999999891
20
-152.8548380000000009
11
136.9747370000000046
21
-152.759600000000006
0
LINE
8
BLACK
6
CONTINUOUS
10
136.9747370000000046
20
-152.759600000000006
11
137.0699749999999995
21
-152.5691229999999905
0
LINE
8
BLACK
6
CONTINUOUS
10
137.0699749999999995
20
-152.5691229999999905
11
137.0699749999999995
21
-152.4738849999999957
0
LINE
8
BLACK
6
CONTINUOUS
10
137.0699749999999995
20
-152.4738849999999957
11
136.9747370000000046
21
-152.283409000000006
0
LINE
8
BLACK
6
CONTINUOUS
10
136.9747370000000046
20
-152.283409000000006
11
136.7842599999999891
21
-152.1881709999999828
0
LINE
8
BLACK
6
CONTINUOUS
10
136.7842599999999891
20
-152.1881709999999828
11
136.4985460000000046
21
-152.1881709999999828
0
LINE
8
BLACK
6
CONTINUOUS
10
136.4985460000000046
20
-152.1881709999999828
11
136.3080699999999865
21
-152.0929329999999879
0
LINE
8
BLACK
6
CONTINUOUS
10
136.3080699999999865
20
-152.0929329999999879
11
136.2128319999999917
21
-151.9024569999999983
0
LINE
8
BLACK
6
CONTINUOUS
10
136.2128319999999917
20
-151.9024569999999983
11
136.2128319999999917
21
-151.8072190000000035
0
LINE
8
BLACK
6
CONTINUOUS
10
136.2128319999999917
20
-151.8072190000000035
11
136.3080699999999865
21
-151.6167419999999879
0
LINE
8
BLACK
6
CONTINUOUS
10
136.3080699999999865
20
-151.6167419999999879
11
136.4985460000000046
21
-151.5215039999999931
0
LINE
8
BLACK
6
CONTINUOUS
10
136.4985460000000046
20
-151.5215039999999931
11
136.7842599999999891
21
-151.5215039999999931
0
LINE
8
BLACK
6
CONTINUOUS
10
136.7842599999999891
20
-151.5215039999999931
11
136.9747370000000046
21
-151.6167419999999879
0
LINE
8
BLACK
6
CONTINUOUS
10
137.7366419999999891
20
-153.6167419999999879
11
137.831879999999984
21
-153.5215039999999931
0
LINE
8
BLACK
6
CONTINUOUS
10
137.831879999999984
20
-153.5215039999999931
11
138.022356000000002
21
-153.2357899999999802
0
LINE
8
BLACK
6
CONTINUOUS
10
138.022356000000002
20
-153.2357899999999802
11
138.1175939999999969
21
-153.0453139999999905
0
LINE
8
BLACK
6
CONTINUOUS
10
138.1175939999999969
20
-153.0453139999999905
11
138.2128319999999917
21
-152.759600000000006
0
LINE
8
BLACK
6
CONTINUOUS
10
138.2128319999999917
20
-152.759600000000006
11
138.3080699999999865
21
-152.283409000000006
0
LINE
8
BLACK
6
CONTINUOUS
10
138.3080699999999865
20
-152.283409000000006
11
138.3080699999999865
21
-151.9024569999999983
0
LINE
8
BLACK
6
CONTINUOUS
10
138.3080699999999865
20
-151.9024569999999983
11
138.2128319999999917
21
-151.4262659999999983
0
LINE
8
BLACK
6
CONTINUOUS
10
138.2128319999999917
20
-151.4262659999999983
11
138.1175939999999969
21
-151.1405519999999854
0
LINE
8
BLACK
6
CONTINUOUS
10
138.1175939999999969
20
-151.1405519999999854
11
138.022356000000002
21
-150.9500759999999957
0
LINE
8
BLACK
6
CONTINUOUS
10
138.022356000000002
20
-150.9500759999999957
11
137.831879999999984
21
-150.6643609999999853
0
LINE
8
BLACK
6
CONTINUOUS
10
137.831879999999984
20
-150.6643609999999853
11
137.7366419999999891
21
-150.5691229999999905
0
LINE
8
BLACK
6
CONTINUOUS
10
87.4762499999999932
20
-153.9749999999999943
11
87.4762499999999932
21
-155.1850000000000023
0
LINE
8
BLACK
6
CONTINUOUS
10
86.8712499999999892
20
-154.5799999999999841
11
88.0812499999999972
21
-154.5799999999999841
0
LINE
8
BLACK
6
CONTINUOUS
10
91.7366370000000018
20
-155.4948379999999872
11
90.5937799999999953
21
-155.4948379999999872
0
LINE
8
BLACK
6
CONTINUOUS
10
91.1652079999999927
20
-155.4948379999999872
11
91.1652079999999927
21
-153.4948379999999872
0
LINE
8
BLACK
6
CONTINUOUS
10
91.1652079999999927
20
-153.4948379999999872
11
90.9747319999999888
21
-153.7805520000000001
0
LINE
8
BLACK
6
CONTINUOUS
10
90.9747319999999888
20
-153.7805520000000001
11
90.7842559999999992
21
-153.9710279999999898
0
LINE
8
BLACK
6
CONTINUOUS
10
90.7842559999999992
20
-153.9710279999999898
11
90.5937799999999953
21
-154.0662659999999846
0
LINE
8
BLACK
6
CONTINUOUS
10
92.5937799999999953
20
-155.3043610000000001
11
92.6890179999999901
21
-155.3995999999999924
0
LINE
8
BLACK
6
CONTINUOUS
10
92.6890179999999901
20
-155.3995999999999924
11
92.5937799999999953
21
-155.4948379999999872
0
LINE
8
BLACK
6
CONTINUOUS
10
92.5937799999999953
20
-155.4948379999999872
11
92.4985420000000005
21
-155.3995999999999924
0
LINE
8
BLACK
6
CONTINUOUS
10
92.4985420000000005
20
-155.3995999999999924
11
92.5937799999999953
21
-155.3043610000000001
0
LINE
8
BLACK
6
CONTINUOUS
10
92.5937799999999953
20
-155.3043610000000001
11
92.5937799999999953
21
-155.4948379999999872
0
LINE
8
BLACK
6
CONTINUOUS
10
93.4509229999999889
20
-153.6853140000000053
11
93.5461609999999979
21
-153.5900759999999821
0
LINE
8
BLACK
6
CONTINUOUS
10
93.5461609999999979
20
-153.5900759999999821
11
93.7366370000000018
21
-153.4948379999999872
0
LINE
8
BLACK
6
CONTINUOUS
10
93.7366370000000018
20
-153.4948379999999872
11
94.2128280000000018
21
-153.4948379999999872
0
LINE
8
BLACK
6
CONTINUOUS
10
94.2128280000000018
20
-153.4948379999999872
11
94.4033039999999914
21
-153.5900759999999821
0
LINE
8
BLACK
6
CONTINUOUS
10
94.4033039999999914
20
-153.5900759999999821
11
94.4985420000000005
21
-153.6853140000000053
0
LINE
8
BLACK
6
CONTINUOUS
10
94.4985420000000005
20
-153.6853140000000053
11
94.5937799999999953
21
-153.875789999999995
0
LINE
8
BLACK
6
CONTINUOUS
10
94.5937799999999953
20
-153.875789999999995
11
94.5937799999999953
21
-154.0662659999999846
0
LINE
8
BLACK
6
CONTINUOUS
10
94.5937799999999953
20
-154.0662659999999846
11
94.4985420000000005
21
-154.3519799999999975
0
LINE
8
BLACK
6
CONTINUOUS
10
94.4985420000000005
20
-154.3519799999999975
11
93.355684999999994
21
-155.4948379999999872
0
LINE
8
BLACK
6
CONTINUOUS
10
93.355684999999994
20
-155.4948379999999872
11
94.5937799999999953
21
-155.4948379999999872
0
LINE
8
BLACK
6
CONTINUOUS
10
96.4985420000000005
20
-155.4948379999999872
11
95.355684999999994
21
-155.4948379999999872
0
LINE
8
BLACK
6
CONTINUOUS
10
95.9271129999999914
20
-155.4948379999999872
11
95.9271129999999914
21
-153.4948379999999872
0
LINE
8
BLACK
6
CONTINUOUS
10
95.9271129999999914
20
-153.4948379999999872
11
95.7366370000000018
21
-153.7805520000000001
0
LINE
8
BLACK
6
CONTINUOUS
10
95.7366370000000018
20
-153.7805520000000001
11
95.5461609999999979
21
-153.9710279999999898
0
LINE
8
BLACK
6
CONTINUOUS
10
95.5461609999999979
20
-153.9710279999999898
11
95.355684999999994
21
-154.0662659999999846
0
LINE
8
BLACK
6
CONTINUOUS
10
97.7366370000000018
20
-153.4948379999999872
11
97.9271139999999889
21
-153.4948379999999872
0
LINE
8
BLACK
6
CONTINUOUS
10
97.9271139999999889
20
-153.4948379999999872
11
98.1175899999999928
21
-153.5900759999999821
0
LINE
8
BLACK
6
CONTINUOUS
10
98.1175899999999928
20
-153.5900759999999821
11
98.2128280000000018
21
-153.6853140000000053
0
LINE
8
BLACK
6
CONTINUOUS
10
98.2128280000000018
20
-153.6853140000000053
11
98.3080659999999966
21
-153.875789999999995
0
LINE
8
BLACK
6
CONTINUOUS
10
98.3080659999999966
20
-153.875789999999995
11
98.4033039999999914
21
-154.2567420000000027
0
LINE
8
BLACK
6
CONTINUOUS
10
98.4033039999999914
20
-154.2567420000000027
11
98.4033039999999914
21
-154.7329330000000027
0
LINE
8
BLACK
6
CONTINUOUS
10
98.4033039999999914
20
-154.7329330000000027
11
98.3080659999999966
21
-155.113884999999982
0
LINE
8
BLACK
6
CONTINUOUS
10
98.3080659999999966
20
-155.113884999999982
11
98.2128280000000018
21
-155.3043610000000001
0
LINE
8
BLACK
6
CONTINUOUS
10
98.2128280000000018
20
-155.3043610000000001
11
98.1175899999999928
21
-155.3995999999999924
0
LINE
8
BLACK
6
CONTINUOUS
10
98.1175899999999928
20
-155.3995999999999924
11
97.9271139999999889
21
-155.4948379999999872
0
LINE
8
BLACK
6
CONTINUOUS
10
97.9271139999999889
20
-155.4948379999999872
11
97.7366370000000018
21
-155.4948379999999872
0
LINE
8
BLACK
6
CONTINUOUS
10
97.7366370000000018
20
-155.4948379999999872
11
97.5461609999999979
21
-155.3995999999999924
0
LINE
8
BLACK
6
CONTINUOUS
10
97.5461609999999979
20
-155.3995999999999924
11
97.4509229999999889
21
-155.3043610000000001
0
LINE
8
BLACK
6
CONTINUOUS
10
97.4509229999999889
20
-155.3043610000000001
11
97.355684999999994
21
-155.113884999999982
0
LINE
8
BLACK
6
CONTINUOUS
10
97.355684999999994
20
-155.113884999999982
11
97.2604469999999992
21
-154.7329330000000027
0
LINE
8
BLACK
6
CONTINUOUS
10
97.2604469999999992
20
-154.7329330000000027
11
97.2604469999999992
21
-154.2567420000000027
0
LINE
8
BLACK
6
CONTINUOUS
10
97.2604469999999992
20
-154.2567420000000027
11
97.355684999999994
21
-153.875789999999995
0
LINE
8
BLACK
6
CONTINUOUS
10
97.355684999999994
20
-153.875789999999995
11
97.4509229999999889
21
-153.6853140000000053
0
LINE
8
BLACK
6
CONTINUOUS
10
97.4509229999999889
20
-153.6853140000000053
11
97.5461609999999979
21
-153.5900759999999821
0
LINE
8
BLACK
6
CONTINUOUS
10
97.5461609999999979
20
-153.5900759999999821
11
97.7366370000000018
21
-153.4948379999999872
0
LINE
8
BLACK
6
CONTINUOUS
10
99.2604469999999992
20
-155.4948379999999872
11
99.2604469999999992
21
-154.1615039999999794
0
LINE
8
BLACK
6
CONTINUOUS
10
99.2604469999999992
20
-154.3519799999999975
11
99.355684999999994
21
-154.2567420000000027
0
LINE
8
BLACK
6
CONTINUOUS
10
99.355684999999994
20
-154.2567420000000027
11
99.5461609999999979
21
-154.1615039999999794
0
LINE
8
BLACK
6
CONTINUOUS
10
99.5461609999999979
20
-154.1615039999999794
11
99.8318759999999941
21
-154.1615039999999794
0
LINE
8
BLACK
6
CONTINUOUS
10
99.8318759999999941
20
-154.1615039999999794
11
100.0223519999999979
21
-154.2567420000000027
0
LINE
8
BLACK
6
CONTINUOUS
10
100.0223519999999979
20
-154.2567420000000027
11
100.1175899999999928
21
-154.4472189999999898
0
LINE
8
BLACK
6
CONTINUOUS
10
100.1175899999999928
20
-154.4472189999999898
11
100.1175899999999928
21
-155.4948379999999872
0
LINE
8
BLACK
6
CONTINUOUS
10
100.1175899999999928
20
-154.4472189999999898
11
100.2128280000000018
21
-154.2567420000000027
0
LINE
8
BLACK
6
CONTINUOUS
10
100.2128280000000018
20
-154.2567420000000027
11
100.4033039999999914
21
-154.1615039999999794
0
LINE
8
BLACK
6
CONTINUOUS
10
100.4033039999999914
20
-154.1615039999999794
11
100.6890179999999901
21
-154.1615039999999794
0
LINE
8
BLACK
6
CONTINUOUS
10
100.6890179999999901
20
-154.1615039999999794
11
100.8794949999999915
21
-154.2567420000000027
0
LINE
8
BLACK
6
CONTINUOUS
10
100.8794949999999915
20
-154.2567420000000027
11
100.9747330000000005
21
-154.4472189999999898
0
LINE
8
BLACK
6
CONTINUOUS
10
100.9747330000000005
20
-154.4472189999999898
11
100.9747330000000005
21
-155.4948379999999872
0
LINE
8
BLACK
6
CONTINUOUS
10
101.9271139999999889
20
-155.4948379999999872
11
101.9271139999999889
21
-154.1615039999999794
0
LINE
8
BLACK
6
CONTINUOUS
10
101.9271139999999889
20
-154.3519799999999975
11
102.0223519999999979
21
-154.2567420000000027
0
LINE
8
BLACK
6
CONTINUOUS
10
102.0223519999999979
20
-154.2567420000000027
11
102.2128280000000018
21
-154.1615039999999794
0
LINE
8
BLACK
6
CONTINUOUS
10
102.2128280000000018
20
-154.1615039999999794
11
102.498542999999998
21
-154.1615039999999794
0
LINE
8
BLACK
6
CONTINUOUS
10
102.498542999999998
20
-154.1615039999999794
11
102.6890190000000018
21
-154.2567420000000027
0
LINE
8
BLACK
6
CONTINUOUS
10
102.6890190000000018
20
-154.2567420000000027
11
102.7842569999999967
21
-154.4472189999999898
0
LINE
8
BLACK
6
CONTINUOUS
10
102.7842569999999967
20
-154.4472189999999898
11
102.7842569999999967
21
-155.4948379999999872
0
LINE
8
BLACK
6
CONTINUOUS
10
102.7842569999999967
20
-154.4472189999999898
11
102.8794949999999915
21
-154.2567420000000027
0
LINE
8
BLACK
6
CONTINUOUS
10
102.8794949999999915
20
-154.2567420000000027
11
103.0699709999999953
21
-154.1615039999999794
0
LINE
8
BLACK
6
CONTINUOUS
10
103.0699709999999953
20
-154.1615039999999794
11
103.355684999999994
21
-154.1615039999999794
0
LINE
8
BLACK
6
CONTINUOUS
10
103.355684999999994
20
-154.1615039999999794
11
103.5461619999999954
21
-154.2567420000000027
0
LINE
8
BLACK
6
CONTINUOUS
10
103.5461619999999954
20
-154.2567420000000027
11
103.6413999999999902
21
-154.4472189999999898
0
LINE
8
BLACK
6
CONTINUOUS
10
103.6413999999999902
20
-154.4472189999999898
11
103.6413999999999902
21
-155.4948379999999872
0
LINE
8
BLACK
6
CONTINUOUS
10
107.5461619999999954
20
-153.3995999999999924
11
105.8318769999999915
21
-155.9710279999999898
0
LINE
8
BLACK
6
CONTINUOUS
10
110.1175909999999902
20
-153.4948379999999872
11
110.3080679999999916
21
-153.4948379999999872
0
LINE
8
BLACK
6
CONTINUOUS
10
110.3080679999999916
20
-153.4948379999999872
11
110.4985439999999954
21
-153.5900759999999821
0
LINE
8
BLACK
6
CONTINUOUS
10
110.4985439999999954
20
-153.5900759999999821
11
110.5937819999999903
21
-153.6853140000000053
0
LINE
8
BLACK
6
CONTINUOUS
10
110.5937819999999903
20
-153.6853140000000053
11
110.6890199999999993
21
-153.875789999999995
0
LINE
8
BLACK
6
CONTINUOUS
10
110.6890199999999993
20
-153.875789999999995
11
110.7842579999999941
21
-154.2567420000000027
0
LINE
8
BLACK
6
CONTINUOUS
10
110.7842579999999941
20
-154.2567420000000027
11
110.7842579999999941
21
-154.7329330000000027
0
LINE
8
BLACK
6
CONTINUOUS
10
110.7842579999999941
20
-154.7329330000000027
11
110.6890199999999993
21
-155.113884999999982
0
LINE
8
BLACK
6
CONTINUOUS
10
110.6890199999999993
20
-155.113884999999982
11
110.5937819999999903
21
-155.3043610000000001
0
LINE
8
BLACK
6
CONTINUOUS
10
110.5937819999999903
20
-155.3043610000000001
11
110.4985439999999954
21
-155.3995999999999924
0
LINE
8
BLACK
6
CONTINUOUS
10
110.4985439999999954
20
-155.3995999999999924
11
110.3080679999999916
21
-155.4948379999999872
0
LINE
8
BLACK
6
CONTINUOUS
10
110.3080679999999916
20
-155.4948379999999872
11
110.1175909999999902
21
-155.4948379999999872
0
LINE
8
BLACK
6
CONTINUOUS
10
110.1175909999999902
20
-155.4948379999999872
11
109.9271150000000006
21
-155.3995999999999924
0
LINE
8
BLACK
6
CONTINUOUS
10
109.9271150000000006
20
-155.3995999999999924
11
109.8318769999999915
21
-155.3043610000000001
0
LINE
8
BLACK
6
CONTINUOUS
10
109.8318769999999915
20
-155.3043610000000001
11
109.7366389999999967
21
-155.113884999999982
0
LINE
8
BLACK
6
CONTINUOUS
10
109.7366389999999967
20
-155.113884999999982
11
109.6414010000000019
21
-154.7329330000000027
0
LINE
8
BLACK
6
CONTINUOUS
10
109.6414010000000019
20
-154.7329330000000027
11
109.6414010000000019
21
-154.2567420000000027
0
LINE
8
BLACK
6
CONTINUOUS
10
109.6414010000000019
20
-154.2567420000000027
11
109.7366389999999967
21
-153.875789999999995
0
LINE
8
BLACK
6
CONTINUOUS
10
109.7366389999999967
20
-153.875789999999995
11
109.8318769999999915
21
-153.6853140000000053
0
LINE
8
BLACK
6
CONTINUOUS
10
109.8318769999999915
20
-153.6853140000000053
11
109.9271150000000006
21
-153.5900759999999821
0
LINE
8
BLACK
6
CONTINUOUS
10
109.9271150000000006
20
-153.5900759999999821
11
110.1175909999999902
21
-153.4948379999999872
0
LINE
8
BLACK
6
CONTINUOUS
10
111.6414010000000019
20
-155.3043610000000001
11
111.7366389999999967
21
-155.3995999999999924
0
LINE
8
BLACK
6
CONTINUOUS
10
111.7366389999999967
20
-155.3995999999999924
11
111.6414010000000019
21
-155.4948379999999872
0
LINE
8
BLACK
6
CONTINUOUS
10
111.6414010000000019
20
-155.4948379999999872
11
111.5461629999999928
21
-155.3995999999999924
0
LINE
8
BLACK
6
CONTINUOUS
10
111.5461629999999928
20
-155.3995999999999924
11
111.6414010000000019
21
-155.3043610000000001
0
LINE
8
BLACK
6
CONTINUOUS
10
111.6414010000000019
20
-155.3043610000000001
11
111.6414010000000019
21
-155.4948379999999872
0
LINE
8
BLACK
6
CONTINUOUS
10
112.974733999999998
20
-153.4948379999999872
11
113.1652109999999993
21
-153.4948379999999872
0
LINE
8
BLACK
6
CONTINUOUS
10
113.1652109999999993
20
-153.4948379999999872
11
113.355686999999989
21
-153.5900759999999821
0
LINE
8
BLACK
6
CONTINUOUS
10
113.355686999999989
20
-153.5900759999999821
11
113.450924999999998
21
-153.6853140000000053
0
LINE
8
BLACK
6
CONTINUOUS
10
113.450924999999998
20
-153.6853140000000053
11
113.5461629999999928
21
-153.875789999999995
0
LINE
8
BLACK
6
CONTINUOUS
10
113.5461629999999928
20
-153.875789999999995
11
113.6414010000000019
21
-154.2567420000000027
0
LINE
8
BLACK
6
CONTINUOUS
10
113.6414010000000019
20
-154.2567420000000027
11
113.6414010000000019
21
-154.7329330000000027
0
LINE
8
BLACK
6
CONTINUOUS
10
113.6414010000000019
20
-154.7329330000000027
11
113.5461629999999928
21
-155.113884999999982
0
LINE
8
BLACK
6
CONTINUOUS
10
113.5461629999999928
20
-155.113884999999982
11
113.450924999999998
21
-155.3043610000000001
0
LINE
8
BLACK
6
CONTINUOUS
10
113.450924999999998
20
-155.3043610000000001
11
113.355686999999989
21
-155.3995999999999924
0
LINE
8
BLACK
6
CONTINUOUS
10
113.355686999999989
20
-155.3995999999999924
11
113.1652109999999993
21
-155.4948379999999872
0
LINE
8
BLACK
6
CONTINUOUS
10
113.1652109999999993
20
-155.4948379999999872
11
112.974733999999998
21
-155.4948379999999872
0
LINE
8
BLACK
6
CONTINUOUS
10
112.974733999999998
20
-155.4948379999999872
11
112.7842579999999941
21
-155.3995999999999924
0
LINE
8
BLACK
6
CONTINUOUS
10
112.7842579999999941
20
-155.3995999999999924
11
112.6890199999999993
21
-155.3043610000000001
0
LINE
8
BLACK
6
CONTINUOUS
10
112.6890199999999993
20
-155.3043610000000001
11
112.5937819999999903
21
-155.113884999999982
0
LINE
8
BLACK
6
CONTINUOUS
10
112.5937819999999903
20
-155.113884999999982
11
112.4985439999999954
21
-154.7329330000000027
0
LINE
8
BLACK
6
CONTINUOUS
10
112.4985439999999954
20
-154.7329330000000027
11
112.4985439999999954
21
-154.2567420000000027
0
LINE
8
BLACK
6
CONTINUOUS
10
112.4985439999999954
20
-154.2567420000000027
11
112.5937819999999903
21
-153.875789999999995
0
LINE
8
BLACK
6
CONTINUOUS
10
112.5937819999999903
20
-153.875789999999995
11
112.6890199999999993
21
-153.6853140000000053
0
LINE
8
BLACK
6
CONTINUOUS
10
112.6890199999999993
20
-153.6853140000000053
11
112.7842579999999941
21
-153.5900759999999821
0
LINE
8
BLACK
6
CONTINUOUS
10
112.7842579999999941
20
-153.5900759999999821
11
112.974733999999998
21
-153.4948379999999872
0
LINE
8
BLACK
6
CONTINUOUS
10
115.355686999999989
20
-154.1615039999999794
11
115.355686999999989
21
-155.4948379999999872
0
LINE
8
BLACK
6
CONTINUOUS
10
114.879495999999989
20
-153.3995999999999924
11
114.4033060000000006
21
-154.8281709999999975
0
LINE
8
BLACK
6
CONTINUOUS
10
114.4033060000000006
20
-154.8281709999999975
11
115.6414009999999877
21
-154.8281709999999975
0
LINE
8
BLACK
6
CONTINUOUS
10
116.2128299999999967
20
-153.4948379999999872
11
117.5461629999999928
21
-153.4948379999999872
0
LINE
8
BLACK
6
CONTINUOUS
10
117.5461629999999928
20
-153.4948379999999872
11
116.6890199999999993
21
-155.4948379999999872
0
LINE
8
BLACK
6
CONTINUOUS
10
119.1652109999999993
20
-153.4948379999999872
11
118.7842579999999941
21
-153.4948379999999872
0
LINE
8
BLACK
6
CONTINUOUS
10
118.7842579999999941
20
-153.4948379999999872
11
118.5937819999999903
21
-153.5900759999999821
0
LINE
8
BLACK
6
CONTINUOUS
10
118.5937819999999903
20
-153.5900759999999821
11
118.4985439999999954
21
-153.6853140000000053
0
LINE
8
BLACK
6
CONTINUOUS
10
118.4985439999999954
20
-153.6853140000000053
11
118.3080679999999916
21
-153.9710279999999898
0
LINE
8
BLACK
6
CONTINUOUS
10
118.3080679999999916
20
-153.9710279999999898
11
118.2128299999999967
21
-154.3519799999999975
0
LINE
8
BLACK
6
CONTINUOUS
10
118.2128299999999967
20
-154.3519799999999975
11
118.2128299999999967
21
-155.113884999999982
0
LINE
8
BLACK
6
CONTINUOUS
10
118.2128299999999967
20
-155.113884999999982
11
118.3080679999999916
21
-155.3043610000000001
0
LINE
8
BLACK
6
CONTINUOUS
10
118.3080679999999916
20
-155.3043610000000001
11
118.4033060000000006
21
-155.3995999999999924
0
LINE
8
BLACK
6
CONTINUOUS
10
118.4033060000000006
20
-155.3995999999999924
11
118.5937819999999903
21
-155.4948379999999872
0
LINE
8
BLACK
6
CONTINUOUS
10
118.5937819999999903
20
-155.4948379999999872
11
118.9747349999999955
21
-155.4948379999999872
0
LINE
8
BLACK
6
CONTINUOUS
10
118.9747349999999955
20
-155.4948379999999872
11
119.1652109999999993
21
-155.3995999999999924
0
LINE
8
BLACK
6
CONTINUOUS
10
119.1652109999999993
20
-155.3995999999999924
11
119.2604489999999942
21
-155.3043610000000001
0
LINE
8
BLACK
6
CONTINUOUS
10
119.2604489999999942
20
-155.3043610000000001
11
119.355686999999989
21
-155.113884999999982
0
LINE
8
BLACK
6
CONTINUOUS
10
119.355686999999989
20
-155.113884999999982
11
119.355686999999989
21
-154.6376949999999795
0
LINE
8
BLACK
6
CONTINUOUS
10
119.355686999999989
20
-154.6376949999999795
11
119.2604489999999942
21
-154.4472189999999898
0
LINE
8
BLACK
6
CONTINUOUS
10
119.2604489999999942
20
-154.4472189999999898
11
119.1652109999999993
21
-154.3519799999999975
0
LINE
8
BLACK
6
CONTINUOUS
10
119.1652109999999993
20
-154.3519799999999975
11
118.9747349999999955
21
-154.2567420000000027
0
LINE
8
BLACK
6
CONTINUOUS
10
118.9747349999999955
20
-154.2567420000000027
11
118.5937819999999903
21
-154.2567420000000027
0
LINE
8
BLACK
6
CONTINUOUS
10
118.5937819999999903
20
-154.2567420000000027
11
118.4033060000000006
21
-154.3519799999999975
0
LINE
8
BLACK
6
CONTINUOUS
10
118.4033060000000006
20
-154.3519799999999975
11
118.3080679999999916
21
-154.4472189999999898
0
LINE
8
BLACK
6
CONTINUOUS
10
118.3080679999999916
20
-154.4472189999999898
11
118.2128299999999967
21
-154.6376949999999795
0
LINE
8
BLACK
6
CONTINUOUS
10
120.1175919999999877
20
-153.4948379999999872
11
120.1175919999999877
21
-153.875789999999995
0
LINE
8
BLACK
6
CONTINUOUS
10
120.8794970000000006
20
-153.4948379999999872
11
120.8794970000000006
21
-153.875789999999995
0
LINE
8
BLACK
6
CONTINUOUS
10
123.8318790000000007
20
-156.2567420000000027
11
123.7366399999999942
21
-156.1615039999999794
0
LINE
8
BLACK
6
CONTINUOUS
10
123.7366399999999942
20
-156.1615039999999794
11
123.5461639999999903
21
-155.875789999999995
0
LINE
8
BLACK
6
CONTINUOUS
10
123.5461639999999903
20
-155.875789999999995
11
123.4509259999999955
21
-155.6853140000000053
0
LINE
8
BLACK
6
CONTINUOUS
10
123.4509259999999955
20
-155.6853140000000053
11
123.3556880000000007
21
-155.3995999999999924
0
LINE
8
BLACK
6
CONTINUOUS
10
123.3556880000000007
20
-155.3995999999999924
11
123.2604499999999916
21
-154.9234089999999924
0
LINE
8
BLACK
6
CONTINUOUS
10
123.2604499999999916
20
-154.9234089999999924
11
123.2604499999999916
21
-154.5424569999999846
0
LINE
8
BLACK
6
CONTINUOUS
10
123.2604499999999916
20
-154.5424569999999846
11
123.3556880000000007
21
-154.0662659999999846
0
LINE
8
BLACK
6
CONTINUOUS
10
123.3556880000000007
20
-154.0662659999999846
11
123.4509259999999955
21
-153.7805520000000001
0
LINE
8
BLACK
6
CONTINUOUS
10
123.4509259999999955
20
-153.7805520000000001
11
123.5461639999999903
21
-153.5900759999999821
0
LINE
8
BLACK
6
CONTINUOUS
10
123.5461639999999903
20
-153.5900759999999821
11
123.7366399999999942
21
-153.3043610000000001
0
LINE
8
BLACK
6
CONTINUOUS
10
123.7366399999999942
20
-153.3043610000000001
11
123.8318790000000007
21
-153.2091230000000053
0
LINE
8
BLACK
6
CONTINUOUS
10
125.4509259999999955
20
-154.1615039999999794
11
125.4509259999999955
21
-155.4948379999999872
0
LINE
8
BLACK
6
CONTINUOUS
10
124.9747349999999955
20
-153.3995999999999924
11
124.4985449999999929
21
-154.8281709999999975
0
LINE
8
BLACK
6
CONTINUOUS
10
124.4985449999999929
20
-154.8281709999999975
11
125.7366399999999942
21
-154.8281709999999975
0
LINE
8
BLACK
6
CONTINUOUS
10
128.0223550000000046
20
-155.4948379999999872
11
128.0223550000000046
21
-153.4948379999999872
0
LINE
8
BLACK
6
CONTINUOUS
10
128.8794979999999839
20
-155.4948379999999872
11
128.8794979999999839
21
-154.4472189999999898
0
LINE
8
BLACK
6
CONTINUOUS
10
128.8794979999999839
20
-154.4472189999999898
11
128.7842599999999891
21
-154.2567420000000027
0
LINE
8
BLACK
6
CONTINUOUS
10
128.7842599999999891
20
-154.2567420000000027
11
128.5937839999999994
21
-154.1615039999999794
0
LINE
8
BLACK
6
CONTINUOUS
10
128.5937839999999994
20
-154.1615039999999794
11
128.308068999999989
21
-154.1615039999999794
0
LINE
8
BLACK
6
CONTINUOUS
10
128.308068999999989
20
-154.1615039999999794
11
128.1175929999999994
21
-154.2567420000000027
0
LINE
8
BLACK
6
CONTINUOUS
10
128.1175929999999994
20
-154.2567420000000027
11
128.0223550000000046
21
-154.3519799999999975
0
LINE
8
BLACK
6
CONTINUOUS
10
130.1175929999999994
20
-155.4948379999999872
11
129.9271169999999813
21
-155.3995999999999924
0
LINE
8
BLACK
6
CONTINUOUS
10
129.9271169999999813
20
-155.3995999999999924
11
129.8318789999999865
21
-155.3043610000000001
0
LINE
8
BLACK
6
CONTINUOUS
10
129.8318789999999865
20
-155.3043610000000001
11
129.7366409999999917
21
-155.113884999999982
0
LINE
8
BLACK
6
CONTINUOUS
10
129.7366409999999917
20
-155.113884999999982
11
129.7366409999999917
21
-154.5424569999999846
0
LINE
8
BLACK
6
CONTINUOUS
10
129.7366409999999917
20
-154.5424569999999846
11
129.8318789999999865
21
-154.3519799999999975
0
LINE
8
BLACK
6
CONTINUOUS
10
129.8318789999999865
20
-154.3519799999999975
11
129.9271169999999813
21
-154.2567420000000027
0
LINE
8
BLACK
6
CONTINUOUS
10
129.9271169999999813
20
-154.2567420000000027
11
130.1175929999999994
21
-154.1615039999999794
0
LINE
8
BLACK
6
CONTINUOUS
10
130.1175929999999994
20
-154.1615039999999794
11
130.4033079999999813
21
-154.1615039999999794
0
LINE
8
BLACK
6
CONTINUOUS
10
130.4033079999999813
20
-154.1615039999999794
11
130.5937839999999994
21
-154.2567420000000027
0
LINE
8
BLACK
6
CONTINUOUS
10
130.5937839999999994
20
-154.2567420000000027
11
130.6890219999999943
21
-154.3519799999999975
0
LINE
8
BLACK
6
CONTINUOUS
10
130.6890219999999943
20
-154.3519799999999975
11
130.7842599999999891
21
-154.5424569999999846
0
LINE
8
BLACK
6
CONTINUOUS
10
130.7842599999999891
20
-154.5424569999999846
11
130.7842599999999891
21
-155.113884999999982
0
LINE
8
BLACK
6
CONTINUOUS
10
130.7842599999999891
20
-155.113884999999982
11
130.6890219999999943
21
-155.3043610000000001
0
LINE
8
BLACK
6
CONTINUOUS
10
130.6890219999999943
20
-155.3043610000000001
11
130.5937839999999994
21
-155.3995999999999924
0
LINE
8
BLACK
6
CONTINUOUS
10
130.5937839999999994
20
-155.3995999999999924
11
130.4033079999999813
21
-155.4948379999999872
0
LINE
8
BLACK
6
CONTINUOUS
10
130.4033079999999813
20
-155.4948379999999872
11
130.1175929999999994
21
-155.4948379999999872
0
LINE
8
BLACK
6
CONTINUOUS
10
131.9271169999999813
20
-155.4948379999999872
11
131.7366409999999917
21
-155.3995999999999924
0
LINE
8
BLACK
6
CONTINUOUS
10
131.7366409999999917
20
-155.3995999999999924
11
131.6414029999999968
21
-155.2091230000000053
0
LINE
8
BLACK
6
CONTINUOUS
10
131.6414029999999968
20
-155.2091230000000053
11
131.6414029999999968
21
-153.4948379999999872
0
LINE
8
BLACK
6
CONTINUOUS
10
133.4509270000000072
20
-155.3995999999999924
11
133.2604509999999891
21
-155.4948379999999872
0
LINE
8
BLACK
6
CONTINUOUS
10
133.2604509999999891
20
-155.4948379999999872
11
132.8794979999999839
21
-155.4948379999999872
0
LINE
8
BLACK
6
CONTINUOUS
10
132.8794979999999839
20
-155.4948379999999872
11
132.6890219999999943
21
-155.3995999999999924
0
LINE
8
BLACK
6
CONTINUOUS
10
132.6890219999999943
20
-155.3995999999999924
11
132.5937839999999994
21
-155.2091230000000053
0
LINE
8
BLACK
6
CONTINUOUS
10
132.5937839999999994
20
-155.2091230000000053
11
132.5937839999999994
21
-154.4472189999999898
0
LINE
8
BLACK
6
CONTINUOUS
10
132.5937839999999994
20
-154.4472189999999898
11
132.6890219999999943
21
-154.2567420000000027
0
LINE
8
BLACK
6
CONTINUOUS
10
132.6890219999999943
20
-154.2567420000000027
11
132.8794979999999839
21
-154.1615039999999794
0
LINE
8
BLACK
6
CONTINUOUS
10
132.8794979999999839
20
-154.1615039999999794
11
133.2604509999999891
21
-154.1615039999999794
0
LINE
8
BLACK
6
CONTINUOUS
10
133.2604509999999891
20
-154.1615039999999794
11
133.4509270000000072
21
-154.2567420000000027
0
LINE
8
BLACK
6
CONTINUOUS
10
133.4509270000000072
20
-154.2567420000000027
11
133.546165000000002
21
-154.4472189999999898
0
LINE
8
BLACK
6
CONTINUOUS
10
133.546165000000002
20
-154.4472189999999898
11
133.546165000000002
21
-154.6376949999999795
0
LINE
8
BLACK
6
CONTINUOUS
10
133.546165000000002
20
-154.6376949999999795
11
132.5937839999999994
21
-154.8281709999999975
0
LINE
8
BLACK
6
CONTINUOUS
10
134.3080699999999865
20
-155.3995999999999924
11
134.4985460000000046
21
-155.4948379999999872
0
LINE
8
BLACK
6
CONTINUOUS
10
134.4985460000000046
20
-155.4948379999999872
11
134.8794979999999839
21
-155.4948379999999872
0
LINE
8
BLACK
6
CONTINUOUS
10
134.8794979999999839
20
-155.4948379999999872
11
135.0699749999999995
21
-155.3995999999999924
0
LINE
8
BLACK
6
CONTINUOUS
10
135.0699749999999995
20
-155.3995999999999924
11
135.1652129999999943
21
-155.2091230000000053
0
LINE
8
BLACK
6
CONTINUOUS
10
135.1652129999999943
20
-155.2091230000000053
11
135.1652129999999943
21
-155.113884999999982
0
LINE
8
BLACK
6
CONTINUOUS
10
135.1652129999999943
20
-155.113884999999982
11
135.0699749999999995
21
-154.9234089999999924
0
LINE
8
BLACK
6
CONTINUOUS
10
135.0699749999999995
20
-154.9234089999999924
11
134.8794979999999839
21
-154.8281709999999975
0
LINE
8
BLACK
6
CONTINUOUS
10
134.8794979999999839
20
-154.8281709999999975
11
134.5937839999999994
21
-154.8281709999999975
0
LINE
8
BLACK
6
CONTINUOUS
10
134.5937839999999994
20
-154.8281709999999975
11
134.4033079999999813
21
-154.7329330000000027
0
LINE
8
BLACK
6
CONTINUOUS
10
134.4033079999999813
20
-154.7329330000000027
11
134.3080699999999865
21
-154.5424569999999846
0
LINE
8
BLACK
6
CONTINUOUS
10
134.3080699999999865
20
-154.5424569999999846
11
134.3080699999999865
21
-154.4472189999999898
0
LINE
8
BLACK
6
CONTINUOUS
10
134.3080699999999865
20
-154.4472189999999898
11
134.4033079999999813
21
-154.2567420000000027
0
LINE
8
BLACK
6
CONTINUOUS
10
134.4033079999999813
20
-154.2567420000000027
11
134.5937839999999994
21
-154.1615039999999794
0
LINE
8
BLACK
6
CONTINUOUS
10
134.5937839999999994
20
-154.1615039999999794
11
134.8794979999999839
21
-154.1615039999999794
0
LINE
8
BLACK
6
CONTINUOUS
10
134.8794979999999839
20
-154.1615039999999794
11
135.0699749999999995
21
-154.2567420000000027
0
LINE
8
BLACK
6
CONTINUOUS
10
135.831879999999984
20
-156.2567420000000027
11
135.9271180000000072
21
-156.1615039999999794
0
LINE
8
BLACK
6
CONTINUOUS
10
135.9271180000000072
20
-156.1615039999999794
11
136.1175939999999969
21
-155.875789999999995
0
LINE
8
BLACK
6
CONTINUOUS
10
136.1175939999999969
20
-155.875789999999995
11
136.2128319999999917
21
-155.6853140000000053
0
LINE
8
BLACK
6
CONTINUOUS
10
136.2128319999999917
20
-155.6853140000000053
11
136.3080699999999865
21
-155.3995999999999924
0
LINE
8
BLACK
6
CONTINUOUS
10
136.3080699999999865
20
-155.3995999999999924
11
136.4033079999999813
21
-154.9234089999999924
0
LINE
8
BLACK
6
CONTINUOUS
10
136.4033079999999813
20
-154.9234089999999924
11
136.4033079999999813
21
-154.5424569999999846
0
LINE
8
BLACK
6
CONTINUOUS
10
136.4033079999999813
20
-154.5424569999999846
11
136.3080699999999865
21
-154.0662659999999846
0
LINE
8
BLACK
6
CONTINUOUS
10
136.3080699999999865
20
-154.0662659999999846
11
136.2128319999999917
21
-153.7805520000000001
0
LINE
8
BLACK
6
CONTINUOUS
10
136.2128319999999917
20
-153.7805520000000001
11
136.1175939999999969
21
-153.5900759999999821
0
LINE
8
BLACK
6
CONTINUOUS
10
136.1175939999999969
20
-153.5900759999999821
11
135.9271180000000072
21
-153.3043610000000001
0
LINE
8
BLACK
6
CONTINUOUS
10
135.9271180000000072
20
-153.3043610000000001
11
135.831879999999984
21
-153.2091230000000053
0
LINE
8
BLACK
6
CONTINUOUS
10
87.8615849999999909
20
-157.7503350000000069
11
87.8615849999999909
21
-156.6896649999999909
0
LINE
8
BLACK
6
CONTINUOUS
10
87.8615849999999909
20
-156.6896649999999909
11
86.8009149999999892
21
-156.6896649999999909
0
LINE
8
BLACK
6
CONTINUOUS
10
86.8009149999999892
20
-156.6896649999999909
11
86.8009149999999892
21
-157.7503350000000069
0
LINE
8
BLACK
6
CONTINUOUS
10
86.8009149999999892
20
-157.7503350000000069
11
87.8615849999999909
21
-157.7503350000000069
0
LINE
8
BLACK
6
CONTINUOUS
10
91.7366370000000018
20
-158.134838000000002
11
90.5937799999999953
21
-158.134838000000002
0
LINE
8
BLACK
6
CONTINUOUS
10
91.1652079999999927
20
-158.134838000000002
11
91.1652079999999927
21
-156.134838000000002
0
LINE
8
BLACK
6
CONTINUOUS
10
91.1652079999999927
20
-156.134838000000002
11
90.9747319999999888
21
-156.4205519999999865
0
LINE
8
BLACK
6
CONTINUOUS
10
90.9747319999999888
20
-156.4205519999999865
11
90.7842559999999992
21
-156.6110280000000046
0
LINE
8
BLACK
6
CONTINUOUS
10
90.7842559999999992
20
-156.6110280000000046
11
90.5937799999999953
21
-156.7062659999999994
0
LINE
8
BLACK
6
CONTINUOUS
10
92.5937799999999953
20
-157.9443609999999865
11
92.6890179999999901
21
-158.0395999999999788
0
LINE
8
BLACK
6
CONTINUOUS
10
92.6890179999999901
20
-158.0395999999999788
11
92.5937799999999953
21
-158.134838000000002
0
LINE
8
BLACK
6
CONTINUOUS
10
92.5937799999999953
20
-158.134838000000002
11
92.4985420000000005
21
-158.0395999999999788
0
LINE
8
BLACK
6
CONTINUOUS
10
92.4985420000000005
20
-158.0395999999999788
11
92.5937799999999953
21
-157.9443609999999865
0
LINE
8
BLACK
6
CONTINUOUS
10
92.5937799999999953
20
-157.9443609999999865
11
92.5937799999999953
21
-158.134838000000002
0
LINE
8
BLACK
6
CONTINUOUS
10
94.4985420000000005
20
-156.134838000000002
11
93.5461609999999979
21
-156.134838000000002
0
LINE
8
BLACK
6
CONTINUOUS
10
93.5461609999999979
20
-156.134838000000002
11
93.4509229999999889
21
-157.0872190000000046
0
LINE
8
BLACK
6
CONTINUOUS
10
93.4509229999999889
20
-157.0872190000000046
11
93.5461609999999979
21
-156.9919799999999839
0
LINE
8
BLACK
6
CONTINUOUS
10
93.5461609999999979
20
-156.9919799999999839
11
93.7366370000000018
21
-156.896741999999989
0
LINE
8
BLACK
6
CONTINUOUS
10
93.7366370000000018
20
-156.896741999999989
11
94.2128280000000018
21
-156.896741999999989
0
LINE
8
BLACK
6
CONTINUOUS
10
94.2128280000000018
20
-156.896741999999989
11
94.4033039999999914
21
-156.9919799999999839
0
LINE
8
BLACK
6
CONTINUOUS
10
94.4033039999999914
20
-156.9919799999999839
11
94.4985420000000005
21
-157.0872190000000046
0
LINE
8
BLACK
6
CONTINUOUS
10
94.4985420000000005
20
-157.0872190000000046
11
94.5937799999999953
21
-157.2776949999999943
0
LINE
8
BLACK
6
CONTINUOUS
10
94.5937799999999953
20
-157.2776949999999943
11
94.5937799999999953
21
-157.7538849999999968
0
LINE
8
BLACK
6
CONTINUOUS
10
94.5937799999999953
20
-157.7538849999999968
11
94.4985420000000005
21
-157.9443609999999865
0
LINE
8
BLACK
6
CONTINUOUS
10
94.4985420000000005
20
-157.9443609999999865
11
94.4033039999999914
21
-158.0395999999999788
0
LINE
8
BLACK
6
CONTINUOUS
10
94.4033039999999914
20
-158.0395999999999788
11
94.2128280000000018
21
-158.134838000000002
0
LINE
8
BLACK
6
CONTINUOUS
10
94.2128280000000018
20
-158.134838000000002
11
93.7366370000000018
21
-158.134838000000002
0
LINE
8
BLACK
6
CONTINUOUS
10
93.7366370000000018
20
-158.134838000000002
11
93.5461609999999979
21
-158.0395999999999788
0
LINE
8
BLACK
6
CONTINUOUS
10
93.5461609999999979
20
-158.0395999999999788
11
93.4509229999999889
21
-157.9443609999999865
0
LINE
8
BLACK
6
CONTINUOUS
10
95.8318749999999966
20
-156.134838000000002
11
96.0223519999999979
21
-156.134838000000002
0
LINE
8
BLACK
6
CONTINUOUS
10
96.0223519999999979
20
-156.134838000000002
11
96.2128280000000018
21
-156.2300759999999968
0
LINE
8
BLACK
6
CONTINUOUS
10
96.2128280000000018
20
-156.2300759999999968
11
96.3080659999999966
21
-156.3253139999999917
0
LINE
8
BLACK
6
CONTINUOUS
10
96.3080659999999966
20
-156.3253139999999917
11
96.4033039999999914
21
-156.5157899999999813
0
LINE
8
BLACK
6
CONTINUOUS
10
96.4033039999999914
20
-156.5157899999999813
11
96.4985420000000005
21
-156.896741999999989
0
LINE
8
BLACK
6
CONTINUOUS
10
96.4985420000000005
20
-156.896741999999989
11
96.4985420000000005
21
-157.3729329999999891
0
LINE
8
BLACK
6
CONTINUOUS
10
96.4985420000000005
20
-157.3729329999999891
11
96.4033039999999914
21
-157.7538849999999968
0
LINE
8
BLACK
6
CONTINUOUS
10
96.4033039999999914
20
-157.7538849999999968
11
96.3080659999999966
21
-157.9443609999999865
0
LINE
8
BLACK
6
CONTINUOUS
10
96.3080659999999966
20
-157.9443609999999865
11
96.2128280000000018
21
-158.0395999999999788
0
LINE
8
BLACK
6
CONTINUOUS
10
96.2128280000000018
20
-158.0395999999999788
11
96.0223519999999979
21
-158.134838000000002
0
LINE
8
BLACK
6
CONTINUOUS
10
96.0223519999999979
20
-158.134838000000002
11
95.8318749999999966
21
-158.134838000000002
0
LINE
8
BLACK
6
CONTINUOUS
10
95.8318749999999966
20
-158.134838000000002
11
95.6413989999999927
21
-158.0395999999999788
0
LINE
8
BLACK
6
CONTINUOUS
10
95.6413989999999927
20
-158.0395999999999788
11
95.5461609999999979
21
-157.9443609999999865
0
LINE
8
BLACK
6
CONTINUOUS
10
95.5461609999999979
20
-157.9443609999999865
11
95.4509229999999889
21
-157.7538849999999968
0
LINE
8
BLACK
6
CONTINUOUS
10
95.4509229999999889
20
-157.7538849999999968
11
95.355684999999994
21
-157.3729329999999891
0
LINE
8
BLACK
6
CONTINUOUS
10
95.355684999999994
20
-157.3729329999999891
11
95.355684999999994
21
-156.896741999999989
0
LINE
8
BLACK
6
CONTINUOUS
10
95.355684999999994
20
-156.896741999999989
11
95.4509229999999889
21
-156.5157899999999813
0
LINE
8
BLACK
6
CONTINUOUS
10
95.4509229999999889
20
-156.5157899999999813
11
95.5461609999999979
21
-156.3253139999999917
0
LINE
8
BLACK
6
CONTINUOUS
10
95.5461609999999979
20
-156.3253139999999917
11
95.6413989999999927
21
-156.2300759999999968
0
LINE
8
BLACK
6
CONTINUOUS
10
95.6413989999999927
20
-156.2300759999999968
11
95.8318749999999966
21
-156.134838000000002
0
LINE
8
BLACK
6
CONTINUOUS
10
97.7366370000000018
20
-156.134838000000002
11
97.9271139999999889
21
-156.134838000000002
0
LINE
8
BLACK
6
CONTINUOUS
10
97.9271139999999889
20
-156.134838000000002
11
98.1175899999999928
21
-156.2300759999999968
0
LINE
8
BLACK
6
CONTINUOUS
10
98.1175899999999928
20
-156.2300759999999968
11
98.2128280000000018
21
-156.3253139999999917
0
LINE
8
BLACK
6
CONTINUOUS
10
98.2128280000000018
20
-156.3253139999999917
11
98.3080659999999966
21
-156.5157899999999813
0
LINE
8
BLACK
6
CONTINUOUS
10
98.3080659999999966
20
-156.5157899999999813
11
98.4033039999999914
21
-156.896741999999989
0
LINE
8
BLACK
6
CONTINUOUS
10
98.4033039999999914
20
-156.896741999999989
11
98.4033039999999914
21
-157.3729329999999891
0
LINE
8
BLACK
6
CONTINUOUS
10
98.4033039999999914
20
-157.3729329999999891
11
98.3080659999999966
21
-157.7538849999999968
0
LINE
8
BLACK
6
CONTINUOUS
10
98.3080659999999966
20
-157.7538849999999968
11
98.2128280000000018
21
-157.9443609999999865
0
LINE
8
BLACK
6
CONTINUOUS
10
98.2128280000000018
20
-157.9443609999999865
11
98.1175899999999928
21
-158.0395999999999788
0
LINE
8
BLACK
6
CONTINUOUS
10
98.1175899999999928
20
-158.0395999999999788
11
97.9271139999999889
21
-158.134838000000002
0
LINE
8
BLACK
6
CONTINUOUS
10
97.9271139999999889
20
-158.134838000000002
11
97.7366370000000018
21
-158.134838000000002
0
LINE
8
BLACK
6
CONTINUOUS
10
97.7366370000000018
20
-158.134838000000002
11
97.5461609999999979
21
-158.0395999999999788
0
LINE
8
BLACK
6
CONTINUOUS
10
97.5461609999999979
20
-158.0395999999999788
11
97.4509229999999889
21
-157.9443609999999865
0
LINE
8
BLACK
6
CONTINUOUS
10
97.4509229999999889
20
-157.9443609999999865
11
97.355684999999994
21
-157.7538849999999968
0
LINE
8
BLACK
6
CONTINUOUS
10
97.355684999999994
20
-157.7538849999999968
11
97.2604469999999992
21
-157.3729329999999891
0
LINE
8
BLACK
6
CONTINUOUS
10
97.2604469999999992
20
-157.3729329999999891
11
97.2604469999999992
21
-156.896741999999989
0
LINE
8
BLACK
6
CONTINUOUS
10
97.2604469999999992
20
-156.896741999999989
11
97.355684999999994
21
-156.5157899999999813
0
LINE
8
BLACK
6
CONTINUOUS
10
97.355684999999994
20
-156.5157899999999813
11
97.4509229999999889
21
-156.3253139999999917
0
LINE
8
BLACK
6
CONTINUOUS
10
97.4509229999999889
20
-156.3253139999999917
11
97.5461609999999979
21
-156.2300759999999968
0
LINE
8
BLACK
6
CONTINUOUS
10
97.5461609999999979
20
-156.2300759999999968
11
97.7366370000000018
21
-156.134838000000002
0
LINE
8
BLACK
6
CONTINUOUS
10
99.2604469999999992
20
-158.134838000000002
11
99.2604469999999992
21
-156.8015039999999942
0
LINE
8
BLACK
6
CONTINUOUS
10
99.2604469999999992
20
-156.9919799999999839
11
99.355684999999994
21
-156.896741999999989
0
LINE
8
BLACK
6
CONTINUOUS
10
99.355684999999994
20
-156.896741999999989
11
99.5461609999999979
21
-156.8015039999999942
0
LINE
8
BLACK
6
CONTINUOUS
10
99.5461609999999979
20
-156.8015039999999942
11
99.8318759999999941
21
-156.8015039999999942
0
LINE
8
BLACK
6
CONTINUOUS
10
99.8318759999999941
20
-156.8015039999999942
11
100.0223519999999979
21
-156.896741999999989
0
LINE
8
BLACK
6
CONTINUOUS
10
100.0223519999999979
20
-156.896741999999989
11
100.1175899999999928
21
-157.0872190000000046
0
LINE
8
BLACK
6
CONTINUOUS
10
100.1175899999999928
20
-157.0872190000000046
11
100.1175899999999928
21
-158.134838000000002
0
LINE
8
BLACK
6
CONTINUOUS
10
100.1175899999999928
20
-157.0872190000000046
11
100.2128280000000018
21
-156.896741999999989
0
LINE
8
BLACK
6
CONTINUOUS
10
100.2128280000000018
20
-156.896741999999989
11
100.4033039999999914
21
-156.8015039999999942
0
LINE
8
BLACK
6
CONTINUOUS
10
100.4033039999999914
20
-156.8015039999999942
11
100.6890179999999901
21
-156.8015039999999942
0
LINE
8
BLACK
6
CONTINUOUS
10
100.6890179999999901
20
-156.8015039999999942
11
100.8794949999999915
21
-156.896741999999989
0
LINE
8
BLACK
6
CONTINUOUS
10
100.8794949999999915
20
-156.896741999999989
11
100.9747330000000005
21
-157.0872190000000046
0
LINE
8
BLACK
6
CONTINUOUS
10
100.9747330000000005
20
-157.0872190000000046
11
100.9747330000000005
21
-158.134838000000002
0
LINE
8
BLACK
6
CONTINUOUS
10
101.9271139999999889
20
-158.134838000000002
11
101.9271139999999889
21
-156.8015039999999942
0
LINE
8
BLACK
6
CONTINUOUS
10
101.9271139999999889
20
-156.9919799999999839
11
102.0223519999999979
21
-156.896741999999989
0
LINE
8
BLACK
6
CONTINUOUS
10
102.0223519999999979
20
-156.896741999999989
11
102.2128280000000018
21
-156.8015039999999942
0
LINE
8
BLACK
6
CONTINUOUS
10
102.2128280000000018
20
-156.8015039999999942
11
102.498542999999998
21
-156.8015039999999942
0
LINE
8
BLACK
6
CONTINUOUS
10
102.498542999999998
20
-156.8015039999999942
11
102.6890190000000018
21
-156.896741999999989
0
LINE
8
BLACK
6
CONTINUOUS
10
102.6890190000000018
20
-156.896741999999989
11
102.7842569999999967
21
-157.0872190000000046
0
LINE
8
BLACK
6
CONTINUOUS
10
102.7842569999999967
20
-157.0872190000000046
11
102.7842569999999967
21
-158.134838000000002
0
LINE
8
BLACK
6
CONTINUOUS
10
102.7842569999999967
20
-157.0872190000000046
11
102.8794949999999915
21
-156.896741999999989
0
LINE
8
BLACK
6
CONTINUOUS
10
102.8794949999999915
20
-156.896741999999989
11
103.0699709999999953
21
-156.8015039999999942
0
LINE
8
BLACK
6
CONTINUOUS
10
103.0699709999999953
20
-156.8015039999999942
11
103.355684999999994
21
-156.8015039999999942
0
LINE
8
BLACK
6
CONTINUOUS
10
103.355684999999994
20
-156.8015039999999942
11
103.5461619999999954
21
-156.896741999999989
0
LINE
8
BLACK
6
CONTINUOUS
10
103.5461619999999954
20
-156.896741999999989
11
103.6413999999999902
21
-157.0872190000000046
0
LINE
8
BLACK
6
CONTINUOUS
10
103.6413999999999902
20
-157.0872190000000046
11
103.6413999999999902
21
-158.134838000000002
0
LINE
8
BLACK
6
CONTINUOUS
10
107.5461619999999954
20
-156.0395999999999788
11
105.8318769999999915
21
-158.6110280000000046
0
LINE
8
BLACK
6
CONTINUOUS
10
110.1175909999999902
20
-156.134838000000002
11
110.3080679999999916
21
-156.134838000000002
0
LINE
8
BLACK
6
CONTINUOUS
10
110.3080679999999916
20
-156.134838000000002
11
110.4985439999999954
21
-156.2300759999999968
0
LINE
8
BLACK
6
CONTINUOUS
10
110.4985439999999954
20
-156.2300759999999968
11
110.5937819999999903
21
-156.3253139999999917
0
LINE
8
BLACK
6
CONTINUOUS
10
110.5937819999999903
20
-156.3253139999999917
11
110.6890199999999993
21
-156.5157899999999813
0
LINE
8
BLACK
6
CONTINUOUS
10
110.6890199999999993
20
-156.5157899999999813
11
110.7842579999999941
21
-156.896741999999989
0
LINE
8
BLACK
6
CONTINUOUS
10
110.7842579999999941
20
-156.896741999999989
11
110.7842579999999941
21
-157.3729329999999891
0
LINE
8
BLACK
6
CONTINUOUS
10
110.7842579999999941
20
-157.3729329999999891
11
110.6890199999999993
21
-157.7538849999999968
0
LINE
8
BLACK
6
CONTINUOUS
10
110.6890199999999993
20
-157.7538849999999968
11
110.5937819999999903
21
-157.9443609999999865
0
LINE
8
BLACK
6
CONTINUOUS
10
110.5937819999999903
20
-157.9443609999999865
11
110.4985439999999954
21
-158.0395999999999788
0
LINE
8
BLACK
6
CONTINUOUS
10
110.4985439999999954
20
-158.0395999999999788
11
110.3080679999999916
21
-158.134838000000002
0
LINE
8
BLACK
6
CONTINUOUS
10
110.3080679999999916
20
-158.134838000000002
11
110.1175909999999902
21
-158.134838000000002
0
LINE
8
BLACK
6
CONTINUOUS
10
110.1175909999999902
20
-158.134838000000002
11
109.9271150000000006
21
-158.0395999999999788
0
LINE
8
BLACK
6
CONTINUOUS
10
109.9271150000000006
20
-158.0395999999999788
11
109.8318769999999915
21
-157.9443609999999865
0
LINE
8
BLACK
6
CONTINUOUS
10
109.8318769999999915
20
-157.9443609999999865
11
109.7366389999999967
21
-157.7538849999999968
0
LINE
8
BLACK
6
CONTINUOUS
10
109.7366389999999967
20
-157.7538849999999968
11
109.6414010000000019
21
-157.3729329999999891
0
LINE
8
BLACK
6
CONTINUOUS
10
109.6414010000000019
20
-157.3729329999999891
11
109.6414010000000019
21
-156.896741999999989
0
LINE
8
BLACK
6
CONTINUOUS
10
109.6414010000000019
20
-156.896741999999989
11
109.7366389999999967
21
-156.5157899999999813
0
LINE
8
BLACK
6
CONTINUOUS
10
109.7366389999999967
20
-156.5157899999999813
11
109.8318769999999915
21
-156.3253139999999917
0
LINE
8
BLACK
6
CONTINUOUS
10
109.8318769999999915
20
-156.3253139999999917
11
109.9271150000000006
21
-156.2300759999999968
0
LINE
8
BLACK
6
CONTINUOUS
10
109.9271150000000006
20
-156.2300759999999968
11
110.1175909999999902
21
-156.134838000000002
0
LINE
8
BLACK
6
CONTINUOUS
10
111.6414010000000019
20
-157.9443609999999865
11
111.7366389999999967
21
-158.0395999999999788
0
LINE
8
BLACK
6
CONTINUOUS
10
111.7366389999999967
20
-158.0395999999999788
11
111.6414010000000019
21
-158.134838000000002
0
LINE
8
BLACK
6
CONTINUOUS
10
111.6414010000000019
20
-158.134838000000002
11
111.5461629999999928
21
-158.0395999999999788
0
LINE
8
BLACK
6
CONTINUOUS
10
111.5461629999999928
20
-158.0395999999999788
11
111.6414010000000019
21
-157.9443609999999865
0
LINE
8
BLACK
6
CONTINUOUS
10
111.6414010000000019
20
-157.9443609999999865
11
111.6414010000000019
21
-158.134838000000002
0
LINE
8
BLACK
6
CONTINUOUS
10
112.974733999999998
20
-156.134838000000002
11
113.1652109999999993
21
-156.134838000000002
0
LINE
8
BLACK
6
CONTINUOUS
10
113.1652109999999993
20
-156.134838000000002
11
113.355686999999989
21
-156.2300759999999968
0
LINE
8
BLACK
6
CONTINUOUS
10
113.355686999999989
20
-156.2300759999999968
11
113.450924999999998
21
-156.3253139999999917
0
LINE
8
BLACK
6
CONTINUOUS
10
113.450924999999998
20
-156.3253139999999917
11
113.5461629999999928
21
-156.5157899999999813
0
LINE
8
BLACK
6
CONTINUOUS
10
113.5461629999999928
20
-156.5157899999999813
11
113.6414010000000019
21
-156.896741999999989
0
LINE
8
BLACK
6
CONTINUOUS
10
113.6414010000000019
20
-156.896741999999989
11
113.6414010000000019
21
-157.3729329999999891
0
LINE
8
BLACK
6
CONTINUOUS
10
113.6414010000000019
20
-157.3729329999999891
11
113.5461629999999928
21
-157.7538849999999968
0
LINE
8
BLACK
6
CONTINUOUS
10
113.5461629999999928
20
-157.7538849999999968
11
113.450924999999998
21
-157.9443609999999865
0
LINE
8
BLACK
6
CONTINUOUS
10
113.450924999999998
20
-157.9443609999999865
11
113.355686999999989
21
-158.0395999999999788
0
LINE
8
BLACK
6
CONTINUOUS
10
113.355686999999989
20
-158.0395999999999788
11
113.1652109999999993
21
-158.134838000000002
0
LINE
8
BLACK
6
CONTINUOUS
10
113.1652109999999993
20
-158.134838000000002
11
112.974733999999998
21
-158.134838000000002
0
LINE
8
BLACK
6
CONTINUOUS
10
112.974733999999998
20
-158.134838000000002
11
112.7842579999999941
21
-158.0395999999999788
0
LINE
8
BLACK
6
CONTINUOUS
10
112.7842579999999941
20
-158.0395999999999788
11
112.6890199999999993
21
-157.9443609999999865
0
LINE
8
BLACK
6
CONTINUOUS
10
112.6890199999999993
20
-157.9443609999999865
11
112.5937819999999903
21
-157.7538849999999968
0
LINE
8
BLACK
6
CONTINUOUS
10
112.5937819999999903
20
-157.7538849999999968
11
112.4985439999999954
21
-157.3729329999999891
0
LINE
8
BLACK
6
CONTINUOUS
10
112.4985439999999954
20
-157.3729329999999891
11
112.4985439999999954
21
-156.896741999999989
0
LINE
8
BLACK
6
CONTINUOUS
10
112.4985439999999954
20
-156.896741999999989
11
112.5937819999999903
21
-156.5157899999999813
0
LINE
8
BLACK
6
CONTINUOUS
10
112.5937819999999903
20
-156.5157899999999813
11
112.6890199999999993
21
-156.3253139999999917
0
LINE
8
BLACK
6
CONTINUOUS
10
112.6890199999999993
20
-156.3253139999999917
11
112.7842579999999941
21
-156.2300759999999968
0
LINE
8
BLACK
6
CONTINUOUS
10
112.7842579999999941
20
-156.2300759999999968
11
112.974733999999998
21
-156.134838000000002
0
LINE
8
BLACK
6
CONTINUOUS
10
115.450924999999998
20
-156.134838000000002
11
114.4985439999999954
21
-156.134838000000002
0
LINE
8
BLACK
6
CONTINUOUS
10
114.4985439999999954
20
-156.134838000000002
11
114.4033060000000006
21
-157.0872190000000046
0
LINE
8
BLACK
6
CONTINUOUS
10
114.4033060000000006
20
-157.0872190000000046
11
114.4985439999999954
21
-156.9919799999999839
0
LINE
8
BLACK
6
CONTINUOUS
10
114.4985439999999954
20
-156.9919799999999839
11
114.6890199999999993
21
-156.896741999999989
0
LINE
8
BLACK
6
CONTINUOUS
10
114.6890199999999993
20
-156.896741999999989
11
115.1652109999999993
21
-156.896741999999989
0
LINE
8
BLACK
6
CONTINUOUS
10
115.1652109999999993
20
-156.896741999999989
11
115.355686999999989
21
-156.9919799999999839
0
LINE
8
BLACK
6
CONTINUOUS
10
115.355686999999989
20
-156.9919799999999839
11
115.450924999999998
21
-157.0872190000000046
0
LINE
8
BLACK
6
CONTINUOUS
10
115.450924999999998
20
-157.0872190000000046
11
115.5461629999999928
21
-157.2776949999999943
0
LINE
8
BLACK
6
CONTINUOUS
10
115.5461629999999928
20
-157.2776949999999943
11
115.5461629999999928
21
-157.7538849999999968
0
LINE
8
BLACK
6
CONTINUOUS
10
115.5461629999999928
20
-157.7538849999999968
11
115.450924999999998
21
-157.9443609999999865
0
LINE
8
BLACK
6
CONTINUOUS
10
115.450924999999998
20
-157.9443609999999865
11
115.355686999999989
21
-158.0395999999999788
0
LINE
8
BLACK
6
CONTINUOUS
10
115.355686999999989
20
-158.0395999999999788
11
115.1652109999999993
21
-158.134838000000002
0
LINE
8
BLACK
6
CONTINUOUS
10
115.1652109999999993
20
-158.134838000000002
11
114.6890199999999993
21
-158.134838000000002
0
LINE
8
BLACK
6
CONTINUOUS
10
114.6890199999999993
20
-158.134838000000002
11
114.4985439999999954
21
-158.0395999999999788
0
LINE
8
BLACK
6
CONTINUOUS
10
114.4985439999999954
20
-158.0395999999999788
11
114.4033060000000006
21
-157.9443609999999865
0
LINE
8
BLACK
6
CONTINUOUS
10
116.4985439999999954
20
-158.134838000000002
11
116.879495999999989
21
-158.134838000000002
0
LINE
8
BLACK
6
CONTINUOUS
10
116.879495999999989
20
-158.134838000000002
11
117.0699729999999903
21
-158.0395999999999788
0
LINE
8
BLACK
6
CONTINUOUS
10
117.0699729999999903
20
-158.0395999999999788
11
117.1652109999999993
21
-157.9443609999999865
0
LINE
8
BLACK
6
CONTINUOUS
10
117.1652109999999993
20
-157.9443609999999865
11
117.355686999999989
21
-157.658647000000002
0
LINE
8
BLACK
6
CONTINUOUS
10
117.355686999999989
20
-157.658647000000002
11
117.450924999999998
21
-157.2776949999999943
0
LINE
8
BLACK
6
CONTINUOUS
10
117.450924999999998
20
-157.2776949999999943
11
117.450924999999998
21
-156.5157899999999813
0
LINE
8
BLACK
6
CONTINUOUS
10
117.450924999999998
20
-156.5157899999999813
11
117.355686999999989
21
-156.3253139999999917
0
LINE
8
BLACK
6
CONTINUOUS
10
117.355686999999989
20
-156.3253139999999917
11
117.2604489999999942
21
-156.2300759999999968
0
LINE
8
BLACK
6
CONTINUOUS
10
117.2604489999999942
20
-156.2300759999999968
11
117.0699729999999903
21
-156.134838000000002
0
LINE
8
BLACK
6
CONTINUOUS
10
117.0699729999999903
20
-156.134838000000002
11
116.6890199999999993
21
-156.134838000000002
0
LINE
8
BLACK
6
CONTINUOUS
10
116.6890199999999993
20
-156.134838000000002
11
116.4985439999999954
21
-156.2300759999999968
0
LINE
8
BLACK
6
CONTINUOUS
10
116.4985439999999954
20
-156.2300759999999968
11
116.4033060000000006
21
-156.3253139999999917
0
LINE
8
BLACK
6
CONTINUOUS
10
116.4033060000000006
20
-156.3253139999999917
11
116.3080679999999916
21
-156.5157899999999813
0
LINE
8
BLACK
6
CONTINUOUS
10
116.3080679999999916
20
-156.5157899999999813
11
116.3080679999999916
21
-156.9919799999999839
0
LINE
8
BLACK
6
CONTINUOUS
10
116.3080679999999916
20
-156.9919799999999839
11
116.4033060000000006
21
-157.1824569999999994
0
LINE
8
BLACK
6
CONTINUOUS
10
116.4033060000000006
20
-157.1824569999999994
11
116.4985439999999954
21
-157.2776949999999943
0
LINE
8
BLACK
6
CONTINUOUS
10
116.4985439999999954
20
-157.2776949999999943
11
116.6890199999999993
21
-157.3729329999999891
0
LINE
8
BLACK
6
CONTINUOUS
10
116.6890199999999993
20
-157.3729329999999891
11
117.0699729999999903
21
-157.3729329999999891
0
LINE
8
BLACK
6
CONTINUOUS
10
117.0699729999999903
20
-157.3729329999999891
11
117.2604489999999942
21
-157.2776949999999943
0
LINE
8
BLACK
6
CONTINUOUS
10
117.2604489999999942
20
-157.2776949999999943
11
117.355686999999989
21
-157.1824569999999994
0
LINE
8
BLACK
6
CONTINUOUS
10
117.355686999999989
20
-157.1824569999999994
11
117.450924999999998
21
-156.9919799999999839
0
LINE
8
BLACK
6
CONTINUOUS
10
119.355686999999989
20
-158.134838000000002
11
118.2128299999999967
21
-158.134838000000002
0
LINE
8
BLACK
6
CONTINUOUS
10
118.7842579999999941
20
-158.134838000000002
11
118.7842579999999941
21
-156.134838000000002
0
LINE
8
BLACK
6
CONTINUOUS
10
118.7842579999999941
20
-156.134838000000002
11
118.5937819999999903
21
-156.4205519999999865
0
LINE
8
BLACK
6
CONTINUOUS
10
118.5937819999999903
20
-156.4205519999999865
11
118.4033060000000006
21
-156.6110280000000046
0
LINE
8
BLACK
6
CONTINUOUS
10
118.4033060000000006
20
-156.6110280000000046
11
118.2128299999999967
21
-156.7062659999999994
0
LINE
8
BLACK
6
CONTINUOUS
10
120.1175919999999877
20
-156.134838000000002
11
120.1175919999999877
21
-156.5157899999999813
0
LINE
8
BLACK
6
CONTINUOUS
10
120.8794970000000006
20
-156.134838000000002
11
120.8794970000000006
21
-156.5157899999999813
0
LINE
8
BLACK
6
CONTINUOUS
10
123.8318790000000007
20
-158.896741999999989
11
123.7366399999999942
21
-158.8015039999999942
0
LINE
8
BLACK
6
CONTINUOUS
10
123.7366399999999942
20
-158.8015039999999942
11
123.5461639999999903
21
-158.5157899999999813
0
LINE
8
BLACK
6
CONTINUOUS
10
123.5461639999999903
20
-158.5157899999999813
11
123.4509259999999955
21
-158.3253139999999917
0
LINE
8
BLACK
6
CONTINUOUS
10
123.4509259999999955
20
-158.3253139999999917
11
123.3556880000000007
21
-158.0395999999999788
0
LINE
8
BLACK
6
CONTINUOUS
10
123.3556880000000007
20
-158.0395999999999788
11
123.2604499999999916
21
-157.5634089999999787
0
LINE
8
BLACK
6
CONTINUOUS
10
123.2604499999999916
20
-157.5634089999999787
11
123.2604499999999916
21
-157.1824569999999994
0
LINE
8
BLACK
6
CONTINUOUS
10
123.2604499999999916
20
-157.1824569999999994
11
123.3556880000000007
21
-156.7062659999999994
0
LINE
8
BLACK
6
CONTINUOUS
10
123.3556880000000007
20
-156.7062659999999994
11
123.4509259999999955
21
-156.4205519999999865
0
LINE
8
BLACK
6
CONTINUOUS
10
123.4509259999999955
20
-156.4205519999999865
11
123.5461639999999903
21
-156.2300759999999968
0
LINE
8
BLACK
6
CONTINUOUS
10
123.5461639999999903
20
-156.2300759999999968
11
123.7366399999999942
21
-155.9443609999999865
0
LINE
8
BLACK
6
CONTINUOUS
10
123.7366399999999942
20
-155.9443609999999865
11
123.8318790000000007
21
-155.8491229999999916
0
LINE
8
BLACK
6
CONTINUOUS
10
125.6414019999999994
20
-158.134838000000002
11
124.4985449999999929
21
-158.134838000000002
0
LINE
8
BLACK
6
CONTINUOUS
10
125.0699729999999903
20
-158.134838000000002
11
125.0699729999999903
21
-156.134838000000002
0
LINE
8
BLACK
6
CONTINUOUS
10
125.0699729999999903
20
-156.134838000000002
11
124.8794970000000006
21
-156.4205519999999865
0
LINE
8
BLACK
6
CONTINUOUS
10
124.8794970000000006
20
-156.4205519999999865
11
124.6890209999999968
21
-156.6110280000000046
0
LINE
8
BLACK
6
CONTINUOUS
10
124.6890209999999968
20
-156.6110280000000046
11
124.4985449999999929
21
-156.7062659999999994
0
LINE
8
BLACK
6
CONTINUOUS
10
126.7842589999999916
20
-156.9919799999999839
11
126.5937829999999877
21
-156.896741999999989
0
LINE
8
BLACK
6
CONTINUOUS
10
126.5937829999999877
20
-156.896741999999989
11
126.4985449999999929
21
-156.8015039999999942
0
LINE
8
BLACK
6
CONTINUOUS
10
126.4985449999999929
20
-156.8015039999999942
11
126.4033069999999981
21
-156.6110280000000046
0
LINE
8
BLACK
6
CONTINUOUS
10
126.4033069999999981
20
-156.6110280000000046
11
126.4033069999999981
21
-156.5157899999999813
0
LINE
8
BLACK
6
CONTINUOUS
10
126.4033069999999981
20
-156.5157899999999813
11
126.4985449999999929
21
-156.3253139999999917
0
LINE
8
BLACK
6
CONTINUOUS
10
126.4985449999999929
20
-156.3253139999999917
11
126.5937829999999877
21
-156.2300759999999968
0
LINE
8
BLACK
6
CONTINUOUS
10
126.5937829999999877
20
-156.2300759999999968
11
126.7842589999999916
21
-156.134838000000002
0
LINE
8
BLACK
6
CONTINUOUS
10
126.7842589999999916
20
-156.134838000000002
11
127.1652119999999968
21
-156.134838000000002
0
LINE
8
BLACK
6
CONTINUOUS
10
127.1652119999999968
20
-156.134838000000002
11
127.3556880000000007
21
-156.2300759999999968
0
LINE
8
BLACK
6
CONTINUOUS
10
127.3556880000000007
20
-156.2300759999999968
11
127.4509259999999955
21
-156.3253139999999917
0
LINE
8
BLACK
6
CONTINUOUS
10
127.4509259999999955
20
-156.3253139999999917
11
127.5461639999999903
21
-156.5157899999999813
0
LINE
8
BLACK
6
CONTINUOUS
10
127.5461639999999903
20
-156.5157899999999813
11
127.5461639999999903
21
-156.6110280000000046
0
LINE
8
BLACK
6
CONTINUOUS
10
127.5461639999999903
20
-156.6110280000000046
11
127.4509259999999955
21
-156.8015039999999942
0
LINE
8
BLACK
6
CONTINUOUS
10
127.4509259999999955
20
-156.8015039999999942
11
127.3556880000000007
21
-156.896741999999989
0
LINE
8
BLACK
6
CONTINUOUS
10
127.3556880000000007
20
-156.896741999999989
11
127.1652119999999968
21
-156.9919799999999839
0
LINE
8
BLACK
6
CONTINUOUS
10
127.1652119999999968
20
-156.9919799999999839
11
126.7842589999999916
21
-156.9919799999999839
0
LINE
8
BLACK
6
CONTINUOUS
10
126.7842589999999916
20
-156.9919799999999839
11
126.5937829999999877
21
-157.0872190000000046
0
LINE
8
BLACK
6
CONTINUOUS
10
126.5937829999999877
20
-157.0872190000000046
11
126.4985449999999929
21
-157.1824569999999994
0
LINE
8
BLACK
6
CONTINUOUS
10
126.4985449999999929
20
-157.1824569999999994
11
126.4033069999999981
21
-157.3729329999999891
0
LINE
8
BLACK
6
CONTINUOUS
10
126.4033069999999981
20
-157.3729329999999891
11
126.4033069999999981
21
-157.7538849999999968
0
LINE
8
BLACK
6
CONTINUOUS
10
126.4033069999999981
20
-157.7538849999999968
11
126.4985449999999929
21
-157.9443609999999865
0
LINE
8
BLACK
6
CONTINUOUS
10
126.4985449999999929
20
-157.9443609999999865
11
126.5937829999999877
21
-158.0395999999999788
0
LINE
8
BLACK
6
CONTINUOUS
10
126.5937829999999877
20
-158.0395999999999788
11
126.7842589999999916
21
-158.134838000000002
0
LINE
8
BLACK
6
CONTINUOUS
10
126.7842589999999916
20
-158.134838000000002
11
127.1652119999999968
21
-158.134838000000002
0
LINE
8
BLACK
6
CONTINUOUS
10
127.1652119999999968
20
-158.134838000000002
11
127.3556880000000007
21
-158.0395999999999788
0
LINE
8
BLACK
6
CONTINUOUS
10
127.3556880000000007
20
-158.0395999999999788
11
127.4509259999999955
21
-157.9443609999999865
0
LINE
8
BLACK
6
CONTINUOUS
10
127.4509259999999955
20
-157.9443609999999865
11
127.5461639999999903
21
-157.7538849999999968
0
LINE
8
BLACK
6
CONTINUOUS
10
127.5461639999999903
20
-157.7538849999999968
11
127.5461639999999903
21
-157.3729329999999891
0
LINE
8
BLACK
6
CONTINUOUS
10
127.5461639999999903
20
-157.3729329999999891
11
127.4509259999999955
21
-157.1824569999999994
0
LINE
8
BLACK
6
CONTINUOUS
10
127.4509259999999955
20
-157.1824569999999994
11
127.3556880000000007
21
-157.0872190000000046
0
LINE
8
BLACK
6
CONTINUOUS
10
127.3556880000000007
20
-157.0872190000000046
11
127.1652119999999968
21
-156.9919799999999839
0
LINE
8
BLACK
6
CONTINUOUS
10
129.9271169999999813
20
-158.134838000000002
11
129.9271169999999813
21
-156.134838000000002
0
LINE
8
BLACK
6
CONTINUOUS
10
130.7842599999999891
20
-158.134838000000002
11
130.7842599999999891
21
-157.0872190000000046
0
LINE
8
BLACK
6
CONTINUOUS
10
130.7842599999999891
20
-157.0872190000000046
11
130.6890219999999943
21
-156.896741999999989
0
LINE
8
BLACK
6
CONTINUOUS
10
130.6890219999999943
20
-156.896741999999989
11
130.4985460000000046
21
-156.8015039999999942
0
LINE
8
BLACK
6
CONTINUOUS
10
130.4985460000000046
20
-156.8015039999999942
11
130.2128309999999942
21
-156.8015039999999942
0
LINE
8
BLACK
6
CONTINUOUS
10
130.2128309999999942
20
-156.8015039999999942
11
130.0223550000000046
21
-156.896741999999989
0
LINE
8
BLACK
6
CONTINUOUS
10
130.0223550000000046
20
-156.896741999999989
11
129.9271169999999813
21
-156.9919799999999839
0
LINE
8
BLACK
6
CONTINUOUS
10
132.0223550000000046
20
-158.134838000000002
11
131.8318789999999865
21
-158.0395999999999788
0
LINE
8
BLACK
6
CONTINUOUS
10
131.8318789999999865
20
-158.0395999999999788
11
131.7366409999999917
21
-157.9443609999999865
0
LINE
8
BLACK
6
CONTINUOUS
10
131.7366409999999917
20
-157.9443609999999865
11
131.6414029999999968
21
-157.7538849999999968
0
LINE
8
BLACK
6
CONTINUOUS
10
131.6414029999999968
20
-157.7538849999999968
11
131.6414029999999968
21
-157.1824569999999994
0
LINE
8
BLACK
6
CONTINUOUS
10
131.6414029999999968
20
-157.1824569999999994
11
131.7366409999999917
21
-156.9919799999999839
0
LINE
8
BLACK
6
CONTINUOUS
10
131.7366409999999917
20
-156.9919799999999839
11
131.8318789999999865
21
-156.896741999999989
0
LINE
8
BLACK
6
CONTINUOUS
10
131.8318789999999865
20
-156.896741999999989
11
132.0223550000000046
21
-156.8015039999999942
0
LINE
8
BLACK
6
CONTINUOUS
10
132.0223550000000046
20
-156.8015039999999942
11
132.3080699999999865
21
-156.8015039999999942
0
LINE
8
BLACK
6
CONTINUOUS
10
132.3080699999999865
20
-156.8015039999999942
11
132.4985460000000046
21
-156.896741999999989
0
LINE
8
BLACK
6
CONTINUOUS
10
132.4985460000000046
20
-156.896741999999989
11
132.5937839999999994
21
-156.9919799999999839
0
LINE
8
BLACK
6
CONTINUOUS
10
132.5937839999999994
20
-156.9919799999999839
11
132.6890219999999943
21
-157.1824569999999994
0
LINE
8
BLACK
6
CONTINUOUS
10
132.6890219999999943
20
-157.1824569999999994
11
132.6890219999999943
21
-157.7538849999999968
0
LINE
8
BLACK
6
CONTINUOUS
10
132.6890219999999943
20
-157.7538849999999968
11
132.5937839999999994
21
-157.9443609999999865
0
LINE
8
BLACK
6
CONTINUOUS
10
132.5937839999999994
20
-157.9443609999999865
11
132.4985460000000046
21
-158.0395999999999788
0
LINE
8
BLACK
6
CONTINUOUS
10
132.4985460000000046
20
-158.0395999999999788
11
132.3080699999999865
21
-158.134838000000002
0
LINE
8
BLACK
6
CONTINUOUS
10
132.3080699999999865
20
-158.134838000000002
11
132.0223550000000046
21
-158.134838000000002
0
LINE
8
BLACK
6
CONTINUOUS
10
133.8318789999999865
20
-158.134838000000002
11
133.6414029999999968
21
-158.0395999999999788
0
LINE
8
BLACK
6
CONTINUOUS
10
133.6414029999999968
20
-158.0395999999999788
11
133.546165000000002
21
-157.8491229999999916
0
LINE
8
BLACK
6
CONTINUOUS
10
133.546165000000002
20
-157.8491229999999916
11
133.546165000000002
21
-156.134838000000002
0
LINE
8
BLACK
6
CONTINUOUS
10
135.3556889999999839
20
-158.0395999999999788
11
135.1652129999999943
21
-158.134838000000002
0
LINE
8
BLACK
6
CONTINUOUS
10
135.1652129999999943
20
-158.134838000000002
11
134.7842599999999891
21
-158.134838000000002
0
LINE
8
BLACK
6
CONTINUOUS
10
134.7842599999999891
20
-158.134838000000002
11
134.5937839999999994
21
-158.0395999999999788
0
LINE
8
BLACK
6
CONTINUOUS
10
134.5937839999999994
20
-158.0395999999999788
11
134.4985460000000046
21
-157.8491229999999916
0
LINE
8
BLACK
6
CONTINUOUS
10
134.4985460000000046
20
-157.8491229999999916
11
134.4985460000000046
21
-157.0872190000000046
0
LINE
8
BLACK
6
CONTINUOUS
10
134.4985460000000046
20
-157.0872190000000046
11
134.5937839999999994
21
-156.896741999999989
0
LINE
8
BLACK
6
CONTINUOUS
10
134.5937839999999994
20
-156.896741999999989
11
134.7842599999999891
21
-156.8015039999999942
0
LINE
8
BLACK
6
CONTINUOUS
10
134.7842599999999891
20
-156.8015039999999942
11
135.1652129999999943
21
-156.8015039999999942
0
LINE
8
BLACK
6
CONTINUOUS
10
135.1652129999999943
20
-156.8015039999999942
11
135.3556889999999839
21
-156.896741999999989
0
LINE
8
BLACK
6
CONTINUOUS
10
135.3556889999999839
20
-156.896741999999989
11
135.4509270000000072
21
-157.0872190000000046
0
LINE
8
BLACK
6
CONTINUOUS
10
135.4509270000000072
20
-157.0872190000000046
11
135.4509270000000072
21
-157.2776949999999943
0
LINE
8
BLACK
6
CONTINUOUS
10
135.4509270000000072
20
-157.2776949999999943
11
134.4985460000000046
21
-157.4681709999999839
0
LINE
8
BLACK
6
CONTINUOUS
10
136.2128319999999917
20
-158.0395999999999788
11
136.4033079999999813
21
-158.134838000000002
0
LINE
8
BLACK
6
CONTINUOUS
10
136.4033079999999813
20
-158.134838000000002
11
136.7842599999999891
21
-158.134838000000002
0
LINE
8
BLACK
6
CONTINUOUS
10
136.7842599999999891
20
-158.134838000000002
11
136.9747370000000046
21
-158.0395999999999788
0
LINE
8
BLACK
6
CONTINUOUS
10
136.9747370000000046
20
-158.0395999999999788
11
137.0699749999999995
21
-157.8491229999999916
0
LINE
8
BLACK
6
CONTINUOUS
10
137.0699749999999995
20
-157.8491229999999916
11
137.0699749999999995
21
-157.7538849999999968
0
LINE
8
BLACK
6
CONTINUOUS
10
137.0699749999999995
20
-157.7538849999999968
11
136.9747370000000046
21
-157.5634089999999787
0
LINE
8
BLACK
6
CONTINUOUS
10
136.9747370000000046
20
-157.5634089999999787
11
136.7842599999999891
21
-157.4681709999999839
0
LINE
8
BLACK
6
CONTINUOUS
10
136.7842599999999891
20
-157.4681709999999839
11
136.4985460000000046
21
-157.4681709999999839
0
LINE
8
BLACK
6
CONTINUOUS
10
136.4985460000000046
20
-157.4681709999999839
11
136.3080699999999865
21
-157.3729329999999891
0
LINE
8
BLACK
6
CONTINUOUS
10
136.3080699999999865
20
-157.3729329999999891
11
136.2128319999999917
21
-157.1824569999999994
0
LINE
8
BLACK
6
CONTINUOUS
10
136.2128319999999917
20
-157.1824569999999994
11
136.2128319999999917
21
-157.0872190000000046
0
LINE
8
BLACK
6
CONTINUOUS
10
136.2128319999999917
20
-157.0872190000000046
11
136.3080699999999865
21
-156.896741999999989
0
LINE
8
BLACK
6
CONTINUOUS
10
136.3080699999999865
20
-156.896741999999989
11
136.4985460000000046
21
-156.8015039999999942
0
LINE
8
BLACK
6
CONTINUOUS
10
136.4985460000000046
20
-156.8015039999999942
11
136.7842599999999891
21
-156.8015039999999942
0
LINE
8
BLACK
6
CONTINUOUS
10
136.7842599999999891
20
-156.8015039999999942
11
136.9747370000000046
21
-156.896741999999989
0
LINE
8
BLACK
6
CONTINUOUS
10
137.7366419999999891
20
-158.896741999999989
11
137.831879999999984
21
-158.8015039999999942
0
LINE
8
BLACK
6
CONTINUOUS
10
137.831879999999984
20
-158.8015039999999942
11
138.022356000000002
21
-158.5157899999999813
0
LINE
8
BLACK
6
CONTINUOUS
10
138.022356000000002
20
-158.5157899999999813
11
138.1175939999999969
21
-158.3253139999999917
0
LINE
8
BLACK
6
CONTINUOUS
10
138.1175939999999969
20
-158.3253139999999917
11
138.2128319999999917
21
-158.0395999999999788
0
LINE
8
BLACK
6
CONTINUOUS
10
138.2128319999999917
20
-158.0395999999999788
11
138.3080699999999865
21
-157.5634089999999787
0
LINE
8
BLACK
6
CONTINUOUS
10
138.3080699999999865
20
-157.5634089999999787
11
138.3080699999999865
21
-157.1824569999999994
0
LINE
8
BLACK
6
CONTINUOUS
10
138.3080699999999865
20
-157.1824569999999994
11
138.2128319999999917
21
-156.7062659999999994
0
LINE
8
BLACK
6
CONTINUOUS
10
138.2128319999999917
20
-156.7062659999999994
11
138.1175939999999969
21
-156.4205519999999865
0
LINE
8
BLACK
6
CONTINUOUS
10
138.1175939999999969
20
-156.4205519999999865
11
138.022356000000002
21
-156.2300759999999968
0
LINE
8
BLACK
6
CONTINUOUS
10
138.022356000000002
20
-156.2300759999999968
11
137.831879999999984
21
-155.9443609999999865
0
LINE
8
BLACK
6
CONTINUOUS
10
137.831879999999984
20
-155.9443609999999865
11
137.7366419999999891
21
-155.8491229999999916
  0
ENDSEC
  0
EOF
