%TF.GenerationSoftware,KiCad,Pcbnew,10.0.3*%
%TF.CreationDate,2026-06-04T12:09:54+05:30*%
%TF.ProjectId,pathfinder,70617468-6669-46e6-9465-722e6b696361,rev?*%
%TF.SameCoordinates,Original*%
%TF.FileFunction,Drillmap*%
%TF.FilePolarity,Positive*%
%FSLAX45Y45*%
G04 Gerber Fmt 4.5, Leading zero omitted, Abs format (unit mm)*
G04 Created by KiCad (PCBNEW 10.0.3) date 2026-06-04 12:09:54*
%MOMM*%
%LPD*%
G01*
G04 APERTURE LIST*
%ADD10C,0.050000*%
%ADD11C,0.200000*%
%ADD12C,0.170000*%
%ADD13C,0.320000*%
%ADD14C,0.400000*%
G04 APERTURE END LIST*
D10*
X8810625Y-6191250D02*
X8810625Y-14287500D01*
X8810625Y-6191250D02*
X13573125Y-6191250D01*
X13573125Y-4286250D02*
X19288125Y-4286250D01*
X13573125Y-6191250D02*
X13573125Y-4286250D01*
X19288125Y-4286250D02*
X19288125Y-6191250D01*
X19288125Y-6191250D02*
X23812500Y-6191250D01*
X23812500Y-6191250D02*
X23812500Y-14287500D01*
X23812500Y-14287500D02*
X8810625Y-14287500D01*
D11*
D12*
X9646375Y-10154375D02*
X9816375Y-10324375D01*
X9816375Y-10154375D02*
X9646375Y-10324375D01*
X10662375Y-10154375D02*
X10832375Y-10324375D01*
X10832375Y-10154375D02*
X10662375Y-10324375D01*
X11551375Y-8249375D02*
X11721375Y-8419375D01*
X11721375Y-8249375D02*
X11551375Y-8419375D01*
X11561250Y-10154375D02*
X11731250Y-10324375D01*
X11731250Y-10154375D02*
X11561250Y-10324375D01*
X12567375Y-8249375D02*
X12737375Y-8419375D01*
X12737375Y-8249375D02*
X12567375Y-8419375D01*
X12577250Y-10154375D02*
X12747250Y-10324375D01*
X12747250Y-10154375D02*
X12577250Y-10324375D01*
X13456375Y-10154375D02*
X13626375Y-10324375D01*
X13626375Y-10154375D02*
X13456375Y-10324375D01*
X14472375Y-10154375D02*
X14642375Y-10324375D01*
X14642375Y-10154375D02*
X14472375Y-10324375D01*
X14885125Y-12789625D02*
X15055125Y-12959625D01*
X15055125Y-12789625D02*
X14885125Y-12959625D01*
X15901125Y-12789625D02*
X16071125Y-12959625D01*
X16071125Y-12789625D02*
X15901125Y-12959625D01*
X16790125Y-12789625D02*
X16960125Y-12959625D01*
X16960125Y-12789625D02*
X16790125Y-12959625D01*
X17806125Y-12789625D02*
X17976125Y-12959625D01*
X17976125Y-12789625D02*
X17806125Y-12959625D01*
X18965000Y-10154375D02*
X19135000Y-10324375D01*
X19135000Y-10154375D02*
X18965000Y-10324375D01*
X19917500Y-8249375D02*
X20087500Y-8419375D01*
X20087500Y-8249375D02*
X19917500Y-8419375D01*
X19981000Y-10154375D02*
X20151000Y-10324375D01*
X20151000Y-10154375D02*
X19981000Y-10324375D01*
X20870000Y-10154375D02*
X21040000Y-10324375D01*
X21040000Y-10154375D02*
X20870000Y-10324375D01*
X20933500Y-8249375D02*
X21103500Y-8419375D01*
X21103500Y-8249375D02*
X20933500Y-8419375D01*
X21886000Y-10154375D02*
X22056000Y-10324375D01*
X22056000Y-10154375D02*
X21886000Y-10324375D01*
D13*
X9510000Y-6850000D02*
G75*
G02*
X9190000Y-6850000I-160000J0D01*
G01*
X9190000Y-6850000D02*
G75*
G02*
X9510000Y-6850000I160000J0D01*
G01*
X9510000Y-13700000D02*
G75*
G02*
X9190000Y-13700000I-160000J0D01*
G01*
X9190000Y-13700000D02*
G75*
G02*
X9510000Y-13700000I160000J0D01*
G01*
X23310000Y-6850000D02*
G75*
G02*
X22990000Y-6850000I-160000J0D01*
G01*
X22990000Y-6850000D02*
G75*
G02*
X23310000Y-6850000I160000J0D01*
G01*
X23310000Y-13650000D02*
G75*
G02*
X22990000Y-13650000I-160000J0D01*
G01*
X22990000Y-13650000D02*
G75*
G02*
X23310000Y-13650000I160000J0D01*
G01*
D14*
X10239375Y-10039375D02*
X10239375Y-10439375D01*
X10039375Y-10239375D02*
X10439375Y-10239375D01*
X12144375Y-8134375D02*
X12144375Y-8534375D01*
X11944375Y-8334375D02*
X12344375Y-8334375D01*
X12154250Y-10039375D02*
X12154250Y-10439375D01*
X11954250Y-10239375D02*
X12354250Y-10239375D01*
X14049375Y-10039375D02*
X14049375Y-10439375D01*
X13849375Y-10239375D02*
X14249375Y-10239375D01*
X15478125Y-12674625D02*
X15478125Y-13074625D01*
X15278125Y-12874625D02*
X15678125Y-12874625D01*
X17383125Y-12674625D02*
X17383125Y-13074625D01*
X17183125Y-12874625D02*
X17583125Y-12874625D01*
X19558000Y-10039375D02*
X19558000Y-10439375D01*
X19358000Y-10239375D02*
X19758000Y-10239375D01*
X20510500Y-8134375D02*
X20510500Y-8534375D01*
X20310500Y-8334375D02*
X20710500Y-8334375D01*
X21463000Y-10039375D02*
X21463000Y-10439375D01*
X21263000Y-10239375D02*
X21663000Y-10239375D01*
D11*
X9068902Y-14601484D02*
X9068902Y-14401484D01*
X9068902Y-14401484D02*
X9116521Y-14401484D01*
X9116521Y-14401484D02*
X9145092Y-14411008D01*
X9145092Y-14411008D02*
X9164140Y-14430055D01*
X9164140Y-14430055D02*
X9173664Y-14449103D01*
X9173664Y-14449103D02*
X9183188Y-14487198D01*
X9183188Y-14487198D02*
X9183188Y-14515769D01*
X9183188Y-14515769D02*
X9173664Y-14553865D01*
X9173664Y-14553865D02*
X9164140Y-14572912D01*
X9164140Y-14572912D02*
X9145092Y-14591960D01*
X9145092Y-14591960D02*
X9116521Y-14601484D01*
X9116521Y-14601484D02*
X9068902Y-14601484D01*
X9268902Y-14601484D02*
X9268902Y-14468150D01*
X9268902Y-14506246D02*
X9278426Y-14487198D01*
X9278426Y-14487198D02*
X9287949Y-14477674D01*
X9287949Y-14477674D02*
X9306997Y-14468150D01*
X9306997Y-14468150D02*
X9326045Y-14468150D01*
X9392711Y-14601484D02*
X9392711Y-14468150D01*
X9392711Y-14401484D02*
X9383188Y-14411008D01*
X9383188Y-14411008D02*
X9392711Y-14420531D01*
X9392711Y-14420531D02*
X9402235Y-14411008D01*
X9402235Y-14411008D02*
X9392711Y-14401484D01*
X9392711Y-14401484D02*
X9392711Y-14420531D01*
X9516521Y-14601484D02*
X9497473Y-14591960D01*
X9497473Y-14591960D02*
X9487949Y-14572912D01*
X9487949Y-14572912D02*
X9487949Y-14401484D01*
X9621283Y-14601484D02*
X9602235Y-14591960D01*
X9602235Y-14591960D02*
X9592711Y-14572912D01*
X9592711Y-14572912D02*
X9592711Y-14401484D01*
X9849854Y-14601484D02*
X9849854Y-14401484D01*
X9849854Y-14401484D02*
X9916521Y-14544341D01*
X9916521Y-14544341D02*
X9983188Y-14401484D01*
X9983188Y-14401484D02*
X9983188Y-14601484D01*
X10164140Y-14601484D02*
X10164140Y-14496722D01*
X10164140Y-14496722D02*
X10154616Y-14477674D01*
X10154616Y-14477674D02*
X10135569Y-14468150D01*
X10135569Y-14468150D02*
X10097473Y-14468150D01*
X10097473Y-14468150D02*
X10078426Y-14477674D01*
X10164140Y-14591960D02*
X10145092Y-14601484D01*
X10145092Y-14601484D02*
X10097473Y-14601484D01*
X10097473Y-14601484D02*
X10078426Y-14591960D01*
X10078426Y-14591960D02*
X10068902Y-14572912D01*
X10068902Y-14572912D02*
X10068902Y-14553865D01*
X10068902Y-14553865D02*
X10078426Y-14534817D01*
X10078426Y-14534817D02*
X10097473Y-14525293D01*
X10097473Y-14525293D02*
X10145092Y-14525293D01*
X10145092Y-14525293D02*
X10164140Y-14515769D01*
X10259378Y-14468150D02*
X10259378Y-14668150D01*
X10259378Y-14477674D02*
X10278426Y-14468150D01*
X10278426Y-14468150D02*
X10316521Y-14468150D01*
X10316521Y-14468150D02*
X10335569Y-14477674D01*
X10335569Y-14477674D02*
X10345092Y-14487198D01*
X10345092Y-14487198D02*
X10354616Y-14506246D01*
X10354616Y-14506246D02*
X10354616Y-14563388D01*
X10354616Y-14563388D02*
X10345092Y-14582436D01*
X10345092Y-14582436D02*
X10335569Y-14591960D01*
X10335569Y-14591960D02*
X10316521Y-14601484D01*
X10316521Y-14601484D02*
X10278426Y-14601484D01*
X10278426Y-14601484D02*
X10259378Y-14591960D01*
X10440330Y-14582436D02*
X10449854Y-14591960D01*
X10449854Y-14591960D02*
X10440330Y-14601484D01*
X10440330Y-14601484D02*
X10430807Y-14591960D01*
X10430807Y-14591960D02*
X10440330Y-14582436D01*
X10440330Y-14582436D02*
X10440330Y-14601484D01*
X10440330Y-14477674D02*
X10449854Y-14487198D01*
X10449854Y-14487198D02*
X10440330Y-14496722D01*
X10440330Y-14496722D02*
X10430807Y-14487198D01*
X10430807Y-14487198D02*
X10440330Y-14477674D01*
X10440330Y-14477674D02*
X10440330Y-14496722D01*
D12*
X8638125Y-14845000D02*
X8808125Y-15015000D01*
X8808125Y-14845000D02*
X8638125Y-15015000D01*
D11*
X9173664Y-15021484D02*
X9059378Y-15021484D01*
X9116521Y-15021484D02*
X9116521Y-14821484D01*
X9116521Y-14821484D02*
X9097473Y-14850055D01*
X9097473Y-14850055D02*
X9078426Y-14869103D01*
X9078426Y-14869103D02*
X9059378Y-14878627D01*
X9259378Y-15002436D02*
X9268902Y-15011960D01*
X9268902Y-15011960D02*
X9259378Y-15021484D01*
X9259378Y-15021484D02*
X9249854Y-15011960D01*
X9249854Y-15011960D02*
X9259378Y-15002436D01*
X9259378Y-15002436D02*
X9259378Y-15021484D01*
X9335569Y-14821484D02*
X9468902Y-14821484D01*
X9468902Y-14821484D02*
X9383188Y-15021484D01*
X9583188Y-14821484D02*
X9602235Y-14821484D01*
X9602235Y-14821484D02*
X9621283Y-14831008D01*
X9621283Y-14831008D02*
X9630807Y-14840531D01*
X9630807Y-14840531D02*
X9640330Y-14859579D01*
X9640330Y-14859579D02*
X9649854Y-14897674D01*
X9649854Y-14897674D02*
X9649854Y-14945293D01*
X9649854Y-14945293D02*
X9640330Y-14983388D01*
X9640330Y-14983388D02*
X9630807Y-15002436D01*
X9630807Y-15002436D02*
X9621283Y-15011960D01*
X9621283Y-15011960D02*
X9602235Y-15021484D01*
X9602235Y-15021484D02*
X9583188Y-15021484D01*
X9583188Y-15021484D02*
X9564140Y-15011960D01*
X9564140Y-15011960D02*
X9554616Y-15002436D01*
X9554616Y-15002436D02*
X9545092Y-14983388D01*
X9545092Y-14983388D02*
X9535569Y-14945293D01*
X9535569Y-14945293D02*
X9535569Y-14897674D01*
X9535569Y-14897674D02*
X9545092Y-14859579D01*
X9545092Y-14859579D02*
X9554616Y-14840531D01*
X9554616Y-14840531D02*
X9564140Y-14831008D01*
X9564140Y-14831008D02*
X9583188Y-14821484D01*
X9773664Y-14821484D02*
X9792711Y-14821484D01*
X9792711Y-14821484D02*
X9811759Y-14831008D01*
X9811759Y-14831008D02*
X9821283Y-14840531D01*
X9821283Y-14840531D02*
X9830807Y-14859579D01*
X9830807Y-14859579D02*
X9840330Y-14897674D01*
X9840330Y-14897674D02*
X9840330Y-14945293D01*
X9840330Y-14945293D02*
X9830807Y-14983388D01*
X9830807Y-14983388D02*
X9821283Y-15002436D01*
X9821283Y-15002436D02*
X9811759Y-15011960D01*
X9811759Y-15011960D02*
X9792711Y-15021484D01*
X9792711Y-15021484D02*
X9773664Y-15021484D01*
X9773664Y-15021484D02*
X9754616Y-15011960D01*
X9754616Y-15011960D02*
X9745092Y-15002436D01*
X9745092Y-15002436D02*
X9735569Y-14983388D01*
X9735569Y-14983388D02*
X9726045Y-14945293D01*
X9726045Y-14945293D02*
X9726045Y-14897674D01*
X9726045Y-14897674D02*
X9735569Y-14859579D01*
X9735569Y-14859579D02*
X9745092Y-14840531D01*
X9745092Y-14840531D02*
X9754616Y-14831008D01*
X9754616Y-14831008D02*
X9773664Y-14821484D01*
X9926045Y-15021484D02*
X9926045Y-14888150D01*
X9926045Y-14907198D02*
X9935569Y-14897674D01*
X9935569Y-14897674D02*
X9954616Y-14888150D01*
X9954616Y-14888150D02*
X9983188Y-14888150D01*
X9983188Y-14888150D02*
X10002235Y-14897674D01*
X10002235Y-14897674D02*
X10011759Y-14916722D01*
X10011759Y-14916722D02*
X10011759Y-15021484D01*
X10011759Y-14916722D02*
X10021283Y-14897674D01*
X10021283Y-14897674D02*
X10040330Y-14888150D01*
X10040330Y-14888150D02*
X10068902Y-14888150D01*
X10068902Y-14888150D02*
X10087950Y-14897674D01*
X10087950Y-14897674D02*
X10097473Y-14916722D01*
X10097473Y-14916722D02*
X10097473Y-15021484D01*
X10192711Y-15021484D02*
X10192711Y-14888150D01*
X10192711Y-14907198D02*
X10202235Y-14897674D01*
X10202235Y-14897674D02*
X10221283Y-14888150D01*
X10221283Y-14888150D02*
X10249854Y-14888150D01*
X10249854Y-14888150D02*
X10268902Y-14897674D01*
X10268902Y-14897674D02*
X10278426Y-14916722D01*
X10278426Y-14916722D02*
X10278426Y-15021484D01*
X10278426Y-14916722D02*
X10287950Y-14897674D01*
X10287950Y-14897674D02*
X10306997Y-14888150D01*
X10306997Y-14888150D02*
X10335569Y-14888150D01*
X10335569Y-14888150D02*
X10354616Y-14897674D01*
X10354616Y-14897674D02*
X10364140Y-14916722D01*
X10364140Y-14916722D02*
X10364140Y-15021484D01*
X10754616Y-14811960D02*
X10583188Y-15069103D01*
X11011759Y-14821484D02*
X11030807Y-14821484D01*
X11030807Y-14821484D02*
X11049854Y-14831008D01*
X11049854Y-14831008D02*
X11059378Y-14840531D01*
X11059378Y-14840531D02*
X11068902Y-14859579D01*
X11068902Y-14859579D02*
X11078426Y-14897674D01*
X11078426Y-14897674D02*
X11078426Y-14945293D01*
X11078426Y-14945293D02*
X11068902Y-14983388D01*
X11068902Y-14983388D02*
X11059378Y-15002436D01*
X11059378Y-15002436D02*
X11049854Y-15011960D01*
X11049854Y-15011960D02*
X11030807Y-15021484D01*
X11030807Y-15021484D02*
X11011759Y-15021484D01*
X11011759Y-15021484D02*
X10992712Y-15011960D01*
X10992712Y-15011960D02*
X10983188Y-15002436D01*
X10983188Y-15002436D02*
X10973664Y-14983388D01*
X10973664Y-14983388D02*
X10964140Y-14945293D01*
X10964140Y-14945293D02*
X10964140Y-14897674D01*
X10964140Y-14897674D02*
X10973664Y-14859579D01*
X10973664Y-14859579D02*
X10983188Y-14840531D01*
X10983188Y-14840531D02*
X10992712Y-14831008D01*
X10992712Y-14831008D02*
X11011759Y-14821484D01*
X11164140Y-15002436D02*
X11173664Y-15011960D01*
X11173664Y-15011960D02*
X11164140Y-15021484D01*
X11164140Y-15021484D02*
X11154616Y-15011960D01*
X11154616Y-15011960D02*
X11164140Y-15002436D01*
X11164140Y-15002436D02*
X11164140Y-15021484D01*
X11297473Y-14821484D02*
X11316521Y-14821484D01*
X11316521Y-14821484D02*
X11335569Y-14831008D01*
X11335569Y-14831008D02*
X11345092Y-14840531D01*
X11345092Y-14840531D02*
X11354616Y-14859579D01*
X11354616Y-14859579D02*
X11364140Y-14897674D01*
X11364140Y-14897674D02*
X11364140Y-14945293D01*
X11364140Y-14945293D02*
X11354616Y-14983388D01*
X11354616Y-14983388D02*
X11345092Y-15002436D01*
X11345092Y-15002436D02*
X11335569Y-15011960D01*
X11335569Y-15011960D02*
X11316521Y-15021484D01*
X11316521Y-15021484D02*
X11297473Y-15021484D01*
X11297473Y-15021484D02*
X11278426Y-15011960D01*
X11278426Y-15011960D02*
X11268902Y-15002436D01*
X11268902Y-15002436D02*
X11259378Y-14983388D01*
X11259378Y-14983388D02*
X11249854Y-14945293D01*
X11249854Y-14945293D02*
X11249854Y-14897674D01*
X11249854Y-14897674D02*
X11259378Y-14859579D01*
X11259378Y-14859579D02*
X11268902Y-14840531D01*
X11268902Y-14840531D02*
X11278426Y-14831008D01*
X11278426Y-14831008D02*
X11297473Y-14821484D01*
X11535569Y-14821484D02*
X11497473Y-14821484D01*
X11497473Y-14821484D02*
X11478426Y-14831008D01*
X11478426Y-14831008D02*
X11468902Y-14840531D01*
X11468902Y-14840531D02*
X11449854Y-14869103D01*
X11449854Y-14869103D02*
X11440331Y-14907198D01*
X11440331Y-14907198D02*
X11440331Y-14983388D01*
X11440331Y-14983388D02*
X11449854Y-15002436D01*
X11449854Y-15002436D02*
X11459378Y-15011960D01*
X11459378Y-15011960D02*
X11478426Y-15021484D01*
X11478426Y-15021484D02*
X11516521Y-15021484D01*
X11516521Y-15021484D02*
X11535569Y-15011960D01*
X11535569Y-15011960D02*
X11545092Y-15002436D01*
X11545092Y-15002436D02*
X11554616Y-14983388D01*
X11554616Y-14983388D02*
X11554616Y-14935769D01*
X11554616Y-14935769D02*
X11545092Y-14916722D01*
X11545092Y-14916722D02*
X11535569Y-14907198D01*
X11535569Y-14907198D02*
X11516521Y-14897674D01*
X11516521Y-14897674D02*
X11478426Y-14897674D01*
X11478426Y-14897674D02*
X11459378Y-14907198D01*
X11459378Y-14907198D02*
X11449854Y-14916722D01*
X11449854Y-14916722D02*
X11440331Y-14935769D01*
X11726045Y-14821484D02*
X11687950Y-14821484D01*
X11687950Y-14821484D02*
X11668902Y-14831008D01*
X11668902Y-14831008D02*
X11659378Y-14840531D01*
X11659378Y-14840531D02*
X11640331Y-14869103D01*
X11640331Y-14869103D02*
X11630807Y-14907198D01*
X11630807Y-14907198D02*
X11630807Y-14983388D01*
X11630807Y-14983388D02*
X11640331Y-15002436D01*
X11640331Y-15002436D02*
X11649854Y-15011960D01*
X11649854Y-15011960D02*
X11668902Y-15021484D01*
X11668902Y-15021484D02*
X11706997Y-15021484D01*
X11706997Y-15021484D02*
X11726045Y-15011960D01*
X11726045Y-15011960D02*
X11735569Y-15002436D01*
X11735569Y-15002436D02*
X11745092Y-14983388D01*
X11745092Y-14983388D02*
X11745092Y-14935769D01*
X11745092Y-14935769D02*
X11735569Y-14916722D01*
X11735569Y-14916722D02*
X11726045Y-14907198D01*
X11726045Y-14907198D02*
X11706997Y-14897674D01*
X11706997Y-14897674D02*
X11668902Y-14897674D01*
X11668902Y-14897674D02*
X11649854Y-14907198D01*
X11649854Y-14907198D02*
X11640331Y-14916722D01*
X11640331Y-14916722D02*
X11630807Y-14935769D01*
X11840331Y-15021484D02*
X11878426Y-15021484D01*
X11878426Y-15021484D02*
X11897473Y-15011960D01*
X11897473Y-15011960D02*
X11906997Y-15002436D01*
X11906997Y-15002436D02*
X11926045Y-14973865D01*
X11926045Y-14973865D02*
X11935569Y-14935769D01*
X11935569Y-14935769D02*
X11935569Y-14859579D01*
X11935569Y-14859579D02*
X11926045Y-14840531D01*
X11926045Y-14840531D02*
X11916521Y-14831008D01*
X11916521Y-14831008D02*
X11897473Y-14821484D01*
X11897473Y-14821484D02*
X11859378Y-14821484D01*
X11859378Y-14821484D02*
X11840331Y-14831008D01*
X11840331Y-14831008D02*
X11830807Y-14840531D01*
X11830807Y-14840531D02*
X11821283Y-14859579D01*
X11821283Y-14859579D02*
X11821283Y-14907198D01*
X11821283Y-14907198D02*
X11830807Y-14926246D01*
X11830807Y-14926246D02*
X11840331Y-14935769D01*
X11840331Y-14935769D02*
X11859378Y-14945293D01*
X11859378Y-14945293D02*
X11897473Y-14945293D01*
X11897473Y-14945293D02*
X11916521Y-14935769D01*
X11916521Y-14935769D02*
X11926045Y-14926246D01*
X11926045Y-14926246D02*
X11935569Y-14907198D01*
X12011759Y-14821484D02*
X12011759Y-14859579D01*
X12087950Y-14821484D02*
X12087950Y-14859579D01*
X12383188Y-15097674D02*
X12373664Y-15088150D01*
X12373664Y-15088150D02*
X12354616Y-15059579D01*
X12354616Y-15059579D02*
X12345093Y-15040531D01*
X12345093Y-15040531D02*
X12335569Y-15011960D01*
X12335569Y-15011960D02*
X12326045Y-14964341D01*
X12326045Y-14964341D02*
X12326045Y-14926246D01*
X12326045Y-14926246D02*
X12335569Y-14878627D01*
X12335569Y-14878627D02*
X12345093Y-14850055D01*
X12345093Y-14850055D02*
X12354616Y-14831008D01*
X12354616Y-14831008D02*
X12373664Y-14802436D01*
X12373664Y-14802436D02*
X12383188Y-14792912D01*
X12564140Y-15021484D02*
X12449854Y-15021484D01*
X12506997Y-15021484D02*
X12506997Y-14821484D01*
X12506997Y-14821484D02*
X12487950Y-14850055D01*
X12487950Y-14850055D02*
X12468902Y-14869103D01*
X12468902Y-14869103D02*
X12449854Y-14878627D01*
X12678426Y-14907198D02*
X12659378Y-14897674D01*
X12659378Y-14897674D02*
X12649854Y-14888150D01*
X12649854Y-14888150D02*
X12640331Y-14869103D01*
X12640331Y-14869103D02*
X12640331Y-14859579D01*
X12640331Y-14859579D02*
X12649854Y-14840531D01*
X12649854Y-14840531D02*
X12659378Y-14831008D01*
X12659378Y-14831008D02*
X12678426Y-14821484D01*
X12678426Y-14821484D02*
X12716521Y-14821484D01*
X12716521Y-14821484D02*
X12735569Y-14831008D01*
X12735569Y-14831008D02*
X12745093Y-14840531D01*
X12745093Y-14840531D02*
X12754616Y-14859579D01*
X12754616Y-14859579D02*
X12754616Y-14869103D01*
X12754616Y-14869103D02*
X12745093Y-14888150D01*
X12745093Y-14888150D02*
X12735569Y-14897674D01*
X12735569Y-14897674D02*
X12716521Y-14907198D01*
X12716521Y-14907198D02*
X12678426Y-14907198D01*
X12678426Y-14907198D02*
X12659378Y-14916722D01*
X12659378Y-14916722D02*
X12649854Y-14926246D01*
X12649854Y-14926246D02*
X12640331Y-14945293D01*
X12640331Y-14945293D02*
X12640331Y-14983388D01*
X12640331Y-14983388D02*
X12649854Y-15002436D01*
X12649854Y-15002436D02*
X12659378Y-15011960D01*
X12659378Y-15011960D02*
X12678426Y-15021484D01*
X12678426Y-15021484D02*
X12716521Y-15021484D01*
X12716521Y-15021484D02*
X12735569Y-15011960D01*
X12735569Y-15011960D02*
X12745093Y-15002436D01*
X12745093Y-15002436D02*
X12754616Y-14983388D01*
X12754616Y-14983388D02*
X12754616Y-14945293D01*
X12754616Y-14945293D02*
X12745093Y-14926246D01*
X12745093Y-14926246D02*
X12735569Y-14916722D01*
X12735569Y-14916722D02*
X12716521Y-14907198D01*
X12992712Y-15021484D02*
X12992712Y-14821484D01*
X13078426Y-15021484D02*
X13078426Y-14916722D01*
X13078426Y-14916722D02*
X13068902Y-14897674D01*
X13068902Y-14897674D02*
X13049855Y-14888150D01*
X13049855Y-14888150D02*
X13021283Y-14888150D01*
X13021283Y-14888150D02*
X13002235Y-14897674D01*
X13002235Y-14897674D02*
X12992712Y-14907198D01*
X13202235Y-15021484D02*
X13183188Y-15011960D01*
X13183188Y-15011960D02*
X13173664Y-15002436D01*
X13173664Y-15002436D02*
X13164140Y-14983388D01*
X13164140Y-14983388D02*
X13164140Y-14926246D01*
X13164140Y-14926246D02*
X13173664Y-14907198D01*
X13173664Y-14907198D02*
X13183188Y-14897674D01*
X13183188Y-14897674D02*
X13202235Y-14888150D01*
X13202235Y-14888150D02*
X13230807Y-14888150D01*
X13230807Y-14888150D02*
X13249855Y-14897674D01*
X13249855Y-14897674D02*
X13259378Y-14907198D01*
X13259378Y-14907198D02*
X13268902Y-14926246D01*
X13268902Y-14926246D02*
X13268902Y-14983388D01*
X13268902Y-14983388D02*
X13259378Y-15002436D01*
X13259378Y-15002436D02*
X13249855Y-15011960D01*
X13249855Y-15011960D02*
X13230807Y-15021484D01*
X13230807Y-15021484D02*
X13202235Y-15021484D01*
X13383188Y-15021484D02*
X13364140Y-15011960D01*
X13364140Y-15011960D02*
X13354616Y-14992912D01*
X13354616Y-14992912D02*
X13354616Y-14821484D01*
X13535569Y-15011960D02*
X13516521Y-15021484D01*
X13516521Y-15021484D02*
X13478426Y-15021484D01*
X13478426Y-15021484D02*
X13459378Y-15011960D01*
X13459378Y-15011960D02*
X13449855Y-14992912D01*
X13449855Y-14992912D02*
X13449855Y-14916722D01*
X13449855Y-14916722D02*
X13459378Y-14897674D01*
X13459378Y-14897674D02*
X13478426Y-14888150D01*
X13478426Y-14888150D02*
X13516521Y-14888150D01*
X13516521Y-14888150D02*
X13535569Y-14897674D01*
X13535569Y-14897674D02*
X13545093Y-14916722D01*
X13545093Y-14916722D02*
X13545093Y-14935769D01*
X13545093Y-14935769D02*
X13449855Y-14954817D01*
X13621283Y-15011960D02*
X13640331Y-15021484D01*
X13640331Y-15021484D02*
X13678426Y-15021484D01*
X13678426Y-15021484D02*
X13697474Y-15011960D01*
X13697474Y-15011960D02*
X13706997Y-14992912D01*
X13706997Y-14992912D02*
X13706997Y-14983388D01*
X13706997Y-14983388D02*
X13697474Y-14964341D01*
X13697474Y-14964341D02*
X13678426Y-14954817D01*
X13678426Y-14954817D02*
X13649855Y-14954817D01*
X13649855Y-14954817D02*
X13630807Y-14945293D01*
X13630807Y-14945293D02*
X13621283Y-14926246D01*
X13621283Y-14926246D02*
X13621283Y-14916722D01*
X13621283Y-14916722D02*
X13630807Y-14897674D01*
X13630807Y-14897674D02*
X13649855Y-14888150D01*
X13649855Y-14888150D02*
X13678426Y-14888150D01*
X13678426Y-14888150D02*
X13697474Y-14897674D01*
X13773664Y-15097674D02*
X13783188Y-15088150D01*
X13783188Y-15088150D02*
X13802236Y-15059579D01*
X13802236Y-15059579D02*
X13811759Y-15040531D01*
X13811759Y-15040531D02*
X13821283Y-15011960D01*
X13821283Y-15011960D02*
X13830807Y-14964341D01*
X13830807Y-14964341D02*
X13830807Y-14926246D01*
X13830807Y-14926246D02*
X13821283Y-14878627D01*
X13821283Y-14878627D02*
X13811759Y-14850055D01*
X13811759Y-14850055D02*
X13802236Y-14831008D01*
X13802236Y-14831008D02*
X13783188Y-14802436D01*
X13783188Y-14802436D02*
X13773664Y-14792912D01*
X14135569Y-15097674D02*
X14126045Y-15088150D01*
X14126045Y-15088150D02*
X14106997Y-15059579D01*
X14106997Y-15059579D02*
X14097474Y-15040531D01*
X14097474Y-15040531D02*
X14087950Y-15011960D01*
X14087950Y-15011960D02*
X14078426Y-14964341D01*
X14078426Y-14964341D02*
X14078426Y-14926246D01*
X14078426Y-14926246D02*
X14087950Y-14878627D01*
X14087950Y-14878627D02*
X14097474Y-14850055D01*
X14097474Y-14850055D02*
X14106997Y-14831008D01*
X14106997Y-14831008D02*
X14126045Y-14802436D01*
X14126045Y-14802436D02*
X14135569Y-14792912D01*
X14211759Y-14888150D02*
X14211759Y-15021484D01*
X14211759Y-14907198D02*
X14221283Y-14897674D01*
X14221283Y-14897674D02*
X14240331Y-14888150D01*
X14240331Y-14888150D02*
X14268902Y-14888150D01*
X14268902Y-14888150D02*
X14287950Y-14897674D01*
X14287950Y-14897674D02*
X14297474Y-14916722D01*
X14297474Y-14916722D02*
X14297474Y-15021484D01*
X14421283Y-15021484D02*
X14402236Y-15011960D01*
X14402236Y-15011960D02*
X14392712Y-15002436D01*
X14392712Y-15002436D02*
X14383188Y-14983388D01*
X14383188Y-14983388D02*
X14383188Y-14926246D01*
X14383188Y-14926246D02*
X14392712Y-14907198D01*
X14392712Y-14907198D02*
X14402236Y-14897674D01*
X14402236Y-14897674D02*
X14421283Y-14888150D01*
X14421283Y-14888150D02*
X14449855Y-14888150D01*
X14449855Y-14888150D02*
X14468902Y-14897674D01*
X14468902Y-14897674D02*
X14478426Y-14907198D01*
X14478426Y-14907198D02*
X14487950Y-14926246D01*
X14487950Y-14926246D02*
X14487950Y-14983388D01*
X14487950Y-14983388D02*
X14478426Y-15002436D01*
X14478426Y-15002436D02*
X14468902Y-15011960D01*
X14468902Y-15011960D02*
X14449855Y-15021484D01*
X14449855Y-15021484D02*
X14421283Y-15021484D01*
X14545093Y-14888150D02*
X14621283Y-14888150D01*
X14573664Y-14821484D02*
X14573664Y-14992912D01*
X14573664Y-14992912D02*
X14583188Y-15011960D01*
X14583188Y-15011960D02*
X14602236Y-15021484D01*
X14602236Y-15021484D02*
X14621283Y-15021484D01*
X14840331Y-14888150D02*
X14840331Y-15088150D01*
X14840331Y-14897674D02*
X14859378Y-14888150D01*
X14859378Y-14888150D02*
X14897474Y-14888150D01*
X14897474Y-14888150D02*
X14916521Y-14897674D01*
X14916521Y-14897674D02*
X14926045Y-14907198D01*
X14926045Y-14907198D02*
X14935569Y-14926246D01*
X14935569Y-14926246D02*
X14935569Y-14983388D01*
X14935569Y-14983388D02*
X14926045Y-15002436D01*
X14926045Y-15002436D02*
X14916521Y-15011960D01*
X14916521Y-15011960D02*
X14897474Y-15021484D01*
X14897474Y-15021484D02*
X14859378Y-15021484D01*
X14859378Y-15021484D02*
X14840331Y-15011960D01*
X15049855Y-15021484D02*
X15030807Y-15011960D01*
X15030807Y-15011960D02*
X15021283Y-14992912D01*
X15021283Y-14992912D02*
X15021283Y-14821484D01*
X15211759Y-15021484D02*
X15211759Y-14916722D01*
X15211759Y-14916722D02*
X15202236Y-14897674D01*
X15202236Y-14897674D02*
X15183188Y-14888150D01*
X15183188Y-14888150D02*
X15145093Y-14888150D01*
X15145093Y-14888150D02*
X15126045Y-14897674D01*
X15211759Y-15011960D02*
X15192712Y-15021484D01*
X15192712Y-15021484D02*
X15145093Y-15021484D01*
X15145093Y-15021484D02*
X15126045Y-15011960D01*
X15126045Y-15011960D02*
X15116521Y-14992912D01*
X15116521Y-14992912D02*
X15116521Y-14973865D01*
X15116521Y-14973865D02*
X15126045Y-14954817D01*
X15126045Y-14954817D02*
X15145093Y-14945293D01*
X15145093Y-14945293D02*
X15192712Y-14945293D01*
X15192712Y-14945293D02*
X15211759Y-14935769D01*
X15278426Y-14888150D02*
X15354617Y-14888150D01*
X15306998Y-14821484D02*
X15306998Y-14992912D01*
X15306998Y-14992912D02*
X15316521Y-15011960D01*
X15316521Y-15011960D02*
X15335569Y-15021484D01*
X15335569Y-15021484D02*
X15354617Y-15021484D01*
X15497474Y-15011960D02*
X15478426Y-15021484D01*
X15478426Y-15021484D02*
X15440331Y-15021484D01*
X15440331Y-15021484D02*
X15421283Y-15011960D01*
X15421283Y-15011960D02*
X15411759Y-14992912D01*
X15411759Y-14992912D02*
X15411759Y-14916722D01*
X15411759Y-14916722D02*
X15421283Y-14897674D01*
X15421283Y-14897674D02*
X15440331Y-14888150D01*
X15440331Y-14888150D02*
X15478426Y-14888150D01*
X15478426Y-14888150D02*
X15497474Y-14897674D01*
X15497474Y-14897674D02*
X15506998Y-14916722D01*
X15506998Y-14916722D02*
X15506998Y-14935769D01*
X15506998Y-14935769D02*
X15411759Y-14954817D01*
X15678426Y-15021484D02*
X15678426Y-14821484D01*
X15678426Y-15011960D02*
X15659379Y-15021484D01*
X15659379Y-15021484D02*
X15621283Y-15021484D01*
X15621283Y-15021484D02*
X15602236Y-15011960D01*
X15602236Y-15011960D02*
X15592712Y-15002436D01*
X15592712Y-15002436D02*
X15583188Y-14983388D01*
X15583188Y-14983388D02*
X15583188Y-14926246D01*
X15583188Y-14926246D02*
X15592712Y-14907198D01*
X15592712Y-14907198D02*
X15602236Y-14897674D01*
X15602236Y-14897674D02*
X15621283Y-14888150D01*
X15621283Y-14888150D02*
X15659379Y-14888150D01*
X15659379Y-14888150D02*
X15678426Y-14897674D01*
X15754617Y-15097674D02*
X15764140Y-15088150D01*
X15764140Y-15088150D02*
X15783188Y-15059579D01*
X15783188Y-15059579D02*
X15792712Y-15040531D01*
X15792712Y-15040531D02*
X15802236Y-15011960D01*
X15802236Y-15011960D02*
X15811759Y-14964341D01*
X15811759Y-14964341D02*
X15811759Y-14926246D01*
X15811759Y-14926246D02*
X15802236Y-14878627D01*
X15802236Y-14878627D02*
X15792712Y-14850055D01*
X15792712Y-14850055D02*
X15783188Y-14831008D01*
X15783188Y-14831008D02*
X15764140Y-14802436D01*
X15764140Y-14802436D02*
X15754617Y-14792912D01*
X8808125Y-15220000D02*
G75*
G02*
X8608125Y-15220000I-100000J0D01*
G01*
X8608125Y-15220000D02*
G75*
G02*
X8808125Y-15220000I100000J0D01*
G01*
X9049854Y-15111484D02*
X9173664Y-15111484D01*
X9173664Y-15111484D02*
X9106997Y-15187674D01*
X9106997Y-15187674D02*
X9135569Y-15187674D01*
X9135569Y-15187674D02*
X9154616Y-15197198D01*
X9154616Y-15197198D02*
X9164140Y-15206722D01*
X9164140Y-15206722D02*
X9173664Y-15225769D01*
X9173664Y-15225769D02*
X9173664Y-15273388D01*
X9173664Y-15273388D02*
X9164140Y-15292436D01*
X9164140Y-15292436D02*
X9154616Y-15301960D01*
X9154616Y-15301960D02*
X9135569Y-15311484D01*
X9135569Y-15311484D02*
X9078426Y-15311484D01*
X9078426Y-15311484D02*
X9059378Y-15301960D01*
X9059378Y-15301960D02*
X9049854Y-15292436D01*
X9259378Y-15292436D02*
X9268902Y-15301960D01*
X9268902Y-15301960D02*
X9259378Y-15311484D01*
X9259378Y-15311484D02*
X9249854Y-15301960D01*
X9249854Y-15301960D02*
X9259378Y-15292436D01*
X9259378Y-15292436D02*
X9259378Y-15311484D01*
X9345092Y-15130531D02*
X9354616Y-15121008D01*
X9354616Y-15121008D02*
X9373664Y-15111484D01*
X9373664Y-15111484D02*
X9421283Y-15111484D01*
X9421283Y-15111484D02*
X9440330Y-15121008D01*
X9440330Y-15121008D02*
X9449854Y-15130531D01*
X9449854Y-15130531D02*
X9459378Y-15149579D01*
X9459378Y-15149579D02*
X9459378Y-15168627D01*
X9459378Y-15168627D02*
X9449854Y-15197198D01*
X9449854Y-15197198D02*
X9335569Y-15311484D01*
X9335569Y-15311484D02*
X9459378Y-15311484D01*
X9583188Y-15111484D02*
X9602235Y-15111484D01*
X9602235Y-15111484D02*
X9621283Y-15121008D01*
X9621283Y-15121008D02*
X9630807Y-15130531D01*
X9630807Y-15130531D02*
X9640330Y-15149579D01*
X9640330Y-15149579D02*
X9649854Y-15187674D01*
X9649854Y-15187674D02*
X9649854Y-15235293D01*
X9649854Y-15235293D02*
X9640330Y-15273388D01*
X9640330Y-15273388D02*
X9630807Y-15292436D01*
X9630807Y-15292436D02*
X9621283Y-15301960D01*
X9621283Y-15301960D02*
X9602235Y-15311484D01*
X9602235Y-15311484D02*
X9583188Y-15311484D01*
X9583188Y-15311484D02*
X9564140Y-15301960D01*
X9564140Y-15301960D02*
X9554616Y-15292436D01*
X9554616Y-15292436D02*
X9545092Y-15273388D01*
X9545092Y-15273388D02*
X9535569Y-15235293D01*
X9535569Y-15235293D02*
X9535569Y-15187674D01*
X9535569Y-15187674D02*
X9545092Y-15149579D01*
X9545092Y-15149579D02*
X9554616Y-15130531D01*
X9554616Y-15130531D02*
X9564140Y-15121008D01*
X9564140Y-15121008D02*
X9583188Y-15111484D01*
X9773664Y-15111484D02*
X9792711Y-15111484D01*
X9792711Y-15111484D02*
X9811759Y-15121008D01*
X9811759Y-15121008D02*
X9821283Y-15130531D01*
X9821283Y-15130531D02*
X9830807Y-15149579D01*
X9830807Y-15149579D02*
X9840330Y-15187674D01*
X9840330Y-15187674D02*
X9840330Y-15235293D01*
X9840330Y-15235293D02*
X9830807Y-15273388D01*
X9830807Y-15273388D02*
X9821283Y-15292436D01*
X9821283Y-15292436D02*
X9811759Y-15301960D01*
X9811759Y-15301960D02*
X9792711Y-15311484D01*
X9792711Y-15311484D02*
X9773664Y-15311484D01*
X9773664Y-15311484D02*
X9754616Y-15301960D01*
X9754616Y-15301960D02*
X9745092Y-15292436D01*
X9745092Y-15292436D02*
X9735569Y-15273388D01*
X9735569Y-15273388D02*
X9726045Y-15235293D01*
X9726045Y-15235293D02*
X9726045Y-15187674D01*
X9726045Y-15187674D02*
X9735569Y-15149579D01*
X9735569Y-15149579D02*
X9745092Y-15130531D01*
X9745092Y-15130531D02*
X9754616Y-15121008D01*
X9754616Y-15121008D02*
X9773664Y-15111484D01*
X9926045Y-15311484D02*
X9926045Y-15178150D01*
X9926045Y-15197198D02*
X9935569Y-15187674D01*
X9935569Y-15187674D02*
X9954616Y-15178150D01*
X9954616Y-15178150D02*
X9983188Y-15178150D01*
X9983188Y-15178150D02*
X10002235Y-15187674D01*
X10002235Y-15187674D02*
X10011759Y-15206722D01*
X10011759Y-15206722D02*
X10011759Y-15311484D01*
X10011759Y-15206722D02*
X10021283Y-15187674D01*
X10021283Y-15187674D02*
X10040330Y-15178150D01*
X10040330Y-15178150D02*
X10068902Y-15178150D01*
X10068902Y-15178150D02*
X10087950Y-15187674D01*
X10087950Y-15187674D02*
X10097473Y-15206722D01*
X10097473Y-15206722D02*
X10097473Y-15311484D01*
X10192711Y-15311484D02*
X10192711Y-15178150D01*
X10192711Y-15197198D02*
X10202235Y-15187674D01*
X10202235Y-15187674D02*
X10221283Y-15178150D01*
X10221283Y-15178150D02*
X10249854Y-15178150D01*
X10249854Y-15178150D02*
X10268902Y-15187674D01*
X10268902Y-15187674D02*
X10278426Y-15206722D01*
X10278426Y-15206722D02*
X10278426Y-15311484D01*
X10278426Y-15206722D02*
X10287950Y-15187674D01*
X10287950Y-15187674D02*
X10306997Y-15178150D01*
X10306997Y-15178150D02*
X10335569Y-15178150D01*
X10335569Y-15178150D02*
X10354616Y-15187674D01*
X10354616Y-15187674D02*
X10364140Y-15206722D01*
X10364140Y-15206722D02*
X10364140Y-15311484D01*
X10754616Y-15101960D02*
X10583188Y-15359103D01*
X11011759Y-15111484D02*
X11030807Y-15111484D01*
X11030807Y-15111484D02*
X11049854Y-15121008D01*
X11049854Y-15121008D02*
X11059378Y-15130531D01*
X11059378Y-15130531D02*
X11068902Y-15149579D01*
X11068902Y-15149579D02*
X11078426Y-15187674D01*
X11078426Y-15187674D02*
X11078426Y-15235293D01*
X11078426Y-15235293D02*
X11068902Y-15273388D01*
X11068902Y-15273388D02*
X11059378Y-15292436D01*
X11059378Y-15292436D02*
X11049854Y-15301960D01*
X11049854Y-15301960D02*
X11030807Y-15311484D01*
X11030807Y-15311484D02*
X11011759Y-15311484D01*
X11011759Y-15311484D02*
X10992712Y-15301960D01*
X10992712Y-15301960D02*
X10983188Y-15292436D01*
X10983188Y-15292436D02*
X10973664Y-15273388D01*
X10973664Y-15273388D02*
X10964140Y-15235293D01*
X10964140Y-15235293D02*
X10964140Y-15187674D01*
X10964140Y-15187674D02*
X10973664Y-15149579D01*
X10973664Y-15149579D02*
X10983188Y-15130531D01*
X10983188Y-15130531D02*
X10992712Y-15121008D01*
X10992712Y-15121008D02*
X11011759Y-15111484D01*
X11164140Y-15292436D02*
X11173664Y-15301960D01*
X11173664Y-15301960D02*
X11164140Y-15311484D01*
X11164140Y-15311484D02*
X11154616Y-15301960D01*
X11154616Y-15301960D02*
X11164140Y-15292436D01*
X11164140Y-15292436D02*
X11164140Y-15311484D01*
X11364140Y-15311484D02*
X11249854Y-15311484D01*
X11306997Y-15311484D02*
X11306997Y-15111484D01*
X11306997Y-15111484D02*
X11287950Y-15140055D01*
X11287950Y-15140055D02*
X11268902Y-15159103D01*
X11268902Y-15159103D02*
X11249854Y-15168627D01*
X11440331Y-15130531D02*
X11449854Y-15121008D01*
X11449854Y-15121008D02*
X11468902Y-15111484D01*
X11468902Y-15111484D02*
X11516521Y-15111484D01*
X11516521Y-15111484D02*
X11535569Y-15121008D01*
X11535569Y-15121008D02*
X11545092Y-15130531D01*
X11545092Y-15130531D02*
X11554616Y-15149579D01*
X11554616Y-15149579D02*
X11554616Y-15168627D01*
X11554616Y-15168627D02*
X11545092Y-15197198D01*
X11545092Y-15197198D02*
X11430807Y-15311484D01*
X11430807Y-15311484D02*
X11554616Y-15311484D01*
X11726045Y-15111484D02*
X11687950Y-15111484D01*
X11687950Y-15111484D02*
X11668902Y-15121008D01*
X11668902Y-15121008D02*
X11659378Y-15130531D01*
X11659378Y-15130531D02*
X11640331Y-15159103D01*
X11640331Y-15159103D02*
X11630807Y-15197198D01*
X11630807Y-15197198D02*
X11630807Y-15273388D01*
X11630807Y-15273388D02*
X11640331Y-15292436D01*
X11640331Y-15292436D02*
X11649854Y-15301960D01*
X11649854Y-15301960D02*
X11668902Y-15311484D01*
X11668902Y-15311484D02*
X11706997Y-15311484D01*
X11706997Y-15311484D02*
X11726045Y-15301960D01*
X11726045Y-15301960D02*
X11735569Y-15292436D01*
X11735569Y-15292436D02*
X11745092Y-15273388D01*
X11745092Y-15273388D02*
X11745092Y-15225769D01*
X11745092Y-15225769D02*
X11735569Y-15206722D01*
X11735569Y-15206722D02*
X11726045Y-15197198D01*
X11726045Y-15197198D02*
X11706997Y-15187674D01*
X11706997Y-15187674D02*
X11668902Y-15187674D01*
X11668902Y-15187674D02*
X11649854Y-15197198D01*
X11649854Y-15197198D02*
X11640331Y-15206722D01*
X11640331Y-15206722D02*
X11630807Y-15225769D01*
X11868902Y-15111484D02*
X11887950Y-15111484D01*
X11887950Y-15111484D02*
X11906997Y-15121008D01*
X11906997Y-15121008D02*
X11916521Y-15130531D01*
X11916521Y-15130531D02*
X11926045Y-15149579D01*
X11926045Y-15149579D02*
X11935569Y-15187674D01*
X11935569Y-15187674D02*
X11935569Y-15235293D01*
X11935569Y-15235293D02*
X11926045Y-15273388D01*
X11926045Y-15273388D02*
X11916521Y-15292436D01*
X11916521Y-15292436D02*
X11906997Y-15301960D01*
X11906997Y-15301960D02*
X11887950Y-15311484D01*
X11887950Y-15311484D02*
X11868902Y-15311484D01*
X11868902Y-15311484D02*
X11849854Y-15301960D01*
X11849854Y-15301960D02*
X11840331Y-15292436D01*
X11840331Y-15292436D02*
X11830807Y-15273388D01*
X11830807Y-15273388D02*
X11821283Y-15235293D01*
X11821283Y-15235293D02*
X11821283Y-15187674D01*
X11821283Y-15187674D02*
X11830807Y-15149579D01*
X11830807Y-15149579D02*
X11840331Y-15130531D01*
X11840331Y-15130531D02*
X11849854Y-15121008D01*
X11849854Y-15121008D02*
X11868902Y-15111484D01*
X12011759Y-15111484D02*
X12011759Y-15149579D01*
X12087950Y-15111484D02*
X12087950Y-15149579D01*
X12383188Y-15387674D02*
X12373664Y-15378150D01*
X12373664Y-15378150D02*
X12354616Y-15349579D01*
X12354616Y-15349579D02*
X12345093Y-15330531D01*
X12345093Y-15330531D02*
X12335569Y-15301960D01*
X12335569Y-15301960D02*
X12326045Y-15254341D01*
X12326045Y-15254341D02*
X12326045Y-15216246D01*
X12326045Y-15216246D02*
X12335569Y-15168627D01*
X12335569Y-15168627D02*
X12345093Y-15140055D01*
X12345093Y-15140055D02*
X12354616Y-15121008D01*
X12354616Y-15121008D02*
X12373664Y-15092436D01*
X12373664Y-15092436D02*
X12383188Y-15082912D01*
X12545093Y-15178150D02*
X12545093Y-15311484D01*
X12497473Y-15101960D02*
X12449854Y-15244817D01*
X12449854Y-15244817D02*
X12573664Y-15244817D01*
X12802235Y-15311484D02*
X12802235Y-15111484D01*
X12887950Y-15311484D02*
X12887950Y-15206722D01*
X12887950Y-15206722D02*
X12878426Y-15187674D01*
X12878426Y-15187674D02*
X12859378Y-15178150D01*
X12859378Y-15178150D02*
X12830807Y-15178150D01*
X12830807Y-15178150D02*
X12811759Y-15187674D01*
X12811759Y-15187674D02*
X12802235Y-15197198D01*
X13011759Y-15311484D02*
X12992712Y-15301960D01*
X12992712Y-15301960D02*
X12983188Y-15292436D01*
X12983188Y-15292436D02*
X12973664Y-15273388D01*
X12973664Y-15273388D02*
X12973664Y-15216246D01*
X12973664Y-15216246D02*
X12983188Y-15197198D01*
X12983188Y-15197198D02*
X12992712Y-15187674D01*
X12992712Y-15187674D02*
X13011759Y-15178150D01*
X13011759Y-15178150D02*
X13040331Y-15178150D01*
X13040331Y-15178150D02*
X13059378Y-15187674D01*
X13059378Y-15187674D02*
X13068902Y-15197198D01*
X13068902Y-15197198D02*
X13078426Y-15216246D01*
X13078426Y-15216246D02*
X13078426Y-15273388D01*
X13078426Y-15273388D02*
X13068902Y-15292436D01*
X13068902Y-15292436D02*
X13059378Y-15301960D01*
X13059378Y-15301960D02*
X13040331Y-15311484D01*
X13040331Y-15311484D02*
X13011759Y-15311484D01*
X13192712Y-15311484D02*
X13173664Y-15301960D01*
X13173664Y-15301960D02*
X13164140Y-15282912D01*
X13164140Y-15282912D02*
X13164140Y-15111484D01*
X13345093Y-15301960D02*
X13326045Y-15311484D01*
X13326045Y-15311484D02*
X13287950Y-15311484D01*
X13287950Y-15311484D02*
X13268902Y-15301960D01*
X13268902Y-15301960D02*
X13259378Y-15282912D01*
X13259378Y-15282912D02*
X13259378Y-15206722D01*
X13259378Y-15206722D02*
X13268902Y-15187674D01*
X13268902Y-15187674D02*
X13287950Y-15178150D01*
X13287950Y-15178150D02*
X13326045Y-15178150D01*
X13326045Y-15178150D02*
X13345093Y-15187674D01*
X13345093Y-15187674D02*
X13354616Y-15206722D01*
X13354616Y-15206722D02*
X13354616Y-15225769D01*
X13354616Y-15225769D02*
X13259378Y-15244817D01*
X13430807Y-15301960D02*
X13449855Y-15311484D01*
X13449855Y-15311484D02*
X13487950Y-15311484D01*
X13487950Y-15311484D02*
X13506997Y-15301960D01*
X13506997Y-15301960D02*
X13516521Y-15282912D01*
X13516521Y-15282912D02*
X13516521Y-15273388D01*
X13516521Y-15273388D02*
X13506997Y-15254341D01*
X13506997Y-15254341D02*
X13487950Y-15244817D01*
X13487950Y-15244817D02*
X13459378Y-15244817D01*
X13459378Y-15244817D02*
X13440331Y-15235293D01*
X13440331Y-15235293D02*
X13430807Y-15216246D01*
X13430807Y-15216246D02*
X13430807Y-15206722D01*
X13430807Y-15206722D02*
X13440331Y-15187674D01*
X13440331Y-15187674D02*
X13459378Y-15178150D01*
X13459378Y-15178150D02*
X13487950Y-15178150D01*
X13487950Y-15178150D02*
X13506997Y-15187674D01*
X13583188Y-15387674D02*
X13592712Y-15378150D01*
X13592712Y-15378150D02*
X13611759Y-15349579D01*
X13611759Y-15349579D02*
X13621283Y-15330531D01*
X13621283Y-15330531D02*
X13630807Y-15301960D01*
X13630807Y-15301960D02*
X13640331Y-15254341D01*
X13640331Y-15254341D02*
X13640331Y-15216246D01*
X13640331Y-15216246D02*
X13630807Y-15168627D01*
X13630807Y-15168627D02*
X13621283Y-15140055D01*
X13621283Y-15140055D02*
X13611759Y-15121008D01*
X13611759Y-15121008D02*
X13592712Y-15092436D01*
X13592712Y-15092436D02*
X13583188Y-15082912D01*
X13945093Y-15387674D02*
X13935569Y-15378150D01*
X13935569Y-15378150D02*
X13916521Y-15349579D01*
X13916521Y-15349579D02*
X13906997Y-15330531D01*
X13906997Y-15330531D02*
X13897474Y-15301960D01*
X13897474Y-15301960D02*
X13887950Y-15254341D01*
X13887950Y-15254341D02*
X13887950Y-15216246D01*
X13887950Y-15216246D02*
X13897474Y-15168627D01*
X13897474Y-15168627D02*
X13906997Y-15140055D01*
X13906997Y-15140055D02*
X13916521Y-15121008D01*
X13916521Y-15121008D02*
X13935569Y-15092436D01*
X13935569Y-15092436D02*
X13945093Y-15082912D01*
X14021283Y-15178150D02*
X14021283Y-15311484D01*
X14021283Y-15197198D02*
X14030807Y-15187674D01*
X14030807Y-15187674D02*
X14049855Y-15178150D01*
X14049855Y-15178150D02*
X14078426Y-15178150D01*
X14078426Y-15178150D02*
X14097474Y-15187674D01*
X14097474Y-15187674D02*
X14106997Y-15206722D01*
X14106997Y-15206722D02*
X14106997Y-15311484D01*
X14230807Y-15311484D02*
X14211759Y-15301960D01*
X14211759Y-15301960D02*
X14202236Y-15292436D01*
X14202236Y-15292436D02*
X14192712Y-15273388D01*
X14192712Y-15273388D02*
X14192712Y-15216246D01*
X14192712Y-15216246D02*
X14202236Y-15197198D01*
X14202236Y-15197198D02*
X14211759Y-15187674D01*
X14211759Y-15187674D02*
X14230807Y-15178150D01*
X14230807Y-15178150D02*
X14259378Y-15178150D01*
X14259378Y-15178150D02*
X14278426Y-15187674D01*
X14278426Y-15187674D02*
X14287950Y-15197198D01*
X14287950Y-15197198D02*
X14297474Y-15216246D01*
X14297474Y-15216246D02*
X14297474Y-15273388D01*
X14297474Y-15273388D02*
X14287950Y-15292436D01*
X14287950Y-15292436D02*
X14278426Y-15301960D01*
X14278426Y-15301960D02*
X14259378Y-15311484D01*
X14259378Y-15311484D02*
X14230807Y-15311484D01*
X14354617Y-15178150D02*
X14430807Y-15178150D01*
X14383188Y-15111484D02*
X14383188Y-15282912D01*
X14383188Y-15282912D02*
X14392712Y-15301960D01*
X14392712Y-15301960D02*
X14411759Y-15311484D01*
X14411759Y-15311484D02*
X14430807Y-15311484D01*
X14649855Y-15178150D02*
X14649855Y-15378150D01*
X14649855Y-15187674D02*
X14668902Y-15178150D01*
X14668902Y-15178150D02*
X14706998Y-15178150D01*
X14706998Y-15178150D02*
X14726045Y-15187674D01*
X14726045Y-15187674D02*
X14735569Y-15197198D01*
X14735569Y-15197198D02*
X14745093Y-15216246D01*
X14745093Y-15216246D02*
X14745093Y-15273388D01*
X14745093Y-15273388D02*
X14735569Y-15292436D01*
X14735569Y-15292436D02*
X14726045Y-15301960D01*
X14726045Y-15301960D02*
X14706998Y-15311484D01*
X14706998Y-15311484D02*
X14668902Y-15311484D01*
X14668902Y-15311484D02*
X14649855Y-15301960D01*
X14859378Y-15311484D02*
X14840331Y-15301960D01*
X14840331Y-15301960D02*
X14830807Y-15282912D01*
X14830807Y-15282912D02*
X14830807Y-15111484D01*
X15021283Y-15311484D02*
X15021283Y-15206722D01*
X15021283Y-15206722D02*
X15011759Y-15187674D01*
X15011759Y-15187674D02*
X14992712Y-15178150D01*
X14992712Y-15178150D02*
X14954617Y-15178150D01*
X14954617Y-15178150D02*
X14935569Y-15187674D01*
X15021283Y-15301960D02*
X15002236Y-15311484D01*
X15002236Y-15311484D02*
X14954617Y-15311484D01*
X14954617Y-15311484D02*
X14935569Y-15301960D01*
X14935569Y-15301960D02*
X14926045Y-15282912D01*
X14926045Y-15282912D02*
X14926045Y-15263865D01*
X14926045Y-15263865D02*
X14935569Y-15244817D01*
X14935569Y-15244817D02*
X14954617Y-15235293D01*
X14954617Y-15235293D02*
X15002236Y-15235293D01*
X15002236Y-15235293D02*
X15021283Y-15225769D01*
X15087950Y-15178150D02*
X15164140Y-15178150D01*
X15116521Y-15111484D02*
X15116521Y-15282912D01*
X15116521Y-15282912D02*
X15126045Y-15301960D01*
X15126045Y-15301960D02*
X15145093Y-15311484D01*
X15145093Y-15311484D02*
X15164140Y-15311484D01*
X15306998Y-15301960D02*
X15287950Y-15311484D01*
X15287950Y-15311484D02*
X15249855Y-15311484D01*
X15249855Y-15311484D02*
X15230807Y-15301960D01*
X15230807Y-15301960D02*
X15221283Y-15282912D01*
X15221283Y-15282912D02*
X15221283Y-15206722D01*
X15221283Y-15206722D02*
X15230807Y-15187674D01*
X15230807Y-15187674D02*
X15249855Y-15178150D01*
X15249855Y-15178150D02*
X15287950Y-15178150D01*
X15287950Y-15178150D02*
X15306998Y-15187674D01*
X15306998Y-15187674D02*
X15316521Y-15206722D01*
X15316521Y-15206722D02*
X15316521Y-15225769D01*
X15316521Y-15225769D02*
X15221283Y-15244817D01*
X15487950Y-15311484D02*
X15487950Y-15111484D01*
X15487950Y-15301960D02*
X15468902Y-15311484D01*
X15468902Y-15311484D02*
X15430807Y-15311484D01*
X15430807Y-15311484D02*
X15411759Y-15301960D01*
X15411759Y-15301960D02*
X15402236Y-15292436D01*
X15402236Y-15292436D02*
X15392712Y-15273388D01*
X15392712Y-15273388D02*
X15392712Y-15216246D01*
X15392712Y-15216246D02*
X15402236Y-15197198D01*
X15402236Y-15197198D02*
X15411759Y-15187674D01*
X15411759Y-15187674D02*
X15430807Y-15178150D01*
X15430807Y-15178150D02*
X15468902Y-15178150D01*
X15468902Y-15178150D02*
X15487950Y-15187674D01*
X15564140Y-15387674D02*
X15573664Y-15378150D01*
X15573664Y-15378150D02*
X15592712Y-15349579D01*
X15592712Y-15349579D02*
X15602236Y-15330531D01*
X15602236Y-15330531D02*
X15611759Y-15301960D01*
X15611759Y-15301960D02*
X15621283Y-15254341D01*
X15621283Y-15254341D02*
X15621283Y-15216246D01*
X15621283Y-15216246D02*
X15611759Y-15168627D01*
X15611759Y-15168627D02*
X15602236Y-15140055D01*
X15602236Y-15140055D02*
X15592712Y-15121008D01*
X15592712Y-15121008D02*
X15573664Y-15092436D01*
X15573664Y-15092436D02*
X15564140Y-15082912D01*
X8708125Y-15440000D02*
X8708125Y-15640000D01*
X8608125Y-15540000D02*
X8808125Y-15540000D01*
X9154616Y-15498150D02*
X9154616Y-15631484D01*
X9106997Y-15421960D02*
X9059378Y-15564817D01*
X9059378Y-15564817D02*
X9183188Y-15564817D01*
X9259378Y-15612436D02*
X9268902Y-15621960D01*
X9268902Y-15621960D02*
X9259378Y-15631484D01*
X9259378Y-15631484D02*
X9249854Y-15621960D01*
X9249854Y-15621960D02*
X9259378Y-15612436D01*
X9259378Y-15612436D02*
X9259378Y-15631484D01*
X9392711Y-15431484D02*
X9411759Y-15431484D01*
X9411759Y-15431484D02*
X9430807Y-15441008D01*
X9430807Y-15441008D02*
X9440330Y-15450531D01*
X9440330Y-15450531D02*
X9449854Y-15469579D01*
X9449854Y-15469579D02*
X9459378Y-15507674D01*
X9459378Y-15507674D02*
X9459378Y-15555293D01*
X9459378Y-15555293D02*
X9449854Y-15593388D01*
X9449854Y-15593388D02*
X9440330Y-15612436D01*
X9440330Y-15612436D02*
X9430807Y-15621960D01*
X9430807Y-15621960D02*
X9411759Y-15631484D01*
X9411759Y-15631484D02*
X9392711Y-15631484D01*
X9392711Y-15631484D02*
X9373664Y-15621960D01*
X9373664Y-15621960D02*
X9364140Y-15612436D01*
X9364140Y-15612436D02*
X9354616Y-15593388D01*
X9354616Y-15593388D02*
X9345092Y-15555293D01*
X9345092Y-15555293D02*
X9345092Y-15507674D01*
X9345092Y-15507674D02*
X9354616Y-15469579D01*
X9354616Y-15469579D02*
X9364140Y-15450531D01*
X9364140Y-15450531D02*
X9373664Y-15441008D01*
X9373664Y-15441008D02*
X9392711Y-15431484D01*
X9583188Y-15431484D02*
X9602235Y-15431484D01*
X9602235Y-15431484D02*
X9621283Y-15441008D01*
X9621283Y-15441008D02*
X9630807Y-15450531D01*
X9630807Y-15450531D02*
X9640330Y-15469579D01*
X9640330Y-15469579D02*
X9649854Y-15507674D01*
X9649854Y-15507674D02*
X9649854Y-15555293D01*
X9649854Y-15555293D02*
X9640330Y-15593388D01*
X9640330Y-15593388D02*
X9630807Y-15612436D01*
X9630807Y-15612436D02*
X9621283Y-15621960D01*
X9621283Y-15621960D02*
X9602235Y-15631484D01*
X9602235Y-15631484D02*
X9583188Y-15631484D01*
X9583188Y-15631484D02*
X9564140Y-15621960D01*
X9564140Y-15621960D02*
X9554616Y-15612436D01*
X9554616Y-15612436D02*
X9545092Y-15593388D01*
X9545092Y-15593388D02*
X9535569Y-15555293D01*
X9535569Y-15555293D02*
X9535569Y-15507674D01*
X9535569Y-15507674D02*
X9545092Y-15469579D01*
X9545092Y-15469579D02*
X9554616Y-15450531D01*
X9554616Y-15450531D02*
X9564140Y-15441008D01*
X9564140Y-15441008D02*
X9583188Y-15431484D01*
X9773664Y-15431484D02*
X9792711Y-15431484D01*
X9792711Y-15431484D02*
X9811759Y-15441008D01*
X9811759Y-15441008D02*
X9821283Y-15450531D01*
X9821283Y-15450531D02*
X9830807Y-15469579D01*
X9830807Y-15469579D02*
X9840330Y-15507674D01*
X9840330Y-15507674D02*
X9840330Y-15555293D01*
X9840330Y-15555293D02*
X9830807Y-15593388D01*
X9830807Y-15593388D02*
X9821283Y-15612436D01*
X9821283Y-15612436D02*
X9811759Y-15621960D01*
X9811759Y-15621960D02*
X9792711Y-15631484D01*
X9792711Y-15631484D02*
X9773664Y-15631484D01*
X9773664Y-15631484D02*
X9754616Y-15621960D01*
X9754616Y-15621960D02*
X9745092Y-15612436D01*
X9745092Y-15612436D02*
X9735569Y-15593388D01*
X9735569Y-15593388D02*
X9726045Y-15555293D01*
X9726045Y-15555293D02*
X9726045Y-15507674D01*
X9726045Y-15507674D02*
X9735569Y-15469579D01*
X9735569Y-15469579D02*
X9745092Y-15450531D01*
X9745092Y-15450531D02*
X9754616Y-15441008D01*
X9754616Y-15441008D02*
X9773664Y-15431484D01*
X9926045Y-15631484D02*
X9926045Y-15498150D01*
X9926045Y-15517198D02*
X9935569Y-15507674D01*
X9935569Y-15507674D02*
X9954616Y-15498150D01*
X9954616Y-15498150D02*
X9983188Y-15498150D01*
X9983188Y-15498150D02*
X10002235Y-15507674D01*
X10002235Y-15507674D02*
X10011759Y-15526722D01*
X10011759Y-15526722D02*
X10011759Y-15631484D01*
X10011759Y-15526722D02*
X10021283Y-15507674D01*
X10021283Y-15507674D02*
X10040330Y-15498150D01*
X10040330Y-15498150D02*
X10068902Y-15498150D01*
X10068902Y-15498150D02*
X10087950Y-15507674D01*
X10087950Y-15507674D02*
X10097473Y-15526722D01*
X10097473Y-15526722D02*
X10097473Y-15631484D01*
X10192711Y-15631484D02*
X10192711Y-15498150D01*
X10192711Y-15517198D02*
X10202235Y-15507674D01*
X10202235Y-15507674D02*
X10221283Y-15498150D01*
X10221283Y-15498150D02*
X10249854Y-15498150D01*
X10249854Y-15498150D02*
X10268902Y-15507674D01*
X10268902Y-15507674D02*
X10278426Y-15526722D01*
X10278426Y-15526722D02*
X10278426Y-15631484D01*
X10278426Y-15526722D02*
X10287950Y-15507674D01*
X10287950Y-15507674D02*
X10306997Y-15498150D01*
X10306997Y-15498150D02*
X10335569Y-15498150D01*
X10335569Y-15498150D02*
X10354616Y-15507674D01*
X10354616Y-15507674D02*
X10364140Y-15526722D01*
X10364140Y-15526722D02*
X10364140Y-15631484D01*
X10754616Y-15421960D02*
X10583188Y-15679103D01*
X11011759Y-15431484D02*
X11030807Y-15431484D01*
X11030807Y-15431484D02*
X11049854Y-15441008D01*
X11049854Y-15441008D02*
X11059378Y-15450531D01*
X11059378Y-15450531D02*
X11068902Y-15469579D01*
X11068902Y-15469579D02*
X11078426Y-15507674D01*
X11078426Y-15507674D02*
X11078426Y-15555293D01*
X11078426Y-15555293D02*
X11068902Y-15593388D01*
X11068902Y-15593388D02*
X11059378Y-15612436D01*
X11059378Y-15612436D02*
X11049854Y-15621960D01*
X11049854Y-15621960D02*
X11030807Y-15631484D01*
X11030807Y-15631484D02*
X11011759Y-15631484D01*
X11011759Y-15631484D02*
X10992712Y-15621960D01*
X10992712Y-15621960D02*
X10983188Y-15612436D01*
X10983188Y-15612436D02*
X10973664Y-15593388D01*
X10973664Y-15593388D02*
X10964140Y-15555293D01*
X10964140Y-15555293D02*
X10964140Y-15507674D01*
X10964140Y-15507674D02*
X10973664Y-15469579D01*
X10973664Y-15469579D02*
X10983188Y-15450531D01*
X10983188Y-15450531D02*
X10992712Y-15441008D01*
X10992712Y-15441008D02*
X11011759Y-15431484D01*
X11164140Y-15612436D02*
X11173664Y-15621960D01*
X11173664Y-15621960D02*
X11164140Y-15631484D01*
X11164140Y-15631484D02*
X11154616Y-15621960D01*
X11154616Y-15621960D02*
X11164140Y-15612436D01*
X11164140Y-15612436D02*
X11164140Y-15631484D01*
X11364140Y-15631484D02*
X11249854Y-15631484D01*
X11306997Y-15631484D02*
X11306997Y-15431484D01*
X11306997Y-15431484D02*
X11287950Y-15460055D01*
X11287950Y-15460055D02*
X11268902Y-15479103D01*
X11268902Y-15479103D02*
X11249854Y-15488627D01*
X11545092Y-15431484D02*
X11449854Y-15431484D01*
X11449854Y-15431484D02*
X11440331Y-15526722D01*
X11440331Y-15526722D02*
X11449854Y-15517198D01*
X11449854Y-15517198D02*
X11468902Y-15507674D01*
X11468902Y-15507674D02*
X11516521Y-15507674D01*
X11516521Y-15507674D02*
X11535569Y-15517198D01*
X11535569Y-15517198D02*
X11545092Y-15526722D01*
X11545092Y-15526722D02*
X11554616Y-15545769D01*
X11554616Y-15545769D02*
X11554616Y-15593388D01*
X11554616Y-15593388D02*
X11545092Y-15612436D01*
X11545092Y-15612436D02*
X11535569Y-15621960D01*
X11535569Y-15621960D02*
X11516521Y-15631484D01*
X11516521Y-15631484D02*
X11468902Y-15631484D01*
X11468902Y-15631484D02*
X11449854Y-15621960D01*
X11449854Y-15621960D02*
X11440331Y-15612436D01*
X11621283Y-15431484D02*
X11754616Y-15431484D01*
X11754616Y-15431484D02*
X11668902Y-15631484D01*
X11926045Y-15431484D02*
X11830807Y-15431484D01*
X11830807Y-15431484D02*
X11821283Y-15526722D01*
X11821283Y-15526722D02*
X11830807Y-15517198D01*
X11830807Y-15517198D02*
X11849854Y-15507674D01*
X11849854Y-15507674D02*
X11897473Y-15507674D01*
X11897473Y-15507674D02*
X11916521Y-15517198D01*
X11916521Y-15517198D02*
X11926045Y-15526722D01*
X11926045Y-15526722D02*
X11935569Y-15545769D01*
X11935569Y-15545769D02*
X11935569Y-15593388D01*
X11935569Y-15593388D02*
X11926045Y-15612436D01*
X11926045Y-15612436D02*
X11916521Y-15621960D01*
X11916521Y-15621960D02*
X11897473Y-15631484D01*
X11897473Y-15631484D02*
X11849854Y-15631484D01*
X11849854Y-15631484D02*
X11830807Y-15621960D01*
X11830807Y-15621960D02*
X11821283Y-15612436D01*
X12011759Y-15431484D02*
X12011759Y-15469579D01*
X12087950Y-15431484D02*
X12087950Y-15469579D01*
X12383188Y-15707674D02*
X12373664Y-15698150D01*
X12373664Y-15698150D02*
X12354616Y-15669579D01*
X12354616Y-15669579D02*
X12345093Y-15650531D01*
X12345093Y-15650531D02*
X12335569Y-15621960D01*
X12335569Y-15621960D02*
X12326045Y-15574341D01*
X12326045Y-15574341D02*
X12326045Y-15536246D01*
X12326045Y-15536246D02*
X12335569Y-15488627D01*
X12335569Y-15488627D02*
X12345093Y-15460055D01*
X12345093Y-15460055D02*
X12354616Y-15441008D01*
X12354616Y-15441008D02*
X12373664Y-15412436D01*
X12373664Y-15412436D02*
X12383188Y-15402912D01*
X12468902Y-15631484D02*
X12506997Y-15631484D01*
X12506997Y-15631484D02*
X12526045Y-15621960D01*
X12526045Y-15621960D02*
X12535569Y-15612436D01*
X12535569Y-15612436D02*
X12554616Y-15583865D01*
X12554616Y-15583865D02*
X12564140Y-15545769D01*
X12564140Y-15545769D02*
X12564140Y-15469579D01*
X12564140Y-15469579D02*
X12554616Y-15450531D01*
X12554616Y-15450531D02*
X12545093Y-15441008D01*
X12545093Y-15441008D02*
X12526045Y-15431484D01*
X12526045Y-15431484D02*
X12487950Y-15431484D01*
X12487950Y-15431484D02*
X12468902Y-15441008D01*
X12468902Y-15441008D02*
X12459378Y-15450531D01*
X12459378Y-15450531D02*
X12449854Y-15469579D01*
X12449854Y-15469579D02*
X12449854Y-15517198D01*
X12449854Y-15517198D02*
X12459378Y-15536246D01*
X12459378Y-15536246D02*
X12468902Y-15545769D01*
X12468902Y-15545769D02*
X12487950Y-15555293D01*
X12487950Y-15555293D02*
X12526045Y-15555293D01*
X12526045Y-15555293D02*
X12545093Y-15545769D01*
X12545093Y-15545769D02*
X12554616Y-15536246D01*
X12554616Y-15536246D02*
X12564140Y-15517198D01*
X12802235Y-15631484D02*
X12802235Y-15431484D01*
X12887950Y-15631484D02*
X12887950Y-15526722D01*
X12887950Y-15526722D02*
X12878426Y-15507674D01*
X12878426Y-15507674D02*
X12859378Y-15498150D01*
X12859378Y-15498150D02*
X12830807Y-15498150D01*
X12830807Y-15498150D02*
X12811759Y-15507674D01*
X12811759Y-15507674D02*
X12802235Y-15517198D01*
X13011759Y-15631484D02*
X12992712Y-15621960D01*
X12992712Y-15621960D02*
X12983188Y-15612436D01*
X12983188Y-15612436D02*
X12973664Y-15593388D01*
X12973664Y-15593388D02*
X12973664Y-15536246D01*
X12973664Y-15536246D02*
X12983188Y-15517198D01*
X12983188Y-15517198D02*
X12992712Y-15507674D01*
X12992712Y-15507674D02*
X13011759Y-15498150D01*
X13011759Y-15498150D02*
X13040331Y-15498150D01*
X13040331Y-15498150D02*
X13059378Y-15507674D01*
X13059378Y-15507674D02*
X13068902Y-15517198D01*
X13068902Y-15517198D02*
X13078426Y-15536246D01*
X13078426Y-15536246D02*
X13078426Y-15593388D01*
X13078426Y-15593388D02*
X13068902Y-15612436D01*
X13068902Y-15612436D02*
X13059378Y-15621960D01*
X13059378Y-15621960D02*
X13040331Y-15631484D01*
X13040331Y-15631484D02*
X13011759Y-15631484D01*
X13192712Y-15631484D02*
X13173664Y-15621960D01*
X13173664Y-15621960D02*
X13164140Y-15602912D01*
X13164140Y-15602912D02*
X13164140Y-15431484D01*
X13345093Y-15621960D02*
X13326045Y-15631484D01*
X13326045Y-15631484D02*
X13287950Y-15631484D01*
X13287950Y-15631484D02*
X13268902Y-15621960D01*
X13268902Y-15621960D02*
X13259378Y-15602912D01*
X13259378Y-15602912D02*
X13259378Y-15526722D01*
X13259378Y-15526722D02*
X13268902Y-15507674D01*
X13268902Y-15507674D02*
X13287950Y-15498150D01*
X13287950Y-15498150D02*
X13326045Y-15498150D01*
X13326045Y-15498150D02*
X13345093Y-15507674D01*
X13345093Y-15507674D02*
X13354616Y-15526722D01*
X13354616Y-15526722D02*
X13354616Y-15545769D01*
X13354616Y-15545769D02*
X13259378Y-15564817D01*
X13430807Y-15621960D02*
X13449855Y-15631484D01*
X13449855Y-15631484D02*
X13487950Y-15631484D01*
X13487950Y-15631484D02*
X13506997Y-15621960D01*
X13506997Y-15621960D02*
X13516521Y-15602912D01*
X13516521Y-15602912D02*
X13516521Y-15593388D01*
X13516521Y-15593388D02*
X13506997Y-15574341D01*
X13506997Y-15574341D02*
X13487950Y-15564817D01*
X13487950Y-15564817D02*
X13459378Y-15564817D01*
X13459378Y-15564817D02*
X13440331Y-15555293D01*
X13440331Y-15555293D02*
X13430807Y-15536246D01*
X13430807Y-15536246D02*
X13430807Y-15526722D01*
X13430807Y-15526722D02*
X13440331Y-15507674D01*
X13440331Y-15507674D02*
X13459378Y-15498150D01*
X13459378Y-15498150D02*
X13487950Y-15498150D01*
X13487950Y-15498150D02*
X13506997Y-15507674D01*
X13583188Y-15707674D02*
X13592712Y-15698150D01*
X13592712Y-15698150D02*
X13611759Y-15669579D01*
X13611759Y-15669579D02*
X13621283Y-15650531D01*
X13621283Y-15650531D02*
X13630807Y-15621960D01*
X13630807Y-15621960D02*
X13640331Y-15574341D01*
X13640331Y-15574341D02*
X13640331Y-15536246D01*
X13640331Y-15536246D02*
X13630807Y-15488627D01*
X13630807Y-15488627D02*
X13621283Y-15460055D01*
X13621283Y-15460055D02*
X13611759Y-15441008D01*
X13611759Y-15441008D02*
X13592712Y-15412436D01*
X13592712Y-15412436D02*
X13583188Y-15402912D01*
X13945093Y-15707674D02*
X13935569Y-15698150D01*
X13935569Y-15698150D02*
X13916521Y-15669579D01*
X13916521Y-15669579D02*
X13906997Y-15650531D01*
X13906997Y-15650531D02*
X13897474Y-15621960D01*
X13897474Y-15621960D02*
X13887950Y-15574341D01*
X13887950Y-15574341D02*
X13887950Y-15536246D01*
X13887950Y-15536246D02*
X13897474Y-15488627D01*
X13897474Y-15488627D02*
X13906997Y-15460055D01*
X13906997Y-15460055D02*
X13916521Y-15441008D01*
X13916521Y-15441008D02*
X13935569Y-15412436D01*
X13935569Y-15412436D02*
X13945093Y-15402912D01*
X14021283Y-15498150D02*
X14021283Y-15631484D01*
X14021283Y-15517198D02*
X14030807Y-15507674D01*
X14030807Y-15507674D02*
X14049855Y-15498150D01*
X14049855Y-15498150D02*
X14078426Y-15498150D01*
X14078426Y-15498150D02*
X14097474Y-15507674D01*
X14097474Y-15507674D02*
X14106997Y-15526722D01*
X14106997Y-15526722D02*
X14106997Y-15631484D01*
X14230807Y-15631484D02*
X14211759Y-15621960D01*
X14211759Y-15621960D02*
X14202236Y-15612436D01*
X14202236Y-15612436D02*
X14192712Y-15593388D01*
X14192712Y-15593388D02*
X14192712Y-15536246D01*
X14192712Y-15536246D02*
X14202236Y-15517198D01*
X14202236Y-15517198D02*
X14211759Y-15507674D01*
X14211759Y-15507674D02*
X14230807Y-15498150D01*
X14230807Y-15498150D02*
X14259378Y-15498150D01*
X14259378Y-15498150D02*
X14278426Y-15507674D01*
X14278426Y-15507674D02*
X14287950Y-15517198D01*
X14287950Y-15517198D02*
X14297474Y-15536246D01*
X14297474Y-15536246D02*
X14297474Y-15593388D01*
X14297474Y-15593388D02*
X14287950Y-15612436D01*
X14287950Y-15612436D02*
X14278426Y-15621960D01*
X14278426Y-15621960D02*
X14259378Y-15631484D01*
X14259378Y-15631484D02*
X14230807Y-15631484D01*
X14354617Y-15498150D02*
X14430807Y-15498150D01*
X14383188Y-15431484D02*
X14383188Y-15602912D01*
X14383188Y-15602912D02*
X14392712Y-15621960D01*
X14392712Y-15621960D02*
X14411759Y-15631484D01*
X14411759Y-15631484D02*
X14430807Y-15631484D01*
X14649855Y-15498150D02*
X14649855Y-15698150D01*
X14649855Y-15507674D02*
X14668902Y-15498150D01*
X14668902Y-15498150D02*
X14706998Y-15498150D01*
X14706998Y-15498150D02*
X14726045Y-15507674D01*
X14726045Y-15507674D02*
X14735569Y-15517198D01*
X14735569Y-15517198D02*
X14745093Y-15536246D01*
X14745093Y-15536246D02*
X14745093Y-15593388D01*
X14745093Y-15593388D02*
X14735569Y-15612436D01*
X14735569Y-15612436D02*
X14726045Y-15621960D01*
X14726045Y-15621960D02*
X14706998Y-15631484D01*
X14706998Y-15631484D02*
X14668902Y-15631484D01*
X14668902Y-15631484D02*
X14649855Y-15621960D01*
X14859378Y-15631484D02*
X14840331Y-15621960D01*
X14840331Y-15621960D02*
X14830807Y-15602912D01*
X14830807Y-15602912D02*
X14830807Y-15431484D01*
X15021283Y-15631484D02*
X15021283Y-15526722D01*
X15021283Y-15526722D02*
X15011759Y-15507674D01*
X15011759Y-15507674D02*
X14992712Y-15498150D01*
X14992712Y-15498150D02*
X14954617Y-15498150D01*
X14954617Y-15498150D02*
X14935569Y-15507674D01*
X15021283Y-15621960D02*
X15002236Y-15631484D01*
X15002236Y-15631484D02*
X14954617Y-15631484D01*
X14954617Y-15631484D02*
X14935569Y-15621960D01*
X14935569Y-15621960D02*
X14926045Y-15602912D01*
X14926045Y-15602912D02*
X14926045Y-15583865D01*
X14926045Y-15583865D02*
X14935569Y-15564817D01*
X14935569Y-15564817D02*
X14954617Y-15555293D01*
X14954617Y-15555293D02*
X15002236Y-15555293D01*
X15002236Y-15555293D02*
X15021283Y-15545769D01*
X15087950Y-15498150D02*
X15164140Y-15498150D01*
X15116521Y-15431484D02*
X15116521Y-15602912D01*
X15116521Y-15602912D02*
X15126045Y-15621960D01*
X15126045Y-15621960D02*
X15145093Y-15631484D01*
X15145093Y-15631484D02*
X15164140Y-15631484D01*
X15306998Y-15621960D02*
X15287950Y-15631484D01*
X15287950Y-15631484D02*
X15249855Y-15631484D01*
X15249855Y-15631484D02*
X15230807Y-15621960D01*
X15230807Y-15621960D02*
X15221283Y-15602912D01*
X15221283Y-15602912D02*
X15221283Y-15526722D01*
X15221283Y-15526722D02*
X15230807Y-15507674D01*
X15230807Y-15507674D02*
X15249855Y-15498150D01*
X15249855Y-15498150D02*
X15287950Y-15498150D01*
X15287950Y-15498150D02*
X15306998Y-15507674D01*
X15306998Y-15507674D02*
X15316521Y-15526722D01*
X15316521Y-15526722D02*
X15316521Y-15545769D01*
X15316521Y-15545769D02*
X15221283Y-15564817D01*
X15487950Y-15631484D02*
X15487950Y-15431484D01*
X15487950Y-15621960D02*
X15468902Y-15631484D01*
X15468902Y-15631484D02*
X15430807Y-15631484D01*
X15430807Y-15631484D02*
X15411759Y-15621960D01*
X15411759Y-15621960D02*
X15402236Y-15612436D01*
X15402236Y-15612436D02*
X15392712Y-15593388D01*
X15392712Y-15593388D02*
X15392712Y-15536246D01*
X15392712Y-15536246D02*
X15402236Y-15517198D01*
X15402236Y-15517198D02*
X15411759Y-15507674D01*
X15411759Y-15507674D02*
X15430807Y-15498150D01*
X15430807Y-15498150D02*
X15468902Y-15498150D01*
X15468902Y-15498150D02*
X15487950Y-15507674D01*
X15564140Y-15707674D02*
X15573664Y-15698150D01*
X15573664Y-15698150D02*
X15592712Y-15669579D01*
X15592712Y-15669579D02*
X15602236Y-15650531D01*
X15602236Y-15650531D02*
X15611759Y-15621960D01*
X15611759Y-15621960D02*
X15621283Y-15574341D01*
X15621283Y-15574341D02*
X15621283Y-15536246D01*
X15621283Y-15536246D02*
X15611759Y-15488627D01*
X15611759Y-15488627D02*
X15602236Y-15460055D01*
X15602236Y-15460055D02*
X15592712Y-15441008D01*
X15592712Y-15441008D02*
X15573664Y-15412436D01*
X15573664Y-15412436D02*
X15564140Y-15402912D01*
M02*
