  0
SECTION
  2
HEADER
  9
$ANGBASE
  50
0.0
  9
$ANGDIR
  70
1
  9
$MEASUREMENT
  70
1
  9
$INSUNITS
  70
4
  0
ENDSEC
  0
SECTION
  2
TABLES
  0
TABLE
  2
LTYPE
  70
4
  0
LTYPE
  5
40F
  2
CONTINUOUS
  70
0
  3
Solid line
  72
65
  73
0
  40
0.0
  0
LTYPE
  5
410
  2
DASHDOT
 70
0
  3
Dash Dot ____ _ ____ _
 72
65
 73
4
 40
2.0
 49
1.25
 49
-0.25
 49
0.25
 49
-0.25
  0
LTYPE
  5
411
  2
DASHED
 70
0
  3
Dashed __ __ __ __ __
 72
65
 73
2
 40
0.75
 49
0.5
 49
-0.25
  0
LTYPE
  5
43B
  2
DOTTED
 70
0
  3
Dotted .  .  .  .
 72
65
 73
2
 40
0.2
 49
0.0
 49
-0.2
  0
ENDTAB
  0
TABLE
  2
STYLE
  70
4
  0
STYLE
  2
KICAD
  70
0
  40
0
  41
1
  42
1
  50
0
  71
0
  3
isocp.shx
  0
STYLE
  2
KICADB
  70
0
  40
0
  41
1
  42
1
  50
0
  71
0
  3
isocp.shx
  0
STYLE
  2
KICADI
  70
0
  40
0
  41
1
  42
1
  50
15
  71
0
  3
isocp.shx
  0
STYLE
  2
KICADBI
  70
0
  40
0
  41
1
  42
1
  50
15
  71
0
  3
isocp.shx
  0
ENDTAB
  0
TABLE
  2
LAYER
  70
1
  0
LAYER
  2
BLACK
  70
0
  62
250
  6
CONTINUOUS
  0
ENDTAB
  0
ENDSEC
  0
SECTION
  2
ENTITIES
0
LINE
8
BLACK
6
CONTINUOUS
10
88.1062500000000028
20
-61.9124999999999943
11
88.1062500000000028
21
-142.875
0
LINE
8
BLACK
6
CONTINUOUS
10
88.1062500000000028
20
-61.9124999999999943
11
135.7312499999999886
21
-61.9124999999999943
0
LINE
8
BLACK
6
CONTINUOUS
10
135.7312499999999886
20
-42.8624999999999972
11
192.8812499999999943
21
-42.8624999999999972
0
LINE
8
BLACK
6
CONTINUOUS
10
135.7312499999999886
20
-61.9124999999999943
11
135.7312499999999886
21
-42.8624999999999972
0
LINE
8
BLACK
6
CONTINUOUS
10
192.8812499999999943
20
-42.8624999999999972
11
192.8812499999999943
21
-61.9124999999999943
0
LINE
8
BLACK
6
CONTINUOUS
10
192.8812499999999943
20
-61.9124999999999943
11
238.125
21
-61.9124999999999943
0
LINE
8
BLACK
6
CONTINUOUS
10
238.125
20
-61.9124999999999943
11
238.125
21
-142.875
0
LINE
8
BLACK
6
CONTINUOUS
10
238.125
20
-142.875
11
88.1062500000000028
21
-142.875
0
LINE
8
BLACK
6
CONTINUOUS
10
96.4637499999999903
20
-101.5437499999999886
11
98.1637499999999932
21
-103.2437499999999915
0
LINE
8
BLACK
6
CONTINUOUS
10
98.1637499999999932
20
-101.5437499999999886
11
96.4637499999999903
21
-103.2437499999999915
0
LINE
8
BLACK
6
CONTINUOUS
10
106.6237500000000011
20
-101.5437499999999886
11
108.3237499999999898
21
-103.2437499999999915
0
LINE
8
BLACK
6
CONTINUOUS
10
108.3237499999999898
20
-101.5437499999999886
11
106.6237500000000011
21
-103.2437499999999915
0
LINE
8
BLACK
6
CONTINUOUS
10
115.5137500000000017
20
-82.4937499999999915
11
117.2137499999999903
21
-84.1937499999999943
0
LINE
8
BLACK
6
CONTINUOUS
10
117.2137499999999903
20
-82.4937499999999915
11
115.5137500000000017
21
-84.1937499999999943
0
LINE
8
BLACK
6
CONTINUOUS
10
115.6124999999999972
20
-101.5437499999999886
11
117.3125
21
-103.2437499999999915
0
LINE
8
BLACK
6
CONTINUOUS
10
117.3125
20
-101.5437499999999886
11
115.6124999999999972
21
-103.2437499999999915
0
LINE
8
BLACK
6
CONTINUOUS
10
125.6737499999999983
20
-82.4937499999999915
11
127.3737500000000011
21
-84.1937499999999943
0
LINE
8
BLACK
6
CONTINUOUS
10
127.3737500000000011
20
-82.4937499999999915
11
125.6737499999999983
21
-84.1937499999999943
0
LINE
8
BLACK
6
CONTINUOUS
10
125.7724999999999937
20
-101.5437499999999886
11
127.4724999999999966
21
-103.2437499999999915
0
LINE
8
BLACK
6
CONTINUOUS
10
127.4724999999999966
20
-101.5437499999999886
11
125.7724999999999937
21
-103.2437499999999915
0
LINE
8
BLACK
6
CONTINUOUS
10
134.5637499999999989
20
-101.5437499999999886
11
136.2637499999999875
21
-103.2437499999999915
0
LINE
8
BLACK
6
CONTINUOUS
10
136.2637499999999875
20
-101.5437499999999886
11
134.5637499999999989
21
-103.2437499999999915
0
LINE
8
BLACK
6
CONTINUOUS
10
144.7237499999999955
20
-101.5437499999999886
11
146.4237499999999841
21
-103.2437499999999915
0
LINE
8
BLACK
6
CONTINUOUS
10
146.4237499999999841
20
-101.5437499999999886
11
144.7237499999999955
21
-103.2437499999999915
0
LINE
8
BLACK
6
CONTINUOUS
10
148.8512499999999932
20
-127.8962499999999949
11
150.5512499999999818
21
-129.5962499999999977
0
LINE
8
BLACK
6
CONTINUOUS
10
150.5512499999999818
20
-127.8962499999999949
11
148.8512499999999932
21
-129.5962499999999977
0
LINE
8
BLACK
6
CONTINUOUS
10
159.0112499999999898
20
-127.8962499999999949
11
160.7112500000000068
21
-129.5962499999999977
0
LINE
8
BLACK
6
CONTINUOUS
10
160.7112500000000068
20
-127.8962499999999949
11
159.0112499999999898
21
-129.5962499999999977
0
LINE
8
BLACK
6
CONTINUOUS
10
167.9012500000000045
20
-127.8962499999999949
11
169.6012499999999932
21
-129.5962499999999977
0
LINE
8
BLACK
6
CONTINUOUS
10
169.6012499999999932
20
-127.8962499999999949
11
167.9012500000000045
21
-129.5962499999999977
0
LINE
8
BLACK
6
CONTINUOUS
10
178.0612500000000011
20
-127.8962499999999949
11
179.7612499999999898
21
-129.5962499999999977
0
LINE
8
BLACK
6
CONTINUOUS
10
179.7612499999999898
20
-127.8962499999999949
11
178.0612500000000011
21
-129.5962499999999977
0
LINE
8
BLACK
6
CONTINUOUS
10
189.6499999999999773
20
-101.5437499999999886
11
191.3499999999999943
21
-103.2437499999999915
0
LINE
8
BLACK
6
CONTINUOUS
10
191.3499999999999943
20
-101.5437499999999886
11
189.6499999999999773
21
-103.2437499999999915
0
LINE
8
BLACK
6
CONTINUOUS
10
199.1749999999999829
20
-82.4937499999999915
11
200.875
21
-84.1937499999999943
0
LINE
8
BLACK
6
CONTINUOUS
10
200.875
20
-82.4937499999999915
11
199.1749999999999829
21
-84.1937499999999943
0
LINE
8
BLACK
6
CONTINUOUS
10
199.8100000000000023
20
-101.5437499999999886
11
201.5099999999999909
21
-103.2437499999999915
0
LINE
8
BLACK
6
CONTINUOUS
10
201.5099999999999909
20
-101.5437499999999886
11
199.8100000000000023
21
-103.2437499999999915
0
LINE
8
BLACK
6
CONTINUOUS
10
208.6999999999999886
20
-101.5437499999999886
11
210.3999999999999773
21
-103.2437499999999915
0
LINE
8
BLACK
6
CONTINUOUS
10
210.3999999999999773
20
-101.5437499999999886
11
208.6999999999999886
21
-103.2437499999999915
0
LINE
8
BLACK
6
CONTINUOUS
10
209.3349999999999795
20
-82.4937499999999915
11
211.0349999999999966
21
-84.1937499999999943
0
LINE
8
BLACK
6
CONTINUOUS
10
211.0349999999999966
20
-82.4937499999999915
11
209.3349999999999795
21
-84.1937499999999943
0
LINE
8
BLACK
6
CONTINUOUS
10
218.8599999999999852
20
-101.5437499999999886
11
220.5600000000000023
21
-103.2437499999999915
0
LINE
8
BLACK
6
CONTINUOUS
10
220.5600000000000023
20
-101.5437499999999886
11
218.8599999999999852
21
-103.2437499999999915
0
CIRCLE
8
BLACK
10
93.5
20
-68.5
40
1.5999999999999999
0
CIRCLE
8
BLACK
10
93.5
20
-137.
40
1.5999999999999999
0
CIRCLE
8
BLACK
10
231.5
20
-68.5
40
1.5999999999999999
0
CIRCLE
8
BLACK
10
231.5
20
-136.5
40
1.5999999999999999
0
LINE
8
BLACK
6
CONTINUOUS
10
102.3937499999999972
20
-100.3937499999999972
11
102.3937499999999972
21
-104.3937499999999972
0
LINE
8
BLACK
6
CONTINUOUS
10
100.3937499999999972
20
-102.3937499999999972
11
104.3937499999999972
21
-102.3937499999999972
0
LINE
8
BLACK
6
CONTINUOUS
10
121.4437499999999943
20
-81.34375
11
121.4437499999999943
21
-85.34375
0
LINE
8
BLACK
6
CONTINUOUS
10
119.4437499999999943
20
-83.34375
11
123.4437499999999943
21
-83.34375
0
LINE
8
BLACK
6
CONTINUOUS
10
121.5424999999999898
20
-100.3937499999999972
11
121.5424999999999898
21
-104.3937499999999972
0
LINE
8
BLACK
6
CONTINUOUS
10
119.5424999999999898
20
-102.3937499999999972
11
123.5424999999999898
21
-102.3937499999999972
0
LINE
8
BLACK
6
CONTINUOUS
10
140.4937500000000057
20
-100.3937499999999972
11
140.4937500000000057
21
-104.3937499999999972
0
LINE
8
BLACK
6
CONTINUOUS
10
138.4937500000000057
20
-102.3937499999999972
11
142.4937500000000057
21
-102.3937499999999972
0
LINE
8
BLACK
6
CONTINUOUS
10
154.78125
20
-126.7462499999999892
11
154.78125
21
-130.7462500000000034
0
LINE
8
BLACK
6
CONTINUOUS
10
152.78125
20
-128.7462500000000034
11
156.78125
21
-128.7462500000000034
0
LINE
8
BLACK
6
CONTINUOUS
10
173.8312499999999829
20
-126.7462499999999892
11
173.8312499999999829
21
-130.7462500000000034
0
LINE
8
BLACK
6
CONTINUOUS
10
171.8312499999999829
20
-128.7462500000000034
11
175.8312499999999829
21
-128.7462500000000034
0
LINE
8
BLACK
6
CONTINUOUS
10
195.5799999999999841
20
-100.3937499999999972
11
195.5799999999999841
21
-104.3937499999999972
0
LINE
8
BLACK
6
CONTINUOUS
10
193.5799999999999841
20
-102.3937499999999972
11
197.5799999999999841
21
-102.3937499999999972
0
LINE
8
BLACK
6
CONTINUOUS
10
205.1049999999999898
20
-81.34375
11
205.1049999999999898
21
-85.34375
0
LINE
8
BLACK
6
CONTINUOUS
10
203.1049999999999898
20
-83.34375
11
207.1049999999999898
21
-83.34375
0
LINE
8
BLACK
6
CONTINUOUS
10
214.6299999999999955
20
-100.3937499999999972
11
214.6299999999999955
21
-104.3937499999999972
0
LINE
8
BLACK
6
CONTINUOUS
10
212.6299999999999955
20
-102.3937499999999972
11
216.6299999999999955
21
-102.3937499999999972
0
LINE
8
BLACK
6
CONTINUOUS
10
90.6890179999999901
20
-146.0148379999999975
11
90.6890179999999901
21
-144.0148379999999975
0
LINE
8
BLACK
6
CONTINUOUS
10
90.6890179999999901
20
-144.0148379999999975
11
91.1652079999999927
21
-144.0148379999999975
0
LINE
8
BLACK
6
CONTINUOUS
10
91.1652079999999927
20
-144.0148379999999975
11
91.4509229999999889
21
-144.1100759999999923
0
LINE
8
BLACK
6
CONTINUOUS
10
91.4509229999999889
20
-144.1100759999999923
11
91.6413989999999927
21
-144.3005519999999819
0
LINE
8
BLACK
6
CONTINUOUS
10
91.6413989999999927
20
-144.3005519999999819
11
91.7366370000000018
21
-144.491028
0
LINE
8
BLACK
6
CONTINUOUS
10
91.7366370000000018
20
-144.491028
11
91.8318749999999966
21
-144.8719799999999793
0
LINE
8
BLACK
6
CONTINUOUS
10
91.8318749999999966
20
-144.8719799999999793
11
91.8318749999999966
21
-145.1576949999999897
0
LINE
8
BLACK
6
CONTINUOUS
10
91.8318749999999966
20
-145.1576949999999897
11
91.7366370000000018
21
-145.5386469999999974
0
LINE
8
BLACK
6
CONTINUOUS
10
91.7366370000000018
20
-145.5386469999999974
11
91.6413989999999927
21
-145.7291229999999871
0
LINE
8
BLACK
6
CONTINUOUS
10
91.6413989999999927
20
-145.7291229999999871
11
91.4509229999999889
21
-145.9196000000000026
0
LINE
8
BLACK
6
CONTINUOUS
10
91.4509229999999889
20
-145.9196000000000026
11
91.1652079999999927
21
-146.0148379999999975
0
LINE
8
BLACK
6
CONTINUOUS
10
91.1652079999999927
20
-146.0148379999999975
11
90.6890179999999901
21
-146.0148379999999975
0
LINE
8
BLACK
6
CONTINUOUS
10
92.6890179999999901
20
-146.0148379999999975
11
92.6890179999999901
21
-144.6815039999999897
0
LINE
8
BLACK
6
CONTINUOUS
10
92.6890179999999901
20
-145.0624569999999949
11
92.7842559999999992
21
-144.8719799999999793
0
LINE
8
BLACK
6
CONTINUOUS
10
92.7842559999999992
20
-144.8719799999999793
11
92.879493999999994
21
-144.7767419999999845
0
LINE
8
BLACK
6
CONTINUOUS
10
92.879493999999994
20
-144.7767419999999845
11
93.0699699999999979
21
-144.6815039999999897
0
LINE
8
BLACK
6
CONTINUOUS
10
93.0699699999999979
20
-144.6815039999999897
11
93.2604469999999992
21
-144.6815039999999897
0
LINE
8
BLACK
6
CONTINUOUS
10
93.9271129999999914
20
-146.0148379999999975
11
93.9271129999999914
21
-144.6815039999999897
0
LINE
8
BLACK
6
CONTINUOUS
10
93.9271129999999914
20
-144.0148379999999975
11
93.8318749999999966
21
-144.1100759999999923
0
LINE
8
BLACK
6
CONTINUOUS
10
93.8318749999999966
20
-144.1100759999999923
11
93.9271129999999914
21
-144.2053139999999871
0
LINE
8
BLACK
6
CONTINUOUS
10
93.9271129999999914
20
-144.2053139999999871
11
94.0223510000000005
21
-144.1100759999999923
0
LINE
8
BLACK
6
CONTINUOUS
10
94.0223510000000005
20
-144.1100759999999923
11
93.9271129999999914
21
-144.0148379999999975
0
LINE
8
BLACK
6
CONTINUOUS
10
93.9271129999999914
20
-144.0148379999999975
11
93.9271129999999914
21
-144.2053139999999871
0
LINE
8
BLACK
6
CONTINUOUS
10
95.1652079999999927
20
-146.0148379999999975
11
94.9747319999999888
21
-145.9196000000000026
0
LINE
8
BLACK
6
CONTINUOUS
10
94.9747319999999888
20
-145.9196000000000026
11
94.879493999999994
21
-145.7291229999999871
0
LINE
8
BLACK
6
CONTINUOUS
10
94.879493999999994
20
-145.7291229999999871
11
94.879493999999994
21
-144.0148379999999975
0
LINE
8
BLACK
6
CONTINUOUS
10
96.2128269999999901
20
-146.0148379999999975
11
96.0223510000000005
21
-145.9196000000000026
0
LINE
8
BLACK
6
CONTINUOUS
10
96.0223510000000005
20
-145.9196000000000026
11
95.9271129999999914
21
-145.7291229999999871
0
LINE
8
BLACK
6
CONTINUOUS
10
95.9271129999999914
20
-145.7291229999999871
11
95.9271129999999914
21
-144.0148379999999975
0
LINE
8
BLACK
6
CONTINUOUS
10
98.4985420000000005
20
-146.0148379999999975
11
98.4985420000000005
21
-144.0148379999999975
0
LINE
8
BLACK
6
CONTINUOUS
10
98.4985420000000005
20
-144.0148379999999975
11
99.1652089999999902
21
-145.4434090000000026
0
LINE
8
BLACK
6
CONTINUOUS
10
99.1652089999999902
20
-145.4434090000000026
11
99.8318749999999966
21
-144.0148379999999975
0
LINE
8
BLACK
6
CONTINUOUS
10
99.8318749999999966
20
-144.0148379999999975
11
99.8318749999999966
21
-146.0148379999999975
0
LINE
8
BLACK
6
CONTINUOUS
10
101.6413989999999927
20
-146.0148379999999975
11
101.6413989999999927
21
-144.9672190000000001
0
LINE
8
BLACK
6
CONTINUOUS
10
101.6413989999999927
20
-144.9672190000000001
11
101.5461609999999979
21
-144.7767419999999845
0
LINE
8
BLACK
6
CONTINUOUS
10
101.5461609999999979
20
-144.7767419999999845
11
101.355684999999994
21
-144.6815039999999897
0
LINE
8
BLACK
6
CONTINUOUS
10
101.355684999999994
20
-144.6815039999999897
11
100.9747319999999888
21
-144.6815039999999897
0
LINE
8
BLACK
6
CONTINUOUS
10
100.9747319999999888
20
-144.6815039999999897
11
100.7842559999999992
21
-144.7767419999999845
0
LINE
8
BLACK
6
CONTINUOUS
10
101.6413989999999927
20
-145.9196000000000026
11
101.4509229999999889
21
-146.0148379999999975
0
LINE
8
BLACK
6
CONTINUOUS
10
101.4509229999999889
20
-146.0148379999999975
11
100.9747319999999888
21
-146.0148379999999975
0
LINE
8
BLACK
6
CONTINUOUS
10
100.9747319999999888
20
-146.0148379999999975
11
100.7842559999999992
21
-145.9196000000000026
0
LINE
8
BLACK
6
CONTINUOUS
10
100.7842559999999992
20
-145.9196000000000026
11
100.6890179999999901
21
-145.7291229999999871
0
LINE
8
BLACK
6
CONTINUOUS
10
100.6890179999999901
20
-145.7291229999999871
11
100.6890179999999901
21
-145.5386469999999974
0
LINE
8
BLACK
6
CONTINUOUS
10
100.6890179999999901
20
-145.5386469999999974
11
100.7842559999999992
21
-145.3481709999999794
0
LINE
8
BLACK
6
CONTINUOUS
10
100.7842559999999992
20
-145.3481709999999794
11
100.9747319999999888
21
-145.2529329999999845
0
LINE
8
BLACK
6
CONTINUOUS
10
100.9747319999999888
20
-145.2529329999999845
11
101.4509229999999889
21
-145.2529329999999845
0
LINE
8
BLACK
6
CONTINUOUS
10
101.4509229999999889
20
-145.2529329999999845
11
101.6413989999999927
21
-145.1576949999999897
0
LINE
8
BLACK
6
CONTINUOUS
10
102.5937799999999953
20
-144.6815039999999897
11
102.5937799999999953
21
-146.6815039999999897
0
LINE
8
BLACK
6
CONTINUOUS
10
102.5937799999999953
20
-144.7767419999999845
11
102.7842559999999992
21
-144.6815039999999897
0
LINE
8
BLACK
6
CONTINUOUS
10
102.7842559999999992
20
-144.6815039999999897
11
103.1652089999999902
21
-144.6815039999999897
0
LINE
8
BLACK
6
CONTINUOUS
10
103.1652089999999902
20
-144.6815039999999897
11
103.355684999999994
21
-144.7767419999999845
0
LINE
8
BLACK
6
CONTINUOUS
10
103.355684999999994
20
-144.7767419999999845
11
103.4509229999999889
21
-144.8719799999999793
0
LINE
8
BLACK
6
CONTINUOUS
10
103.4509229999999889
20
-144.8719799999999793
11
103.5461609999999979
21
-145.0624569999999949
0
LINE
8
BLACK
6
CONTINUOUS
10
103.5461609999999979
20
-145.0624569999999949
11
103.5461609999999979
21
-145.6338849999999923
0
LINE
8
BLACK
6
CONTINUOUS
10
103.5461609999999979
20
-145.6338849999999923
11
103.4509229999999889
21
-145.8243609999999819
0
LINE
8
BLACK
6
CONTINUOUS
10
103.4509229999999889
20
-145.8243609999999819
11
103.355684999999994
21
-145.9196000000000026
0
LINE
8
BLACK
6
CONTINUOUS
10
103.355684999999994
20
-145.9196000000000026
11
103.1652089999999902
21
-146.0148379999999975
0
LINE
8
BLACK
6
CONTINUOUS
10
103.1652089999999902
20
-146.0148379999999975
11
102.7842559999999992
21
-146.0148379999999975
0
LINE
8
BLACK
6
CONTINUOUS
10
102.7842559999999992
20
-146.0148379999999975
11
102.5937799999999953
21
-145.9196000000000026
0
LINE
8
BLACK
6
CONTINUOUS
10
104.4033039999999914
20
-145.8243609999999819
11
104.4985420000000005
21
-145.9196000000000026
0
LINE
8
BLACK
6
CONTINUOUS
10
104.4985420000000005
20
-145.9196000000000026
11
104.4033039999999914
21
-146.0148379999999975
0
LINE
8
BLACK
6
CONTINUOUS
10
104.4033039999999914
20
-146.0148379999999975
11
104.3080659999999966
21
-145.9196000000000026
0
LINE
8
BLACK
6
CONTINUOUS
10
104.3080659999999966
20
-145.9196000000000026
11
104.4033039999999914
21
-145.8243609999999819
0
LINE
8
BLACK
6
CONTINUOUS
10
104.4033039999999914
20
-145.8243609999999819
11
104.4033039999999914
21
-146.0148379999999975
0
LINE
8
BLACK
6
CONTINUOUS
10
104.4033039999999914
20
-144.7767419999999845
11
104.4985420000000005
21
-144.8719799999999793
0
LINE
8
BLACK
6
CONTINUOUS
10
104.4985420000000005
20
-144.8719799999999793
11
104.4033039999999914
21
-144.9672190000000001
0
LINE
8
BLACK
6
CONTINUOUS
10
104.4033039999999914
20
-144.9672190000000001
11
104.3080659999999966
21
-144.8719799999999793
0
LINE
8
BLACK
6
CONTINUOUS
10
104.3080659999999966
20
-144.8719799999999793
11
104.4033039999999914
21
-144.7767419999999845
0
LINE
8
BLACK
6
CONTINUOUS
10
104.4033039999999914
20
-144.7767419999999845
11
104.4033039999999914
21
-144.9672190000000001
0
LINE
8
BLACK
6
CONTINUOUS
10
86.3812499999999943
20
-148.4499999999999886
11
88.0812499999999972
21
-150.1500000000000057
0
LINE
8
BLACK
6
CONTINUOUS
10
88.0812499999999972
20
-148.4499999999999886
11
86.3812499999999943
21
-150.1500000000000057
0
LINE
8
BLACK
6
CONTINUOUS
10
91.7366370000000018
20
-150.2148379999999861
11
90.5937799999999953
21
-150.2148379999999861
0
LINE
8
BLACK
6
CONTINUOUS
10
91.1652079999999927
20
-150.2148379999999861
11
91.1652079999999927
21
-148.2148379999999861
0
LINE
8
BLACK
6
CONTINUOUS
10
91.1652079999999927
20
-148.2148379999999861
11
90.9747319999999888
21
-148.500551999999999
0
LINE
8
BLACK
6
CONTINUOUS
10
90.9747319999999888
20
-148.500551999999999
11
90.7842559999999992
21
-148.6910279999999887
0
LINE
8
BLACK
6
CONTINUOUS
10
90.7842559999999992
20
-148.6910279999999887
11
90.5937799999999953
21
-148.7862659999999835
0
LINE
8
BLACK
6
CONTINUOUS
10
92.5937799999999953
20
-150.024360999999999
11
92.6890179999999901
21
-150.1195999999999913
0
LINE
8
BLACK
6
CONTINUOUS
10
92.6890179999999901
20
-150.1195999999999913
11
92.5937799999999953
21
-150.2148379999999861
0
LINE
8
BLACK
6
CONTINUOUS
10
92.5937799999999953
20
-150.2148379999999861
11
92.4985420000000005
21
-150.1195999999999913
0
LINE
8
BLACK
6
CONTINUOUS
10
92.4985420000000005
20
-150.1195999999999913
11
92.5937799999999953
21
-150.024360999999999
0
LINE
8
BLACK
6
CONTINUOUS
10
92.5937799999999953
20
-150.024360999999999
11
92.5937799999999953
21
-150.2148379999999861
0
LINE
8
BLACK
6
CONTINUOUS
10
93.355684999999994
20
-148.2148379999999861
11
94.6890179999999901
21
-148.2148379999999861
0
LINE
8
BLACK
6
CONTINUOUS
10
94.6890179999999901
20
-148.2148379999999861
11
93.8318749999999966
21
-150.2148379999999861
0
LINE
8
BLACK
6
CONTINUOUS
10
95.8318749999999966
20
-148.2148379999999861
11
96.0223519999999979
21
-148.2148379999999861
0
LINE
8
BLACK
6
CONTINUOUS
10
96.0223519999999979
20
-148.2148379999999861
11
96.2128280000000018
21
-148.3100759999999809
0
LINE
8
BLACK
6
CONTINUOUS
10
96.2128280000000018
20
-148.3100759999999809
11
96.3080659999999966
21
-148.4053140000000042
0
LINE
8
BLACK
6
CONTINUOUS
10
96.3080659999999966
20
-148.4053140000000042
11
96.4033039999999914
21
-148.5957899999999938
0
LINE
8
BLACK
6
CONTINUOUS
10
96.4033039999999914
20
-148.5957899999999938
11
96.4985420000000005
21
-148.9767420000000016
0
LINE
8
BLACK
6
CONTINUOUS
10
96.4985420000000005
20
-148.9767420000000016
11
96.4985420000000005
21
-149.4529330000000016
0
LINE
8
BLACK
6
CONTINUOUS
10
96.4985420000000005
20
-149.4529330000000016
11
96.4033039999999914
21
-149.8338849999999809
0
LINE
8
BLACK
6
CONTINUOUS
10
96.4033039999999914
20
-149.8338849999999809
11
96.3080659999999966
21
-150.024360999999999
0
LINE
8
BLACK
6
CONTINUOUS
10
96.3080659999999966
20
-150.024360999999999
11
96.2128280000000018
21
-150.1195999999999913
0
LINE
8
BLACK
6
CONTINUOUS
10
96.2128280000000018
20
-150.1195999999999913
11
96.0223519999999979
21
-150.2148379999999861
0
LINE
8
BLACK
6
CONTINUOUS
10
96.0223519999999979
20
-150.2148379999999861
11
95.8318749999999966
21
-150.2148379999999861
0
LINE
8
BLACK
6
CONTINUOUS
10
95.8318749999999966
20
-150.2148379999999861
11
95.6413989999999927
21
-150.1195999999999913
0
LINE
8
BLACK
6
CONTINUOUS
10
95.6413989999999927
20
-150.1195999999999913
11
95.5461609999999979
21
-150.024360999999999
0
LINE
8
BLACK
6
CONTINUOUS
10
95.5461609999999979
20
-150.024360999999999
11
95.4509229999999889
21
-149.8338849999999809
0
LINE
8
BLACK
6
CONTINUOUS
10
95.4509229999999889
20
-149.8338849999999809
11
95.355684999999994
21
-149.4529330000000016
0
LINE
8
BLACK
6
CONTINUOUS
10
95.355684999999994
20
-149.4529330000000016
11
95.355684999999994
21
-148.9767420000000016
0
LINE
8
BLACK
6
CONTINUOUS
10
95.355684999999994
20
-148.9767420000000016
11
95.4509229999999889
21
-148.5957899999999938
0
LINE
8
BLACK
6
CONTINUOUS
10
95.4509229999999889
20
-148.5957899999999938
11
95.5461609999999979
21
-148.4053140000000042
0
LINE
8
BLACK
6
CONTINUOUS
10
95.5461609999999979
20
-148.4053140000000042
11
95.6413989999999927
21
-148.3100759999999809
0
LINE
8
BLACK
6
CONTINUOUS
10
95.6413989999999927
20
-148.3100759999999809
11
95.8318749999999966
21
-148.2148379999999861
0
LINE
8
BLACK
6
CONTINUOUS
10
97.7366370000000018
20
-148.2148379999999861
11
97.9271139999999889
21
-148.2148379999999861
0
LINE
8
BLACK
6
CONTINUOUS
10
97.9271139999999889
20
-148.2148379999999861
11
98.1175899999999928
21
-148.3100759999999809
0
LINE
8
BLACK
6
CONTINUOUS
10
98.1175899999999928
20
-148.3100759999999809
11
98.2128280000000018
21
-148.4053140000000042
0
LINE
8
BLACK
6
CONTINUOUS
10
98.2128280000000018
20
-148.4053140000000042
11
98.3080659999999966
21
-148.5957899999999938
0
LINE
8
BLACK
6
CONTINUOUS
10
98.3080659999999966
20
-148.5957899999999938
11
98.4033039999999914
21
-148.9767420000000016
0
LINE
8
BLACK
6
CONTINUOUS
10
98.4033039999999914
20
-148.9767420000000016
11
98.4033039999999914
21
-149.4529330000000016
0
LINE
8
BLACK
6
CONTINUOUS
10
98.4033039999999914
20
-149.4529330000000016
11
98.3080659999999966
21
-149.8338849999999809
0
LINE
8
BLACK
6
CONTINUOUS
10
98.3080659999999966
20
-149.8338849999999809
11
98.2128280000000018
21
-150.024360999999999
0
LINE
8
BLACK
6
CONTINUOUS
10
98.2128280000000018
20
-150.024360999999999
11
98.1175899999999928
21
-150.1195999999999913
0
LINE
8
BLACK
6
CONTINUOUS
10
98.1175899999999928
20
-150.1195999999999913
11
97.9271139999999889
21
-150.2148379999999861
0
LINE
8
BLACK
6
CONTINUOUS
10
97.9271139999999889
20
-150.2148379999999861
11
97.7366370000000018
21
-150.2148379999999861
0
LINE
8
BLACK
6
CONTINUOUS
10
97.7366370000000018
20
-150.2148379999999861
11
97.5461609999999979
21
-150.1195999999999913
0
LINE
8
BLACK
6
CONTINUOUS
10
97.5461609999999979
20
-150.1195999999999913
11
97.4509229999999889
21
-150.024360999999999
0
LINE
8
BLACK
6
CONTINUOUS
10
97.4509229999999889
20
-150.024360999999999
11
97.355684999999994
21
-149.8338849999999809
0
LINE
8
BLACK
6
CONTINUOUS
10
97.355684999999994
20
-149.8338849999999809
11
97.2604469999999992
21
-149.4529330000000016
0
LINE
8
BLACK
6
CONTINUOUS
10
97.2604469999999992
20
-149.4529330000000016
11
97.2604469999999992
21
-148.9767420000000016
0
LINE
8
BLACK
6
CONTINUOUS
10
97.2604469999999992
20
-148.9767420000000016
11
97.355684999999994
21
-148.5957899999999938
0
LINE
8
BLACK
6
CONTINUOUS
10
97.355684999999994
20
-148.5957899999999938
11
97.4509229999999889
21
-148.4053140000000042
0
LINE
8
BLACK
6
CONTINUOUS
10
97.4509229999999889
20
-148.4053140000000042
11
97.5461609999999979
21
-148.3100759999999809
0
LINE
8
BLACK
6
CONTINUOUS
10
97.5461609999999979
20
-148.3100759999999809
11
97.7366370000000018
21
-148.2148379999999861
0
LINE
8
BLACK
6
CONTINUOUS
10
99.2604469999999992
20
-150.2148379999999861
11
99.2604469999999992
21
-148.8815040000000067
0
LINE
8
BLACK
6
CONTINUOUS
10
99.2604469999999992
20
-149.0719799999999964
11
99.355684999999994
21
-148.9767420000000016
0
LINE
8
BLACK
6
CONTINUOUS
10
99.355684999999994
20
-148.9767420000000016
11
99.5461609999999979
21
-148.8815040000000067
0
LINE
8
BLACK
6
CONTINUOUS
10
99.5461609999999979
20
-148.8815040000000067
11
99.8318759999999941
21
-148.8815040000000067
0
LINE
8
BLACK
6
CONTINUOUS
10
99.8318759999999941
20
-148.8815040000000067
11
100.0223519999999979
21
-148.9767420000000016
0
LINE
8
BLACK
6
CONTINUOUS
10
100.0223519999999979
20
-148.9767420000000016
11
100.1175899999999928
21
-149.1672189999999887
0
LINE
8
BLACK
6
CONTINUOUS
10
100.1175899999999928
20
-149.1672189999999887
11
100.1175899999999928
21
-150.2148379999999861
0
LINE
8
BLACK
6
CONTINUOUS
10
100.1175899999999928
20
-149.1672189999999887
11
100.2128280000000018
21
-148.9767420000000016
0
LINE
8
BLACK
6
CONTINUOUS
10
100.2128280000000018
20
-148.9767420000000016
11
100.4033039999999914
21
-148.8815040000000067
0
LINE
8
BLACK
6
CONTINUOUS
10
100.4033039999999914
20
-148.8815040000000067
11
100.6890179999999901
21
-148.8815040000000067
0
LINE
8
BLACK
6
CONTINUOUS
10
100.6890179999999901
20
-148.8815040000000067
11
100.8794949999999915
21
-148.9767420000000016
0
LINE
8
BLACK
6
CONTINUOUS
10
100.8794949999999915
20
-148.9767420000000016
11
100.9747330000000005
21
-149.1672189999999887
0
LINE
8
BLACK
6
CONTINUOUS
10
100.9747330000000005
20
-149.1672189999999887
11
100.9747330000000005
21
-150.2148379999999861
0
LINE
8
BLACK
6
CONTINUOUS
10
101.9271139999999889
20
-150.2148379999999861
11
101.9271139999999889
21
-148.8815040000000067
0
LINE
8
BLACK
6
CONTINUOUS
10
101.9271139999999889
20
-149.0719799999999964
11
102.0223519999999979
21
-148.9767420000000016
0
LINE
8
BLACK
6
CONTINUOUS
10
102.0223519999999979
20
-148.9767420000000016
11
102.2128280000000018
21
-148.8815040000000067
0
LINE
8
BLACK
6
CONTINUOUS
10
102.2128280000000018
20
-148.8815040000000067
11
102.498542999999998
21
-148.8815040000000067
0
LINE
8
BLACK
6
CONTINUOUS
10
102.498542999999998
20
-148.8815040000000067
11
102.6890190000000018
21
-148.9767420000000016
0
LINE
8
BLACK
6
CONTINUOUS
10
102.6890190000000018
20
-148.9767420000000016
11
102.7842569999999967
21
-149.1672189999999887
0
LINE
8
BLACK
6
CONTINUOUS
10
102.7842569999999967
20
-149.1672189999999887
11
102.7842569999999967
21
-150.2148379999999861
0
LINE
8
BLACK
6
CONTINUOUS
10
102.7842569999999967
20
-149.1672189999999887
11
102.8794949999999915
21
-148.9767420000000016
0
LINE
8
BLACK
6
CONTINUOUS
10
102.8794949999999915
20
-148.9767420000000016
11
103.0699709999999953
21
-148.8815040000000067
0
LINE
8
BLACK
6
CONTINUOUS
10
103.0699709999999953
20
-148.8815040000000067
11
103.355684999999994
21
-148.8815040000000067
0
LINE
8
BLACK
6
CONTINUOUS
10
103.355684999999994
20
-148.8815040000000067
11
103.5461619999999954
21
-148.9767420000000016
0
LINE
8
BLACK
6
CONTINUOUS
10
103.5461619999999954
20
-148.9767420000000016
11
103.6413999999999902
21
-149.1672189999999887
0
LINE
8
BLACK
6
CONTINUOUS
10
103.6413999999999902
20
-149.1672189999999887
11
103.6413999999999902
21
-150.2148379999999861
0
LINE
8
BLACK
6
CONTINUOUS
10
107.5461619999999954
20
-148.1195999999999913
11
105.8318769999999915
21
-150.6910279999999887
0
LINE
8
BLACK
6
CONTINUOUS
10
110.1175909999999902
20
-148.2148379999999861
11
110.3080679999999916
21
-148.2148379999999861
0
LINE
8
BLACK
6
CONTINUOUS
10
110.3080679999999916
20
-148.2148379999999861
11
110.4985439999999954
21
-148.3100759999999809
0
LINE
8
BLACK
6
CONTINUOUS
10
110.4985439999999954
20
-148.3100759999999809
11
110.5937819999999903
21
-148.4053140000000042
0
LINE
8
BLACK
6
CONTINUOUS
10
110.5937819999999903
20
-148.4053140000000042
11
110.6890199999999993
21
-148.5957899999999938
0
LINE
8
BLACK
6
CONTINUOUS
10
110.6890199999999993
20
-148.5957899999999938
11
110.7842579999999941
21
-148.9767420000000016
0
LINE
8
BLACK
6
CONTINUOUS
10
110.7842579999999941
20
-148.9767420000000016
11
110.7842579999999941
21
-149.4529330000000016
0
LINE
8
BLACK
6
CONTINUOUS
10
110.7842579999999941
20
-149.4529330000000016
11
110.6890199999999993
21
-149.8338849999999809
0
LINE
8
BLACK
6
CONTINUOUS
10
110.6890199999999993
20
-149.8338849999999809
11
110.5937819999999903
21
-150.024360999999999
0
LINE
8
BLACK
6
CONTINUOUS
10
110.5937819999999903
20
-150.024360999999999
11
110.4985439999999954
21
-150.1195999999999913
0
LINE
8
BLACK
6
CONTINUOUS
10
110.4985439999999954
20
-150.1195999999999913
11
110.3080679999999916
21
-150.2148379999999861
0
LINE
8
BLACK
6
CONTINUOUS
10
110.3080679999999916
20
-150.2148379999999861
11
110.1175909999999902
21
-150.2148379999999861
0
LINE
8
BLACK
6
CONTINUOUS
10
110.1175909999999902
20
-150.2148379999999861
11
109.9271150000000006
21
-150.1195999999999913
0
LINE
8
BLACK
6
CONTINUOUS
10
109.9271150000000006
20
-150.1195999999999913
11
109.8318769999999915
21
-150.024360999999999
0
LINE
8
BLACK
6
CONTINUOUS
10
109.8318769999999915
20
-150.024360999999999
11
109.7366389999999967
21
-149.8338849999999809
0
LINE
8
BLACK
6
CONTINUOUS
10
109.7366389999999967
20
-149.8338849999999809
11
109.6414010000000019
21
-149.4529330000000016
0
LINE
8
BLACK
6
CONTINUOUS
10
109.6414010000000019
20
-149.4529330000000016
11
109.6414010000000019
21
-148.9767420000000016
0
LINE
8
BLACK
6
CONTINUOUS
10
109.6414010000000019
20
-148.9767420000000016
11
109.7366389999999967
21
-148.5957899999999938
0
LINE
8
BLACK
6
CONTINUOUS
10
109.7366389999999967
20
-148.5957899999999938
11
109.8318769999999915
21
-148.4053140000000042
0
LINE
8
BLACK
6
CONTINUOUS
10
109.8318769999999915
20
-148.4053140000000042
11
109.9271150000000006
21
-148.3100759999999809
0
LINE
8
BLACK
6
CONTINUOUS
10
109.9271150000000006
20
-148.3100759999999809
11
110.1175909999999902
21
-148.2148379999999861
0
LINE
8
BLACK
6
CONTINUOUS
10
111.6414010000000019
20
-150.024360999999999
11
111.7366389999999967
21
-150.1195999999999913
0
LINE
8
BLACK
6
CONTINUOUS
10
111.7366389999999967
20
-150.1195999999999913
11
111.6414010000000019
21
-150.2148379999999861
0
LINE
8
BLACK
6
CONTINUOUS
10
111.6414010000000019
20
-150.2148379999999861
11
111.5461629999999928
21
-150.1195999999999913
0
LINE
8
BLACK
6
CONTINUOUS
10
111.5461629999999928
20
-150.1195999999999913
11
111.6414010000000019
21
-150.024360999999999
0
LINE
8
BLACK
6
CONTINUOUS
10
111.6414010000000019
20
-150.024360999999999
11
111.6414010000000019
21
-150.2148379999999861
0
LINE
8
BLACK
6
CONTINUOUS
10
112.974733999999998
20
-148.2148379999999861
11
113.1652109999999993
21
-148.2148379999999861
0
LINE
8
BLACK
6
CONTINUOUS
10
113.1652109999999993
20
-148.2148379999999861
11
113.355686999999989
21
-148.3100759999999809
0
LINE
8
BLACK
6
CONTINUOUS
10
113.355686999999989
20
-148.3100759999999809
11
113.450924999999998
21
-148.4053140000000042
0
LINE
8
BLACK
6
CONTINUOUS
10
113.450924999999998
20
-148.4053140000000042
11
113.5461629999999928
21
-148.5957899999999938
0
LINE
8
BLACK
6
CONTINUOUS
10
113.5461629999999928
20
-148.5957899999999938
11
113.6414010000000019
21
-148.9767420000000016
0
LINE
8
BLACK
6
CONTINUOUS
10
113.6414010000000019
20
-148.9767420000000016
11
113.6414010000000019
21
-149.4529330000000016
0
LINE
8
BLACK
6
CONTINUOUS
10
113.6414010000000019
20
-149.4529330000000016
11
113.5461629999999928
21
-149.8338849999999809
0
LINE
8
BLACK
6
CONTINUOUS
10
113.5461629999999928
20
-149.8338849999999809
11
113.450924999999998
21
-150.024360999999999
0
LINE
8
BLACK
6
CONTINUOUS
10
113.450924999999998
20
-150.024360999999999
11
113.355686999999989
21
-150.1195999999999913
0
LINE
8
BLACK
6
CONTINUOUS
10
113.355686999999989
20
-150.1195999999999913
11
113.1652109999999993
21
-150.2148379999999861
0
LINE
8
BLACK
6
CONTINUOUS
10
113.1652109999999993
20
-150.2148379999999861
11
112.974733999999998
21
-150.2148379999999861
0
LINE
8
BLACK
6
CONTINUOUS
10
112.974733999999998
20
-150.2148379999999861
11
112.7842579999999941
21
-150.1195999999999913
0
LINE
8
BLACK
6
CONTINUOUS
10
112.7842579999999941
20
-150.1195999999999913
11
112.6890199999999993
21
-150.024360999999999
0
LINE
8
BLACK
6
CONTINUOUS
10
112.6890199999999993
20
-150.024360999999999
11
112.5937819999999903
21
-149.8338849999999809
0
LINE
8
BLACK
6
CONTINUOUS
10
112.5937819999999903
20
-149.8338849999999809
11
112.4985439999999954
21
-149.4529330000000016
0
LINE
8
BLACK
6
CONTINUOUS
10
112.4985439999999954
20
-149.4529330000000016
11
112.4985439999999954
21
-148.9767420000000016
0
LINE
8
BLACK
6
CONTINUOUS
10
112.4985439999999954
20
-148.9767420000000016
11
112.5937819999999903
21
-148.5957899999999938
0
LINE
8
BLACK
6
CONTINUOUS
10
112.5937819999999903
20
-148.5957899999999938
11
112.6890199999999993
21
-148.4053140000000042
0
LINE
8
BLACK
6
CONTINUOUS
10
112.6890199999999993
20
-148.4053140000000042
11
112.7842579999999941
21
-148.3100759999999809
0
LINE
8
BLACK
6
CONTINUOUS
10
112.7842579999999941
20
-148.3100759999999809
11
112.974733999999998
21
-148.2148379999999861
0
LINE
8
BLACK
6
CONTINUOUS
10
115.355686999999989
20
-148.2148379999999861
11
114.974733999999998
21
-148.2148379999999861
0
LINE
8
BLACK
6
CONTINUOUS
10
114.974733999999998
20
-148.2148379999999861
11
114.7842579999999941
21
-148.3100759999999809
0
LINE
8
BLACK
6
CONTINUOUS
10
114.7842579999999941
20
-148.3100759999999809
11
114.6890199999999993
21
-148.4053140000000042
0
LINE
8
BLACK
6
CONTINUOUS
10
114.6890199999999993
20
-148.4053140000000042
11
114.4985439999999954
21
-148.6910279999999887
0
LINE
8
BLACK
6
CONTINUOUS
10
114.4985439999999954
20
-148.6910279999999887
11
114.4033060000000006
21
-149.0719799999999964
0
LINE
8
BLACK
6
CONTINUOUS
10
114.4033060000000006
20
-149.0719799999999964
11
114.4033060000000006
21
-149.8338849999999809
0
LINE
8
BLACK
6
CONTINUOUS
10
114.4033060000000006
20
-149.8338849999999809
11
114.4985439999999954
21
-150.024360999999999
0
LINE
8
BLACK
6
CONTINUOUS
10
114.4985439999999954
20
-150.024360999999999
11
114.5937819999999903
21
-150.1195999999999913
0
LINE
8
BLACK
6
CONTINUOUS
10
114.5937819999999903
20
-150.1195999999999913
11
114.7842579999999941
21
-150.2148379999999861
0
LINE
8
BLACK
6
CONTINUOUS
10
114.7842579999999941
20
-150.2148379999999861
11
115.1652109999999993
21
-150.2148379999999861
0
LINE
8
BLACK
6
CONTINUOUS
10
115.1652109999999993
20
-150.2148379999999861
11
115.355686999999989
21
-150.1195999999999913
0
LINE
8
BLACK
6
CONTINUOUS
10
115.355686999999989
20
-150.1195999999999913
11
115.450924999999998
21
-150.024360999999999
0
LINE
8
BLACK
6
CONTINUOUS
10
115.450924999999998
20
-150.024360999999999
11
115.5461629999999928
21
-149.8338849999999809
0
LINE
8
BLACK
6
CONTINUOUS
10
115.5461629999999928
20
-149.8338849999999809
11
115.5461629999999928
21
-149.3576950000000068
0
LINE
8
BLACK
6
CONTINUOUS
10
115.5461629999999928
20
-149.3576950000000068
11
115.450924999999998
21
-149.1672189999999887
0
LINE
8
BLACK
6
CONTINUOUS
10
115.450924999999998
20
-149.1672189999999887
11
115.355686999999989
21
-149.0719799999999964
0
LINE
8
BLACK
6
CONTINUOUS
10
115.355686999999989
20
-149.0719799999999964
11
115.1652109999999993
21
-148.9767420000000016
0
LINE
8
BLACK
6
CONTINUOUS
10
115.1652109999999993
20
-148.9767420000000016
11
114.7842579999999941
21
-148.9767420000000016
0
LINE
8
BLACK
6
CONTINUOUS
10
114.7842579999999941
20
-148.9767420000000016
11
114.5937819999999903
21
-149.0719799999999964
0
LINE
8
BLACK
6
CONTINUOUS
10
114.5937819999999903
20
-149.0719799999999964
11
114.4985439999999954
21
-149.1672189999999887
0
LINE
8
BLACK
6
CONTINUOUS
10
114.4985439999999954
20
-149.1672189999999887
11
114.4033060000000006
21
-149.3576950000000068
0
LINE
8
BLACK
6
CONTINUOUS
10
117.2604489999999942
20
-148.2148379999999861
11
116.879495999999989
21
-148.2148379999999861
0
LINE
8
BLACK
6
CONTINUOUS
10
116.879495999999989
20
-148.2148379999999861
11
116.6890199999999993
21
-148.3100759999999809
0
LINE
8
BLACK
6
CONTINUOUS
10
116.6890199999999993
20
-148.3100759999999809
11
116.5937819999999903
21
-148.4053140000000042
0
LINE
8
BLACK
6
CONTINUOUS
10
116.5937819999999903
20
-148.4053140000000042
11
116.4033060000000006
21
-148.6910279999999887
0
LINE
8
BLACK
6
CONTINUOUS
10
116.4033060000000006
20
-148.6910279999999887
11
116.3080679999999916
21
-149.0719799999999964
0
LINE
8
BLACK
6
CONTINUOUS
10
116.3080679999999916
20
-149.0719799999999964
11
116.3080679999999916
21
-149.8338849999999809
0
LINE
8
BLACK
6
CONTINUOUS
10
116.3080679999999916
20
-149.8338849999999809
11
116.4033060000000006
21
-150.024360999999999
0
LINE
8
BLACK
6
CONTINUOUS
10
116.4033060000000006
20
-150.024360999999999
11
116.4985439999999954
21
-150.1195999999999913
0
LINE
8
BLACK
6
CONTINUOUS
10
116.4985439999999954
20
-150.1195999999999913
11
116.6890199999999993
21
-150.2148379999999861
0
LINE
8
BLACK
6
CONTINUOUS
10
116.6890199999999993
20
-150.2148379999999861
11
117.0699729999999903
21
-150.2148379999999861
0
LINE
8
BLACK
6
CONTINUOUS
10
117.0699729999999903
20
-150.2148379999999861
11
117.2604489999999942
21
-150.1195999999999913
0
LINE
8
BLACK
6
CONTINUOUS
10
117.2604489999999942
20
-150.1195999999999913
11
117.355686999999989
21
-150.024360999999999
0
LINE
8
BLACK
6
CONTINUOUS
10
117.355686999999989
20
-150.024360999999999
11
117.450924999999998
21
-149.8338849999999809
0
LINE
8
BLACK
6
CONTINUOUS
10
117.450924999999998
20
-149.8338849999999809
11
117.450924999999998
21
-149.3576950000000068
0
LINE
8
BLACK
6
CONTINUOUS
10
117.450924999999998
20
-149.3576950000000068
11
117.355686999999989
21
-149.1672189999999887
0
LINE
8
BLACK
6
CONTINUOUS
10
117.355686999999989
20
-149.1672189999999887
11
117.2604489999999942
21
-149.0719799999999964
0
LINE
8
BLACK
6
CONTINUOUS
10
117.2604489999999942
20
-149.0719799999999964
11
117.0699729999999903
21
-148.9767420000000016
0
LINE
8
BLACK
6
CONTINUOUS
10
117.0699729999999903
20
-148.9767420000000016
11
116.6890199999999993
21
-148.9767420000000016
0
LINE
8
BLACK
6
CONTINUOUS
10
116.6890199999999993
20
-148.9767420000000016
11
116.4985439999999954
21
-149.0719799999999964
0
LINE
8
BLACK
6
CONTINUOUS
10
116.4985439999999954
20
-149.0719799999999964
11
116.4033060000000006
21
-149.1672189999999887
0
LINE
8
BLACK
6
CONTINUOUS
10
116.4033060000000006
20
-149.1672189999999887
11
116.3080679999999916
21
-149.3576950000000068
0
LINE
8
BLACK
6
CONTINUOUS
10
118.4033060000000006
20
-150.2148379999999861
11
118.7842579999999941
21
-150.2148379999999861
0
LINE
8
BLACK
6
CONTINUOUS
10
118.7842579999999941
20
-150.2148379999999861
11
118.9747349999999955
21
-150.1195999999999913
0
LINE
8
BLACK
6
CONTINUOUS
10
118.9747349999999955
20
-150.1195999999999913
11
119.0699729999999903
21
-150.024360999999999
0
LINE
8
BLACK
6
CONTINUOUS
10
119.0699729999999903
20
-150.024360999999999
11
119.2604489999999942
21
-149.7386469999999861
0
LINE
8
BLACK
6
CONTINUOUS
10
119.2604489999999942
20
-149.7386469999999861
11
119.355686999999989
21
-149.3576950000000068
0
LINE
8
BLACK
6
CONTINUOUS
10
119.355686999999989
20
-149.3576950000000068
11
119.355686999999989
21
-148.5957899999999938
0
LINE
8
BLACK
6
CONTINUOUS
10
119.355686999999989
20
-148.5957899999999938
11
119.2604489999999942
21
-148.4053140000000042
0
LINE
8
BLACK
6
CONTINUOUS
10
119.2604489999999942
20
-148.4053140000000042
11
119.1652109999999993
21
-148.3100759999999809
0
LINE
8
BLACK
6
CONTINUOUS
10
119.1652109999999993
20
-148.3100759999999809
11
118.9747349999999955
21
-148.2148379999999861
0
LINE
8
BLACK
6
CONTINUOUS
10
118.9747349999999955
20
-148.2148379999999861
11
118.5937819999999903
21
-148.2148379999999861
0
LINE
8
BLACK
6
CONTINUOUS
10
118.5937819999999903
20
-148.2148379999999861
11
118.4033060000000006
21
-148.3100759999999809
0
LINE
8
BLACK
6
CONTINUOUS
10
118.4033060000000006
20
-148.3100759999999809
11
118.3080679999999916
21
-148.4053140000000042
0
LINE
8
BLACK
6
CONTINUOUS
10
118.3080679999999916
20
-148.4053140000000042
11
118.2128299999999967
21
-148.5957899999999938
0
LINE
8
BLACK
6
CONTINUOUS
10
118.2128299999999967
20
-148.5957899999999938
11
118.2128299999999967
21
-149.0719799999999964
0
LINE
8
BLACK
6
CONTINUOUS
10
118.2128299999999967
20
-149.0719799999999964
11
118.3080679999999916
21
-149.2624569999999835
0
LINE
8
BLACK
6
CONTINUOUS
10
118.3080679999999916
20
-149.2624569999999835
11
118.4033060000000006
21
-149.3576950000000068
0
LINE
8
BLACK
6
CONTINUOUS
10
118.4033060000000006
20
-149.3576950000000068
11
118.5937819999999903
21
-149.4529330000000016
0
LINE
8
BLACK
6
CONTINUOUS
10
118.5937819999999903
20
-149.4529330000000016
11
118.9747349999999955
21
-149.4529330000000016
0
LINE
8
BLACK
6
CONTINUOUS
10
118.9747349999999955
20
-149.4529330000000016
11
119.1652109999999993
21
-149.3576950000000068
0
LINE
8
BLACK
6
CONTINUOUS
10
119.1652109999999993
20
-149.3576950000000068
11
119.2604489999999942
21
-149.2624569999999835
0
LINE
8
BLACK
6
CONTINUOUS
10
119.2604489999999942
20
-149.2624569999999835
11
119.355686999999989
21
-149.0719799999999964
0
LINE
8
BLACK
6
CONTINUOUS
10
120.1175919999999877
20
-148.2148379999999861
11
120.1175919999999877
21
-148.5957899999999938
0
LINE
8
BLACK
6
CONTINUOUS
10
120.8794970000000006
20
-148.2148379999999861
11
120.8794970000000006
21
-148.5957899999999938
0
LINE
8
BLACK
6
CONTINUOUS
10
123.8318790000000007
20
-150.9767420000000016
11
123.7366399999999942
21
-150.8815040000000067
0
LINE
8
BLACK
6
CONTINUOUS
10
123.7366399999999942
20
-150.8815040000000067
11
123.5461639999999903
21
-150.5957899999999938
0
LINE
8
BLACK
6
CONTINUOUS
10
123.5461639999999903
20
-150.5957899999999938
11
123.4509259999999955
21
-150.4053140000000042
0
LINE
8
BLACK
6
CONTINUOUS
10
123.4509259999999955
20
-150.4053140000000042
11
123.3556880000000007
21
-150.1195999999999913
0
LINE
8
BLACK
6
CONTINUOUS
10
123.3556880000000007
20
-150.1195999999999913
11
123.2604499999999916
21
-149.6434089999999912
0
LINE
8
BLACK
6
CONTINUOUS
10
123.2604499999999916
20
-149.6434089999999912
11
123.2604499999999916
21
-149.2624569999999835
0
LINE
8
BLACK
6
CONTINUOUS
10
123.2604499999999916
20
-149.2624569999999835
11
123.3556880000000007
21
-148.7862659999999835
0
LINE
8
BLACK
6
CONTINUOUS
10
123.3556880000000007
20
-148.7862659999999835
11
123.4509259999999955
21
-148.500551999999999
0
LINE
8
BLACK
6
CONTINUOUS
10
123.4509259999999955
20
-148.500551999999999
11
123.5461639999999903
21
-148.3100759999999809
0
LINE
8
BLACK
6
CONTINUOUS
10
123.5461639999999903
20
-148.3100759999999809
11
123.7366399999999942
21
-148.024360999999999
0
LINE
8
BLACK
6
CONTINUOUS
10
123.7366399999999942
20
-148.024360999999999
11
123.8318790000000007
21
-147.9291230000000041
0
LINE
8
BLACK
6
CONTINUOUS
10
125.6414019999999994
20
-150.2148379999999861
11
124.4985449999999929
21
-150.2148379999999861
0
LINE
8
BLACK
6
CONTINUOUS
10
125.0699729999999903
20
-150.2148379999999861
11
125.0699729999999903
21
-148.2148379999999861
0
LINE
8
BLACK
6
CONTINUOUS
10
125.0699729999999903
20
-148.2148379999999861
11
124.8794970000000006
21
-148.500551999999999
0
LINE
8
BLACK
6
CONTINUOUS
10
124.8794970000000006
20
-148.500551999999999
11
124.6890209999999968
21
-148.6910279999999887
0
LINE
8
BLACK
6
CONTINUOUS
10
124.6890209999999968
20
-148.6910279999999887
11
124.4985449999999929
21
-148.7862659999999835
0
LINE
8
BLACK
6
CONTINUOUS
10
126.7842589999999916
20
-149.0719799999999964
11
126.5937829999999877
21
-148.9767420000000016
0
LINE
8
BLACK
6
CONTINUOUS
10
126.5937829999999877
20
-148.9767420000000016
11
126.4985449999999929
21
-148.8815040000000067
0
LINE
8
BLACK
6
CONTINUOUS
10
126.4985449999999929
20
-148.8815040000000067
11
126.4033069999999981
21
-148.6910279999999887
0
LINE
8
BLACK
6
CONTINUOUS
10
126.4033069999999981
20
-148.6910279999999887
11
126.4033069999999981
21
-148.5957899999999938
0
LINE
8
BLACK
6
CONTINUOUS
10
126.4033069999999981
20
-148.5957899999999938
11
126.4985449999999929
21
-148.4053140000000042
0
LINE
8
BLACK
6
CONTINUOUS
10
126.4985449999999929
20
-148.4053140000000042
11
126.5937829999999877
21
-148.3100759999999809
0
LINE
8
BLACK
6
CONTINUOUS
10
126.5937829999999877
20
-148.3100759999999809
11
126.7842589999999916
21
-148.2148379999999861
0
LINE
8
BLACK
6
CONTINUOUS
10
126.7842589999999916
20
-148.2148379999999861
11
127.1652119999999968
21
-148.2148379999999861
0
LINE
8
BLACK
6
CONTINUOUS
10
127.1652119999999968
20
-148.2148379999999861
11
127.3556880000000007
21
-148.3100759999999809
0
LINE
8
BLACK
6
CONTINUOUS
10
127.3556880000000007
20
-148.3100759999999809
11
127.4509259999999955
21
-148.4053140000000042
0
LINE
8
BLACK
6
CONTINUOUS
10
127.4509259999999955
20
-148.4053140000000042
11
127.5461639999999903
21
-148.5957899999999938
0
LINE
8
BLACK
6
CONTINUOUS
10
127.5461639999999903
20
-148.5957899999999938
11
127.5461639999999903
21
-148.6910279999999887
0
LINE
8
BLACK
6
CONTINUOUS
10
127.5461639999999903
20
-148.6910279999999887
11
127.4509259999999955
21
-148.8815040000000067
0
LINE
8
BLACK
6
CONTINUOUS
10
127.4509259999999955
20
-148.8815040000000067
11
127.3556880000000007
21
-148.9767420000000016
0
LINE
8
BLACK
6
CONTINUOUS
10
127.3556880000000007
20
-148.9767420000000016
11
127.1652119999999968
21
-149.0719799999999964
0
LINE
8
BLACK
6
CONTINUOUS
10
127.1652119999999968
20
-149.0719799999999964
11
126.7842589999999916
21
-149.0719799999999964
0
LINE
8
BLACK
6
CONTINUOUS
10
126.7842589999999916
20
-149.0719799999999964
11
126.5937829999999877
21
-149.1672189999999887
0
LINE
8
BLACK
6
CONTINUOUS
10
126.5937829999999877
20
-149.1672189999999887
11
126.4985449999999929
21
-149.2624569999999835
0
LINE
8
BLACK
6
CONTINUOUS
10
126.4985449999999929
20
-149.2624569999999835
11
126.4033069999999981
21
-149.4529330000000016
0
LINE
8
BLACK
6
CONTINUOUS
10
126.4033069999999981
20
-149.4529330000000016
11
126.4033069999999981
21
-149.8338849999999809
0
LINE
8
BLACK
6
CONTINUOUS
10
126.4033069999999981
20
-149.8338849999999809
11
126.4985449999999929
21
-150.024360999999999
0
LINE
8
BLACK
6
CONTINUOUS
10
126.4985449999999929
20
-150.024360999999999
11
126.5937829999999877
21
-150.1195999999999913
0
LINE
8
BLACK
6
CONTINUOUS
10
126.5937829999999877
20
-150.1195999999999913
11
126.7842589999999916
21
-150.2148379999999861
0
LINE
8
BLACK
6
CONTINUOUS
10
126.7842589999999916
20
-150.2148379999999861
11
127.1652119999999968
21
-150.2148379999999861
0
LINE
8
BLACK
6
CONTINUOUS
10
127.1652119999999968
20
-150.2148379999999861
11
127.3556880000000007
21
-150.1195999999999913
0
LINE
8
BLACK
6
CONTINUOUS
10
127.3556880000000007
20
-150.1195999999999913
11
127.4509259999999955
21
-150.024360999999999
0
LINE
8
BLACK
6
CONTINUOUS
10
127.4509259999999955
20
-150.024360999999999
11
127.5461639999999903
21
-149.8338849999999809
0
LINE
8
BLACK
6
CONTINUOUS
10
127.5461639999999903
20
-149.8338849999999809
11
127.5461639999999903
21
-149.4529330000000016
0
LINE
8
BLACK
6
CONTINUOUS
10
127.5461639999999903
20
-149.4529330000000016
11
127.4509259999999955
21
-149.2624569999999835
0
LINE
8
BLACK
6
CONTINUOUS
10
127.4509259999999955
20
-149.2624569999999835
11
127.3556880000000007
21
-149.1672189999999887
0
LINE
8
BLACK
6
CONTINUOUS
10
127.3556880000000007
20
-149.1672189999999887
11
127.1652119999999968
21
-149.0719799999999964
0
LINE
8
BLACK
6
CONTINUOUS
10
129.9271169999999813
20
-150.2148379999999861
11
129.9271169999999813
21
-148.2148379999999861
0
LINE
8
BLACK
6
CONTINUOUS
10
130.7842599999999891
20
-150.2148379999999861
11
130.7842599999999891
21
-149.1672189999999887
0
LINE
8
BLACK
6
CONTINUOUS
10
130.7842599999999891
20
-149.1672189999999887
11
130.6890219999999943
21
-148.9767420000000016
0
LINE
8
BLACK
6
CONTINUOUS
10
130.6890219999999943
20
-148.9767420000000016
11
130.4985460000000046
21
-148.8815040000000067
0
LINE
8
BLACK
6
CONTINUOUS
10
130.4985460000000046
20
-148.8815040000000067
11
130.2128309999999942
21
-148.8815040000000067
0
LINE
8
BLACK
6
CONTINUOUS
10
130.2128309999999942
20
-148.8815040000000067
11
130.0223550000000046
21
-148.9767420000000016
0
LINE
8
BLACK
6
CONTINUOUS
10
130.0223550000000046
20
-148.9767420000000016
11
129.9271169999999813
21
-149.0719799999999964
0
LINE
8
BLACK
6
CONTINUOUS
10
132.0223550000000046
20
-150.2148379999999861
11
131.8318789999999865
21
-150.1195999999999913
0
LINE
8
BLACK
6
CONTINUOUS
10
131.8318789999999865
20
-150.1195999999999913
11
131.7366409999999917
21
-150.024360999999999
0
LINE
8
BLACK
6
CONTINUOUS
10
131.7366409999999917
20
-150.024360999999999
11
131.6414029999999968
21
-149.8338849999999809
0
LINE
8
BLACK
6
CONTINUOUS
10
131.6414029999999968
20
-149.8338849999999809
11
131.6414029999999968
21
-149.2624569999999835
0
LINE
8
BLACK
6
CONTINUOUS
10
131.6414029999999968
20
-149.2624569999999835
11
131.7366409999999917
21
-149.0719799999999964
0
LINE
8
BLACK
6
CONTINUOUS
10
131.7366409999999917
20
-149.0719799999999964
11
131.8318789999999865
21
-148.9767420000000016
0
LINE
8
BLACK
6
CONTINUOUS
10
131.8318789999999865
20
-148.9767420000000016
11
132.0223550000000046
21
-148.8815040000000067
0
LINE
8
BLACK
6
CONTINUOUS
10
132.0223550000000046
20
-148.8815040000000067
11
132.3080699999999865
21
-148.8815040000000067
0
LINE
8
BLACK
6
CONTINUOUS
10
132.3080699999999865
20
-148.8815040000000067
11
132.4985460000000046
21
-148.9767420000000016
0
LINE
8
BLACK
6
CONTINUOUS
10
132.4985460000000046
20
-148.9767420000000016
11
132.5937839999999994
21
-149.0719799999999964
0
LINE
8
BLACK
6
CONTINUOUS
10
132.5937839999999994
20
-149.0719799999999964
11
132.6890219999999943
21
-149.2624569999999835
0
LINE
8
BLACK
6
CONTINUOUS
10
132.6890219999999943
20
-149.2624569999999835
11
132.6890219999999943
21
-149.8338849999999809
0
LINE
8
BLACK
6
CONTINUOUS
10
132.6890219999999943
20
-149.8338849999999809
11
132.5937839999999994
21
-150.024360999999999
0
LINE
8
BLACK
6
CONTINUOUS
10
132.5937839999999994
20
-150.024360999999999
11
132.4985460000000046
21
-150.1195999999999913
0
LINE
8
BLACK
6
CONTINUOUS
10
132.4985460000000046
20
-150.1195999999999913
11
132.3080699999999865
21
-150.2148379999999861
0
LINE
8
BLACK
6
CONTINUOUS
10
132.3080699999999865
20
-150.2148379999999861
11
132.0223550000000046
21
-150.2148379999999861
0
LINE
8
BLACK
6
CONTINUOUS
10
133.8318789999999865
20
-150.2148379999999861
11
133.6414029999999968
21
-150.1195999999999913
0
LINE
8
BLACK
6
CONTINUOUS
10
133.6414029999999968
20
-150.1195999999999913
11
133.546165000000002
21
-149.9291230000000041
0
LINE
8
BLACK
6
CONTINUOUS
10
133.546165000000002
20
-149.9291230000000041
11
133.546165000000002
21
-148.2148379999999861
0
LINE
8
BLACK
6
CONTINUOUS
10
135.3556889999999839
20
-150.1195999999999913
11
135.1652129999999943
21
-150.2148379999999861
0
LINE
8
BLACK
6
CONTINUOUS
10
135.1652129999999943
20
-150.2148379999999861
11
134.7842599999999891
21
-150.2148379999999861
0
LINE
8
BLACK
6
CONTINUOUS
10
134.7842599999999891
20
-150.2148379999999861
11
134.5937839999999994
21
-150.1195999999999913
0
LINE
8
BLACK
6
CONTINUOUS
10
134.5937839999999994
20
-150.1195999999999913
11
134.4985460000000046
21
-149.9291230000000041
0
LINE
8
BLACK
6
CONTINUOUS
10
134.4985460000000046
20
-149.9291230000000041
11
134.4985460000000046
21
-149.1672189999999887
0
LINE
8
BLACK
6
CONTINUOUS
10
134.4985460000000046
20
-149.1672189999999887
11
134.5937839999999994
21
-148.9767420000000016
0
LINE
8
BLACK
6
CONTINUOUS
10
134.5937839999999994
20
-148.9767420000000016
11
134.7842599999999891
21
-148.8815040000000067
0
LINE
8
BLACK
6
CONTINUOUS
10
134.7842599999999891
20
-148.8815040000000067
11
135.1652129999999943
21
-148.8815040000000067
0
LINE
8
BLACK
6
CONTINUOUS
10
135.1652129999999943
20
-148.8815040000000067
11
135.3556889999999839
21
-148.9767420000000016
0
LINE
8
BLACK
6
CONTINUOUS
10
135.3556889999999839
20
-148.9767420000000016
11
135.4509270000000072
21
-149.1672189999999887
0
LINE
8
BLACK
6
CONTINUOUS
10
135.4509270000000072
20
-149.1672189999999887
11
135.4509270000000072
21
-149.3576950000000068
0
LINE
8
BLACK
6
CONTINUOUS
10
135.4509270000000072
20
-149.3576950000000068
11
134.4985460000000046
21
-149.5481709999999964
0
LINE
8
BLACK
6
CONTINUOUS
10
136.2128319999999917
20
-150.1195999999999913
11
136.4033079999999813
21
-150.2148379999999861
0
LINE
8
BLACK
6
CONTINUOUS
10
136.4033079999999813
20
-150.2148379999999861
11
136.7842599999999891
21
-150.2148379999999861
0
LINE
8
BLACK
6
CONTINUOUS
10
136.7842599999999891
20
-150.2148379999999861
11
136.9747370000000046
21
-150.1195999999999913
0
LINE
8
BLACK
6
CONTINUOUS
10
136.9747370000000046
20
-150.1195999999999913
11
137.0699749999999995
21
-149.9291230000000041
0
LINE
8
BLACK
6
CONTINUOUS
10
137.0699749999999995
20
-149.9291230000000041
11
137.0699749999999995
21
-149.8338849999999809
0
LINE
8
BLACK
6
CONTINUOUS
10
137.0699749999999995
20
-149.8338849999999809
11
136.9747370000000046
21
-149.6434089999999912
0
LINE
8
BLACK
6
CONTINUOUS
10
136.9747370000000046
20
-149.6434089999999912
11
136.7842599999999891
21
-149.5481709999999964
0
LINE
8
BLACK
6
CONTINUOUS
10
136.7842599999999891
20
-149.5481709999999964
11
136.4985460000000046
21
-149.5481709999999964
0
LINE
8
BLACK
6
CONTINUOUS
10
136.4985460000000046
20
-149.5481709999999964
11
136.3080699999999865
21
-149.4529330000000016
0
LINE
8
BLACK
6
CONTINUOUS
10
136.3080699999999865
20
-149.4529330000000016
11
136.2128319999999917
21
-149.2624569999999835
0
LINE
8
BLACK
6
CONTINUOUS
10
136.2128319999999917
20
-149.2624569999999835
11
136.2128319999999917
21
-149.1672189999999887
0
LINE
8
BLACK
6
CONTINUOUS
10
136.2128319999999917
20
-149.1672189999999887
11
136.3080699999999865
21
-148.9767420000000016
0
LINE
8
BLACK
6
CONTINUOUS
10
136.3080699999999865
20
-148.9767420000000016
11
136.4985460000000046
21
-148.8815040000000067
0
LINE
8
BLACK
6
CONTINUOUS
10
136.4985460000000046
20
-148.8815040000000067
11
136.7842599999999891
21
-148.8815040000000067
0
LINE
8
BLACK
6
CONTINUOUS
10
136.7842599999999891
20
-148.8815040000000067
11
136.9747370000000046
21
-148.9767420000000016
0
LINE
8
BLACK
6
CONTINUOUS
10
137.7366419999999891
20
-150.9767420000000016
11
137.831879999999984
21
-150.8815040000000067
0
LINE
8
BLACK
6
CONTINUOUS
10
137.831879999999984
20
-150.8815040000000067
11
138.022356000000002
21
-150.5957899999999938
0
LINE
8
BLACK
6
CONTINUOUS
10
138.022356000000002
20
-150.5957899999999938
11
138.1175939999999969
21
-150.4053140000000042
0
LINE
8
BLACK
6
CONTINUOUS
10
138.1175939999999969
20
-150.4053140000000042
11
138.2128319999999917
21
-150.1195999999999913
0
LINE
8
BLACK
6
CONTINUOUS
10
138.2128319999999917
20
-150.1195999999999913
11
138.3080699999999865
21
-149.6434089999999912
0
LINE
8
BLACK
6
CONTINUOUS
10
138.3080699999999865
20
-149.6434089999999912
11
138.3080699999999865
21
-149.2624569999999835
0
LINE
8
BLACK
6
CONTINUOUS
10
138.3080699999999865
20
-149.2624569999999835
11
138.2128319999999917
21
-148.7862659999999835
0
LINE
8
BLACK
6
CONTINUOUS
10
138.2128319999999917
20
-148.7862659999999835
11
138.1175939999999969
21
-148.500551999999999
0
LINE
8
BLACK
6
CONTINUOUS
10
138.1175939999999969
20
-148.500551999999999
11
138.022356000000002
21
-148.3100759999999809
0
LINE
8
BLACK
6
CONTINUOUS
10
138.022356000000002
20
-148.3100759999999809
11
137.831879999999984
21
-148.024360999999999
0
LINE
8
BLACK
6
CONTINUOUS
10
137.831879999999984
20
-148.024360999999999
11
137.7366419999999891
21
-147.9291230000000041
0
LINE
8
BLACK
6
CONTINUOUS
10
141.3556899999999814
20
-150.9767420000000016
11
141.2604509999999891
21
-150.8815040000000067
0
LINE
8
BLACK
6
CONTINUOUS
10
141.2604509999999891
20
-150.8815040000000067
11
141.0699749999999995
21
-150.5957899999999938
0
LINE
8
BLACK
6
CONTINUOUS
10
141.0699749999999995
20
-150.5957899999999938
11
140.9747370000000046
21
-150.4053140000000042
0
LINE
8
BLACK
6
CONTINUOUS
10
140.9747370000000046
20
-150.4053140000000042
11
140.8794989999999814
21
-150.1195999999999913
0
LINE
8
BLACK
6
CONTINUOUS
10
140.8794989999999814
20
-150.1195999999999913
11
140.7842609999999866
21
-149.6434089999999912
0
LINE
8
BLACK
6
CONTINUOUS
10
140.7842609999999866
20
-149.6434089999999912
11
140.7842609999999866
21
-149.2624569999999835
0
LINE
8
BLACK
6
CONTINUOUS
10
140.7842609999999866
20
-149.2624569999999835
11
140.8794989999999814
21
-148.7862659999999835
0
LINE
8
BLACK
6
CONTINUOUS
10
140.8794989999999814
20
-148.7862659999999835
11
140.9747370000000046
21
-148.500551999999999
0
LINE
8
BLACK
6
CONTINUOUS
10
140.9747370000000046
20
-148.500551999999999
11
141.0699749999999995
21
-148.3100759999999809
0
LINE
8
BLACK
6
CONTINUOUS
10
141.0699749999999995
20
-148.3100759999999809
11
141.2604509999999891
21
-148.024360999999999
0
LINE
8
BLACK
6
CONTINUOUS
10
141.2604509999999891
20
-148.024360999999999
11
141.3556899999999814
21
-147.9291230000000041
0
LINE
8
BLACK
6
CONTINUOUS
10
142.1175939999999969
20
-148.8815040000000067
11
142.1175939999999969
21
-150.2148379999999861
0
LINE
8
BLACK
6
CONTINUOUS
10
142.1175939999999969
20
-149.0719799999999964
11
142.2128319999999917
21
-148.9767420000000016
0
LINE
8
BLACK
6
CONTINUOUS
10
142.2128319999999917
20
-148.9767420000000016
11
142.4033079999999813
21
-148.8815040000000067
0
LINE
8
BLACK
6
CONTINUOUS
10
142.4033079999999813
20
-148.8815040000000067
11
142.6890229999999917
21
-148.8815040000000067
0
LINE
8
BLACK
6
CONTINUOUS
10
142.6890229999999917
20
-148.8815040000000067
11
142.8794989999999814
21
-148.9767420000000016
0
LINE
8
BLACK
6
CONTINUOUS
10
142.8794989999999814
20
-148.9767420000000016
11
142.9747370000000046
21
-149.1672189999999887
0
LINE
8
BLACK
6
CONTINUOUS
10
142.9747370000000046
20
-149.1672189999999887
11
142.9747370000000046
21
-150.2148379999999861
0
LINE
8
BLACK
6
CONTINUOUS
10
144.2128319999999917
20
-150.2148379999999861
11
144.022356000000002
21
-150.1195999999999913
0
LINE
8
BLACK
6
CONTINUOUS
10
144.022356000000002
20
-150.1195999999999913
11
143.9271180000000072
21
-150.024360999999999
0
LINE
8
BLACK
6
CONTINUOUS
10
143.9271180000000072
20
-150.024360999999999
11
143.831879999999984
21
-149.8338849999999809
0
LINE
8
BLACK
6
CONTINUOUS
10
143.831879999999984
20
-149.8338849999999809
11
143.831879999999984
21
-149.2624569999999835
0
LINE
8
BLACK
6
CONTINUOUS
10
143.831879999999984
20
-149.2624569999999835
11
143.9271180000000072
21
-149.0719799999999964
0
LINE
8
BLACK
6
CONTINUOUS
10
143.9271180000000072
20
-149.0719799999999964
11
144.022356000000002
21
-148.9767420000000016
0
LINE
8
BLACK
6
CONTINUOUS
10
144.022356000000002
20
-148.9767420000000016
11
144.2128319999999917
21
-148.8815040000000067
0
LINE
8
BLACK
6
CONTINUOUS
10
144.2128319999999917
20
-148.8815040000000067
11
144.4985470000000021
21
-148.8815040000000067
0
LINE
8
BLACK
6
CONTINUOUS
10
144.4985470000000021
20
-148.8815040000000067
11
144.6890229999999917
21
-148.9767420000000016
0
LINE
8
BLACK
6
CONTINUOUS
10
144.6890229999999917
20
-148.9767420000000016
11
144.7842609999999866
21
-149.0719799999999964
0
LINE
8
BLACK
6
CONTINUOUS
10
144.7842609999999866
20
-149.0719799999999964
11
144.8794989999999814
21
-149.2624569999999835
0
LINE
8
BLACK
6
CONTINUOUS
10
144.8794989999999814
20
-149.2624569999999835
11
144.8794989999999814
21
-149.8338849999999809
0
LINE
8
BLACK
6
CONTINUOUS
10
144.8794989999999814
20
-149.8338849999999809
11
144.7842609999999866
21
-150.024360999999999
0
LINE
8
BLACK
6
CONTINUOUS
10
144.7842609999999866
20
-150.024360999999999
11
144.6890229999999917
21
-150.1195999999999913
0
LINE
8
BLACK
6
CONTINUOUS
10
144.6890229999999917
20
-150.1195999999999913
11
144.4985470000000021
21
-150.2148379999999861
0
LINE
8
BLACK
6
CONTINUOUS
10
144.4985470000000021
20
-150.2148379999999861
11
144.2128319999999917
21
-150.2148379999999861
0
LINE
8
BLACK
6
CONTINUOUS
10
145.4509280000000047
20
-148.8815040000000067
11
146.2128319999999917
21
-148.8815040000000067
0
LINE
8
BLACK
6
CONTINUOUS
10
145.7366419999999891
20
-148.2148379999999861
11
145.7366419999999891
21
-149.9291230000000041
0
LINE
8
BLACK
6
CONTINUOUS
10
145.7366419999999891
20
-149.9291230000000041
11
145.831879999999984
21
-150.1195999999999913
0
LINE
8
BLACK
6
CONTINUOUS
10
145.831879999999984
20
-150.1195999999999913
11
146.022356000000002
21
-150.2148379999999861
0
LINE
8
BLACK
6
CONTINUOUS
10
146.022356000000002
20
-150.2148379999999861
11
146.2128319999999917
21
-150.2148379999999861
0
LINE
8
BLACK
6
CONTINUOUS
10
148.4033090000000072
20
-148.8815040000000067
11
148.4033090000000072
21
-150.8815040000000067
0
LINE
8
BLACK
6
CONTINUOUS
10
148.4033090000000072
20
-148.9767420000000016
11
148.5937849999999969
21
-148.8815040000000067
0
LINE
8
BLACK
6
CONTINUOUS
10
148.5937849999999969
20
-148.8815040000000067
11
148.9747380000000021
21
-148.8815040000000067
0
LINE
8
BLACK
6
CONTINUOUS
10
148.9747380000000021
20
-148.8815040000000067
11
149.1652139999999918
21
-148.9767420000000016
0
LINE
8
BLACK
6
CONTINUOUS
10
149.1652139999999918
20
-148.9767420000000016
11
149.2604519999999866
21
-149.0719799999999964
0
LINE
8
BLACK
6
CONTINUOUS
10
149.2604519999999866
20
-149.0719799999999964
11
149.3556899999999814
21
-149.2624569999999835
0
LINE
8
BLACK
6
CONTINUOUS
10
149.3556899999999814
20
-149.2624569999999835
11
149.3556899999999814
21
-149.8338849999999809
0
LINE
8
BLACK
6
CONTINUOUS
10
149.3556899999999814
20
-149.8338849999999809
11
149.2604519999999866
21
-150.024360999999999
0
LINE
8
BLACK
6
CONTINUOUS
10
149.2604519999999866
20
-150.024360999999999
11
149.1652139999999918
21
-150.1195999999999913
0
LINE
8
BLACK
6
CONTINUOUS
10
149.1652139999999918
20
-150.1195999999999913
11
148.9747380000000021
21
-150.2148379999999861
0
LINE
8
BLACK
6
CONTINUOUS
10
148.9747380000000021
20
-150.2148379999999861
11
148.5937849999999969
21
-150.2148379999999861
0
LINE
8
BLACK
6
CONTINUOUS
10
148.5937849999999969
20
-150.2148379999999861
11
148.4033090000000072
21
-150.1195999999999913
0
LINE
8
BLACK
6
CONTINUOUS
10
150.4985470000000021
20
-150.2148379999999861
11
150.308070999999984
21
-150.1195999999999913
0
LINE
8
BLACK
6
CONTINUOUS
10
150.308070999999984
20
-150.1195999999999913
11
150.2128329999999892
21
-149.9291230000000041
0
LINE
8
BLACK
6
CONTINUOUS
10
150.2128329999999892
20
-149.9291230000000041
11
150.2128329999999892
21
-148.2148379999999861
0
LINE
8
BLACK
6
CONTINUOUS
10
152.1175949999999943
20
-150.2148379999999861
11
152.1175949999999943
21
-149.1672189999999887
0
LINE
8
BLACK
6
CONTINUOUS
10
152.1175949999999943
20
-149.1672189999999887
11
152.0223569999999995
21
-148.9767420000000016
0
LINE
8
BLACK
6
CONTINUOUS
10
152.0223569999999995
20
-148.9767420000000016
11
151.8318809999999814
21
-148.8815040000000067
0
LINE
8
BLACK
6
CONTINUOUS
10
151.8318809999999814
20
-148.8815040000000067
11
151.4509280000000047
21
-148.8815040000000067
0
LINE
8
BLACK
6
CONTINUOUS
10
151.4509280000000047
20
-148.8815040000000067
11
151.2604519999999866
21
-148.9767420000000016
0
LINE
8
BLACK
6
CONTINUOUS
10
152.1175949999999943
20
-150.1195999999999913
11
151.9271190000000047
21
-150.2148379999999861
0
LINE
8
BLACK
6
CONTINUOUS
10
151.9271190000000047
20
-150.2148379999999861
11
151.4509280000000047
21
-150.2148379999999861
0
LINE
8
BLACK
6
CONTINUOUS
10
151.4509280000000047
20
-150.2148379999999861
11
151.2604519999999866
21
-150.1195999999999913
0
LINE
8
BLACK
6
CONTINUOUS
10
151.2604519999999866
20
-150.1195999999999913
11
151.1652139999999918
21
-149.9291230000000041
0
LINE
8
BLACK
6
CONTINUOUS
10
151.1652139999999918
20
-149.9291230000000041
11
151.1652139999999918
21
-149.7386469999999861
0
LINE
8
BLACK
6
CONTINUOUS
10
151.1652139999999918
20
-149.7386469999999861
11
151.2604519999999866
21
-149.5481709999999964
0
LINE
8
BLACK
6
CONTINUOUS
10
151.2604519999999866
20
-149.5481709999999964
11
151.4509280000000047
21
-149.4529330000000016
0
LINE
8
BLACK
6
CONTINUOUS
10
151.4509280000000047
20
-149.4529330000000016
11
151.9271190000000047
21
-149.4529330000000016
0
LINE
8
BLACK
6
CONTINUOUS
10
151.9271190000000047
20
-149.4529330000000016
11
152.1175949999999943
21
-149.3576950000000068
0
LINE
8
BLACK
6
CONTINUOUS
10
152.784261999999984
20
-148.8815040000000067
11
153.5461659999999995
21
-148.8815040000000067
0
LINE
8
BLACK
6
CONTINUOUS
10
153.0699759999999969
20
-148.2148379999999861
11
153.0699759999999969
21
-149.9291230000000041
0
LINE
8
BLACK
6
CONTINUOUS
10
153.0699759999999969
20
-149.9291230000000041
11
153.1652139999999918
21
-150.1195999999999913
0
LINE
8
BLACK
6
CONTINUOUS
10
153.1652139999999918
20
-150.1195999999999913
11
153.3556899999999814
21
-150.2148379999999861
0
LINE
8
BLACK
6
CONTINUOUS
10
153.3556899999999814
20
-150.2148379999999861
11
153.5461659999999995
21
-150.2148379999999861
0
LINE
8
BLACK
6
CONTINUOUS
10
154.9747380000000021
20
-150.1195999999999913
11
154.784261999999984
21
-150.2148379999999861
0
LINE
8
BLACK
6
CONTINUOUS
10
154.784261999999984
20
-150.2148379999999861
11
154.4033089999999788
21
-150.2148379999999861
0
LINE
8
BLACK
6
CONTINUOUS
10
154.4033089999999788
20
-150.2148379999999861
11
154.2128329999999892
21
-150.1195999999999913
0
LINE
8
BLACK
6
CONTINUOUS
10
154.2128329999999892
20
-150.1195999999999913
11
154.1175949999999943
21
-149.9291230000000041
0
LINE
8
BLACK
6
CONTINUOUS
10
154.1175949999999943
20
-149.9291230000000041
11
154.1175949999999943
21
-149.1672189999999887
0
LINE
8
BLACK
6
CONTINUOUS
10
154.1175949999999943
20
-149.1672189999999887
11
154.2128329999999892
21
-148.9767420000000016
0
LINE
8
BLACK
6
CONTINUOUS
10
154.2128329999999892
20
-148.9767420000000016
11
154.4033089999999788
21
-148.8815040000000067
0
LINE
8
BLACK
6
CONTINUOUS
10
154.4033089999999788
20
-148.8815040000000067
11
154.784261999999984
21
-148.8815040000000067
0
LINE
8
BLACK
6
CONTINUOUS
10
154.784261999999984
20
-148.8815040000000067
11
154.9747380000000021
21
-148.9767420000000016
0
LINE
8
BLACK
6
CONTINUOUS
10
154.9747380000000021
20
-148.9767420000000016
11
155.0699759999999969
21
-149.1672189999999887
0
LINE
8
BLACK
6
CONTINUOUS
10
155.0699759999999969
20
-149.1672189999999887
11
155.0699759999999969
21
-149.3576950000000068
0
LINE
8
BLACK
6
CONTINUOUS
10
155.0699759999999969
20
-149.3576950000000068
11
154.1175949999999943
21
-149.5481709999999964
0
LINE
8
BLACK
6
CONTINUOUS
10
156.784261999999984
20
-150.2148379999999861
11
156.784261999999984
21
-148.2148379999999861
0
LINE
8
BLACK
6
CONTINUOUS
10
156.784261999999984
20
-150.1195999999999913
11
156.5937859999999944
21
-150.2148379999999861
0
LINE
8
BLACK
6
CONTINUOUS
10
156.5937859999999944
20
-150.2148379999999861
11
156.2128329999999892
21
-150.2148379999999861
0
LINE
8
BLACK
6
CONTINUOUS
10
156.2128329999999892
20
-150.2148379999999861
11
156.0223569999999995
21
-150.1195999999999913
0
LINE
8
BLACK
6
CONTINUOUS
10
156.0223569999999995
20
-150.1195999999999913
11
155.9271190000000047
21
-150.024360999999999
0
LINE
8
BLACK
6
CONTINUOUS
10
155.9271190000000047
20
-150.024360999999999
11
155.8318809999999814
21
-149.8338849999999809
0
LINE
8
BLACK
6
CONTINUOUS
10
155.8318809999999814
20
-149.8338849999999809
11
155.8318809999999814
21
-149.2624569999999835
0
LINE
8
BLACK
6
CONTINUOUS
10
155.8318809999999814
20
-149.2624569999999835
11
155.9271190000000047
21
-149.0719799999999964
0
LINE
8
BLACK
6
CONTINUOUS
10
155.9271190000000047
20
-149.0719799999999964
11
156.0223569999999995
21
-148.9767420000000016
0
LINE
8
BLACK
6
CONTINUOUS
10
156.0223569999999995
20
-148.9767420000000016
11
156.2128329999999892
21
-148.8815040000000067
0
LINE
8
BLACK
6
CONTINUOUS
10
156.2128329999999892
20
-148.8815040000000067
11
156.5937859999999944
21
-148.8815040000000067
0
LINE
8
BLACK
6
CONTINUOUS
10
156.5937859999999944
20
-148.8815040000000067
11
156.784261999999984
21
-148.9767420000000016
0
LINE
8
BLACK
6
CONTINUOUS
10
157.546166999999997
20
-150.9767420000000016
11
157.6414049999999918
21
-150.8815040000000067
0
LINE
8
BLACK
6
CONTINUOUS
10
157.6414049999999918
20
-150.8815040000000067
11
157.8318809999999814
21
-150.5957899999999938
0
LINE
8
BLACK
6
CONTINUOUS
10
157.8318809999999814
20
-150.5957899999999938
11
157.9271190000000047
21
-150.4053140000000042
0
LINE
8
BLACK
6
CONTINUOUS
10
157.9271190000000047
20
-150.4053140000000042
11
158.0223569999999995
21
-150.1195999999999913
0
LINE
8
BLACK
6
CONTINUOUS
10
158.0223569999999995
20
-150.1195999999999913
11
158.1175949999999943
21
-149.6434089999999912
0
LINE
8
BLACK
6
CONTINUOUS
10
158.1175949999999943
20
-149.6434089999999912
11
158.1175949999999943
21
-149.2624569999999835
0
LINE
8
BLACK
6
CONTINUOUS
10
158.1175949999999943
20
-149.2624569999999835
11
158.0223569999999995
21
-148.7862659999999835
0
LINE
8
BLACK
6
CONTINUOUS
10
158.0223569999999995
20
-148.7862659999999835
11
157.9271190000000047
21
-148.500551999999999
0
LINE
8
BLACK
6
CONTINUOUS
10
157.9271190000000047
20
-148.500551999999999
11
157.8318809999999814
21
-148.3100759999999809
0
LINE
8
BLACK
6
CONTINUOUS
10
157.8318809999999814
20
-148.3100759999999809
11
157.6414049999999918
21
-148.024360999999999
0
LINE
8
BLACK
6
CONTINUOUS
10
157.6414049999999918
20
-148.024360999999999
11
157.546166999999997
21
-147.9291230000000041
0
CIRCLE
8
BLACK
10
87.0812499999999972
20
-152.1999999999999886
40
1.
0
LINE
8
BLACK
6
CONTINUOUS
10
90.4985420000000005
20
-151.1148379999999918
11
91.7366370000000018
21
-151.1148379999999918
0
LINE
8
BLACK
6
CONTINUOUS
10
91.7366370000000018
20
-151.1148379999999918
11
91.0699699999999979
21
-151.8767420000000072
0
LINE
8
BLACK
6
CONTINUOUS
10
91.0699699999999979
20
-151.8767420000000072
11
91.355684999999994
21
-151.8767420000000072
0
LINE
8
BLACK
6
CONTINUOUS
10
91.355684999999994
20
-151.8767420000000072
11
91.5461609999999979
21
-151.9719800000000021
0
LINE
8
BLACK
6
CONTINUOUS
10
91.5461609999999979
20
-151.9719800000000021
11
91.6413989999999927
21
-152.0672189999999944
0
LINE
8
BLACK
6
CONTINUOUS
10
91.6413989999999927
20
-152.0672189999999944
11
91.7366370000000018
21
-152.257694999999984
0
LINE
8
BLACK
6
CONTINUOUS
10
91.7366370000000018
20
-152.257694999999984
11
91.7366370000000018
21
-152.7338849999999866
0
LINE
8
BLACK
6
CONTINUOUS
10
91.7366370000000018
20
-152.7338849999999866
11
91.6413989999999927
21
-152.9243610000000047
0
LINE
8
BLACK
6
CONTINUOUS
10
91.6413989999999927
20
-152.9243610000000047
11
91.5461609999999979
21
-153.019599999999997
0
LINE
8
BLACK
6
CONTINUOUS
10
91.5461609999999979
20
-153.019599999999997
11
91.355684999999994
21
-153.1148379999999918
0
LINE
8
BLACK
6
CONTINUOUS
10
91.355684999999994
20
-153.1148379999999918
11
90.7842559999999992
21
-153.1148379999999918
0
LINE
8
BLACK
6
CONTINUOUS
10
90.7842559999999992
20
-153.1148379999999918
11
90.5937799999999953
21
-153.019599999999997
0
LINE
8
BLACK
6
CONTINUOUS
10
90.5937799999999953
20
-153.019599999999997
11
90.4985420000000005
21
-152.9243610000000047
0
LINE
8
BLACK
6
CONTINUOUS
10
92.5937799999999953
20
-152.9243610000000047
11
92.6890179999999901
21
-153.019599999999997
0
LINE
8
BLACK
6
CONTINUOUS
10
92.6890179999999901
20
-153.019599999999997
11
92.5937799999999953
21
-153.1148379999999918
0
LINE
8
BLACK
6
CONTINUOUS
10
92.5937799999999953
20
-153.1148379999999918
11
92.4985420000000005
21
-153.019599999999997
0
LINE
8
BLACK
6
CONTINUOUS
10
92.4985420000000005
20
-153.019599999999997
11
92.5937799999999953
21
-152.9243610000000047
0
LINE
8
BLACK
6
CONTINUOUS
10
92.5937799999999953
20
-152.9243610000000047
11
92.5937799999999953
21
-153.1148379999999918
0
LINE
8
BLACK
6
CONTINUOUS
10
93.4509229999999889
20
-151.3053139999999814
11
93.5461609999999979
21
-151.2100759999999866
0
LINE
8
BLACK
6
CONTINUOUS
10
93.5461609999999979
20
-151.2100759999999866
11
93.7366370000000018
21
-151.1148379999999918
0
LINE
8
BLACK
6
CONTINUOUS
10
93.7366370000000018
20
-151.1148379999999918
11
94.2128280000000018
21
-151.1148379999999918
0
LINE
8
BLACK
6
CONTINUOUS
10
94.2128280000000018
20
-151.1148379999999918
11
94.4033039999999914
21
-151.2100759999999866
0
LINE
8
BLACK
6
CONTINUOUS
10
94.4033039999999914
20
-151.2100759999999866
11
94.4985420000000005
21
-151.3053139999999814
0
LINE
8
BLACK
6
CONTINUOUS
10
94.4985420000000005
20
-151.3053139999999814
11
94.5937799999999953
21
-151.4957899999999995
0
LINE
8
BLACK
6
CONTINUOUS
10
94.5937799999999953
20
-151.4957899999999995
11
94.5937799999999953
21
-151.6862659999999892
0
LINE
8
BLACK
6
CONTINUOUS
10
94.5937799999999953
20
-151.6862659999999892
11
94.4985420000000005
21
-151.9719800000000021
0
LINE
8
BLACK
6
CONTINUOUS
10
94.4985420000000005
20
-151.9719800000000021
11
93.355684999999994
21
-153.1148379999999918
0
LINE
8
BLACK
6
CONTINUOUS
10
93.355684999999994
20
-153.1148379999999918
11
94.5937799999999953
21
-153.1148379999999918
0
LINE
8
BLACK
6
CONTINUOUS
10
95.8318749999999966
20
-151.1148379999999918
11
96.0223519999999979
21
-151.1148379999999918
0
LINE
8
BLACK
6
CONTINUOUS
10
96.0223519999999979
20
-151.1148379999999918
11
96.2128280000000018
21
-151.2100759999999866
0
LINE
8
BLACK
6
CONTINUOUS
10
96.2128280000000018
20
-151.2100759999999866
11
96.3080659999999966
21
-151.3053139999999814
0
LINE
8
BLACK
6
CONTINUOUS
10
96.3080659999999966
20
-151.3053139999999814
11
96.4033039999999914
21
-151.4957899999999995
0
LINE
8
BLACK
6
CONTINUOUS
10
96.4033039999999914
20
-151.4957899999999995
11
96.4985420000000005
21
-151.8767420000000072
0
LINE
8
BLACK
6
CONTINUOUS
10
96.4985420000000005
20
-151.8767420000000072
11
96.4985420000000005
21
-152.3529330000000073
0
LINE
8
BLACK
6
CONTINUOUS
10
96.4985420000000005
20
-152.3529330000000073
11
96.4033039999999914
21
-152.7338849999999866
0
LINE
8
BLACK
6
CONTINUOUS
10
96.4033039999999914
20
-152.7338849999999866
11
96.3080659999999966
21
-152.9243610000000047
0
LINE
8
BLACK
6
CONTINUOUS
10
96.3080659999999966
20
-152.9243610000000047
11
96.2128280000000018
21
-153.019599999999997
0
LINE
8
BLACK
6
CONTINUOUS
10
96.2128280000000018
20
-153.019599999999997
11
96.0223519999999979
21
-153.1148379999999918
0
LINE
8
BLACK
6
CONTINUOUS
10
96.0223519999999979
20
-153.1148379999999918
11
95.8318749999999966
21
-153.1148379999999918
0
LINE
8
BLACK
6
CONTINUOUS
10
95.8318749999999966
20
-153.1148379999999918
11
95.6413989999999927
21
-153.019599999999997
0
LINE
8
BLACK
6
CONTINUOUS
10
95.6413989999999927
20
-153.019599999999997
11
95.5461609999999979
21
-152.9243610000000047
0
LINE
8
BLACK
6
CONTINUOUS
10
95.5461609999999979
20
-152.9243610000000047
11
95.4509229999999889
21
-152.7338849999999866
0
LINE
8
BLACK
6
CONTINUOUS
10
95.4509229999999889
20
-152.7338849999999866
11
95.355684999999994
21
-152.3529330000000073
0
LINE
8
BLACK
6
CONTINUOUS
10
95.355684999999994
20
-152.3529330000000073
11
95.355684999999994
21
-151.8767420000000072
0
LINE
8
BLACK
6
CONTINUOUS
10
95.355684999999994
20
-151.8767420000000072
11
95.4509229999999889
21
-151.4957899999999995
0
LINE
8
BLACK
6
CONTINUOUS
10
95.4509229999999889
20
-151.4957899999999995
11
95.5461609999999979
21
-151.3053139999999814
0
LINE
8
BLACK
6
CONTINUOUS
10
95.5461609999999979
20
-151.3053139999999814
11
95.6413989999999927
21
-151.2100759999999866
0
LINE
8
BLACK
6
CONTINUOUS
10
95.6413989999999927
20
-151.2100759999999866
11
95.8318749999999966
21
-151.1148379999999918
0
LINE
8
BLACK
6
CONTINUOUS
10
97.7366370000000018
20
-151.1148379999999918
11
97.9271139999999889
21
-151.1148379999999918
0
LINE
8
BLACK
6
CONTINUOUS
10
97.9271139999999889
20
-151.1148379999999918
11
98.1175899999999928
21
-151.2100759999999866
0
LINE
8
BLACK
6
CONTINUOUS
10
98.1175899999999928
20
-151.2100759999999866
11
98.2128280000000018
21
-151.3053139999999814
0
LINE
8
BLACK
6
CONTINUOUS
10
98.2128280000000018
20
-151.3053139999999814
11
98.3080659999999966
21
-151.4957899999999995
0
LINE
8
BLACK
6
CONTINUOUS
10
98.3080659999999966
20
-151.4957899999999995
11
98.4033039999999914
21
-151.8767420000000072
0
LINE
8
BLACK
6
CONTINUOUS
10
98.4033039999999914
20
-151.8767420000000072
11
98.4033039999999914
21
-152.3529330000000073
0
LINE
8
BLACK
6
CONTINUOUS
10
98.4033039999999914
20
-152.3529330000000073
11
98.3080659999999966
21
-152.7338849999999866
0
LINE
8
BLACK
6
CONTINUOUS
10
98.3080659999999966
20
-152.7338849999999866
11
98.2128280000000018
21
-152.9243610000000047
0
LINE
8
BLACK
6
CONTINUOUS
10
98.2128280000000018
20
-152.9243610000000047
11
98.1175899999999928
21
-153.019599999999997
0
LINE
8
BLACK
6
CONTINUOUS
10
98.1175899999999928
20
-153.019599999999997
11
97.9271139999999889
21
-153.1148379999999918
0
LINE
8
BLACK
6
CONTINUOUS
10
97.9271139999999889
20
-153.1148379999999918
11
97.7366370000000018
21
-153.1148379999999918
0
LINE
8
BLACK
6
CONTINUOUS
10
97.7366370000000018
20
-153.1148379999999918
11
97.5461609999999979
21
-153.019599999999997
0
LINE
8
BLACK
6
CONTINUOUS
10
97.5461609999999979
20
-153.019599999999997
11
97.4509229999999889
21
-152.9243610000000047
0
LINE
8
BLACK
6
CONTINUOUS
10
97.4509229999999889
20
-152.9243610000000047
11
97.355684999999994
21
-152.7338849999999866
0
LINE
8
BLACK
6
CONTINUOUS
10
97.355684999999994
20
-152.7338849999999866
11
97.2604469999999992
21
-152.3529330000000073
0
LINE
8
BLACK
6
CONTINUOUS
10
97.2604469999999992
20
-152.3529330000000073
11
97.2604469999999992
21
-151.8767420000000072
0
LINE
8
BLACK
6
CONTINUOUS
10
97.2604469999999992
20
-151.8767420000000072
11
97.355684999999994
21
-151.4957899999999995
0
LINE
8
BLACK
6
CONTINUOUS
10
97.355684999999994
20
-151.4957899999999995
11
97.4509229999999889
21
-151.3053139999999814
0
LINE
8
BLACK
6
CONTINUOUS
10
97.4509229999999889
20
-151.3053139999999814
11
97.5461609999999979
21
-151.2100759999999866
0
LINE
8
BLACK
6
CONTINUOUS
10
97.5461609999999979
20
-151.2100759999999866
11
97.7366370000000018
21
-151.1148379999999918
0
LINE
8
BLACK
6
CONTINUOUS
10
99.2604469999999992
20
-153.1148379999999918
11
99.2604469999999992
21
-151.781503999999984
0
LINE
8
BLACK
6
CONTINUOUS
10
99.2604469999999992
20
-151.9719800000000021
11
99.355684999999994
21
-151.8767420000000072
0
LINE
8
BLACK
6
CONTINUOUS
10
99.355684999999994
20
-151.8767420000000072
11
99.5461609999999979
21
-151.781503999999984
0
LINE
8
BLACK
6
CONTINUOUS
10
99.5461609999999979
20
-151.781503999999984
11
99.8318759999999941
21
-151.781503999999984
0
LINE
8
BLACK
6
CONTINUOUS
10
99.8318759999999941
20
-151.781503999999984
11
100.0223519999999979
21
-151.8767420000000072
0
LINE
8
BLACK
6
CONTINUOUS
10
100.0223519999999979
20
-151.8767420000000072
11
100.1175899999999928
21
-152.0672189999999944
0
LINE
8
BLACK
6
CONTINUOUS
10
100.1175899999999928
20
-152.0672189999999944
11
100.1175899999999928
21
-153.1148379999999918
0
LINE
8
BLACK
6
CONTINUOUS
10
100.1175899999999928
20
-152.0672189999999944
11
100.2128280000000018
21
-151.8767420000000072
0
LINE
8
BLACK
6
CONTINUOUS
10
100.2128280000000018
20
-151.8767420000000072
11
100.4033039999999914
21
-151.781503999999984
0
LINE
8
BLACK
6
CONTINUOUS
10
100.4033039999999914
20
-151.781503999999984
11
100.6890179999999901
21
-151.781503999999984
0
LINE
8
BLACK
6
CONTINUOUS
10
100.6890179999999901
20
-151.781503999999984
11
100.8794949999999915
21
-151.8767420000000072
0
LINE
8
BLACK
6
CONTINUOUS
10
100.8794949999999915
20
-151.8767420000000072
11
100.9747330000000005
21
-152.0672189999999944
0
LINE
8
BLACK
6
CONTINUOUS
10
100.9747330000000005
20
-152.0672189999999944
11
100.9747330000000005
21
-153.1148379999999918
0
LINE
8
BLACK
6
CONTINUOUS
10
101.9271139999999889
20
-153.1148379999999918
11
101.9271139999999889
21
-151.781503999999984
0
LINE
8
BLACK
6
CONTINUOUS
10
101.9271139999999889
20
-151.9719800000000021
11
102.0223519999999979
21
-151.8767420000000072
0
LINE
8
BLACK
6
CONTINUOUS
10
102.0223519999999979
20
-151.8767420000000072
11
102.2128280000000018
21
-151.781503999999984
0
LINE
8
BLACK
6
CONTINUOUS
10
102.2128280000000018
20
-151.781503999999984
11
102.498542999999998
21
-151.781503999999984
0
LINE
8
BLACK
6
CONTINUOUS
10
102.498542999999998
20
-151.781503999999984
11
102.6890190000000018
21
-151.8767420000000072
0
LINE
8
BLACK
6
CONTINUOUS
10
102.6890190000000018
20
-151.8767420000000072
11
102.7842569999999967
21
-152.0672189999999944
0
LINE
8
BLACK
6
CONTINUOUS
10
102.7842569999999967
20
-152.0672189999999944
11
102.7842569999999967
21
-153.1148379999999918
0
LINE
8
BLACK
6
CONTINUOUS
10
102.7842569999999967
20
-152.0672189999999944
11
102.8794949999999915
21
-151.8767420000000072
0
LINE
8
BLACK
6
CONTINUOUS
10
102.8794949999999915
20
-151.8767420000000072
11
103.0699709999999953
21
-151.781503999999984
0
LINE
8
BLACK
6
CONTINUOUS
10
103.0699709999999953
20
-151.781503999999984
11
103.355684999999994
21
-151.781503999999984
0
LINE
8
BLACK
6
CONTINUOUS
10
103.355684999999994
20
-151.781503999999984
11
103.5461619999999954
21
-151.8767420000000072
0
LINE
8
BLACK
6
CONTINUOUS
10
103.5461619999999954
20
-151.8767420000000072
11
103.6413999999999902
21
-152.0672189999999944
0
LINE
8
BLACK
6
CONTINUOUS
10
103.6413999999999902
20
-152.0672189999999944
11
103.6413999999999902
21
-153.1148379999999918
0
LINE
8
BLACK
6
CONTINUOUS
10
107.5461619999999954
20
-151.019599999999997
11
105.8318769999999915
21
-153.5910279999999943
0
LINE
8
BLACK
6
CONTINUOUS
10
110.1175909999999902
20
-151.1148379999999918
11
110.3080679999999916
21
-151.1148379999999918
0
LINE
8
BLACK
6
CONTINUOUS
10
110.3080679999999916
20
-151.1148379999999918
11
110.4985439999999954
21
-151.2100759999999866
0
LINE
8
BLACK
6
CONTINUOUS
10
110.4985439999999954
20
-151.2100759999999866
11
110.5937819999999903
21
-151.3053139999999814
0
LINE
8
BLACK
6
CONTINUOUS
10
110.5937819999999903
20
-151.3053139999999814
11
110.6890199999999993
21
-151.4957899999999995
0
LINE
8
BLACK
6
CONTINUOUS
10
110.6890199999999993
20
-151.4957899999999995
11
110.7842579999999941
21
-151.8767420000000072
0
LINE
8
BLACK
6
CONTINUOUS
10
110.7842579999999941
20
-151.8767420000000072
11
110.7842579999999941
21
-152.3529330000000073
0
LINE
8
BLACK
6
CONTINUOUS
10
110.7842579999999941
20
-152.3529330000000073
11
110.6890199999999993
21
-152.7338849999999866
0
LINE
8
BLACK
6
CONTINUOUS
10
110.6890199999999993
20
-152.7338849999999866
11
110.5937819999999903
21
-152.9243610000000047
0
LINE
8
BLACK
6
CONTINUOUS
10
110.5937819999999903
20
-152.9243610000000047
11
110.4985439999999954
21
-153.019599999999997
0
LINE
8
BLACK
6
CONTINUOUS
10
110.4985439999999954
20
-153.019599999999997
11
110.3080679999999916
21
-153.1148379999999918
0
LINE
8
BLACK
6
CONTINUOUS
10
110.3080679999999916
20
-153.1148379999999918
11
110.1175909999999902
21
-153.1148379999999918
0
LINE
8
BLACK
6
CONTINUOUS
10
110.1175909999999902
20
-153.1148379999999918
11
109.9271150000000006
21
-153.019599999999997
0
LINE
8
BLACK
6
CONTINUOUS
10
109.9271150000000006
20
-153.019599999999997
11
109.8318769999999915
21
-152.9243610000000047
0
LINE
8
BLACK
6
CONTINUOUS
10
109.8318769999999915
20
-152.9243610000000047
11
109.7366389999999967
21
-152.7338849999999866
0
LINE
8
BLACK
6
CONTINUOUS
10
109.7366389999999967
20
-152.7338849999999866
11
109.6414010000000019
21
-152.3529330000000073
0
LINE
8
BLACK
6
CONTINUOUS
10
109.6414010000000019
20
-152.3529330000000073
11
109.6414010000000019
21
-151.8767420000000072
0
LINE
8
BLACK
6
CONTINUOUS
10
109.6414010000000019
20
-151.8767420000000072
11
109.7366389999999967
21
-151.4957899999999995
0
LINE
8
BLACK
6
CONTINUOUS
10
109.7366389999999967
20
-151.4957899999999995
11
109.8318769999999915
21
-151.3053139999999814
0
LINE
8
BLACK
6
CONTINUOUS
10
109.8318769999999915
20
-151.3053139999999814
11
109.9271150000000006
21
-151.2100759999999866
0
LINE
8
BLACK
6
CONTINUOUS
10
109.9271150000000006
20
-151.2100759999999866
11
110.1175909999999902
21
-151.1148379999999918
0
LINE
8
BLACK
6
CONTINUOUS
10
111.6414010000000019
20
-152.9243610000000047
11
111.7366389999999967
21
-153.019599999999997
0
LINE
8
BLACK
6
CONTINUOUS
10
111.7366389999999967
20
-153.019599999999997
11
111.6414010000000019
21
-153.1148379999999918
0
LINE
8
BLACK
6
CONTINUOUS
10
111.6414010000000019
20
-153.1148379999999918
11
111.5461629999999928
21
-153.019599999999997
0
LINE
8
BLACK
6
CONTINUOUS
10
111.5461629999999928
20
-153.019599999999997
11
111.6414010000000019
21
-152.9243610000000047
0
LINE
8
BLACK
6
CONTINUOUS
10
111.6414010000000019
20
-152.9243610000000047
11
111.6414010000000019
21
-153.1148379999999918
0
LINE
8
BLACK
6
CONTINUOUS
10
113.6414010000000019
20
-153.1148379999999918
11
112.4985439999999954
21
-153.1148379999999918
0
LINE
8
BLACK
6
CONTINUOUS
10
113.0699719999999928
20
-153.1148379999999918
11
113.0699719999999928
21
-151.1148379999999918
0
LINE
8
BLACK
6
CONTINUOUS
10
113.0699719999999928
20
-151.1148379999999918
11
112.879495999999989
21
-151.4005520000000047
0
LINE
8
BLACK
6
CONTINUOUS
10
112.879495999999989
20
-151.4005520000000047
11
112.6890199999999993
21
-151.5910279999999943
0
LINE
8
BLACK
6
CONTINUOUS
10
112.6890199999999993
20
-151.5910279999999943
11
112.4985439999999954
21
-151.6862659999999892
0
LINE
8
BLACK
6
CONTINUOUS
10
114.4033060000000006
20
-151.3053139999999814
11
114.4985439999999954
21
-151.2100759999999866
0
LINE
8
BLACK
6
CONTINUOUS
10
114.4985439999999954
20
-151.2100759999999866
11
114.6890199999999993
21
-151.1148379999999918
0
LINE
8
BLACK
6
CONTINUOUS
10
114.6890199999999993
20
-151.1148379999999918
11
115.1652109999999993
21
-151.1148379999999918
0
LINE
8
BLACK
6
CONTINUOUS
10
115.1652109999999993
20
-151.1148379999999918
11
115.355686999999989
21
-151.2100759999999866
0
LINE
8
BLACK
6
CONTINUOUS
10
115.355686999999989
20
-151.2100759999999866
11
115.450924999999998
21
-151.3053139999999814
0
LINE
8
BLACK
6
CONTINUOUS
10
115.450924999999998
20
-151.3053139999999814
11
115.5461629999999928
21
-151.4957899999999995
0
LINE
8
BLACK
6
CONTINUOUS
10
115.5461629999999928
20
-151.4957899999999995
11
115.5461629999999928
21
-151.6862659999999892
0
LINE
8
BLACK
6
CONTINUOUS
10
115.5461629999999928
20
-151.6862659999999892
11
115.450924999999998
21
-151.9719800000000021
0
LINE
8
BLACK
6
CONTINUOUS
10
115.450924999999998
20
-151.9719800000000021
11
114.3080679999999916
21
-153.1148379999999918
0
LINE
8
BLACK
6
CONTINUOUS
10
114.3080679999999916
20
-153.1148379999999918
11
115.5461629999999928
21
-153.1148379999999918
0
LINE
8
BLACK
6
CONTINUOUS
10
117.2604489999999942
20
-151.1148379999999918
11
116.879495999999989
21
-151.1148379999999918
0
LINE
8
BLACK
6
CONTINUOUS
10
116.879495999999989
20
-151.1148379999999918
11
116.6890199999999993
21
-151.2100759999999866
0
LINE
8
BLACK
6
CONTINUOUS
10
116.6890199999999993
20
-151.2100759999999866
11
116.5937819999999903
21
-151.3053139999999814
0
LINE
8
BLACK
6
CONTINUOUS
10
116.5937819999999903
20
-151.3053139999999814
11
116.4033060000000006
21
-151.5910279999999943
0
LINE
8
BLACK
6
CONTINUOUS
10
116.4033060000000006
20
-151.5910279999999943
11
116.3080679999999916
21
-151.9719800000000021
0
LINE
8
BLACK
6
CONTINUOUS
10
116.3080679999999916
20
-151.9719800000000021
11
116.3080679999999916
21
-152.7338849999999866
0
LINE
8
BLACK
6
CONTINUOUS
10
116.3080679999999916
20
-152.7338849999999866
11
116.4033060000000006
21
-152.9243610000000047
0
LINE
8
BLACK
6
CONTINUOUS
10
116.4033060000000006
20
-152.9243610000000047
11
116.4985439999999954
21
-153.019599999999997
0
LINE
8
BLACK
6
CONTINUOUS
10
116.4985439999999954
20
-153.019599999999997
11
116.6890199999999993
21
-153.1148379999999918
0
LINE
8
BLACK
6
CONTINUOUS
10
116.6890199999999993
20
-153.1148379999999918
11
117.0699729999999903
21
-153.1148379999999918
0
LINE
8
BLACK
6
CONTINUOUS
10
117.0699729999999903
20
-153.1148379999999918
11
117.2604489999999942
21
-153.019599999999997
0
LINE
8
BLACK
6
CONTINUOUS
10
117.2604489999999942
20
-153.019599999999997
11
117.355686999999989
21
-152.9243610000000047
0
LINE
8
BLACK
6
CONTINUOUS
10
117.355686999999989
20
-152.9243610000000047
11
117.450924999999998
21
-152.7338849999999866
0
LINE
8
BLACK
6
CONTINUOUS
10
117.450924999999998
20
-152.7338849999999866
11
117.450924999999998
21
-152.257694999999984
0
LINE
8
BLACK
6
CONTINUOUS
10
117.450924999999998
20
-152.257694999999984
11
117.355686999999989
21
-152.0672189999999944
0
LINE
8
BLACK
6
CONTINUOUS
10
117.355686999999989
20
-152.0672189999999944
11
117.2604489999999942
21
-151.9719800000000021
0
LINE
8
BLACK
6
CONTINUOUS
10
117.2604489999999942
20
-151.9719800000000021
11
117.0699729999999903
21
-151.8767420000000072
0
LINE
8
BLACK
6
CONTINUOUS
10
117.0699729999999903
20
-151.8767420000000072
11
116.6890199999999993
21
-151.8767420000000072
0
LINE
8
BLACK
6
CONTINUOUS
10
116.6890199999999993
20
-151.8767420000000072
11
116.4985439999999954
21
-151.9719800000000021
0
LINE
8
BLACK
6
CONTINUOUS
10
116.4985439999999954
20
-151.9719800000000021
11
116.4033060000000006
21
-152.0672189999999944
0
LINE
8
BLACK
6
CONTINUOUS
10
116.4033060000000006
20
-152.0672189999999944
11
116.3080679999999916
21
-152.257694999999984
0
LINE
8
BLACK
6
CONTINUOUS
10
118.6890199999999993
20
-151.1148379999999918
11
118.8794970000000006
21
-151.1148379999999918
0
LINE
8
BLACK
6
CONTINUOUS
10
118.8794970000000006
20
-151.1148379999999918
11
119.0699729999999903
21
-151.2100759999999866
0
LINE
8
BLACK
6
CONTINUOUS
10
119.0699729999999903
20
-151.2100759999999866
11
119.1652109999999993
21
-151.3053139999999814
0
LINE
8
BLACK
6
CONTINUOUS
10
119.1652109999999993
20
-151.3053139999999814
11
119.2604489999999942
21
-151.4957899999999995
0
LINE
8
BLACK
6
CONTINUOUS
10
119.2604489999999942
20
-151.4957899999999995
11
119.355686999999989
21
-151.8767420000000072
0
LINE
8
BLACK
6
CONTINUOUS
10
119.355686999999989
20
-151.8767420000000072
11
119.355686999999989
21
-152.3529330000000073
0
LINE
8
BLACK
6
CONTINUOUS
10
119.355686999999989
20
-152.3529330000000073
11
119.2604489999999942
21
-152.7338849999999866
0
LINE
8
BLACK
6
CONTINUOUS
10
119.2604489999999942
20
-152.7338849999999866
11
119.1652109999999993
21
-152.9243610000000047
0
LINE
8
BLACK
6
CONTINUOUS
10
119.1652109999999993
20
-152.9243610000000047
11
119.0699729999999903
21
-153.019599999999997
0
LINE
8
BLACK
6
CONTINUOUS
10
119.0699729999999903
20
-153.019599999999997
11
118.8794970000000006
21
-153.1148379999999918
0
LINE
8
BLACK
6
CONTINUOUS
10
118.8794970000000006
20
-153.1148379999999918
11
118.6890199999999993
21
-153.1148379999999918
0
LINE
8
BLACK
6
CONTINUOUS
10
118.6890199999999993
20
-153.1148379999999918
11
118.4985439999999954
21
-153.019599999999997
0
LINE
8
BLACK
6
CONTINUOUS
10
118.4985439999999954
20
-153.019599999999997
11
118.4033060000000006
21
-152.9243610000000047
0
LINE
8
BLACK
6
CONTINUOUS
10
118.4033060000000006
20
-152.9243610000000047
11
118.3080679999999916
21
-152.7338849999999866
0
LINE
8
BLACK
6
CONTINUOUS
10
118.3080679999999916
20
-152.7338849999999866
11
118.2128299999999967
21
-152.3529330000000073
0
LINE
8
BLACK
6
CONTINUOUS
10
118.2128299999999967
20
-152.3529330000000073
11
118.2128299999999967
21
-151.8767420000000072
0
LINE
8
BLACK
6
CONTINUOUS
10
118.2128299999999967
20
-151.8767420000000072
11
118.3080679999999916
21
-151.4957899999999995
0
LINE
8
BLACK
6
CONTINUOUS
10
118.3080679999999916
20
-151.4957899999999995
11
118.4033060000000006
21
-151.3053139999999814
0
LINE
8
BLACK
6
CONTINUOUS
10
118.4033060000000006
20
-151.3053139999999814
11
118.4985439999999954
21
-151.2100759999999866
0
LINE
8
BLACK
6
CONTINUOUS
10
118.4985439999999954
20
-151.2100759999999866
11
118.6890199999999993
21
-151.1148379999999918
0
LINE
8
BLACK
6
CONTINUOUS
10
120.1175919999999877
20
-151.1148379999999918
11
120.1175919999999877
21
-151.4957899999999995
0
LINE
8
BLACK
6
CONTINUOUS
10
120.8794970000000006
20
-151.1148379999999918
11
120.8794970000000006
21
-151.4957899999999995
0
LINE
8
BLACK
6
CONTINUOUS
10
123.8318790000000007
20
-153.8767420000000072
11
123.7366399999999942
21
-153.781503999999984
0
LINE
8
BLACK
6
CONTINUOUS
10
123.7366399999999942
20
-153.781503999999984
11
123.5461639999999903
21
-153.4957899999999995
0
LINE
8
BLACK
6
CONTINUOUS
10
123.5461639999999903
20
-153.4957899999999995
11
123.4509259999999955
21
-153.3053139999999814
0
LINE
8
BLACK
6
CONTINUOUS
10
123.4509259999999955
20
-153.3053139999999814
11
123.3556880000000007
21
-153.019599999999997
0
LINE
8
BLACK
6
CONTINUOUS
10
123.3556880000000007
20
-153.019599999999997
11
123.2604499999999916
21
-152.5434089999999969
0
LINE
8
BLACK
6
CONTINUOUS
10
123.2604499999999916
20
-152.5434089999999969
11
123.2604499999999916
21
-152.1624569999999892
0
LINE
8
BLACK
6
CONTINUOUS
10
123.2604499999999916
20
-152.1624569999999892
11
123.3556880000000007
21
-151.6862659999999892
0
LINE
8
BLACK
6
CONTINUOUS
10
123.3556880000000007
20
-151.6862659999999892
11
123.4509259999999955
21
-151.4005520000000047
0
LINE
8
BLACK
6
CONTINUOUS
10
123.4509259999999955
20
-151.4005520000000047
11
123.5461639999999903
21
-151.2100759999999866
0
LINE
8
BLACK
6
CONTINUOUS
10
123.5461639999999903
20
-151.2100759999999866
11
123.7366399999999942
21
-150.9243610000000047
0
LINE
8
BLACK
6
CONTINUOUS
10
123.7366399999999942
20
-150.9243610000000047
11
123.8318790000000007
21
-150.8291229999999814
0
LINE
8
BLACK
6
CONTINUOUS
10
125.4509259999999955
20
-151.781503999999984
11
125.4509259999999955
21
-153.1148379999999918
0
LINE
8
BLACK
6
CONTINUOUS
10
124.9747349999999955
20
-151.019599999999997
11
124.4985449999999929
21
-152.4481710000000021
0
LINE
8
BLACK
6
CONTINUOUS
10
124.4985449999999929
20
-152.4481710000000021
11
125.7366399999999942
21
-152.4481710000000021
0
LINE
8
BLACK
6
CONTINUOUS
10
128.0223550000000046
20
-153.1148379999999918
11
128.0223550000000046
21
-151.1148379999999918
0
LINE
8
BLACK
6
CONTINUOUS
10
128.8794979999999839
20
-153.1148379999999918
11
128.8794979999999839
21
-152.0672189999999944
0
LINE
8
BLACK
6
CONTINUOUS
10
128.8794979999999839
20
-152.0672189999999944
11
128.7842599999999891
21
-151.8767420000000072
0
LINE
8
BLACK
6
CONTINUOUS
10
128.7842599999999891
20
-151.8767420000000072
11
128.5937839999999994
21
-151.781503999999984
0
LINE
8
BLACK
6
CONTINUOUS
10
128.5937839999999994
20
-151.781503999999984
11
128.308068999999989
21
-151.781503999999984
0
LINE
8
BLACK
6
CONTINUOUS
10
128.308068999999989
20
-151.781503999999984
11
128.1175929999999994
21
-151.8767420000000072
0
LINE
8
BLACK
6
CONTINUOUS
10
128.1175929999999994
20
-151.8767420000000072
11
128.0223550000000046
21
-151.9719800000000021
0
LINE
8
BLACK
6
CONTINUOUS
10
130.1175929999999994
20
-153.1148379999999918
11
129.9271169999999813
21
-153.019599999999997
0
LINE
8
BLACK
6
CONTINUOUS
10
129.9271169999999813
20
-153.019599999999997
11
129.8318789999999865
21
-152.9243610000000047
0
LINE
8
BLACK
6
CONTINUOUS
10
129.8318789999999865
20
-152.9243610000000047
11
129.7366409999999917
21
-152.7338849999999866
0
LINE
8
BLACK
6
CONTINUOUS
10
129.7366409999999917
20
-152.7338849999999866
11
129.7366409999999917
21
-152.1624569999999892
0
LINE
8
BLACK
6
CONTINUOUS
10
129.7366409999999917
20
-152.1624569999999892
11
129.8318789999999865
21
-151.9719800000000021
0
LINE
8
BLACK
6
CONTINUOUS
10
129.8318789999999865
20
-151.9719800000000021
11
129.9271169999999813
21
-151.8767420000000072
0
LINE
8
BLACK
6
CONTINUOUS
10
129.9271169999999813
20
-151.8767420000000072
11
130.1175929999999994
21
-151.781503999999984
0
LINE
8
BLACK
6
CONTINUOUS
10
130.1175929999999994
20
-151.781503999999984
11
130.4033079999999813
21
-151.781503999999984
0
LINE
8
BLACK
6
CONTINUOUS
10
130.4033079999999813
20
-151.781503999999984
11
130.5937839999999994
21
-151.8767420000000072
0
LINE
8
BLACK
6
CONTINUOUS
10
130.5937839999999994
20
-151.8767420000000072
11
130.6890219999999943
21
-151.9719800000000021
0
LINE
8
BLACK
6
CONTINUOUS
10
130.6890219999999943
20
-151.9719800000000021
11
130.7842599999999891
21
-152.1624569999999892
0
LINE
8
BLACK
6
CONTINUOUS
10
130.7842599999999891
20
-152.1624569999999892
11
130.7842599999999891
21
-152.7338849999999866
0
LINE
8
BLACK
6
CONTINUOUS
10
130.7842599999999891
20
-152.7338849999999866
11
130.6890219999999943
21
-152.9243610000000047
0
LINE
8
BLACK
6
CONTINUOUS
10
130.6890219999999943
20
-152.9243610000000047
11
130.5937839999999994
21
-153.019599999999997
0
LINE
8
BLACK
6
CONTINUOUS
10
130.5937839999999994
20
-153.019599999999997
11
130.4033079999999813
21
-153.1148379999999918
0
LINE
8
BLACK
6
CONTINUOUS
10
130.4033079999999813
20
-153.1148379999999918
11
130.1175929999999994
21
-153.1148379999999918
0
LINE
8
BLACK
6
CONTINUOUS
10
131.9271169999999813
20
-153.1148379999999918
11
131.7366409999999917
21
-153.019599999999997
0
LINE
8
BLACK
6
CONTINUOUS
10
131.7366409999999917
20
-153.019599999999997
11
131.6414029999999968
21
-152.8291229999999814
0
LINE
8
BLACK
6
CONTINUOUS
10
131.6414029999999968
20
-152.8291229999999814
11
131.6414029999999968
21
-151.1148379999999918
0
LINE
8
BLACK
6
CONTINUOUS
10
133.4509270000000072
20
-153.019599999999997
11
133.2604509999999891
21
-153.1148379999999918
0
LINE
8
BLACK
6
CONTINUOUS
10
133.2604509999999891
20
-153.1148379999999918
11
132.8794979999999839
21
-153.1148379999999918
0
LINE
8
BLACK
6
CONTINUOUS
10
132.8794979999999839
20
-153.1148379999999918
11
132.6890219999999943
21
-153.019599999999997
0
LINE
8
BLACK
6
CONTINUOUS
10
132.6890219999999943
20
-153.019599999999997
11
132.5937839999999994
21
-152.8291229999999814
0
LINE
8
BLACK
6
CONTINUOUS
10
132.5937839999999994
20
-152.8291229999999814
11
132.5937839999999994
21
-152.0672189999999944
0
LINE
8
BLACK
6
CONTINUOUS
10
132.5937839999999994
20
-152.0672189999999944
11
132.6890219999999943
21
-151.8767420000000072
0
LINE
8
BLACK
6
CONTINUOUS
10
132.6890219999999943
20
-151.8767420000000072
11
132.8794979999999839
21
-151.781503999999984
0
LINE
8
BLACK
6
CONTINUOUS
10
132.8794979999999839
20
-151.781503999999984
11
133.2604509999999891
21
-151.781503999999984
0
LINE
8
BLACK
6
CONTINUOUS
10
133.2604509999999891
20
-151.781503999999984
11
133.4509270000000072
21
-151.8767420000000072
0
LINE
8
BLACK
6
CONTINUOUS
10
133.4509270000000072
20
-151.8767420000000072
11
133.546165000000002
21
-152.0672189999999944
0
LINE
8
BLACK
6
CONTINUOUS
10
133.546165000000002
20
-152.0672189999999944
11
133.546165000000002
21
-152.257694999999984
0
LINE
8
BLACK
6
CONTINUOUS
10
133.546165000000002
20
-152.257694999999984
11
132.5937839999999994
21
-152.4481710000000021
0
LINE
8
BLACK
6
CONTINUOUS
10
134.3080699999999865
20
-153.019599999999997
11
134.4985460000000046
21
-153.1148379999999918
0
LINE
8
BLACK
6
CONTINUOUS
10
134.4985460000000046
20
-153.1148379999999918
11
134.8794979999999839
21
-153.1148379999999918
0
LINE
8
BLACK
6
CONTINUOUS
10
134.8794979999999839
20
-153.1148379999999918
11
135.0699749999999995
21
-153.019599999999997
0
LINE
8
BLACK
6
CONTINUOUS
10
135.0699749999999995
20
-153.019599999999997
11
135.1652129999999943
21
-152.8291229999999814
0
LINE
8
BLACK
6
CONTINUOUS
10
135.1652129999999943
20
-152.8291229999999814
11
135.1652129999999943
21
-152.7338849999999866
0
LINE
8
BLACK
6
CONTINUOUS
10
135.1652129999999943
20
-152.7338849999999866
11
135.0699749999999995
21
-152.5434089999999969
0
LINE
8
BLACK
6
CONTINUOUS
10
135.0699749999999995
20
-152.5434089999999969
11
134.8794979999999839
21
-152.4481710000000021
0
LINE
8
BLACK
6
CONTINUOUS
10
134.8794979999999839
20
-152.4481710000000021
11
134.5937839999999994
21
-152.4481710000000021
0
LINE
8
BLACK
6
CONTINUOUS
10
134.5937839999999994
20
-152.4481710000000021
11
134.4033079999999813
21
-152.3529330000000073
0
LINE
8
BLACK
6
CONTINUOUS
10
134.4033079999999813
20
-152.3529330000000073
11
134.3080699999999865
21
-152.1624569999999892
0
LINE
8
BLACK
6
CONTINUOUS
10
134.3080699999999865
20
-152.1624569999999892
11
134.3080699999999865
21
-152.0672189999999944
0
LINE
8
BLACK
6
CONTINUOUS
10
134.3080699999999865
20
-152.0672189999999944
11
134.4033079999999813
21
-151.8767420000000072
0
LINE
8
BLACK
6
CONTINUOUS
10
134.4033079999999813
20
-151.8767420000000072
11
134.5937839999999994
21
-151.781503999999984
0
LINE
8
BLACK
6
CONTINUOUS
10
134.5937839999999994
20
-151.781503999999984
11
134.8794979999999839
21
-151.781503999999984
0
LINE
8
BLACK
6
CONTINUOUS
10
134.8794979999999839
20
-151.781503999999984
11
135.0699749999999995
21
-151.8767420000000072
0
LINE
8
BLACK
6
CONTINUOUS
10
135.831879999999984
20
-153.8767420000000072
11
135.9271180000000072
21
-153.781503999999984
0
LINE
8
BLACK
6
CONTINUOUS
10
135.9271180000000072
20
-153.781503999999984
11
136.1175939999999969
21
-153.4957899999999995
0
LINE
8
BLACK
6
CONTINUOUS
10
136.1175939999999969
20
-153.4957899999999995
11
136.2128319999999917
21
-153.3053139999999814
0
LINE
8
BLACK
6
CONTINUOUS
10
136.2128319999999917
20
-153.3053139999999814
11
136.3080699999999865
21
-153.019599999999997
0
LINE
8
BLACK
6
CONTINUOUS
10
136.3080699999999865
20
-153.019599999999997
11
136.4033079999999813
21
-152.5434089999999969
0
LINE
8
BLACK
6
CONTINUOUS
10
136.4033079999999813
20
-152.5434089999999969
11
136.4033079999999813
21
-152.1624569999999892
0
LINE
8
BLACK
6
CONTINUOUS
10
136.4033079999999813
20
-152.1624569999999892
11
136.3080699999999865
21
-151.6862659999999892
0
LINE
8
BLACK
6
CONTINUOUS
10
136.3080699999999865
20
-151.6862659999999892
11
136.2128319999999917
21
-151.4005520000000047
0
LINE
8
BLACK
6
CONTINUOUS
10
136.2128319999999917
20
-151.4005520000000047
11
136.1175939999999969
21
-151.2100759999999866
0
LINE
8
BLACK
6
CONTINUOUS
10
136.1175939999999969
20
-151.2100759999999866
11
135.9271180000000072
21
-150.9243610000000047
0
LINE
8
BLACK
6
CONTINUOUS
10
135.9271180000000072
20
-150.9243610000000047
11
135.831879999999984
21
-150.8291229999999814
0
LINE
8
BLACK
6
CONTINUOUS
10
139.4509280000000047
20
-153.8767420000000072
11
139.3556889999999839
21
-153.781503999999984
0
LINE
8
BLACK
6
CONTINUOUS
10
139.3556889999999839
20
-153.781503999999984
11
139.1652129999999943
21
-153.4957899999999995
0
LINE
8
BLACK
6
CONTINUOUS
10
139.1652129999999943
20
-153.4957899999999995
11
139.0699749999999995
21
-153.3053139999999814
0
LINE
8
BLACK
6
CONTINUOUS
10
139.0699749999999995
20
-153.3053139999999814
11
138.9747370000000046
21
-153.019599999999997
0
LINE
8
BLACK
6
CONTINUOUS
10
138.9747370000000046
20
-153.019599999999997
11
138.8794989999999814
21
-152.5434089999999969
0
LINE
8
BLACK
6
CONTINUOUS
10
138.8794989999999814
20
-152.5434089999999969
11
138.8794989999999814
21
-152.1624569999999892
0
LINE
8
BLACK
6
CONTINUOUS
10
138.8794989999999814
20
-152.1624569999999892
11
138.9747370000000046
21
-151.6862659999999892
0
LINE
8
BLACK
6
CONTINUOUS
10
138.9747370000000046
20
-151.6862659999999892
11
139.0699749999999995
21
-151.4005520000000047
0
LINE
8
BLACK
6
CONTINUOUS
10
139.0699749999999995
20
-151.4005520000000047
11
139.1652129999999943
21
-151.2100759999999866
0
LINE
8
BLACK
6
CONTINUOUS
10
139.1652129999999943
20
-151.2100759999999866
11
139.3556889999999839
21
-150.9243610000000047
0
LINE
8
BLACK
6
CONTINUOUS
10
139.3556889999999839
20
-150.9243610000000047
11
139.4509280000000047
21
-150.8291229999999814
0
LINE
8
BLACK
6
CONTINUOUS
10
140.2128319999999917
20
-151.781503999999984
11
140.2128319999999917
21
-153.1148379999999918
0
LINE
8
BLACK
6
CONTINUOUS
10
140.2128319999999917
20
-151.9719800000000021
11
140.3080699999999865
21
-151.8767420000000072
0
LINE
8
BLACK
6
CONTINUOUS
10
140.3080699999999865
20
-151.8767420000000072
11
140.4985460000000046
21
-151.781503999999984
0
LINE
8
BLACK
6
CONTINUOUS
10
140.4985460000000046
20
-151.781503999999984
11
140.7842609999999866
21
-151.781503999999984
0
LINE
8
BLACK
6
CONTINUOUS
10
140.7842609999999866
20
-151.781503999999984
11
140.9747370000000046
21
-151.8767420000000072
0
LINE
8
BLACK
6
CONTINUOUS
10
140.9747370000000046
20
-151.8767420000000072
11
141.0699749999999995
21
-152.0672189999999944
0
LINE
8
BLACK
6
CONTINUOUS
10
141.0699749999999995
20
-152.0672189999999944
11
141.0699749999999995
21
-153.1148379999999918
0
LINE
8
BLACK
6
CONTINUOUS
10
142.3080699999999865
20
-153.1148379999999918
11
142.1175939999999969
21
-153.019599999999997
0
LINE
8
BLACK
6
CONTINUOUS
10
142.1175939999999969
20
-153.019599999999997
11
142.022356000000002
21
-152.9243610000000047
0
LINE
8
BLACK
6
CONTINUOUS
10
142.022356000000002
20
-152.9243610000000047
11
141.9271180000000072
21
-152.7338849999999866
0
LINE
8
BLACK
6
CONTINUOUS
10
141.9271180000000072
20
-152.7338849999999866
11
141.9271180000000072
21
-152.1624569999999892
0
LINE
8
BLACK
6
CONTINUOUS
10
141.9271180000000072
20
-152.1624569999999892
11
142.022356000000002
21
-151.9719800000000021
0
LINE
8
BLACK
6
CONTINUOUS
10
142.022356000000002
20
-151.9719800000000021
11
142.1175939999999969
21
-151.8767420000000072
0
LINE
8
BLACK
6
CONTINUOUS
10
142.1175939999999969
20
-151.8767420000000072
11
142.3080699999999865
21
-151.781503999999984
0
LINE
8
BLACK
6
CONTINUOUS
10
142.3080699999999865
20
-151.781503999999984
11
142.5937849999999969
21
-151.781503999999984
0
LINE
8
BLACK
6
CONTINUOUS
10
142.5937849999999969
20
-151.781503999999984
11
142.7842609999999866
21
-151.8767420000000072
0
LINE
8
BLACK
6
CONTINUOUS
10
142.7842609999999866
20
-151.8767420000000072
11
142.8794989999999814
21
-151.9719800000000021
0
LINE
8
BLACK
6
CONTINUOUS
10
142.8794989999999814
20
-151.9719800000000021
11
142.9747370000000046
21
-152.1624569999999892
0
LINE
8
BLACK
6
CONTINUOUS
10
142.9747370000000046
20
-152.1624569999999892
11
142.9747370000000046
21
-152.7338849999999866
0
LINE
8
BLACK
6
CONTINUOUS
10
142.9747370000000046
20
-152.7338849999999866
11
142.8794989999999814
21
-152.9243610000000047
0
LINE
8
BLACK
6
CONTINUOUS
10
142.8794989999999814
20
-152.9243610000000047
11
142.7842609999999866
21
-153.019599999999997
0
LINE
8
BLACK
6
CONTINUOUS
10
142.7842609999999866
20
-153.019599999999997
11
142.5937849999999969
21
-153.1148379999999918
0
LINE
8
BLACK
6
CONTINUOUS
10
142.5937849999999969
20
-153.1148379999999918
11
142.3080699999999865
21
-153.1148379999999918
0
LINE
8
BLACK
6
CONTINUOUS
10
143.5461659999999995
20
-151.781503999999984
11
144.3080699999999865
21
-151.781503999999984
0
LINE
8
BLACK
6
CONTINUOUS
10
143.831879999999984
20
-151.1148379999999918
11
143.831879999999984
21
-152.8291229999999814
0
LINE
8
BLACK
6
CONTINUOUS
10
143.831879999999984
20
-152.8291229999999814
11
143.9271180000000072
21
-153.019599999999997
0
LINE
8
BLACK
6
CONTINUOUS
10
143.9271180000000072
20
-153.019599999999997
11
144.1175939999999969
21
-153.1148379999999918
0
LINE
8
BLACK
6
CONTINUOUS
10
144.1175939999999969
20
-153.1148379999999918
11
144.3080699999999865
21
-153.1148379999999918
0
LINE
8
BLACK
6
CONTINUOUS
10
146.4985470000000021
20
-151.781503999999984
11
146.4985470000000021
21
-153.781503999999984
0
LINE
8
BLACK
6
CONTINUOUS
10
146.4985470000000021
20
-151.8767420000000072
11
146.6890229999999917
21
-151.781503999999984
0
LINE
8
BLACK
6
CONTINUOUS
10
146.6890229999999917
20
-151.781503999999984
11
147.0699759999999969
21
-151.781503999999984
0
LINE
8
BLACK
6
CONTINUOUS
10
147.0699759999999969
20
-151.781503999999984
11
147.2604519999999866
21
-151.8767420000000072
0
LINE
8
BLACK
6
CONTINUOUS
10
147.2604519999999866
20
-151.8767420000000072
11
147.3556899999999814
21
-151.9719800000000021
0
LINE
8
BLACK
6
CONTINUOUS
10
147.3556899999999814
20
-151.9719800000000021
11
147.4509280000000047
21
-152.1624569999999892
0
LINE
8
BLACK
6
CONTINUOUS
10
147.4509280000000047
20
-152.1624569999999892
11
147.4509280000000047
21
-152.7338849999999866
0
LINE
8
BLACK
6
CONTINUOUS
10
147.4509280000000047
20
-152.7338849999999866
11
147.3556899999999814
21
-152.9243610000000047
0
LINE
8
BLACK
6
CONTINUOUS
10
147.3556899999999814
20
-152.9243610000000047
11
147.2604519999999866
21
-153.019599999999997
0
LINE
8
BLACK
6
CONTINUOUS
10
147.2604519999999866
20
-153.019599999999997
11
147.0699759999999969
21
-153.1148379999999918
0
LINE
8
BLACK
6
CONTINUOUS
10
147.0699759999999969
20
-153.1148379999999918
11
146.6890229999999917
21
-153.1148379999999918
0
LINE
8
BLACK
6
CONTINUOUS
10
146.6890229999999917
20
-153.1148379999999918
11
146.4985470000000021
21
-153.019599999999997
0
LINE
8
BLACK
6
CONTINUOUS
10
148.5937849999999969
20
-153.1148379999999918
11
148.4033090000000072
21
-153.019599999999997
0
LINE
8
BLACK
6
CONTINUOUS
10
148.4033090000000072
20
-153.019599999999997
11
148.308070999999984
21
-152.8291229999999814
0
LINE
8
BLACK
6
CONTINUOUS
10
148.308070999999984
20
-152.8291229999999814
11
148.308070999999984
21
-151.1148379999999918
0
LINE
8
BLACK
6
CONTINUOUS
10
150.2128329999999892
20
-153.1148379999999918
11
150.2128329999999892
21
-152.0672189999999944
0
LINE
8
BLACK
6
CONTINUOUS
10
150.2128329999999892
20
-152.0672189999999944
11
150.1175949999999943
21
-151.8767420000000072
0
LINE
8
BLACK
6
CONTINUOUS
10
150.1175949999999943
20
-151.8767420000000072
11
149.9271190000000047
21
-151.781503999999984
0
LINE
8
BLACK
6
CONTINUOUS
10
149.9271190000000047
20
-151.781503999999984
11
149.5461659999999995
21
-151.781503999999984
0
LINE
8
BLACK
6
CONTINUOUS
10
149.5461659999999995
20
-151.781503999999984
11
149.3556899999999814
21
-151.8767420000000072
0
LINE
8
BLACK
6
CONTINUOUS
10
150.2128329999999892
20
-153.019599999999997
11
150.0223569999999995
21
-153.1148379999999918
0
LINE
8
BLACK
6
CONTINUOUS
10
150.0223569999999995
20
-153.1148379999999918
11
149.5461659999999995
21
-153.1148379999999918
0
LINE
8
BLACK
6
CONTINUOUS
10
149.5461659999999995
20
-153.1148379999999918
11
149.3556899999999814
21
-153.019599999999997
0
LINE
8
BLACK
6
CONTINUOUS
10
149.3556899999999814
20
-153.019599999999997
11
149.2604519999999866
21
-152.8291229999999814
0
LINE
8
BLACK
6
CONTINUOUS
10
149.2604519999999866
20
-152.8291229999999814
11
149.2604519999999866
21
-152.6386469999999917
0
LINE
8
BLACK
6
CONTINUOUS
10
149.2604519999999866
20
-152.6386469999999917
11
149.3556899999999814
21
-152.4481710000000021
0
LINE
8
BLACK
6
CONTINUOUS
10
149.3556899999999814
20
-152.4481710000000021
11
149.5461659999999995
21
-152.3529330000000073
0
LINE
8
BLACK
6
CONTINUOUS
10
149.5461659999999995
20
-152.3529330000000073
11
150.0223569999999995
21
-152.3529330000000073
0
LINE
8
BLACK
6
CONTINUOUS
10
150.0223569999999995
20
-152.3529330000000073
11
150.2128329999999892
21
-152.257694999999984
0
LINE
8
BLACK
6
CONTINUOUS
10
150.8795000000000073
20
-151.781503999999984
11
151.6414039999999943
21
-151.781503999999984
0
LINE
8
BLACK
6
CONTINUOUS
10
151.1652139999999918
20
-151.1148379999999918
11
151.1652139999999918
21
-152.8291229999999814
0
LINE
8
BLACK
6
CONTINUOUS
10
151.1652139999999918
20
-152.8291229999999814
11
151.2604519999999866
21
-153.019599999999997
0
LINE
8
BLACK
6
CONTINUOUS
10
151.2604519999999866
20
-153.019599999999997
11
151.4509280000000047
21
-153.1148379999999918
0
LINE
8
BLACK
6
CONTINUOUS
10
151.4509280000000047
20
-153.1148379999999918
11
151.6414039999999943
21
-153.1148379999999918
0
LINE
8
BLACK
6
CONTINUOUS
10
153.0699759999999969
20
-153.019599999999997
11
152.8795000000000073
21
-153.1148379999999918
0
LINE
8
BLACK
6
CONTINUOUS
10
152.8795000000000073
20
-153.1148379999999918
11
152.4985470000000021
21
-153.1148379999999918
0
LINE
8
BLACK
6
CONTINUOUS
10
152.4985470000000021
20
-153.1148379999999918
11
152.308070999999984
21
-153.019599999999997
0
LINE
8
BLACK
6
CONTINUOUS
10
152.308070999999984
20
-153.019599999999997
11
152.2128329999999892
21
-152.8291229999999814
0
LINE
8
BLACK
6
CONTINUOUS
10
152.2128329999999892
20
-152.8291229999999814
11
152.2128329999999892
21
-152.0672189999999944
0
LINE
8
BLACK
6
CONTINUOUS
10
152.2128329999999892
20
-152.0672189999999944
11
152.308070999999984
21
-151.8767420000000072
0
LINE
8
BLACK
6
CONTINUOUS
10
152.308070999999984
20
-151.8767420000000072
11
152.4985470000000021
21
-151.781503999999984
0
LINE
8
BLACK
6
CONTINUOUS
10
152.4985470000000021
20
-151.781503999999984
11
152.8795000000000073
21
-151.781503999999984
0
LINE
8
BLACK
6
CONTINUOUS
10
152.8795000000000073
20
-151.781503999999984
11
153.0699759999999969
21
-151.8767420000000072
0
LINE
8
BLACK
6
CONTINUOUS
10
153.0699759999999969
20
-151.8767420000000072
11
153.1652139999999918
21
-152.0672189999999944
0
LINE
8
BLACK
6
CONTINUOUS
10
153.1652139999999918
20
-152.0672189999999944
11
153.1652139999999918
21
-152.257694999999984
0
LINE
8
BLACK
6
CONTINUOUS
10
153.1652139999999918
20
-152.257694999999984
11
152.2128329999999892
21
-152.4481710000000021
0
LINE
8
BLACK
6
CONTINUOUS
10
154.8794999999999789
20
-153.1148379999999918
11
154.8794999999999789
21
-151.1148379999999918
0
LINE
8
BLACK
6
CONTINUOUS
10
154.8794999999999789
20
-153.019599999999997
11
154.6890239999999892
21
-153.1148379999999918
0
LINE
8
BLACK
6
CONTINUOUS
10
154.6890239999999892
20
-153.1148379999999918
11
154.308070999999984
21
-153.1148379999999918
0
LINE
8
BLACK
6
CONTINUOUS
10
154.308070999999984
20
-153.1148379999999918
11
154.1175949999999943
21
-153.019599999999997
0
LINE
8
BLACK
6
CONTINUOUS
10
154.1175949999999943
20
-153.019599999999997
11
154.0223569999999995
21
-152.9243610000000047
0
LINE
8
BLACK
6
CONTINUOUS
10
154.0223569999999995
20
-152.9243610000000047
11
153.9271190000000047
21
-152.7338849999999866
0
LINE
8
BLACK
6
CONTINUOUS
10
153.9271190000000047
20
-152.7338849999999866
11
153.9271190000000047
21
-152.1624569999999892
0
LINE
8
BLACK
6
CONTINUOUS
10
153.9271190000000047
20
-152.1624569999999892
11
154.0223569999999995
21
-151.9719800000000021
0
LINE
8
BLACK
6
CONTINUOUS
10
154.0223569999999995
20
-151.9719800000000021
11
154.1175949999999943
21
-151.8767420000000072
0
LINE
8
BLACK
6
CONTINUOUS
10
154.1175949999999943
20
-151.8767420000000072
11
154.308070999999984
21
-151.781503999999984
0
LINE
8
BLACK
6
CONTINUOUS
10
154.308070999999984
20
-151.781503999999984
11
154.6890239999999892
21
-151.781503999999984
0
LINE
8
BLACK
6
CONTINUOUS
10
154.6890239999999892
20
-151.781503999999984
11
154.8794999999999789
21
-151.8767420000000072
0
LINE
8
BLACK
6
CONTINUOUS
10
155.6414049999999918
20
-153.8767420000000072
11
155.7366429999999866
21
-153.781503999999984
0
LINE
8
BLACK
6
CONTINUOUS
10
155.7366429999999866
20
-153.781503999999984
11
155.9271190000000047
21
-153.4957899999999995
0
LINE
8
BLACK
6
CONTINUOUS
10
155.9271190000000047
20
-153.4957899999999995
11
156.0223569999999995
21
-153.3053139999999814
0
LINE
8
BLACK
6
CONTINUOUS
10
156.0223569999999995
20
-153.3053139999999814
11
156.1175949999999943
21
-153.019599999999997
0
LINE
8
BLACK
6
CONTINUOUS
10
156.1175949999999943
20
-153.019599999999997
11
156.2128329999999892
21
-152.5434089999999969
0
LINE
8
BLACK
6
CONTINUOUS
10
156.2128329999999892
20
-152.5434089999999969
11
156.2128329999999892
21
-152.1624569999999892
0
LINE
8
BLACK
6
CONTINUOUS
10
156.2128329999999892
20
-152.1624569999999892
11
156.1175949999999943
21
-151.6862659999999892
0
LINE
8
BLACK
6
CONTINUOUS
10
156.1175949999999943
20
-151.6862659999999892
11
156.0223569999999995
21
-151.4005520000000047
0
LINE
8
BLACK
6
CONTINUOUS
10
156.0223569999999995
20
-151.4005520000000047
11
155.9271190000000047
21
-151.2100759999999866
0
LINE
8
BLACK
6
CONTINUOUS
10
155.9271190000000047
20
-151.2100759999999866
11
155.7366429999999866
21
-150.9243610000000047
0
LINE
8
BLACK
6
CONTINUOUS
10
155.7366429999999866
20
-150.9243610000000047
11
155.6414049999999918
21
-150.8291229999999814
0
LINE
8
BLACK
6
CONTINUOUS
10
87.0812499999999972
20
-154.4000000000000057
11
87.0812499999999972
21
-156.4000000000000057
0
LINE
8
BLACK
6
CONTINUOUS
10
86.0812499999999972
20
-155.4000000000000057
11
88.0812499999999972
21
-155.4000000000000057
0
LINE
8
BLACK
6
CONTINUOUS
10
91.5461609999999979
20
-154.981504000000001
11
91.5461609999999979
21
-156.3148379999999804
0
LINE
8
BLACK
6
CONTINUOUS
10
91.0699699999999979
20
-154.2195999999999856
11
90.5937799999999953
21
-155.6481709999999907
0
LINE
8
BLACK
6
CONTINUOUS
10
90.5937799999999953
20
-155.6481709999999907
11
91.8318749999999966
21
-155.6481709999999907
0
LINE
8
BLACK
6
CONTINUOUS
10
92.5937799999999953
20
-156.1243609999999933
11
92.6890179999999901
21
-156.2195999999999856
0
LINE
8
BLACK
6
CONTINUOUS
10
92.6890179999999901
20
-156.2195999999999856
11
92.5937799999999953
21
-156.3148379999999804
0
LINE
8
BLACK
6
CONTINUOUS
10
92.5937799999999953
20
-156.3148379999999804
11
92.4985420000000005
21
-156.2195999999999856
0
LINE
8
BLACK
6
CONTINUOUS
10
92.4985420000000005
20
-156.2195999999999856
11
92.5937799999999953
21
-156.1243609999999933
0
LINE
8
BLACK
6
CONTINUOUS
10
92.5937799999999953
20
-156.1243609999999933
11
92.5937799999999953
21
-156.3148379999999804
0
LINE
8
BLACK
6
CONTINUOUS
10
93.9271129999999914
20
-154.3148379999999804
11
94.1175899999999928
21
-154.3148379999999804
0
LINE
8
BLACK
6
CONTINUOUS
10
94.1175899999999928
20
-154.3148379999999804
11
94.3080659999999966
21
-154.4100760000000037
0
LINE
8
BLACK
6
CONTINUOUS
10
94.3080659999999966
20
-154.4100760000000037
11
94.4033039999999914
21
-154.5053139999999985
0
LINE
8
BLACK
6
CONTINUOUS
10
94.4033039999999914
20
-154.5053139999999985
11
94.4985420000000005
21
-154.6957899999999881
0
LINE
8
BLACK
6
CONTINUOUS
10
94.4985420000000005
20
-154.6957899999999881
11
94.5937799999999953
21
-155.0767419999999959
0
LINE
8
BLACK
6
CONTINUOUS
10
94.5937799999999953
20
-155.0767419999999959
11
94.5937799999999953
21
-155.5529329999999959
0
LINE
8
BLACK
6
CONTINUOUS
10
94.5937799999999953
20
-155.5529329999999959
11
94.4985420000000005
21
-155.9338850000000036
0
LINE
8
BLACK
6
CONTINUOUS
10
94.4985420000000005
20
-155.9338850000000036
11
94.4033039999999914
21
-156.1243609999999933
0
LINE
8
BLACK
6
CONTINUOUS
10
94.4033039999999914
20
-156.1243609999999933
11
94.3080659999999966
21
-156.2195999999999856
0
LINE
8
BLACK
6
CONTINUOUS
10
94.3080659999999966
20
-156.2195999999999856
11
94.1175899999999928
21
-156.3148379999999804
0
LINE
8
BLACK
6
CONTINUOUS
10
94.1175899999999928
20
-156.3148379999999804
11
93.9271129999999914
21
-156.3148379999999804
0
LINE
8
BLACK
6
CONTINUOUS
10
93.9271129999999914
20
-156.3148379999999804
11
93.7366370000000018
21
-156.2195999999999856
0
LINE
8
BLACK
6
CONTINUOUS
10
93.7366370000000018
20
-156.2195999999999856
11
93.6413989999999927
21
-156.1243609999999933
0
LINE
8
BLACK
6
CONTINUOUS
10
93.6413989999999927
20
-156.1243609999999933
11
93.5461609999999979
21
-155.9338850000000036
0
LINE
8
BLACK
6
CONTINUOUS
10
93.5461609999999979
20
-155.9338850000000036
11
93.4509229999999889
21
-155.5529329999999959
0
LINE
8
BLACK
6
CONTINUOUS
10
93.4509229999999889
20
-155.5529329999999959
11
93.4509229999999889
21
-155.0767419999999959
0
LINE
8
BLACK
6
CONTINUOUS
10
93.4509229999999889
20
-155.0767419999999959
11
93.5461609999999979
21
-154.6957899999999881
0
LINE
8
BLACK
6
CONTINUOUS
10
93.5461609999999979
20
-154.6957899999999881
11
93.6413989999999927
21
-154.5053139999999985
0
LINE
8
BLACK
6
CONTINUOUS
10
93.6413989999999927
20
-154.5053139999999985
11
93.7366370000000018
21
-154.4100760000000037
0
LINE
8
BLACK
6
CONTINUOUS
10
93.7366370000000018
20
-154.4100760000000037
11
93.9271129999999914
21
-154.3148379999999804
0
LINE
8
BLACK
6
CONTINUOUS
10
95.8318749999999966
20
-154.3148379999999804
11
96.0223519999999979
21
-154.3148379999999804
0
LINE
8
BLACK
6
CONTINUOUS
10
96.0223519999999979
20
-154.3148379999999804
11
96.2128280000000018
21
-154.4100760000000037
0
LINE
8
BLACK
6
CONTINUOUS
10
96.2128280000000018
20
-154.4100760000000037
11
96.3080659999999966
21
-154.5053139999999985
0
LINE
8
BLACK
6
CONTINUOUS
10
96.3080659999999966
20
-154.5053139999999985
11
96.4033039999999914
21
-154.6957899999999881
0
LINE
8
BLACK
6
CONTINUOUS
10
96.4033039999999914
20
-154.6957899999999881
11
96.4985420000000005
21
-155.0767419999999959
0
LINE
8
BLACK
6
CONTINUOUS
10
96.4985420000000005
20
-155.0767419999999959
11
96.4985420000000005
21
-155.5529329999999959
0
LINE
8
BLACK
6
CONTINUOUS
10
96.4985420000000005
20
-155.5529329999999959
11
96.4033039999999914
21
-155.9338850000000036
0
LINE
8
BLACK
6
CONTINUOUS
10
96.4033039999999914
20
-155.9338850000000036
11
96.3080659999999966
21
-156.1243609999999933
0
LINE
8
BLACK
6
CONTINUOUS
10
96.3080659999999966
20
-156.1243609999999933
11
96.2128280000000018
21
-156.2195999999999856
0
LINE
8
BLACK
6
CONTINUOUS
10
96.2128280000000018
20
-156.2195999999999856
11
96.0223519999999979
21
-156.3148379999999804
0
LINE
8
BLACK
6
CONTINUOUS
10
96.0223519999999979
20
-156.3148379999999804
11
95.8318749999999966
21
-156.3148379999999804
0
LINE
8
BLACK
6
CONTINUOUS
10
95.8318749999999966
20
-156.3148379999999804
11
95.6413989999999927
21
-156.2195999999999856
0
LINE
8
BLACK
6
CONTINUOUS
10
95.6413989999999927
20
-156.2195999999999856
11
95.5461609999999979
21
-156.1243609999999933
0
LINE
8
BLACK
6
CONTINUOUS
10
95.5461609999999979
20
-156.1243609999999933
11
95.4509229999999889
21
-155.9338850000000036
0
LINE
8
BLACK
6
CONTINUOUS
10
95.4509229999999889
20
-155.9338850000000036
11
95.355684999999994
21
-155.5529329999999959
0
LINE
8
BLACK
6
CONTINUOUS
10
95.355684999999994
20
-155.5529329999999959
11
95.355684999999994
21
-155.0767419999999959
0
LINE
8
BLACK
6
CONTINUOUS
10
95.355684999999994
20
-155.0767419999999959
11
95.4509229999999889
21
-154.6957899999999881
0
LINE
8
BLACK
6
CONTINUOUS
10
95.4509229999999889
20
-154.6957899999999881
11
95.5461609999999979
21
-154.5053139999999985
0
LINE
8
BLACK
6
CONTINUOUS
10
95.5461609999999979
20
-154.5053139999999985
11
95.6413989999999927
21
-154.4100760000000037
0
LINE
8
BLACK
6
CONTINUOUS
10
95.6413989999999927
20
-154.4100760000000037
11
95.8318749999999966
21
-154.3148379999999804
0
LINE
8
BLACK
6
CONTINUOUS
10
97.7366370000000018
20
-154.3148379999999804
11
97.9271139999999889
21
-154.3148379999999804
0
LINE
8
BLACK
6
CONTINUOUS
10
97.9271139999999889
20
-154.3148379999999804
11
98.1175899999999928
21
-154.4100760000000037
0
LINE
8
BLACK
6
CONTINUOUS
10
98.1175899999999928
20
-154.4100760000000037
11
98.2128280000000018
21
-154.5053139999999985
0
LINE
8
BLACK
6
CONTINUOUS
10
98.2128280000000018
20
-154.5053139999999985
11
98.3080659999999966
21
-154.6957899999999881
0
LINE
8
BLACK
6
CONTINUOUS
10
98.3080659999999966
20
-154.6957899999999881
11
98.4033039999999914
21
-155.0767419999999959
0
LINE
8
BLACK
6
CONTINUOUS
10
98.4033039999999914
20
-155.0767419999999959
11
98.4033039999999914
21
-155.5529329999999959
0
LINE
8
BLACK
6
CONTINUOUS
10
98.4033039999999914
20
-155.5529329999999959
11
98.3080659999999966
21
-155.9338850000000036
0
LINE
8
BLACK
6
CONTINUOUS
10
98.3080659999999966
20
-155.9338850000000036
11
98.2128280000000018
21
-156.1243609999999933
0
LINE
8
BLACK
6
CONTINUOUS
10
98.2128280000000018
20
-156.1243609999999933
11
98.1175899999999928
21
-156.2195999999999856
0
LINE
8
BLACK
6
CONTINUOUS
10
98.1175899999999928
20
-156.2195999999999856
11
97.9271139999999889
21
-156.3148379999999804
0
LINE
8
BLACK
6
CONTINUOUS
10
97.9271139999999889
20
-156.3148379999999804
11
97.7366370000000018
21
-156.3148379999999804
0
LINE
8
BLACK
6
CONTINUOUS
10
97.7366370000000018
20
-156.3148379999999804
11
97.5461609999999979
21
-156.2195999999999856
0
LINE
8
BLACK
6
CONTINUOUS
10
97.5461609999999979
20
-156.2195999999999856
11
97.4509229999999889
21
-156.1243609999999933
0
LINE
8
BLACK
6
CONTINUOUS
10
97.4509229999999889
20
-156.1243609999999933
11
97.355684999999994
21
-155.9338850000000036
0
LINE
8
BLACK
6
CONTINUOUS
10
97.355684999999994
20
-155.9338850000000036
11
97.2604469999999992
21
-155.5529329999999959
0
LINE
8
BLACK
6
CONTINUOUS
10
97.2604469999999992
20
-155.5529329999999959
11
97.2604469999999992
21
-155.0767419999999959
0
LINE
8
BLACK
6
CONTINUOUS
10
97.2604469999999992
20
-155.0767419999999959
11
97.355684999999994
21
-154.6957899999999881
0
LINE
8
BLACK
6
CONTINUOUS
10
97.355684999999994
20
-154.6957899999999881
11
97.4509229999999889
21
-154.5053139999999985
0
LINE
8
BLACK
6
CONTINUOUS
10
97.4509229999999889
20
-154.5053139999999985
11
97.5461609999999979
21
-154.4100760000000037
0
LINE
8
BLACK
6
CONTINUOUS
10
97.5461609999999979
20
-154.4100760000000037
11
97.7366370000000018
21
-154.3148379999999804
0
LINE
8
BLACK
6
CONTINUOUS
10
99.2604469999999992
20
-156.3148379999999804
11
99.2604469999999992
21
-154.981504000000001
0
LINE
8
BLACK
6
CONTINUOUS
10
99.2604469999999992
20
-155.1719799999999907
11
99.355684999999994
21
-155.0767419999999959
0
LINE
8
BLACK
6
CONTINUOUS
10
99.355684999999994
20
-155.0767419999999959
11
99.5461609999999979
21
-154.981504000000001
0
LINE
8
BLACK
6
CONTINUOUS
10
99.5461609999999979
20
-154.981504000000001
11
99.8318759999999941
21
-154.981504000000001
0
LINE
8
BLACK
6
CONTINUOUS
10
99.8318759999999941
20
-154.981504000000001
11
100.0223519999999979
21
-155.0767419999999959
0
LINE
8
BLACK
6
CONTINUOUS
10
100.0223519999999979
20
-155.0767419999999959
11
100.1175899999999928
21
-155.267218999999983
0
LINE
8
BLACK
6
CONTINUOUS
10
100.1175899999999928
20
-155.267218999999983
11
100.1175899999999928
21
-156.3148379999999804
0
LINE
8
BLACK
6
CONTINUOUS
10
100.1175899999999928
20
-155.267218999999983
11
100.2128280000000018
21
-155.0767419999999959
0
LINE
8
BLACK
6
CONTINUOUS
10
100.2128280000000018
20
-155.0767419999999959
11
100.4033039999999914
21
-154.981504000000001
0
LINE
8
BLACK
6
CONTINUOUS
10
100.4033039999999914
20
-154.981504000000001
11
100.6890179999999901
21
-154.981504000000001
0
LINE
8
BLACK
6
CONTINUOUS
10
100.6890179999999901
20
-154.981504000000001
11
100.8794949999999915
21
-155.0767419999999959
0
LINE
8
BLACK
6
CONTINUOUS
10
100.8794949999999915
20
-155.0767419999999959
11
100.9747330000000005
21
-155.267218999999983
0
LINE
8
BLACK
6
CONTINUOUS
10
100.9747330000000005
20
-155.267218999999983
11
100.9747330000000005
21
-156.3148379999999804
0
LINE
8
BLACK
6
CONTINUOUS
10
101.9271139999999889
20
-156.3148379999999804
11
101.9271139999999889
21
-154.981504000000001
0
LINE
8
BLACK
6
CONTINUOUS
10
101.9271139999999889
20
-155.1719799999999907
11
102.0223519999999979
21
-155.0767419999999959
0
LINE
8
BLACK
6
CONTINUOUS
10
102.0223519999999979
20
-155.0767419999999959
11
102.2128280000000018
21
-154.981504000000001
0
LINE
8
BLACK
6
CONTINUOUS
10
102.2128280000000018
20
-154.981504000000001
11
102.498542999999998
21
-154.981504000000001
0
LINE
8
BLACK
6
CONTINUOUS
10
102.498542999999998
20
-154.981504000000001
11
102.6890190000000018
21
-155.0767419999999959
0
LINE
8
BLACK
6
CONTINUOUS
10
102.6890190000000018
20
-155.0767419999999959
11
102.7842569999999967
21
-155.267218999999983
0
LINE
8
BLACK
6
CONTINUOUS
10
102.7842569999999967
20
-155.267218999999983
11
102.7842569999999967
21
-156.3148379999999804
0
LINE
8
BLACK
6
CONTINUOUS
10
102.7842569999999967
20
-155.267218999999983
11
102.8794949999999915
21
-155.0767419999999959
0
LINE
8
BLACK
6
CONTINUOUS
10
102.8794949999999915
20
-155.0767419999999959
11
103.0699709999999953
21
-154.981504000000001
0
LINE
8
BLACK
6
CONTINUOUS
10
103.0699709999999953
20
-154.981504000000001
11
103.355684999999994
21
-154.981504000000001
0
LINE
8
BLACK
6
CONTINUOUS
10
103.355684999999994
20
-154.981504000000001
11
103.5461619999999954
21
-155.0767419999999959
0
LINE
8
BLACK
6
CONTINUOUS
10
103.5461619999999954
20
-155.0767419999999959
11
103.6413999999999902
21
-155.267218999999983
0
LINE
8
BLACK
6
CONTINUOUS
10
103.6413999999999902
20
-155.267218999999983
11
103.6413999999999902
21
-156.3148379999999804
0
LINE
8
BLACK
6
CONTINUOUS
10
107.5461619999999954
20
-154.2195999999999856
11
105.8318769999999915
21
-156.791027999999983
0
LINE
8
BLACK
6
CONTINUOUS
10
110.1175909999999902
20
-154.3148379999999804
11
110.3080679999999916
21
-154.3148379999999804
0
LINE
8
BLACK
6
CONTINUOUS
10
110.3080679999999916
20
-154.3148379999999804
11
110.4985439999999954
21
-154.4100760000000037
0
LINE
8
BLACK
6
CONTINUOUS
10
110.4985439999999954
20
-154.4100760000000037
11
110.5937819999999903
21
-154.5053139999999985
0
LINE
8
BLACK
6
CONTINUOUS
10
110.5937819999999903
20
-154.5053139999999985
11
110.6890199999999993
21
-154.6957899999999881
0
LINE
8
BLACK
6
CONTINUOUS
10
110.6890199999999993
20
-154.6957899999999881
11
110.7842579999999941
21
-155.0767419999999959
0
LINE
8
BLACK
6
CONTINUOUS
10
110.7842579999999941
20
-155.0767419999999959
11
110.7842579999999941
21
-155.5529329999999959
0
LINE
8
BLACK
6
CONTINUOUS
10
110.7842579999999941
20
-155.5529329999999959
11
110.6890199999999993
21
-155.9338850000000036
0
LINE
8
BLACK
6
CONTINUOUS
10
110.6890199999999993
20
-155.9338850000000036
11
110.5937819999999903
21
-156.1243609999999933
0
LINE
8
BLACK
6
CONTINUOUS
10
110.5937819999999903
20
-156.1243609999999933
11
110.4985439999999954
21
-156.2195999999999856
0
LINE
8
BLACK
6
CONTINUOUS
10
110.4985439999999954
20
-156.2195999999999856
11
110.3080679999999916
21
-156.3148379999999804
0
LINE
8
BLACK
6
CONTINUOUS
10
110.3080679999999916
20
-156.3148379999999804
11
110.1175909999999902
21
-156.3148379999999804
0
LINE
8
BLACK
6
CONTINUOUS
10
110.1175909999999902
20
-156.3148379999999804
11
109.9271150000000006
21
-156.2195999999999856
0
LINE
8
BLACK
6
CONTINUOUS
10
109.9271150000000006
20
-156.2195999999999856
11
109.8318769999999915
21
-156.1243609999999933
0
LINE
8
BLACK
6
CONTINUOUS
10
109.8318769999999915
20
-156.1243609999999933
11
109.7366389999999967
21
-155.9338850000000036
0
LINE
8
BLACK
6
CONTINUOUS
10
109.7366389999999967
20
-155.9338850000000036
11
109.6414010000000019
21
-155.5529329999999959
0
LINE
8
BLACK
6
CONTINUOUS
10
109.6414010000000019
20
-155.5529329999999959
11
109.6414010000000019
21
-155.0767419999999959
0
LINE
8
BLACK
6
CONTINUOUS
10
109.6414010000000019
20
-155.0767419999999959
11
109.7366389999999967
21
-154.6957899999999881
0
LINE
8
BLACK
6
CONTINUOUS
10
109.7366389999999967
20
-154.6957899999999881
11
109.8318769999999915
21
-154.5053139999999985
0
LINE
8
BLACK
6
CONTINUOUS
10
109.8318769999999915
20
-154.5053139999999985
11
109.9271150000000006
21
-154.4100760000000037
0
LINE
8
BLACK
6
CONTINUOUS
10
109.9271150000000006
20
-154.4100760000000037
11
110.1175909999999902
21
-154.3148379999999804
0
LINE
8
BLACK
6
CONTINUOUS
10
111.6414010000000019
20
-156.1243609999999933
11
111.7366389999999967
21
-156.2195999999999856
0
LINE
8
BLACK
6
CONTINUOUS
10
111.7366389999999967
20
-156.2195999999999856
11
111.6414010000000019
21
-156.3148379999999804
0
LINE
8
BLACK
6
CONTINUOUS
10
111.6414010000000019
20
-156.3148379999999804
11
111.5461629999999928
21
-156.2195999999999856
0
LINE
8
BLACK
6
CONTINUOUS
10
111.5461629999999928
20
-156.2195999999999856
11
111.6414010000000019
21
-156.1243609999999933
0
LINE
8
BLACK
6
CONTINUOUS
10
111.6414010000000019
20
-156.1243609999999933
11
111.6414010000000019
21
-156.3148379999999804
0
LINE
8
BLACK
6
CONTINUOUS
10
113.6414010000000019
20
-156.3148379999999804
11
112.4985439999999954
21
-156.3148379999999804
0
LINE
8
BLACK
6
CONTINUOUS
10
113.0699719999999928
20
-156.3148379999999804
11
113.0699719999999928
21
-154.3148379999999804
0
LINE
8
BLACK
6
CONTINUOUS
10
113.0699719999999928
20
-154.3148379999999804
11
112.879495999999989
21
-154.6005519999999933
0
LINE
8
BLACK
6
CONTINUOUS
10
112.879495999999989
20
-154.6005519999999933
11
112.6890199999999993
21
-154.791027999999983
0
LINE
8
BLACK
6
CONTINUOUS
10
112.6890199999999993
20
-154.791027999999983
11
112.4985439999999954
21
-154.8862660000000062
0
LINE
8
BLACK
6
CONTINUOUS
10
115.450924999999998
20
-154.3148379999999804
11
114.4985439999999954
21
-154.3148379999999804
0
LINE
8
BLACK
6
CONTINUOUS
10
114.4985439999999954
20
-154.3148379999999804
11
114.4033060000000006
21
-155.267218999999983
0
LINE
8
BLACK
6
CONTINUOUS
10
114.4033060000000006
20
-155.267218999999983
11
114.4985439999999954
21
-155.1719799999999907
0
LINE
8
BLACK
6
CONTINUOUS
10
114.4985439999999954
20
-155.1719799999999907
11
114.6890199999999993
21
-155.0767419999999959
0
LINE
8
BLACK
6
CONTINUOUS
10
114.6890199999999993
20
-155.0767419999999959
11
115.1652109999999993
21
-155.0767419999999959
0
LINE
8
BLACK
6
CONTINUOUS
10
115.1652109999999993
20
-155.0767419999999959
11
115.355686999999989
21
-155.1719799999999907
0
LINE
8
BLACK
6
CONTINUOUS
10
115.355686999999989
20
-155.1719799999999907
11
115.450924999999998
21
-155.267218999999983
0
LINE
8
BLACK
6
CONTINUOUS
10
115.450924999999998
20
-155.267218999999983
11
115.5461629999999928
21
-155.4576950000000011
0
LINE
8
BLACK
6
CONTINUOUS
10
115.5461629999999928
20
-155.4576950000000011
11
115.5461629999999928
21
-155.9338850000000036
0
LINE
8
BLACK
6
CONTINUOUS
10
115.5461629999999928
20
-155.9338850000000036
11
115.450924999999998
21
-156.1243609999999933
0
LINE
8
BLACK
6
CONTINUOUS
10
115.450924999999998
20
-156.1243609999999933
11
115.355686999999989
21
-156.2195999999999856
0
LINE
8
BLACK
6
CONTINUOUS
10
115.355686999999989
20
-156.2195999999999856
11
115.1652109999999993
21
-156.3148379999999804
0
LINE
8
BLACK
6
CONTINUOUS
10
115.1652109999999993
20
-156.3148379999999804
11
114.6890199999999993
21
-156.3148379999999804
0
LINE
8
BLACK
6
CONTINUOUS
10
114.6890199999999993
20
-156.3148379999999804
11
114.4985439999999954
21
-156.2195999999999856
0
LINE
8
BLACK
6
CONTINUOUS
10
114.4985439999999954
20
-156.2195999999999856
11
114.4033060000000006
21
-156.1243609999999933
0
LINE
8
BLACK
6
CONTINUOUS
10
116.2128299999999967
20
-154.3148379999999804
11
117.5461629999999928
21
-154.3148379999999804
0
LINE
8
BLACK
6
CONTINUOUS
10
117.5461629999999928
20
-154.3148379999999804
11
116.6890199999999993
21
-156.3148379999999804
0
LINE
8
BLACK
6
CONTINUOUS
10
119.2604489999999942
20
-154.3148379999999804
11
118.3080679999999916
21
-154.3148379999999804
0
LINE
8
BLACK
6
CONTINUOUS
10
118.3080679999999916
20
-154.3148379999999804
11
118.2128299999999967
21
-155.267218999999983
0
LINE
8
BLACK
6
CONTINUOUS
10
118.2128299999999967
20
-155.267218999999983
11
118.3080679999999916
21
-155.1719799999999907
0
LINE
8
BLACK
6
CONTINUOUS
10
118.3080679999999916
20
-155.1719799999999907
11
118.4985439999999954
21
-155.0767419999999959
0
LINE
8
BLACK
6
CONTINUOUS
10
118.4985439999999954
20
-155.0767419999999959
11
118.9747349999999955
21
-155.0767419999999959
0
LINE
8
BLACK
6
CONTINUOUS
10
118.9747349999999955
20
-155.0767419999999959
11
119.1652109999999993
21
-155.1719799999999907
0
LINE
8
BLACK
6
CONTINUOUS
10
119.1652109999999993
20
-155.1719799999999907
11
119.2604489999999942
21
-155.267218999999983
0
LINE
8
BLACK
6
CONTINUOUS
10
119.2604489999999942
20
-155.267218999999983
11
119.355686999999989
21
-155.4576950000000011
0
LINE
8
BLACK
6
CONTINUOUS
10
119.355686999999989
20
-155.4576950000000011
11
119.355686999999989
21
-155.9338850000000036
0
LINE
8
BLACK
6
CONTINUOUS
10
119.355686999999989
20
-155.9338850000000036
11
119.2604489999999942
21
-156.1243609999999933
0
LINE
8
BLACK
6
CONTINUOUS
10
119.2604489999999942
20
-156.1243609999999933
11
119.1652109999999993
21
-156.2195999999999856
0
LINE
8
BLACK
6
CONTINUOUS
10
119.1652109999999993
20
-156.2195999999999856
11
118.9747349999999955
21
-156.3148379999999804
0
LINE
8
BLACK
6
CONTINUOUS
10
118.9747349999999955
20
-156.3148379999999804
11
118.4985439999999954
21
-156.3148379999999804
0
LINE
8
BLACK
6
CONTINUOUS
10
118.4985439999999954
20
-156.3148379999999804
11
118.3080679999999916
21
-156.2195999999999856
0
LINE
8
BLACK
6
CONTINUOUS
10
118.3080679999999916
20
-156.2195999999999856
11
118.2128299999999967
21
-156.1243609999999933
0
LINE
8
BLACK
6
CONTINUOUS
10
120.1175919999999877
20
-154.3148379999999804
11
120.1175919999999877
21
-154.6957899999999881
0
LINE
8
BLACK
6
CONTINUOUS
10
120.8794970000000006
20
-154.3148379999999804
11
120.8794970000000006
21
-154.6957899999999881
0
LINE
8
BLACK
6
CONTINUOUS
10
123.8318790000000007
20
-157.0767419999999959
11
123.7366399999999942
21
-156.981504000000001
0
LINE
8
BLACK
6
CONTINUOUS
10
123.7366399999999942
20
-156.981504000000001
11
123.5461639999999903
21
-156.6957899999999881
0
LINE
8
BLACK
6
CONTINUOUS
10
123.5461639999999903
20
-156.6957899999999881
11
123.4509259999999955
21
-156.5053139999999985
0
LINE
8
BLACK
6
CONTINUOUS
10
123.4509259999999955
20
-156.5053139999999985
11
123.3556880000000007
21
-156.2195999999999856
0
LINE
8
BLACK
6
CONTINUOUS
10
123.3556880000000007
20
-156.2195999999999856
11
123.2604499999999916
21
-155.7434089999999856
0
LINE
8
BLACK
6
CONTINUOUS
10
123.2604499999999916
20
-155.7434089999999856
11
123.2604499999999916
21
-155.3624570000000062
0
LINE
8
BLACK
6
CONTINUOUS
10
123.2604499999999916
20
-155.3624570000000062
11
123.3556880000000007
21
-154.8862660000000062
0
LINE
8
BLACK
6
CONTINUOUS
10
123.3556880000000007
20
-154.8862660000000062
11
123.4509259999999955
21
-154.6005519999999933
0
LINE
8
BLACK
6
CONTINUOUS
10
123.4509259999999955
20
-154.6005519999999933
11
123.5461639999999903
21
-154.4100760000000037
0
LINE
8
BLACK
6
CONTINUOUS
10
123.5461639999999903
20
-154.4100760000000037
11
123.7366399999999942
21
-154.1243609999999933
0
LINE
8
BLACK
6
CONTINUOUS
10
123.7366399999999942
20
-154.1243609999999933
11
123.8318790000000007
21
-154.0291229999999985
0
LINE
8
BLACK
6
CONTINUOUS
10
124.6890209999999968
20
-156.3148379999999804
11
125.0699729999999903
21
-156.3148379999999804
0
LINE
8
BLACK
6
CONTINUOUS
10
125.0699729999999903
20
-156.3148379999999804
11
125.2604499999999916
21
-156.2195999999999856
0
LINE
8
BLACK
6
CONTINUOUS
10
125.2604499999999916
20
-156.2195999999999856
11
125.3556880000000007
21
-156.1243609999999933
0
LINE
8
BLACK
6
CONTINUOUS
10
125.3556880000000007
20
-156.1243609999999933
11
125.5461639999999903
21
-155.8386469999999804
0
LINE
8
BLACK
6
CONTINUOUS
10
125.5461639999999903
20
-155.8386469999999804
11
125.6414019999999994
21
-155.4576950000000011
0
LINE
8
BLACK
6
CONTINUOUS
10
125.6414019999999994
20
-155.4576950000000011
11
125.6414019999999994
21
-154.6957899999999881
0
LINE
8
BLACK
6
CONTINUOUS
10
125.6414019999999994
20
-154.6957899999999881
11
125.5461639999999903
21
-154.5053139999999985
0
LINE
8
BLACK
6
CONTINUOUS
10
125.5461639999999903
20
-154.5053139999999985
11
125.4509259999999955
21
-154.4100760000000037
0
LINE
8
BLACK
6
CONTINUOUS
10
125.4509259999999955
20
-154.4100760000000037
11
125.2604499999999916
21
-154.3148379999999804
0
LINE
8
BLACK
6
CONTINUOUS
10
125.2604499999999916
20
-154.3148379999999804
11
124.8794970000000006
21
-154.3148379999999804
0
LINE
8
BLACK
6
CONTINUOUS
10
124.8794970000000006
20
-154.3148379999999804
11
124.6890209999999968
21
-154.4100760000000037
0
LINE
8
BLACK
6
CONTINUOUS
10
124.6890209999999968
20
-154.4100760000000037
11
124.5937829999999877
21
-154.5053139999999985
0
LINE
8
BLACK
6
CONTINUOUS
10
124.5937829999999877
20
-154.5053139999999985
11
124.4985449999999929
21
-154.6957899999999881
0
LINE
8
BLACK
6
CONTINUOUS
10
124.4985449999999929
20
-154.6957899999999881
11
124.4985449999999929
21
-155.1719799999999907
0
LINE
8
BLACK
6
CONTINUOUS
10
124.4985449999999929
20
-155.1719799999999907
11
124.5937829999999877
21
-155.3624570000000062
0
LINE
8
BLACK
6
CONTINUOUS
10
124.5937829999999877
20
-155.3624570000000062
11
124.6890209999999968
21
-155.4576950000000011
0
LINE
8
BLACK
6
CONTINUOUS
10
124.6890209999999968
20
-155.4576950000000011
11
124.8794970000000006
21
-155.5529329999999959
0
LINE
8
BLACK
6
CONTINUOUS
10
124.8794970000000006
20
-155.5529329999999959
11
125.2604499999999916
21
-155.5529329999999959
0
LINE
8
BLACK
6
CONTINUOUS
10
125.2604499999999916
20
-155.5529329999999959
11
125.4509259999999955
21
-155.4576950000000011
0
LINE
8
BLACK
6
CONTINUOUS
10
125.4509259999999955
20
-155.4576950000000011
11
125.5461639999999903
21
-155.3624570000000062
0
LINE
8
BLACK
6
CONTINUOUS
10
125.5461639999999903
20
-155.3624570000000062
11
125.6414019999999994
21
-155.1719799999999907
0
LINE
8
BLACK
6
CONTINUOUS
10
128.0223550000000046
20
-156.3148379999999804
11
128.0223550000000046
21
-154.3148379999999804
0
LINE
8
BLACK
6
CONTINUOUS
10
128.8794979999999839
20
-156.3148379999999804
11
128.8794979999999839
21
-155.267218999999983
0
LINE
8
BLACK
6
CONTINUOUS
10
128.8794979999999839
20
-155.267218999999983
11
128.7842599999999891
21
-155.0767419999999959
0
LINE
8
BLACK
6
CONTINUOUS
10
128.7842599999999891
20
-155.0767419999999959
11
128.5937839999999994
21
-154.981504000000001
0
LINE
8
BLACK
6
CONTINUOUS
10
128.5937839999999994
20
-154.981504000000001
11
128.308068999999989
21
-154.981504000000001
0
LINE
8
BLACK
6
CONTINUOUS
10
128.308068999999989
20
-154.981504000000001
11
128.1175929999999994
21
-155.0767419999999959
0
LINE
8
BLACK
6
CONTINUOUS
10
128.1175929999999994
20
-155.0767419999999959
11
128.0223550000000046
21
-155.1719799999999907
0
LINE
8
BLACK
6
CONTINUOUS
10
130.1175929999999994
20
-156.3148379999999804
11
129.9271169999999813
21
-156.2195999999999856
0
LINE
8
BLACK
6
CONTINUOUS
10
129.9271169999999813
20
-156.2195999999999856
11
129.8318789999999865
21
-156.1243609999999933
0
LINE
8
BLACK
6
CONTINUOUS
10
129.8318789999999865
20
-156.1243609999999933
11
129.7366409999999917
21
-155.9338850000000036
0
LINE
8
BLACK
6
CONTINUOUS
10
129.7366409999999917
20
-155.9338850000000036
11
129.7366409999999917
21
-155.3624570000000062
0
LINE
8
BLACK
6
CONTINUOUS
10
129.7366409999999917
20
-155.3624570000000062
11
129.8318789999999865
21
-155.1719799999999907
0
LINE
8
BLACK
6
CONTINUOUS
10
129.8318789999999865
20
-155.1719799999999907
11
129.9271169999999813
21
-155.0767419999999959
0
LINE
8
BLACK
6
CONTINUOUS
10
129.9271169999999813
20
-155.0767419999999959
11
130.1175929999999994
21
-154.981504000000001
0
LINE
8
BLACK
6
CONTINUOUS
10
130.1175929999999994
20
-154.981504000000001
11
130.4033079999999813
21
-154.981504000000001
0
LINE
8
BLACK
6
CONTINUOUS
10
130.4033079999999813
20
-154.981504000000001
11
130.5937839999999994
21
-155.0767419999999959
0
LINE
8
BLACK
6
CONTINUOUS
10
130.5937839999999994
20
-155.0767419999999959
11
130.6890219999999943
21
-155.1719799999999907
0
LINE
8
BLACK
6
CONTINUOUS
10
130.6890219999999943
20
-155.1719799999999907
11
130.7842599999999891
21
-155.3624570000000062
0
LINE
8
BLACK
6
CONTINUOUS
10
130.7842599999999891
20
-155.3624570000000062
11
130.7842599999999891
21
-155.9338850000000036
0
LINE
8
BLACK
6
CONTINUOUS
10
130.7842599999999891
20
-155.9338850000000036
11
130.6890219999999943
21
-156.1243609999999933
0
LINE
8
BLACK
6
CONTINUOUS
10
130.6890219999999943
20
-156.1243609999999933
11
130.5937839999999994
21
-156.2195999999999856
0
LINE
8
BLACK
6
CONTINUOUS
10
130.5937839999999994
20
-156.2195999999999856
11
130.4033079999999813
21
-156.3148379999999804
0
LINE
8
BLACK
6
CONTINUOUS
10
130.4033079999999813
20
-156.3148379999999804
11
130.1175929999999994
21
-156.3148379999999804
0
LINE
8
BLACK
6
CONTINUOUS
10
131.9271169999999813
20
-156.3148379999999804
11
131.7366409999999917
21
-156.2195999999999856
0
LINE
8
BLACK
6
CONTINUOUS
10
131.7366409999999917
20
-156.2195999999999856
11
131.6414029999999968
21
-156.0291229999999985
0
LINE
8
BLACK
6
CONTINUOUS
10
131.6414029999999968
20
-156.0291229999999985
11
131.6414029999999968
21
-154.3148379999999804
0
LINE
8
BLACK
6
CONTINUOUS
10
133.4509270000000072
20
-156.2195999999999856
11
133.2604509999999891
21
-156.3148379999999804
0
LINE
8
BLACK
6
CONTINUOUS
10
133.2604509999999891
20
-156.3148379999999804
11
132.8794979999999839
21
-156.3148379999999804
0
LINE
8
BLACK
6
CONTINUOUS
10
132.8794979999999839
20
-156.3148379999999804
11
132.6890219999999943
21
-156.2195999999999856
0
LINE
8
BLACK
6
CONTINUOUS
10
132.6890219999999943
20
-156.2195999999999856
11
132.5937839999999994
21
-156.0291229999999985
0
LINE
8
BLACK
6
CONTINUOUS
10
132.5937839999999994
20
-156.0291229999999985
11
132.5937839999999994
21
-155.267218999999983
0
LINE
8
BLACK
6
CONTINUOUS
10
132.5937839999999994
20
-155.267218999999983
11
132.6890219999999943
21
-155.0767419999999959
0
LINE
8
BLACK
6
CONTINUOUS
10
132.6890219999999943
20
-155.0767419999999959
11
132.8794979999999839
21
-154.981504000000001
0
LINE
8
BLACK
6
CONTINUOUS
10
132.8794979999999839
20
-154.981504000000001
11
133.2604509999999891
21
-154.981504000000001
0
LINE
8
BLACK
6
CONTINUOUS
10
133.2604509999999891
20
-154.981504000000001
11
133.4509270000000072
21
-155.0767419999999959
0
LINE
8
BLACK
6
CONTINUOUS
10
133.4509270000000072
20
-155.0767419999999959
11
133.546165000000002
21
-155.267218999999983
0
LINE
8
BLACK
6
CONTINUOUS
10
133.546165000000002
20
-155.267218999999983
11
133.546165000000002
21
-155.4576950000000011
0
LINE
8
BLACK
6
CONTINUOUS
10
133.546165000000002
20
-155.4576950000000011
11
132.5937839999999994
21
-155.6481709999999907
0
LINE
8
BLACK
6
CONTINUOUS
10
134.3080699999999865
20
-156.2195999999999856
11
134.4985460000000046
21
-156.3148379999999804
0
LINE
8
BLACK
6
CONTINUOUS
10
134.4985460000000046
20
-156.3148379999999804
11
134.8794979999999839
21
-156.3148379999999804
0
LINE
8
BLACK
6
CONTINUOUS
10
134.8794979999999839
20
-156.3148379999999804
11
135.0699749999999995
21
-156.2195999999999856
0
LINE
8
BLACK
6
CONTINUOUS
10
135.0699749999999995
20
-156.2195999999999856
11
135.1652129999999943
21
-156.0291229999999985
0
LINE
8
BLACK
6
CONTINUOUS
10
135.1652129999999943
20
-156.0291229999999985
11
135.1652129999999943
21
-155.9338850000000036
0
LINE
8
BLACK
6
CONTINUOUS
10
135.1652129999999943
20
-155.9338850000000036
11
135.0699749999999995
21
-155.7434089999999856
0
LINE
8
BLACK
6
CONTINUOUS
10
135.0699749999999995
20
-155.7434089999999856
11
134.8794979999999839
21
-155.6481709999999907
0
LINE
8
BLACK
6
CONTINUOUS
10
134.8794979999999839
20
-155.6481709999999907
11
134.5937839999999994
21
-155.6481709999999907
0
LINE
8
BLACK
6
CONTINUOUS
10
134.5937839999999994
20
-155.6481709999999907
11
134.4033079999999813
21
-155.5529329999999959
0
LINE
8
BLACK
6
CONTINUOUS
10
134.4033079999999813
20
-155.5529329999999959
11
134.3080699999999865
21
-155.3624570000000062
0
LINE
8
BLACK
6
CONTINUOUS
10
134.3080699999999865
20
-155.3624570000000062
11
134.3080699999999865
21
-155.267218999999983
0
LINE
8
BLACK
6
CONTINUOUS
10
134.3080699999999865
20
-155.267218999999983
11
134.4033079999999813
21
-155.0767419999999959
0
LINE
8
BLACK
6
CONTINUOUS
10
134.4033079999999813
20
-155.0767419999999959
11
134.5937839999999994
21
-154.981504000000001
0
LINE
8
BLACK
6
CONTINUOUS
10
134.5937839999999994
20
-154.981504000000001
11
134.8794979999999839
21
-154.981504000000001
0
LINE
8
BLACK
6
CONTINUOUS
10
134.8794979999999839
20
-154.981504000000001
11
135.0699749999999995
21
-155.0767419999999959
0
LINE
8
BLACK
6
CONTINUOUS
10
135.831879999999984
20
-157.0767419999999959
11
135.9271180000000072
21
-156.981504000000001
0
LINE
8
BLACK
6
CONTINUOUS
10
135.9271180000000072
20
-156.981504000000001
11
136.1175939999999969
21
-156.6957899999999881
0
LINE
8
BLACK
6
CONTINUOUS
10
136.1175939999999969
20
-156.6957899999999881
11
136.2128319999999917
21
-156.5053139999999985
0
LINE
8
BLACK
6
CONTINUOUS
10
136.2128319999999917
20
-156.5053139999999985
11
136.3080699999999865
21
-156.2195999999999856
0
LINE
8
BLACK
6
CONTINUOUS
10
136.3080699999999865
20
-156.2195999999999856
11
136.4033079999999813
21
-155.7434089999999856
0
LINE
8
BLACK
6
CONTINUOUS
10
136.4033079999999813
20
-155.7434089999999856
11
136.4033079999999813
21
-155.3624570000000062
0
LINE
8
BLACK
6
CONTINUOUS
10
136.4033079999999813
20
-155.3624570000000062
11
136.3080699999999865
21
-154.8862660000000062
0
LINE
8
BLACK
6
CONTINUOUS
10
136.3080699999999865
20
-154.8862660000000062
11
136.2128319999999917
21
-154.6005519999999933
0
LINE
8
BLACK
6
CONTINUOUS
10
136.2128319999999917
20
-154.6005519999999933
11
136.1175939999999969
21
-154.4100760000000037
0
LINE
8
BLACK
6
CONTINUOUS
10
136.1175939999999969
20
-154.4100760000000037
11
135.9271180000000072
21
-154.1243609999999933
0
LINE
8
BLACK
6
CONTINUOUS
10
135.9271180000000072
20
-154.1243609999999933
11
135.831879999999984
21
-154.0291229999999985
0
LINE
8
BLACK
6
CONTINUOUS
10
139.4509280000000047
20
-157.0767419999999959
11
139.3556889999999839
21
-156.981504000000001
0
LINE
8
BLACK
6
CONTINUOUS
10
139.3556889999999839
20
-156.981504000000001
11
139.1652129999999943
21
-156.6957899999999881
0
LINE
8
BLACK
6
CONTINUOUS
10
139.1652129999999943
20
-156.6957899999999881
11
139.0699749999999995
21
-156.5053139999999985
0
LINE
8
BLACK
6
CONTINUOUS
10
139.0699749999999995
20
-156.5053139999999985
11
138.9747370000000046
21
-156.2195999999999856
0
LINE
8
BLACK
6
CONTINUOUS
10
138.9747370000000046
20
-156.2195999999999856
11
138.8794989999999814
21
-155.7434089999999856
0
LINE
8
BLACK
6
CONTINUOUS
10
138.8794989999999814
20
-155.7434089999999856
11
138.8794989999999814
21
-155.3624570000000062
0
LINE
8
BLACK
6
CONTINUOUS
10
138.8794989999999814
20
-155.3624570000000062
11
138.9747370000000046
21
-154.8862660000000062
0
LINE
8
BLACK
6
CONTINUOUS
10
138.9747370000000046
20
-154.8862660000000062
11
139.0699749999999995
21
-154.6005519999999933
0
LINE
8
BLACK
6
CONTINUOUS
10
139.0699749999999995
20
-154.6005519999999933
11
139.1652129999999943
21
-154.4100760000000037
0
LINE
8
BLACK
6
CONTINUOUS
10
139.1652129999999943
20
-154.4100760000000037
11
139.3556889999999839
21
-154.1243609999999933
0
LINE
8
BLACK
6
CONTINUOUS
10
139.3556889999999839
20
-154.1243609999999933
11
139.4509280000000047
21
-154.0291229999999985
0
LINE
8
BLACK
6
CONTINUOUS
10
140.2128319999999917
20
-154.981504000000001
11
140.2128319999999917
21
-156.3148379999999804
0
LINE
8
BLACK
6
CONTINUOUS
10
140.2128319999999917
20
-155.1719799999999907
11
140.3080699999999865
21
-155.0767419999999959
0
LINE
8
BLACK
6
CONTINUOUS
10
140.3080699999999865
20
-155.0767419999999959
11
140.4985460000000046
21
-154.981504000000001
0
LINE
8
BLACK
6
CONTINUOUS
10
140.4985460000000046
20
-154.981504000000001
11
140.7842609999999866
21
-154.981504000000001
0
LINE
8
BLACK
6
CONTINUOUS
10
140.7842609999999866
20
-154.981504000000001
11
140.9747370000000046
21
-155.0767419999999959
0
LINE
8
BLACK
6
CONTINUOUS
10
140.9747370000000046
20
-155.0767419999999959
11
141.0699749999999995
21
-155.267218999999983
0
LINE
8
BLACK
6
CONTINUOUS
10
141.0699749999999995
20
-155.267218999999983
11
141.0699749999999995
21
-156.3148379999999804
0
LINE
8
BLACK
6
CONTINUOUS
10
142.3080699999999865
20
-156.3148379999999804
11
142.1175939999999969
21
-156.2195999999999856
0
LINE
8
BLACK
6
CONTINUOUS
10
142.1175939999999969
20
-156.2195999999999856
11
142.022356000000002
21
-156.1243609999999933
0
LINE
8
BLACK
6
CONTINUOUS
10
142.022356000000002
20
-156.1243609999999933
11
141.9271180000000072
21
-155.9338850000000036
0
LINE
8
BLACK
6
CONTINUOUS
10
141.9271180000000072
20
-155.9338850000000036
11
141.9271180000000072
21
-155.3624570000000062
0
LINE
8
BLACK
6
CONTINUOUS
10
141.9271180000000072
20
-155.3624570000000062
11
142.022356000000002
21
-155.1719799999999907
0
LINE
8
BLACK
6
CONTINUOUS
10
142.022356000000002
20
-155.1719799999999907
11
142.1175939999999969
21
-155.0767419999999959
0
LINE
8
BLACK
6
CONTINUOUS
10
142.1175939999999969
20
-155.0767419999999959
11
142.3080699999999865
21
-154.981504000000001
0
LINE
8
BLACK
6
CONTINUOUS
10
142.3080699999999865
20
-154.981504000000001
11
142.5937849999999969
21
-154.981504000000001
0
LINE
8
BLACK
6
CONTINUOUS
10
142.5937849999999969
20
-154.981504000000001
11
142.7842609999999866
21
-155.0767419999999959
0
LINE
8
BLACK
6
CONTINUOUS
10
142.7842609999999866
20
-155.0767419999999959
11
142.8794989999999814
21
-155.1719799999999907
0
LINE
8
BLACK
6
CONTINUOUS
10
142.8794989999999814
20
-155.1719799999999907
11
142.9747370000000046
21
-155.3624570000000062
0
LINE
8
BLACK
6
CONTINUOUS
10
142.9747370000000046
20
-155.3624570000000062
11
142.9747370000000046
21
-155.9338850000000036
0
LINE
8
BLACK
6
CONTINUOUS
10
142.9747370000000046
20
-155.9338850000000036
11
142.8794989999999814
21
-156.1243609999999933
0
LINE
8
BLACK
6
CONTINUOUS
10
142.8794989999999814
20
-156.1243609999999933
11
142.7842609999999866
21
-156.2195999999999856
0
LINE
8
BLACK
6
CONTINUOUS
10
142.7842609999999866
20
-156.2195999999999856
11
142.5937849999999969
21
-156.3148379999999804
0
LINE
8
BLACK
6
CONTINUOUS
10
142.5937849999999969
20
-156.3148379999999804
11
142.3080699999999865
21
-156.3148379999999804
0
LINE
8
BLACK
6
CONTINUOUS
10
143.5461659999999995
20
-154.981504000000001
11
144.3080699999999865
21
-154.981504000000001
0
LINE
8
BLACK
6
CONTINUOUS
10
143.831879999999984
20
-154.3148379999999804
11
143.831879999999984
21
-156.0291229999999985
0
LINE
8
BLACK
6
CONTINUOUS
10
143.831879999999984
20
-156.0291229999999985
11
143.9271180000000072
21
-156.2195999999999856
0
LINE
8
BLACK
6
CONTINUOUS
10
143.9271180000000072
20
-156.2195999999999856
11
144.1175939999999969
21
-156.3148379999999804
0
LINE
8
BLACK
6
CONTINUOUS
10
144.1175939999999969
20
-156.3148379999999804
11
144.3080699999999865
21
-156.3148379999999804
0
LINE
8
BLACK
6
CONTINUOUS
10
146.4985470000000021
20
-154.981504000000001
11
146.4985470000000021
21
-156.981504000000001
0
LINE
8
BLACK
6
CONTINUOUS
10
146.4985470000000021
20
-155.0767419999999959
11
146.6890229999999917
21
-154.981504000000001
0
LINE
8
BLACK
6
CONTINUOUS
10
146.6890229999999917
20
-154.981504000000001
11
147.0699759999999969
21
-154.981504000000001
0
LINE
8
BLACK
6
CONTINUOUS
10
147.0699759999999969
20
-154.981504000000001
11
147.2604519999999866
21
-155.0767419999999959
0
LINE
8
BLACK
6
CONTINUOUS
10
147.2604519999999866
20
-155.0767419999999959
11
147.3556899999999814
21
-155.1719799999999907
0
LINE
8
BLACK
6
CONTINUOUS
10
147.3556899999999814
20
-155.1719799999999907
11
147.4509280000000047
21
-155.3624570000000062
0
LINE
8
BLACK
6
CONTINUOUS
10
147.4509280000000047
20
-155.3624570000000062
11
147.4509280000000047
21
-155.9338850000000036
0
LINE
8
BLACK
6
CONTINUOUS
10
147.4509280000000047
20
-155.9338850000000036
11
147.3556899999999814
21
-156.1243609999999933
0
LINE
8
BLACK
6
CONTINUOUS
10
147.3556899999999814
20
-156.1243609999999933
11
147.2604519999999866
21
-156.2195999999999856
0
LINE
8
BLACK
6
CONTINUOUS
10
147.2604519999999866
20
-156.2195999999999856
11
147.0699759999999969
21
-156.3148379999999804
0
LINE
8
BLACK
6
CONTINUOUS
10
147.0699759999999969
20
-156.3148379999999804
11
146.6890229999999917
21
-156.3148379999999804
0
LINE
8
BLACK
6
CONTINUOUS
10
146.6890229999999917
20
-156.3148379999999804
11
146.4985470000000021
21
-156.2195999999999856
0
LINE
8
BLACK
6
CONTINUOUS
10
148.5937849999999969
20
-156.3148379999999804
11
148.4033090000000072
21
-156.2195999999999856
0
LINE
8
BLACK
6
CONTINUOUS
10
148.4033090000000072
20
-156.2195999999999856
11
148.308070999999984
21
-156.0291229999999985
0
LINE
8
BLACK
6
CONTINUOUS
10
148.308070999999984
20
-156.0291229999999985
11
148.308070999999984
21
-154.3148379999999804
0
LINE
8
BLACK
6
CONTINUOUS
10
150.2128329999999892
20
-156.3148379999999804
11
150.2128329999999892
21
-155.267218999999983
0
LINE
8
BLACK
6
CONTINUOUS
10
150.2128329999999892
20
-155.267218999999983
11
150.1175949999999943
21
-155.0767419999999959
0
LINE
8
BLACK
6
CONTINUOUS
10
150.1175949999999943
20
-155.0767419999999959
11
149.9271190000000047
21
-154.981504000000001
0
LINE
8
BLACK
6
CONTINUOUS
10
149.9271190000000047
20
-154.981504000000001
11
149.5461659999999995
21
-154.981504000000001
0
LINE
8
BLACK
6
CONTINUOUS
10
149.5461659999999995
20
-154.981504000000001
11
149.3556899999999814
21
-155.0767419999999959
0
LINE
8
BLACK
6
CONTINUOUS
10
150.2128329999999892
20
-156.2195999999999856
11
150.0223569999999995
21
-156.3148379999999804
0
LINE
8
BLACK
6
CONTINUOUS
10
150.0223569999999995
20
-156.3148379999999804
11
149.5461659999999995
21
-156.3148379999999804
0
LINE
8
BLACK
6
CONTINUOUS
10
149.5461659999999995
20
-156.3148379999999804
11
149.3556899999999814
21
-156.2195999999999856
0
LINE
8
BLACK
6
CONTINUOUS
10
149.3556899999999814
20
-156.2195999999999856
11
149.2604519999999866
21
-156.0291229999999985
0
LINE
8
BLACK
6
CONTINUOUS
10
149.2604519999999866
20
-156.0291229999999985
11
149.2604519999999866
21
-155.8386469999999804
0
LINE
8
BLACK
6
CONTINUOUS
10
149.2604519999999866
20
-155.8386469999999804
11
149.3556899999999814
21
-155.6481709999999907
0
LINE
8
BLACK
6
CONTINUOUS
10
149.3556899999999814
20
-155.6481709999999907
11
149.5461659999999995
21
-155.5529329999999959
0
LINE
8
BLACK
6
CONTINUOUS
10
149.5461659999999995
20
-155.5529329999999959
11
150.0223569999999995
21
-155.5529329999999959
0
LINE
8
BLACK
6
CONTINUOUS
10
150.0223569999999995
20
-155.5529329999999959
11
150.2128329999999892
21
-155.4576950000000011
0
LINE
8
BLACK
6
CONTINUOUS
10
150.8795000000000073
20
-154.981504000000001
11
151.6414039999999943
21
-154.981504000000001
0
LINE
8
BLACK
6
CONTINUOUS
10
151.1652139999999918
20
-154.3148379999999804
11
151.1652139999999918
21
-156.0291229999999985
0
LINE
8
BLACK
6
CONTINUOUS
10
151.1652139999999918
20
-156.0291229999999985
11
151.2604519999999866
21
-156.2195999999999856
0
LINE
8
BLACK
6
CONTINUOUS
10
151.2604519999999866
20
-156.2195999999999856
11
151.4509280000000047
21
-156.3148379999999804
0
LINE
8
BLACK
6
CONTINUOUS
10
151.4509280000000047
20
-156.3148379999999804
11
151.6414039999999943
21
-156.3148379999999804
0
LINE
8
BLACK
6
CONTINUOUS
10
153.0699759999999969
20
-156.2195999999999856
11
152.8795000000000073
21
-156.3148379999999804
0
LINE
8
BLACK
6
CONTINUOUS
10
152.8795000000000073
20
-156.3148379999999804
11
152.4985470000000021
21
-156.3148379999999804
0
LINE
8
BLACK
6
CONTINUOUS
10
152.4985470000000021
20
-156.3148379999999804
11
152.308070999999984
21
-156.2195999999999856
0
LINE
8
BLACK
6
CONTINUOUS
10
152.308070999999984
20
-156.2195999999999856
11
152.2128329999999892
21
-156.0291229999999985
0
LINE
8
BLACK
6
CONTINUOUS
10
152.2128329999999892
20
-156.0291229999999985
11
152.2128329999999892
21
-155.267218999999983
0
LINE
8
BLACK
6
CONTINUOUS
10
152.2128329999999892
20
-155.267218999999983
11
152.308070999999984
21
-155.0767419999999959
0
LINE
8
BLACK
6
CONTINUOUS
10
152.308070999999984
20
-155.0767419999999959
11
152.4985470000000021
21
-154.981504000000001
0
LINE
8
BLACK
6
CONTINUOUS
10
152.4985470000000021
20
-154.981504000000001
11
152.8795000000000073
21
-154.981504000000001
0
LINE
8
BLACK
6
CONTINUOUS
10
152.8795000000000073
20
-154.981504000000001
11
153.0699759999999969
21
-155.0767419999999959
0
LINE
8
BLACK
6
CONTINUOUS
10
153.0699759999999969
20
-155.0767419999999959
11
153.1652139999999918
21
-155.267218999999983
0
LINE
8
BLACK
6
CONTINUOUS
10
153.1652139999999918
20
-155.267218999999983
11
153.1652139999999918
21
-155.4576950000000011
0
LINE
8
BLACK
6
CONTINUOUS
10
153.1652139999999918
20
-155.4576950000000011
11
152.2128329999999892
21
-155.6481709999999907
0
LINE
8
BLACK
6
CONTINUOUS
10
154.8794999999999789
20
-156.3148379999999804
11
154.8794999999999789
21
-154.3148379999999804
0
LINE
8
BLACK
6
CONTINUOUS
10
154.8794999999999789
20
-156.2195999999999856
11
154.6890239999999892
21
-156.3148379999999804
0
LINE
8
BLACK
6
CONTINUOUS
10
154.6890239999999892
20
-156.3148379999999804
11
154.308070999999984
21
-156.3148379999999804
0
LINE
8
BLACK
6
CONTINUOUS
10
154.308070999999984
20
-156.3148379999999804
11
154.1175949999999943
21
-156.2195999999999856
0
LINE
8
BLACK
6
CONTINUOUS
10
154.1175949999999943
20
-156.2195999999999856
11
154.0223569999999995
21
-156.1243609999999933
0
LINE
8
BLACK
6
CONTINUOUS
10
154.0223569999999995
20
-156.1243609999999933
11
153.9271190000000047
21
-155.9338850000000036
0
LINE
8
BLACK
6
CONTINUOUS
10
153.9271190000000047
20
-155.9338850000000036
11
153.9271190000000047
21
-155.3624570000000062
0
LINE
8
BLACK
6
CONTINUOUS
10
153.9271190000000047
20
-155.3624570000000062
11
154.0223569999999995
21
-155.1719799999999907
0
LINE
8
BLACK
6
CONTINUOUS
10
154.0223569999999995
20
-155.1719799999999907
11
154.1175949999999943
21
-155.0767419999999959
0
LINE
8
BLACK
6
CONTINUOUS
10
154.1175949999999943
20
-155.0767419999999959
11
154.308070999999984
21
-154.981504000000001
0
LINE
8
BLACK
6
CONTINUOUS
10
154.308070999999984
20
-154.981504000000001
11
154.6890239999999892
21
-154.981504000000001
0
LINE
8
BLACK
6
CONTINUOUS
10
154.6890239999999892
20
-154.981504000000001
11
154.8794999999999789
21
-155.0767419999999959
0
LINE
8
BLACK
6
CONTINUOUS
10
155.6414049999999918
20
-157.0767419999999959
11
155.7366429999999866
21
-156.981504000000001
0
LINE
8
BLACK
6
CONTINUOUS
10
155.7366429999999866
20
-156.981504000000001
11
155.9271190000000047
21
-156.6957899999999881
0
LINE
8
BLACK
6
CONTINUOUS
10
155.9271190000000047
20
-156.6957899999999881
11
156.0223569999999995
21
-156.5053139999999985
0
LINE
8
BLACK
6
CONTINUOUS
10
156.0223569999999995
20
-156.5053139999999985
11
156.1175949999999943
21
-156.2195999999999856
0
LINE
8
BLACK
6
CONTINUOUS
10
156.1175949999999943
20
-156.2195999999999856
11
156.2128329999999892
21
-155.7434089999999856
0
LINE
8
BLACK
6
CONTINUOUS
10
156.2128329999999892
20
-155.7434089999999856
11
156.2128329999999892
21
-155.3624570000000062
0
LINE
8
BLACK
6
CONTINUOUS
10
156.2128329999999892
20
-155.3624570000000062
11
156.1175949999999943
21
-154.8862660000000062
0
LINE
8
BLACK
6
CONTINUOUS
10
156.1175949999999943
20
-154.8862660000000062
11
156.0223569999999995
21
-154.6005519999999933
0
LINE
8
BLACK
6
CONTINUOUS
10
156.0223569999999995
20
-154.6005519999999933
11
155.9271190000000047
21
-154.4100760000000037
0
LINE
8
BLACK
6
CONTINUOUS
10
155.9271190000000047
20
-154.4100760000000037
11
155.7366429999999866
21
-154.1243609999999933
0
LINE
8
BLACK
6
CONTINUOUS
10
155.7366429999999866
20
-154.1243609999999933
11
155.6414049999999918
21
-154.0291229999999985
  0
ENDSEC
  0
EOF
