<?xml version="1.0" standalone="no"?>
 <!DOCTYPE svg PUBLIC "-//W3C//DTD SVG 1.1//EN" 
 "http://www.w3.org/Graphics/SVG/1.1/DTD/svg11.dtd"> 
<svg
  xmlns:svg="http://www.w3.org/2000/svg"
  xmlns="http://www.w3.org/2000/svg"
  xmlns:xlink="http://www.w3.org/1999/xlink"
  xmlns:inkscape="http://www.inkscape.org/namespaces/inkscape"
  version="1.1"
  width="297.0022mm" height="210.0072mm" viewBox="0.0000 0.0000 297.0022 210.0072">
<title>SVG Image created as pathfinder-PTH-drl_map.svg date 2026-06-04T10:59:53 </title>
  <desc>Image generated by PCBNEW </desc>
<g style="fill:#000000; fill-opacity:1.0000;stroke:#000000; stroke-opacity:1.0000;
stroke-linecap:round; stroke-linejoin:round;"
 transform="translate(0 0) scale(1 1)">
</g>
<g style="fill:none; 
stroke:#000000; stroke-width:0.0580; stroke-opacity:1; 
stroke-linecap:round; stroke-linejoin:round;">
<path d="M61.5413 27.1140
L61.5413 120.9753
" />
<path d="M61.5413 27.1140
L116.7539 27.1140
" />
<path d="M116.7539 5.0290
L183.0089 5.0290
" />
<path d="M116.7539 27.1140
L116.7539 5.0290
" />
<path d="M183.0089 5.0290
L183.0089 27.1140
" />
<path d="M183.0089 27.1140
L235.4609 27.1140
" />
<path d="M235.4609 27.1140
L235.4609 120.9753
" />
<path d="M235.4609 120.9753
L61.5413 120.9753
" />
</g>
<g style="fill:none; 
stroke:#000000; stroke-width:0.1159; stroke-opacity:1; 
stroke-linecap:round; stroke-linejoin:round;">
<path d="M122.9736 24.3202
L123.7852 25.1317
" />
<path d="M123.7852 24.3202
L122.9736 25.1317
" />
<path d="M128.8630 24.3202
L129.6745 25.1317
" />
<path d="M129.6745 24.3202
L128.8630 25.1317
" />
<path d="M171.5607 24.3202
L172.3722 25.1317
" />
<path d="M172.3722 24.3202
L171.5607 25.1317
" />
<path d="M177.4500 24.3202
L178.2615 25.1317
" />
<path d="M178.2615 24.3202
L177.4500 25.1317
" />
<circle cx="141.0474" cy="34.8438" r="0.5153" /> 
<circle cx="141.0474" cy="37.7884" r="0.5153" /> 
<circle cx="141.0474" cy="40.7331" r="0.5153" /> 
<circle cx="141.0474" cy="43.6778" r="0.5153" /> 
<circle cx="141.0474" cy="46.6224" r="0.5153" /> 
<circle cx="141.0474" cy="49.5671" r="0.5153" /> 
<circle cx="141.0474" cy="52.5118" r="0.5153" /> 
<circle cx="158.7154" cy="34.8438" r="0.5153" /> 
<circle cx="158.7154" cy="37.7884" r="0.5153" /> 
<circle cx="158.7154" cy="40.7331" r="0.5153" /> 
<circle cx="158.7154" cy="43.6778" r="0.5153" /> 
<circle cx="158.7154" cy="46.6224" r="0.5153" /> 
<circle cx="158.7154" cy="49.5671" r="0.5153" /> 
<circle cx="158.7154" cy="52.5118" r="0.5153" /> 
</g>
<g style="fill:none; 
stroke:#000000; stroke-width:0.1403; stroke-opacity:1; 
stroke-linecap:round; stroke-linejoin:round;">
<path d="M125.0358 12.6095
L125.0358 14.0123
" />
<path d="M124.3344 13.3109
L125.7372 13.3109
" />
<path d="M127.9804 12.6095
L127.9804 14.0123
" />
<path d="M127.2790 13.3109
L128.6818 13.3109
" />
<path d="M173.2547 12.9820
L173.2547 14.3848
" />
<path d="M172.5533 13.6834
L173.9561 13.6834
" />
<path d="M176.1994 12.9820
L176.1994 14.3848
" />
<path d="M175.4980 13.6834
L176.9008 13.6834
" />
<path style="fill:none; 
stroke:#000000; stroke-width:0.1739; stroke-opacity:1; 
stroke-linecap:round; stroke-linejoin:round;fill:none"
d="M 74.3029,71.7148
74.3029,70.4852
73.0733,70.4852
73.0733,71.7148
Z" /> 
<path style="fill:none; 
stroke:#000000; stroke-width:0.1739; stroke-opacity:1; 
stroke-linecap:round; stroke-linejoin:round;fill:none"
d="M 81.6646,68.7702
81.6646,67.5405
80.4349,67.5405
80.4349,68.7702
Z" /> 
<path style="fill:none; 
stroke:#000000; stroke-width:0.1739; stroke-opacity:1; 
stroke-linecap:round; stroke-linejoin:round;fill:none"
d="M 96.3879,49.6298
96.3879,48.4002
95.1583,48.4002
95.1583,49.6298
Z" /> 
<path style="fill:none; 
stroke:#000000; stroke-width:0.1739; stroke-opacity:1; 
stroke-linecap:round; stroke-linejoin:round;fill:none"
d="M 96.5024,71.7148
96.5024,70.4852
95.2728,70.4852
95.2728,71.7148
Z" /> 
<path style="fill:none; 
stroke:#000000; stroke-width:0.1739; stroke-opacity:1; 
stroke-linecap:round; stroke-linejoin:round;fill:none"
d="M 103.7496,46.6851
103.7496,45.4555
102.5200,45.4555
102.5200,46.6851
Z" /> 
<path style="fill:none; 
stroke:#000000; stroke-width:0.1739; stroke-opacity:1; 
stroke-linecap:round; stroke-linejoin:round;fill:none"
d="M 103.8641,68.7702
103.8641,67.5405
102.6344,67.5405
102.6344,68.7702
Z" /> 
<path style="fill:none; 
stroke:#000000; stroke-width:0.1739; stroke-opacity:1; 
stroke-linecap:round; stroke-linejoin:round;fill:none"
d="M 118.4730,71.7148
118.4730,70.4852
117.2433,70.4852
117.2433,71.7148
Z" /> 
<path style="fill:none; 
stroke:#000000; stroke-width:0.1739; stroke-opacity:1; 
stroke-linecap:round; stroke-linejoin:round;fill:none"
d="M 125.8346,68.7702
125.8346,67.5405
124.6050,67.5405
124.6050,68.7702
Z" /> 
<path style="fill:none; 
stroke:#000000; stroke-width:0.1739; stroke-opacity:1; 
stroke-linecap:round; stroke-linejoin:round;fill:none"
d="M 135.0367,102.2658
135.0367,101.0361
133.8071,101.0361
133.8071,102.2658
Z" /> 
<path style="fill:none; 
stroke:#000000; stroke-width:0.1739; stroke-opacity:1; 
stroke-linecap:round; stroke-linejoin:round;fill:none"
d="M 142.3984,99.3211
142.3984,98.0914
141.1687,98.0914
141.1687,99.3211
Z" /> 
<path style="fill:none; 
stroke:#000000; stroke-width:0.1739; stroke-opacity:1; 
stroke-linecap:round; stroke-linejoin:round;fill:none"
d="M 157.1217,102.2658
157.1217,101.0361
155.8921,101.0361
155.8921,102.2658
Z" /> 
<path style="fill:none; 
stroke:#000000; stroke-width:0.1739; stroke-opacity:1; 
stroke-linecap:round; stroke-linejoin:round;fill:none"
d="M 164.4834,99.3211
164.4834,98.0914
163.2538,98.0914
163.2538,99.3211
Z" /> 
<path style="fill:none; 
stroke:#000000; stroke-width:0.1739; stroke-opacity:1; 
stroke-linecap:round; stroke-linejoin:round;fill:none"
d="M 182.3355,71.7148
182.3355,70.4852
181.1058,70.4852
181.1058,71.7148
Z" /> 
<path style="fill:none; 
stroke:#000000; stroke-width:0.1739; stroke-opacity:1; 
stroke-linecap:round; stroke-linejoin:round;fill:none"
d="M 189.6972,68.7702
189.6972,67.5405
188.4675,67.5405
188.4675,68.7702
Z" /> 
<path style="fill:none; 
stroke:#000000; stroke-width:0.1739; stroke-opacity:1; 
stroke-linecap:round; stroke-linejoin:round;fill:none"
d="M 193.3780,49.6298
193.3780,48.4002
192.1483,48.4002
192.1483,49.6298
Z" /> 
<path style="fill:none; 
stroke:#000000; stroke-width:0.1739; stroke-opacity:1; 
stroke-linecap:round; stroke-linejoin:round;fill:none"
d="M 200.7397,46.6851
200.7397,45.4555
199.5100,45.4555
199.5100,46.6851
Z" /> 
<path style="fill:none; 
stroke:#000000; stroke-width:0.1739; stroke-opacity:1; 
stroke-linecap:round; stroke-linejoin:round;fill:none"
d="M 204.4205,71.7148
204.4205,70.4852
203.1908,70.4852
203.1908,71.7148
Z" /> 
<path style="fill:none; 
stroke:#000000; stroke-width:0.1739; stroke-opacity:1; 
stroke-linecap:round; stroke-linejoin:round;fill:none"
d="M 211.7822,68.7702
211.7822,67.5405
210.5525,67.5405
210.5525,68.7702
Z" /> 
</g>
<g style="fill:none; 
stroke:#000000; stroke-width:0.2000; stroke-opacity:1; 
stroke-linecap:round; stroke-linejoin:round;">
<text x="63.5124" y="124.2043"
textLength="14.8667" font-size="2.6667" lengthAdjust="spacingAndGlyphs"
text-anchor="start" opacity="0" stroke-opacity="0">Drill Map:</text>
<g class="stroked-text"><desc>Drill Map:</desc>
<path d="M64.1201 124.1192
L64.1201 122.1192
" />
<path d="M64.1201 122.1192
L64.5963 122.1192
" />
<path d="M64.5963 122.1192
L64.8820 122.2144
" />
<path d="M64.8820 122.2144
L65.0725 122.4049
" />
<path d="M65.0725 122.4049
L65.1677 122.5953
" />
<path d="M65.1677 122.5953
L65.2630 122.9763
" />
<path d="M65.2630 122.9763
L65.2630 123.2620
" />
<path d="M65.2630 123.2620
L65.1677 123.6430
" />
<path d="M65.1677 123.6430
L65.0725 123.8334
" />
<path d="M65.0725 123.8334
L64.8820 124.0239
" />
<path d="M64.8820 124.0239
L64.5963 124.1192
" />
<path d="M64.5963 124.1192
L64.1201 124.1192
" />
<path d="M66.1201 124.1192
L66.1201 122.7858
" />
<path d="M66.1201 123.1668
L66.2154 122.9763
" />
<path d="M66.2154 122.9763
L66.3106 122.8811
" />
<path d="M66.3106 122.8811
L66.5011 122.7858
" />
<path d="M66.5011 122.7858
L66.6915 122.7858
" />
<path d="M67.3582 124.1192
L67.3582 122.7858
" />
<path d="M67.3582 122.1192
L67.2630 122.2144
" />
<path d="M67.2630 122.2144
L67.3582 122.3096
" />
<path d="M67.3582 122.3096
L67.4535 122.2144
" />
<path d="M67.4535 122.2144
L67.3582 122.1192
" />
<path d="M67.3582 122.1192
L67.3582 122.3096
" />
<path d="M68.5963 124.1192
L68.4058 124.0239
" />
<path d="M68.4058 124.0239
L68.3106 123.8334
" />
<path d="M68.3106 123.8334
L68.3106 122.1192
" />
<path d="M69.6439 124.1192
L69.4535 124.0239
" />
<path d="M69.4535 124.0239
L69.3582 123.8334
" />
<path d="M69.3582 123.8334
L69.3582 122.1192
" />
<path d="M71.9296 124.1192
L71.9296 122.1192
" />
<path d="M71.9296 122.1192
L72.5963 123.5477
" />
<path d="M72.5963 123.5477
L73.2630 122.1192
" />
<path d="M73.2630 122.1192
L73.2630 124.1192
" />
<path d="M75.0725 124.1192
L75.0725 123.0715
" />
<path d="M75.0725 123.0715
L74.9773 122.8811
" />
<path d="M74.9773 122.8811
L74.7868 122.7858
" />
<path d="M74.7868 122.7858
L74.4058 122.7858
" />
<path d="M74.4058 122.7858
L74.2154 122.8811
" />
<path d="M75.0725 124.0239
L74.8820 124.1192
" />
<path d="M74.8820 124.1192
L74.4058 124.1192
" />
<path d="M74.4058 124.1192
L74.2154 124.0239
" />
<path d="M74.2154 124.0239
L74.1201 123.8334
" />
<path d="M74.1201 123.8334
L74.1201 123.6430
" />
<path d="M74.1201 123.6430
L74.2154 123.4525
" />
<path d="M74.2154 123.4525
L74.4058 123.3573
" />
<path d="M74.4058 123.3573
L74.8820 123.3573
" />
<path d="M74.8820 123.3573
L75.0725 123.2620
" />
<path d="M76.0249 122.7858
L76.0249 124.7858
" />
<path d="M76.0249 122.8811
L76.2154 122.7858
" />
<path d="M76.2154 122.7858
L76.5963 122.7858
" />
<path d="M76.5963 122.7858
L76.7868 122.8811
" />
<path d="M76.7868 122.8811
L76.8820 122.9763
" />
<path d="M76.8820 122.9763
L76.9773 123.1668
" />
<path d="M76.9773 123.1668
L76.9773 123.7382
" />
<path d="M76.9773 123.7382
L76.8820 123.9287
" />
<path d="M76.8820 123.9287
L76.7868 124.0239
" />
<path d="M76.7868 124.0239
L76.5963 124.1192
" />
<path d="M76.5963 124.1192
L76.2154 124.1192
" />
<path d="M76.2154 124.1192
L76.0249 124.0239
" />
<path d="M77.8344 123.9287
L77.9296 124.0239
" />
<path d="M77.9296 124.0239
L77.8344 124.1192
" />
<path d="M77.8344 124.1192
L77.7392 124.0239
" />
<path d="M77.7392 124.0239
L77.8344 123.9287
" />
<path d="M77.8344 123.9287
L77.8344 124.1192
" />
<path d="M77.8344 122.8811
L77.9296 122.9763
" />
<path d="M77.9296 122.9763
L77.8344 123.0715
" />
<path d="M77.8344 123.0715
L77.7392 122.9763
" />
<path d="M77.7392 122.9763
L77.8344 122.8811
" />
<path d="M77.8344 122.8811
L77.8344 123.0715
" />
</g></g>
<g style="fill:none; 
stroke:#000000; stroke-width:0.1159; stroke-opacity:1; 
stroke-linecap:round; stroke-linejoin:round;">
<path d="M60.7008 126.9986
L61.5124 127.8101
" />
<path d="M61.5124 126.9986
L60.7008 127.8101
" />
</g>
<g style="fill:none; 
stroke:#000000; stroke-width:0.2000; stroke-opacity:1; 
stroke-linecap:round; stroke-linejoin:round;">
<text x="63.5124" y="128.4043"
textLength="46.8667" font-size="2.6667" lengthAdjust="spacingAndGlyphs"
text-anchor="start" opacity="0" stroke-opacity="0">0.700mm / 0.0276" (4 holes)</text>
<g class="stroked-text"><desc>0.700mm / 0.0276" (4 holes)</desc>
<path d="M64.5011 126.3192
L64.6915 126.3192
" />
<path d="M64.6915 126.3192
L64.8820 126.4144
" />
<path d="M64.8820 126.4144
L64.9773 126.5096
" />
<path d="M64.9773 126.5096
L65.0725 126.7001
" />
<path d="M65.0725 126.7001
L65.1677 127.0811
" />
<path d="M65.1677 127.0811
L65.1677 127.5573
" />
<path d="M65.1677 127.5573
L65.0725 127.9382
" />
<path d="M65.0725 127.9382
L64.9773 128.1287
" />
<path d="M64.9773 128.1287
L64.8820 128.2239
" />
<path d="M64.8820 128.2239
L64.6915 128.3192
" />
<path d="M64.6915 128.3192
L64.5011 128.3192
" />
<path d="M64.5011 128.3192
L64.3106 128.2239
" />
<path d="M64.3106 128.2239
L64.2154 128.1287
" />
<path d="M64.2154 128.1287
L64.1201 127.9382
" />
<path d="M64.1201 127.9382
L64.0249 127.5573
" />
<path d="M64.0249 127.5573
L64.0249 127.0811
" />
<path d="M64.0249 127.0811
L64.1201 126.7001
" />
<path d="M64.1201 126.7001
L64.2154 126.5096
" />
<path d="M64.2154 126.5096
L64.3106 126.4144
" />
<path d="M64.3106 126.4144
L64.5011 126.3192
" />
<path d="M66.0249 128.1287
L66.1201 128.2239
" />
<path d="M66.1201 128.2239
L66.0249 128.3192
" />
<path d="M66.0249 128.3192
L65.9296 128.2239
" />
<path d="M65.9296 128.2239
L66.0249 128.1287
" />
<path d="M66.0249 128.1287
L66.0249 128.3192
" />
<path d="M66.7868 126.3192
L68.1201 126.3192
" />
<path d="M68.1201 126.3192
L67.2630 128.3192
" />
<path d="M69.2630 126.3192
L69.4535 126.3192
" />
<path d="M69.4535 126.3192
L69.6439 126.4144
" />
<path d="M69.6439 126.4144
L69.7392 126.5096
" />
<path d="M69.7392 126.5096
L69.8344 126.7001
" />
<path d="M69.8344 126.7001
L69.9296 127.0811
" />
<path d="M69.9296 127.0811
L69.9296 127.5573
" />
<path d="M69.9296 127.5573
L69.8344 127.9382
" />
<path d="M69.8344 127.9382
L69.7392 128.1287
" />
<path d="M69.7392 128.1287
L69.6439 128.2239
" />
<path d="M69.6439 128.2239
L69.4535 128.3192
" />
<path d="M69.4535 128.3192
L69.2630 128.3192
" />
<path d="M69.2630 128.3192
L69.0725 128.2239
" />
<path d="M69.0725 128.2239
L68.9773 128.1287
" />
<path d="M68.9773 128.1287
L68.8820 127.9382
" />
<path d="M68.8820 127.9382
L68.7868 127.5573
" />
<path d="M68.7868 127.5573
L68.7868 127.0811
" />
<path d="M68.7868 127.0811
L68.8820 126.7001
" />
<path d="M68.8820 126.7001
L68.9773 126.5096
" />
<path d="M68.9773 126.5096
L69.0725 126.4144
" />
<path d="M69.0725 126.4144
L69.2630 126.3192
" />
<path d="M71.1677 126.3192
L71.3582 126.3192
" />
<path d="M71.3582 126.3192
L71.5487 126.4144
" />
<path d="M71.5487 126.4144
L71.6439 126.5096
" />
<path d="M71.6439 126.5096
L71.7392 126.7001
" />
<path d="M71.7392 126.7001
L71.8344 127.0811
" />
<path d="M71.8344 127.0811
L71.8344 127.5573
" />
<path d="M71.8344 127.5573
L71.7392 127.9382
" />
<path d="M71.7392 127.9382
L71.6439 128.1287
" />
<path d="M71.6439 128.1287
L71.5487 128.2239
" />
<path d="M71.5487 128.2239
L71.3582 128.3192
" />
<path d="M71.3582 128.3192
L71.1677 128.3192
" />
<path d="M71.1677 128.3192
L70.9773 128.2239
" />
<path d="M70.9773 128.2239
L70.8820 128.1287
" />
<path d="M70.8820 128.1287
L70.7868 127.9382
" />
<path d="M70.7868 127.9382
L70.6915 127.5573
" />
<path d="M70.6915 127.5573
L70.6915 127.0811
" />
<path d="M70.6915 127.0811
L70.7868 126.7001
" />
<path d="M70.7868 126.7001
L70.8820 126.5096
" />
<path d="M70.8820 126.5096
L70.9773 126.4144
" />
<path d="M70.9773 126.4144
L71.1677 126.3192
" />
<path d="M72.6915 128.3192
L72.6915 126.9858
" />
<path d="M72.6915 127.1763
L72.7868 127.0811
" />
<path d="M72.7868 127.0811
L72.9773 126.9858
" />
<path d="M72.9773 126.9858
L73.2630 126.9858
" />
<path d="M73.2630 126.9858
L73.4535 127.0811
" />
<path d="M73.4535 127.0811
L73.5487 127.2715
" />
<path d="M73.5487 127.2715
L73.5487 128.3192
" />
<path d="M73.5487 127.2715
L73.6439 127.0811
" />
<path d="M73.6439 127.0811
L73.8344 126.9858
" />
<path d="M73.8344 126.9858
L74.1201 126.9858
" />
<path d="M74.1201 126.9858
L74.3106 127.0811
" />
<path d="M74.3106 127.0811
L74.4058 127.2715
" />
<path d="M74.4058 127.2715
L74.4058 128.3192
" />
<path d="M75.3582 128.3192
L75.3582 126.9858
" />
<path d="M75.3582 127.1763
L75.4535 127.0811
" />
<path d="M75.4535 127.0811
L75.6439 126.9858
" />
<path d="M75.6439 126.9858
L75.9296 126.9858
" />
<path d="M75.9296 126.9858
L76.1201 127.0811
" />
<path d="M76.1201 127.0811
L76.2154 127.2715
" />
<path d="M76.2154 127.2715
L76.2154 128.3192
" />
<path d="M76.2154 127.2715
L76.3106 127.0811
" />
<path d="M76.3106 127.0811
L76.5011 126.9858
" />
<path d="M76.5011 126.9858
L76.7868 126.9858
" />
<path d="M76.7868 126.9858
L76.9773 127.0811
" />
<path d="M76.9773 127.0811
L77.0725 127.2715
" />
<path d="M77.0725 127.2715
L77.0725 128.3192
" />
<path d="M80.9773 126.2239
L79.2630 128.7953
" />
<path d="M83.5487 126.3192
L83.7392 126.3192
" />
<path d="M83.7392 126.3192
L83.9296 126.4144
" />
<path d="M83.9296 126.4144
L84.0249 126.5096
" />
<path d="M84.0249 126.5096
L84.1201 126.7001
" />
<path d="M84.1201 126.7001
L84.2154 127.0811
" />
<path d="M84.2154 127.0811
L84.2154 127.5573
" />
<path d="M84.2154 127.5573
L84.1201 127.9382
" />
<path d="M84.1201 127.9382
L84.0249 128.1287
" />
<path d="M84.0249 128.1287
L83.9296 128.2239
" />
<path d="M83.9296 128.2239
L83.7392 128.3192
" />
<path d="M83.7392 128.3192
L83.5487 128.3192
" />
<path d="M83.5487 128.3192
L83.3582 128.2239
" />
<path d="M83.3582 128.2239
L83.2630 128.1287
" />
<path d="M83.2630 128.1287
L83.1677 127.9382
" />
<path d="M83.1677 127.9382
L83.0725 127.5573
" />
<path d="M83.0725 127.5573
L83.0725 127.0811
" />
<path d="M83.0725 127.0811
L83.1677 126.7001
" />
<path d="M83.1677 126.7001
L83.2630 126.5096
" />
<path d="M83.2630 126.5096
L83.3582 126.4144
" />
<path d="M83.3582 126.4144
L83.5487 126.3192
" />
<path d="M85.0725 128.1287
L85.1677 128.2239
" />
<path d="M85.1677 128.2239
L85.0725 128.3192
" />
<path d="M85.0725 128.3192
L84.9773 128.2239
" />
<path d="M84.9773 128.2239
L85.0725 128.1287
" />
<path d="M85.0725 128.1287
L85.0725 128.3192
" />
<path d="M86.4058 126.3192
L86.5963 126.3192
" />
<path d="M86.5963 126.3192
L86.7868 126.4144
" />
<path d="M86.7868 126.4144
L86.8820 126.5096
" />
<path d="M86.8820 126.5096
L86.9773 126.7001
" />
<path d="M86.9773 126.7001
L87.0725 127.0811
" />
<path d="M87.0725 127.0811
L87.0725 127.5573
" />
<path d="M87.0725 127.5573
L86.9773 127.9382
" />
<path d="M86.9773 127.9382
L86.8820 128.1287
" />
<path d="M86.8820 128.1287
L86.7868 128.2239
" />
<path d="M86.7868 128.2239
L86.5963 128.3192
" />
<path d="M86.5963 128.3192
L86.4058 128.3192
" />
<path d="M86.4058 128.3192
L86.2154 128.2239
" />
<path d="M86.2154 128.2239
L86.1201 128.1287
" />
<path d="M86.1201 128.1287
L86.0249 127.9382
" />
<path d="M86.0249 127.9382
L85.9296 127.5573
" />
<path d="M85.9296 127.5573
L85.9296 127.0811
" />
<path d="M85.9296 127.0811
L86.0249 126.7001
" />
<path d="M86.0249 126.7001
L86.1201 126.5096
" />
<path d="M86.1201 126.5096
L86.2154 126.4144
" />
<path d="M86.2154 126.4144
L86.4058 126.3192
" />
<path d="M87.8344 126.5096
L87.9296 126.4144
" />
<path d="M87.9296 126.4144
L88.1201 126.3192
" />
<path d="M88.1201 126.3192
L88.5963 126.3192
" />
<path d="M88.5963 126.3192
L88.7868 126.4144
" />
<path d="M88.7868 126.4144
L88.8820 126.5096
" />
<path d="M88.8820 126.5096
L88.9773 126.7001
" />
<path d="M88.9773 126.7001
L88.9773 126.8906
" />
<path d="M88.9773 126.8906
L88.8820 127.1763
" />
<path d="M88.8820 127.1763
L87.7392 128.3192
" />
<path d="M87.7392 128.3192
L88.9773 128.3192
" />
<path d="M89.6439 126.3192
L90.9773 126.3192
" />
<path d="M90.9773 126.3192
L90.1201 128.3192
" />
<path d="M92.5963 126.3192
L92.2154 126.3192
" />
<path d="M92.2154 126.3192
L92.0249 126.4144
" />
<path d="M92.0249 126.4144
L91.9296 126.5096
" />
<path d="M91.9296 126.5096
L91.7392 126.7953
" />
<path d="M91.7392 126.7953
L91.6439 127.1763
" />
<path d="M91.6439 127.1763
L91.6439 127.9382
" />
<path d="M91.6439 127.9382
L91.7392 128.1287
" />
<path d="M91.7392 128.1287
L91.8344 128.2239
" />
<path d="M91.8344 128.2239
L92.0249 128.3192
" />
<path d="M92.0249 128.3192
L92.4058 128.3192
" />
<path d="M92.4058 128.3192
L92.5963 128.2239
" />
<path d="M92.5963 128.2239
L92.6915 128.1287
" />
<path d="M92.6915 128.1287
L92.7868 127.9382
" />
<path d="M92.7868 127.9382
L92.7868 127.4620
" />
<path d="M92.7868 127.4620
L92.6915 127.2715
" />
<path d="M92.6915 127.2715
L92.5963 127.1763
" />
<path d="M92.5963 127.1763
L92.4058 127.0811
" />
<path d="M92.4058 127.0811
L92.0249 127.0811
" />
<path d="M92.0249 127.0811
L91.8344 127.1763
" />
<path d="M91.8344 127.1763
L91.7392 127.2715
" />
<path d="M91.7392 127.2715
L91.6439 127.4620
" />
<path d="M93.5487 126.3192
L93.5487 126.7001
" />
<path d="M94.3106 126.3192
L94.3106 126.7001
" />
<path d="M97.2630 129.0811
L97.1677 128.9858
" />
<path d="M97.1677 128.9858
L96.9773 128.7001
" />
<path d="M96.9773 128.7001
L96.8820 128.5096
" />
<path d="M96.8820 128.5096
L96.7868 128.2239
" />
<path d="M96.7868 128.2239
L96.6915 127.7477
" />
<path d="M96.6915 127.7477
L96.6915 127.3668
" />
<path d="M96.6915 127.3668
L96.7868 126.8906
" />
<path d="M96.7868 126.8906
L96.8820 126.6049
" />
<path d="M96.8820 126.6049
L96.9773 126.4144
" />
<path d="M96.9773 126.4144
L97.1677 126.1287
" />
<path d="M97.1677 126.1287
L97.2630 126.0334
" />
<path d="M98.8820 126.9858
L98.8820 128.3192
" />
<path d="M98.4058 126.2239
L97.9296 127.6525
" />
<path d="M97.9296 127.6525
L99.1677 127.6525
" />
<path d="M101.4534 128.3192
L101.4534 126.3192
" />
<path d="M102.3106 128.3192
L102.3106 127.2715
" />
<path d="M102.3106 127.2715
L102.2154 127.0811
" />
<path d="M102.2154 127.0811
L102.0249 126.9858
" />
<path d="M102.0249 126.9858
L101.7392 126.9858
" />
<path d="M101.7392 126.9858
L101.5487 127.0811
" />
<path d="M101.5487 127.0811
L101.4534 127.1763
" />
<path d="M103.5487 128.3192
L103.3582 128.2239
" />
<path d="M103.3582 128.2239
L103.2630 128.1287
" />
<path d="M103.2630 128.1287
L103.1677 127.9382
" />
<path d="M103.1677 127.9382
L103.1677 127.3668
" />
<path d="M103.1677 127.3668
L103.2630 127.1763
" />
<path d="M103.2630 127.1763
L103.3582 127.0811
" />
<path d="M103.3582 127.0811
L103.5487 126.9858
" />
<path d="M103.5487 126.9858
L103.8344 126.9858
" />
<path d="M103.8344 126.9858
L104.0249 127.0811
" />
<path d="M104.0249 127.0811
L104.1201 127.1763
" />
<path d="M104.1201 127.1763
L104.2154 127.3668
" />
<path d="M104.2154 127.3668
L104.2154 127.9382
" />
<path d="M104.2154 127.9382
L104.1201 128.1287
" />
<path d="M104.1201 128.1287
L104.0249 128.2239
" />
<path d="M104.0249 128.2239
L103.8344 128.3192
" />
<path d="M103.8344 128.3192
L103.5487 128.3192
" />
<path d="M105.3582 128.3192
L105.1677 128.2239
" />
<path d="M105.1677 128.2239
L105.0725 128.0334
" />
<path d="M105.0725 128.0334
L105.0725 126.3192
" />
<path d="M106.8820 128.2239
L106.6915 128.3192
" />
<path d="M106.6915 128.3192
L106.3106 128.3192
" />
<path d="M106.3106 128.3192
L106.1201 128.2239
" />
<path d="M106.1201 128.2239
L106.0249 128.0334
" />
<path d="M106.0249 128.0334
L106.0249 127.2715
" />
<path d="M106.0249 127.2715
L106.1201 127.0811
" />
<path d="M106.1201 127.0811
L106.3106 126.9858
" />
<path d="M106.3106 126.9858
L106.6915 126.9858
" />
<path d="M106.6915 126.9858
L106.8820 127.0811
" />
<path d="M106.8820 127.0811
L106.9773 127.2715
" />
<path d="M106.9773 127.2715
L106.9773 127.4620
" />
<path d="M106.9773 127.4620
L106.0249 127.6525
" />
<path d="M107.7392 128.2239
L107.9296 128.3192
" />
<path d="M107.9296 128.3192
L108.3106 128.3192
" />
<path d="M108.3106 128.3192
L108.5011 128.2239
" />
<path d="M108.5011 128.2239
L108.5963 128.0334
" />
<path d="M108.5963 128.0334
L108.5963 127.9382
" />
<path d="M108.5963 127.9382
L108.5011 127.7477
" />
<path d="M108.5011 127.7477
L108.3106 127.6525
" />
<path d="M108.3106 127.6525
L108.0249 127.6525
" />
<path d="M108.0249 127.6525
L107.8344 127.5573
" />
<path d="M107.8344 127.5573
L107.7392 127.3668
" />
<path d="M107.7392 127.3668
L107.7392 127.2715
" />
<path d="M107.7392 127.2715
L107.8344 127.0811
" />
<path d="M107.8344 127.0811
L108.0249 126.9858
" />
<path d="M108.0249 126.9858
L108.3106 126.9858
" />
<path d="M108.3106 126.9858
L108.5011 127.0811
" />
<path d="M109.2630 129.0811
L109.3582 128.9858
" />
<path d="M109.3582 128.9858
L109.5487 128.7001
" />
<path d="M109.5487 128.7001
L109.6439 128.5096
" />
<path d="M109.6439 128.5096
L109.7392 128.2239
" />
<path d="M109.7392 128.2239
L109.8344 127.7477
" />
<path d="M109.8344 127.7477
L109.8344 127.3668
" />
<path d="M109.8344 127.3668
L109.7392 126.8906
" />
<path d="M109.7392 126.8906
L109.6439 126.6049
" />
<path d="M109.6439 126.6049
L109.5487 126.4144
" />
<path d="M109.5487 126.4144
L109.3582 126.1287
" />
<path d="M109.3582 126.1287
L109.2630 126.0334
" />
</g></g>
<g style="fill:none; 
stroke:#000000; stroke-width:0.1159; stroke-opacity:1; 
stroke-linecap:round; stroke-linejoin:round;">
<circle cx="60.9970" cy="130.0443" r="0.5153" /> 
</g>
<g style="fill:none; 
stroke:#000000; stroke-width:0.2000; stroke-opacity:1; 
stroke-linecap:round; stroke-linejoin:round;">
<text x="63.5124" y="131.0443"
textLength="48.7714" font-size="2.6667" lengthAdjust="spacingAndGlyphs"
text-anchor="start" opacity="0" stroke-opacity="0">0.889mm / 0.0350" (14 holes)</text>
<g class="stroked-text"><desc>0.889mm / 0.0350" (14 holes)</desc>
<path d="M64.5011 128.9592
L64.6915 128.9592
" />
<path d="M64.6915 128.9592
L64.8820 129.0544
" />
<path d="M64.8820 129.0544
L64.9773 129.1496
" />
<path d="M64.9773 129.1496
L65.0725 129.3401
" />
<path d="M65.0725 129.3401
L65.1677 129.7211
" />
<path d="M65.1677 129.7211
L65.1677 130.1973
" />
<path d="M65.1677 130.1973
L65.0725 130.5782
" />
<path d="M65.0725 130.5782
L64.9773 130.7687
" />
<path d="M64.9773 130.7687
L64.8820 130.8639
" />
<path d="M64.8820 130.8639
L64.6915 130.9592
" />
<path d="M64.6915 130.9592
L64.5011 130.9592
" />
<path d="M64.5011 130.9592
L64.3106 130.8639
" />
<path d="M64.3106 130.8639
L64.2154 130.7687
" />
<path d="M64.2154 130.7687
L64.1201 130.5782
" />
<path d="M64.1201 130.5782
L64.0249 130.1973
" />
<path d="M64.0249 130.1973
L64.0249 129.7211
" />
<path d="M64.0249 129.7211
L64.1201 129.3401
" />
<path d="M64.1201 129.3401
L64.2154 129.1496
" />
<path d="M64.2154 129.1496
L64.3106 129.0544
" />
<path d="M64.3106 129.0544
L64.5011 128.9592
" />
<path d="M66.0249 130.7687
L66.1201 130.8639
" />
<path d="M66.1201 130.8639
L66.0249 130.9592
" />
<path d="M66.0249 130.9592
L65.9296 130.8639
" />
<path d="M65.9296 130.8639
L66.0249 130.7687
" />
<path d="M66.0249 130.7687
L66.0249 130.9592
" />
<path d="M67.2630 129.8163
L67.0725 129.7211
" />
<path d="M67.0725 129.7211
L66.9773 129.6258
" />
<path d="M66.9773 129.6258
L66.8820 129.4353
" />
<path d="M66.8820 129.4353
L66.8820 129.3401
" />
<path d="M66.8820 129.3401
L66.9773 129.1496
" />
<path d="M66.9773 129.1496
L67.0725 129.0544
" />
<path d="M67.0725 129.0544
L67.2630 128.9592
" />
<path d="M67.2630 128.9592
L67.6439 128.9592
" />
<path d="M67.6439 128.9592
L67.8344 129.0544
" />
<path d="M67.8344 129.0544
L67.9296 129.1496
" />
<path d="M67.9296 129.1496
L68.0249 129.3401
" />
<path d="M68.0249 129.3401
L68.0249 129.4353
" />
<path d="M68.0249 129.4353
L67.9296 129.6258
" />
<path d="M67.9296 129.6258
L67.8344 129.7211
" />
<path d="M67.8344 129.7211
L67.6439 129.8163
" />
<path d="M67.6439 129.8163
L67.2630 129.8163
" />
<path d="M67.2630 129.8163
L67.0725 129.9115
" />
<path d="M67.0725 129.9115
L66.9773 130.0068
" />
<path d="M66.9773 130.0068
L66.8820 130.1973
" />
<path d="M66.8820 130.1973
L66.8820 130.5782
" />
<path d="M66.8820 130.5782
L66.9773 130.7687
" />
<path d="M66.9773 130.7687
L67.0725 130.8639
" />
<path d="M67.0725 130.8639
L67.2630 130.9592
" />
<path d="M67.2630 130.9592
L67.6439 130.9592
" />
<path d="M67.6439 130.9592
L67.8344 130.8639
" />
<path d="M67.8344 130.8639
L67.9296 130.7687
" />
<path d="M67.9296 130.7687
L68.0249 130.5782
" />
<path d="M68.0249 130.5782
L68.0249 130.1973
" />
<path d="M68.0249 130.1973
L67.9296 130.0068
" />
<path d="M67.9296 130.0068
L67.8344 129.9115
" />
<path d="M67.8344 129.9115
L67.6439 129.8163
" />
<path d="M69.1677 129.8163
L68.9773 129.7211
" />
<path d="M68.9773 129.7211
L68.8820 129.6258
" />
<path d="M68.8820 129.6258
L68.7868 129.4353
" />
<path d="M68.7868 129.4353
L68.7868 129.3401
" />
<path d="M68.7868 129.3401
L68.8820 129.1496
" />
<path d="M68.8820 129.1496
L68.9773 129.0544
" />
<path d="M68.9773 129.0544
L69.1677 128.9592
" />
<path d="M69.1677 128.9592
L69.5487 128.9592
" />
<path d="M69.5487 128.9592
L69.7392 129.0544
" />
<path d="M69.7392 129.0544
L69.8344 129.1496
" />
<path d="M69.8344 129.1496
L69.9296 129.3401
" />
<path d="M69.9296 129.3401
L69.9296 129.4353
" />
<path d="M69.9296 129.4353
L69.8344 129.6258
" />
<path d="M69.8344 129.6258
L69.7392 129.7211
" />
<path d="M69.7392 129.7211
L69.5487 129.8163
" />
<path d="M69.5487 129.8163
L69.1677 129.8163
" />
<path d="M69.1677 129.8163
L68.9773 129.9115
" />
<path d="M68.9773 129.9115
L68.8820 130.0068
" />
<path d="M68.8820 130.0068
L68.7868 130.1973
" />
<path d="M68.7868 130.1973
L68.7868 130.5782
" />
<path d="M68.7868 130.5782
L68.8820 130.7687
" />
<path d="M68.8820 130.7687
L68.9773 130.8639
" />
<path d="M68.9773 130.8639
L69.1677 130.9592
" />
<path d="M69.1677 130.9592
L69.5487 130.9592
" />
<path d="M69.5487 130.9592
L69.7392 130.8639
" />
<path d="M69.7392 130.8639
L69.8344 130.7687
" />
<path d="M69.8344 130.7687
L69.9296 130.5782
" />
<path d="M69.9296 130.5782
L69.9296 130.1973
" />
<path d="M69.9296 130.1973
L69.8344 130.0068
" />
<path d="M69.8344 130.0068
L69.7392 129.9115
" />
<path d="M69.7392 129.9115
L69.5487 129.8163
" />
<path d="M70.8820 130.9592
L71.2630 130.9592
" />
<path d="M71.2630 130.9592
L71.4535 130.8639
" />
<path d="M71.4535 130.8639
L71.5487 130.7687
" />
<path d="M71.5487 130.7687
L71.7392 130.4830
" />
<path d="M71.7392 130.4830
L71.8344 130.1020
" />
<path d="M71.8344 130.1020
L71.8344 129.3401
" />
<path d="M71.8344 129.3401
L71.7392 129.1496
" />
<path d="M71.7392 129.1496
L71.6439 129.0544
" />
<path d="M71.6439 129.0544
L71.4535 128.9592
" />
<path d="M71.4535 128.9592
L71.0725 128.9592
" />
<path d="M71.0725 128.9592
L70.8820 129.0544
" />
<path d="M70.8820 129.0544
L70.7868 129.1496
" />
<path d="M70.7868 129.1496
L70.6915 129.3401
" />
<path d="M70.6915 129.3401
L70.6915 129.8163
" />
<path d="M70.6915 129.8163
L70.7868 130.0068
" />
<path d="M70.7868 130.0068
L70.8820 130.1020
" />
<path d="M70.8820 130.1020
L71.0725 130.1973
" />
<path d="M71.0725 130.1973
L71.4535 130.1973
" />
<path d="M71.4535 130.1973
L71.6439 130.1020
" />
<path d="M71.6439 130.1020
L71.7392 130.0068
" />
<path d="M71.7392 130.0068
L71.8344 129.8163
" />
<path d="M72.6915 130.9592
L72.6915 129.6258
" />
<path d="M72.6915 129.8163
L72.7868 129.7211
" />
<path d="M72.7868 129.7211
L72.9773 129.6258
" />
<path d="M72.9773 129.6258
L73.2630 129.6258
" />
<path d="M73.2630 129.6258
L73.4535 129.7211
" />
<path d="M73.4535 129.7211
L73.5487 129.9115
" />
<path d="M73.5487 129.9115
L73.5487 130.9592
" />
<path d="M73.5487 129.9115
L73.6439 129.7211
" />
<path d="M73.6439 129.7211
L73.8344 129.6258
" />
<path d="M73.8344 129.6258
L74.1201 129.6258
" />
<path d="M74.1201 129.6258
L74.3106 129.7211
" />
<path d="M74.3106 129.7211
L74.4058 129.9115
" />
<path d="M74.4058 129.9115
L74.4058 130.9592
" />
<path d="M75.3582 130.9592
L75.3582 129.6258
" />
<path d="M75.3582 129.8163
L75.4535 129.7211
" />
<path d="M75.4535 129.7211
L75.6439 129.6258
" />
<path d="M75.6439 129.6258
L75.9296 129.6258
" />
<path d="M75.9296 129.6258
L76.1201 129.7211
" />
<path d="M76.1201 129.7211
L76.2154 129.9115
" />
<path d="M76.2154 129.9115
L76.2154 130.9592
" />
<path d="M76.2154 129.9115
L76.3106 129.7211
" />
<path d="M76.3106 129.7211
L76.5011 129.6258
" />
<path d="M76.5011 129.6258
L76.7868 129.6258
" />
<path d="M76.7868 129.6258
L76.9773 129.7211
" />
<path d="M76.9773 129.7211
L77.0725 129.9115
" />
<path d="M77.0725 129.9115
L77.0725 130.9592
" />
<path d="M80.9773 128.8639
L79.2630 131.4353
" />
<path d="M83.5487 128.9592
L83.7392 128.9592
" />
<path d="M83.7392 128.9592
L83.9296 129.0544
" />
<path d="M83.9296 129.0544
L84.0249 129.1496
" />
<path d="M84.0249 129.1496
L84.1201 129.3401
" />
<path d="M84.1201 129.3401
L84.2154 129.7211
" />
<path d="M84.2154 129.7211
L84.2154 130.1973
" />
<path d="M84.2154 130.1973
L84.1201 130.5782
" />
<path d="M84.1201 130.5782
L84.0249 130.7687
" />
<path d="M84.0249 130.7687
L83.9296 130.8639
" />
<path d="M83.9296 130.8639
L83.7392 130.9592
" />
<path d="M83.7392 130.9592
L83.5487 130.9592
" />
<path d="M83.5487 130.9592
L83.3582 130.8639
" />
<path d="M83.3582 130.8639
L83.2630 130.7687
" />
<path d="M83.2630 130.7687
L83.1677 130.5782
" />
<path d="M83.1677 130.5782
L83.0725 130.1973
" />
<path d="M83.0725 130.1973
L83.0725 129.7211
" />
<path d="M83.0725 129.7211
L83.1677 129.3401
" />
<path d="M83.1677 129.3401
L83.2630 129.1496
" />
<path d="M83.2630 129.1496
L83.3582 129.0544
" />
<path d="M83.3582 129.0544
L83.5487 128.9592
" />
<path d="M85.0725 130.7687
L85.1677 130.8639
" />
<path d="M85.1677 130.8639
L85.0725 130.9592
" />
<path d="M85.0725 130.9592
L84.9773 130.8639
" />
<path d="M84.9773 130.8639
L85.0725 130.7687
" />
<path d="M85.0725 130.7687
L85.0725 130.9592
" />
<path d="M86.4058 128.9592
L86.5963 128.9592
" />
<path d="M86.5963 128.9592
L86.7868 129.0544
" />
<path d="M86.7868 129.0544
L86.8820 129.1496
" />
<path d="M86.8820 129.1496
L86.9773 129.3401
" />
<path d="M86.9773 129.3401
L87.0725 129.7211
" />
<path d="M87.0725 129.7211
L87.0725 130.1973
" />
<path d="M87.0725 130.1973
L86.9773 130.5782
" />
<path d="M86.9773 130.5782
L86.8820 130.7687
" />
<path d="M86.8820 130.7687
L86.7868 130.8639
" />
<path d="M86.7868 130.8639
L86.5963 130.9592
" />
<path d="M86.5963 130.9592
L86.4058 130.9592
" />
<path d="M86.4058 130.9592
L86.2154 130.8639
" />
<path d="M86.2154 130.8639
L86.1201 130.7687
" />
<path d="M86.1201 130.7687
L86.0249 130.5782
" />
<path d="M86.0249 130.5782
L85.9296 130.1973
" />
<path d="M85.9296 130.1973
L85.9296 129.7211
" />
<path d="M85.9296 129.7211
L86.0249 129.3401
" />
<path d="M86.0249 129.3401
L86.1201 129.1496
" />
<path d="M86.1201 129.1496
L86.2154 129.0544
" />
<path d="M86.2154 129.0544
L86.4058 128.9592
" />
<path d="M87.7392 128.9592
L88.9773 128.9592
" />
<path d="M88.9773 128.9592
L88.3106 129.7211
" />
<path d="M88.3106 129.7211
L88.5963 129.7211
" />
<path d="M88.5963 129.7211
L88.7868 129.8163
" />
<path d="M88.7868 129.8163
L88.8820 129.9115
" />
<path d="M88.8820 129.9115
L88.9773 130.1020
" />
<path d="M88.9773 130.1020
L88.9773 130.5782
" />
<path d="M88.9773 130.5782
L88.8820 130.7687
" />
<path d="M88.8820 130.7687
L88.7868 130.8639
" />
<path d="M88.7868 130.8639
L88.5963 130.9592
" />
<path d="M88.5963 130.9592
L88.0249 130.9592
" />
<path d="M88.0249 130.9592
L87.8344 130.8639
" />
<path d="M87.8344 130.8639
L87.7392 130.7687
" />
<path d="M90.7868 128.9592
L89.8344 128.9592
" />
<path d="M89.8344 128.9592
L89.7392 129.9115
" />
<path d="M89.7392 129.9115
L89.8344 129.8163
" />
<path d="M89.8344 129.8163
L90.0249 129.7211
" />
<path d="M90.0249 129.7211
L90.5011 129.7211
" />
<path d="M90.5011 129.7211
L90.6915 129.8163
" />
<path d="M90.6915 129.8163
L90.7868 129.9115
" />
<path d="M90.7868 129.9115
L90.8820 130.1020
" />
<path d="M90.8820 130.1020
L90.8820 130.5782
" />
<path d="M90.8820 130.5782
L90.7868 130.7687
" />
<path d="M90.7868 130.7687
L90.6915 130.8639
" />
<path d="M90.6915 130.8639
L90.5011 130.9592
" />
<path d="M90.5011 130.9592
L90.0249 130.9592
" />
<path d="M90.0249 130.9592
L89.8344 130.8639
" />
<path d="M89.8344 130.8639
L89.7392 130.7687
" />
<path d="M92.1201 128.9592
L92.3106 128.9592
" />
<path d="M92.3106 128.9592
L92.5011 129.0544
" />
<path d="M92.5011 129.0544
L92.5963 129.1496
" />
<path d="M92.5963 129.1496
L92.6915 129.3401
" />
<path d="M92.6915 129.3401
L92.7868 129.7211
" />
<path d="M92.7868 129.7211
L92.7868 130.1973
" />
<path d="M92.7868 130.1973
L92.6915 130.5782
" />
<path d="M92.6915 130.5782
L92.5963 130.7687
" />
<path d="M92.5963 130.7687
L92.5011 130.8639
" />
<path d="M92.5011 130.8639
L92.3106 130.9592
" />
<path d="M92.3106 130.9592
L92.1201 130.9592
" />
<path d="M92.1201 130.9592
L91.9296 130.8639
" />
<path d="M91.9296 130.8639
L91.8344 130.7687
" />
<path d="M91.8344 130.7687
L91.7392 130.5782
" />
<path d="M91.7392 130.5782
L91.6439 130.1973
" />
<path d="M91.6439 130.1973
L91.6439 129.7211
" />
<path d="M91.6439 129.7211
L91.7392 129.3401
" />
<path d="M91.7392 129.3401
L91.8344 129.1496
" />
<path d="M91.8344 129.1496
L91.9296 129.0544
" />
<path d="M91.9296 129.0544
L92.1201 128.9592
" />
<path d="M93.5487 128.9592
L93.5487 129.3401
" />
<path d="M94.3106 128.9592
L94.3106 129.3401
" />
<path d="M97.2630 131.7211
L97.1677 131.6258
" />
<path d="M97.1677 131.6258
L96.9773 131.3401
" />
<path d="M96.9773 131.3401
L96.8820 131.1496
" />
<path d="M96.8820 131.1496
L96.7868 130.8639
" />
<path d="M96.7868 130.8639
L96.6915 130.3877
" />
<path d="M96.6915 130.3877
L96.6915 130.0068
" />
<path d="M96.6915 130.0068
L96.7868 129.5306
" />
<path d="M96.7868 129.5306
L96.8820 129.2449
" />
<path d="M96.8820 129.2449
L96.9773 129.0544
" />
<path d="M96.9773 129.0544
L97.1677 128.7687
" />
<path d="M97.1677 128.7687
L97.2630 128.6734
" />
<path d="M99.0725 130.9592
L97.9296 130.9592
" />
<path d="M98.5011 130.9592
L98.5011 128.9592
" />
<path d="M98.5011 128.9592
L98.3106 129.2449
" />
<path d="M98.3106 129.2449
L98.1201 129.4353
" />
<path d="M98.1201 129.4353
L97.9296 129.5306
" />
<path d="M100.7868 129.6258
L100.7868 130.9592
" />
<path d="M100.3106 128.8639
L99.8344 130.2925
" />
<path d="M99.8344 130.2925
L101.0725 130.2925
" />
<path d="M103.3582 130.9592
L103.3582 128.9592
" />
<path d="M104.2154 130.9592
L104.2154 129.9115
" />
<path d="M104.2154 129.9115
L104.1201 129.7211
" />
<path d="M104.1201 129.7211
L103.9296 129.6258
" />
<path d="M103.9296 129.6258
L103.6439 129.6258
" />
<path d="M103.6439 129.6258
L103.4534 129.7211
" />
<path d="M103.4534 129.7211
L103.3582 129.8163
" />
<path d="M105.4534 130.9592
L105.2630 130.8639
" />
<path d="M105.2630 130.8639
L105.1677 130.7687
" />
<path d="M105.1677 130.7687
L105.0725 130.5782
" />
<path d="M105.0725 130.5782
L105.0725 130.0068
" />
<path d="M105.0725 130.0068
L105.1677 129.8163
" />
<path d="M105.1677 129.8163
L105.2630 129.7211
" />
<path d="M105.2630 129.7211
L105.4534 129.6258
" />
<path d="M105.4534 129.6258
L105.7392 129.6258
" />
<path d="M105.7392 129.6258
L105.9296 129.7211
" />
<path d="M105.9296 129.7211
L106.0249 129.8163
" />
<path d="M106.0249 129.8163
L106.1201 130.0068
" />
<path d="M106.1201 130.0068
L106.1201 130.5782
" />
<path d="M106.1201 130.5782
L106.0249 130.7687
" />
<path d="M106.0249 130.7687
L105.9296 130.8639
" />
<path d="M105.9296 130.8639
L105.7392 130.9592
" />
<path d="M105.7392 130.9592
L105.4534 130.9592
" />
<path d="M107.2630 130.9592
L107.0725 130.8639
" />
<path d="M107.0725 130.8639
L106.9773 130.6734
" />
<path d="M106.9773 130.6734
L106.9773 128.9592
" />
<path d="M108.7868 130.8639
L108.5963 130.9592
" />
<path d="M108.5963 130.9592
L108.2154 130.9592
" />
<path d="M108.2154 130.9592
L108.0249 130.8639
" />
<path d="M108.0249 130.8639
L107.9296 130.6734
" />
<path d="M107.9296 130.6734
L107.9296 129.9115
" />
<path d="M107.9296 129.9115
L108.0249 129.7211
" />
<path d="M108.0249 129.7211
L108.2154 129.6258
" />
<path d="M108.2154 129.6258
L108.5963 129.6258
" />
<path d="M108.5963 129.6258
L108.7868 129.7211
" />
<path d="M108.7868 129.7211
L108.8820 129.9115
" />
<path d="M108.8820 129.9115
L108.8820 130.1020
" />
<path d="M108.8820 130.1020
L107.9296 130.2925
" />
<path d="M109.6439 130.8639
L109.8344 130.9592
" />
<path d="M109.8344 130.9592
L110.2154 130.9592
" />
<path d="M110.2154 130.9592
L110.4058 130.8639
" />
<path d="M110.4058 130.8639
L110.5011 130.6734
" />
<path d="M110.5011 130.6734
L110.5011 130.5782
" />
<path d="M110.5011 130.5782
L110.4058 130.3877
" />
<path d="M110.4058 130.3877
L110.2154 130.2925
" />
<path d="M110.2154 130.2925
L109.9296 130.2925
" />
<path d="M109.9296 130.2925
L109.7392 130.1973
" />
<path d="M109.7392 130.1973
L109.6439 130.0068
" />
<path d="M109.6439 130.0068
L109.6439 129.9115
" />
<path d="M109.6439 129.9115
L109.7392 129.7211
" />
<path d="M109.7392 129.7211
L109.9296 129.6258
" />
<path d="M109.9296 129.6258
L110.2154 129.6258
" />
<path d="M110.2154 129.6258
L110.4058 129.7211
" />
<path d="M111.1677 131.7211
L111.2630 131.6258
" />
<path d="M111.2630 131.6258
L111.4534 131.3401
" />
<path d="M111.4534 131.3401
L111.5487 131.1496
" />
<path d="M111.5487 131.1496
L111.6439 130.8639
" />
<path d="M111.6439 130.8639
L111.7392 130.3877
" />
<path d="M111.7392 130.3877
L111.7392 130.0068
" />
<path d="M111.7392 130.0068
L111.6439 129.5306
" />
<path d="M111.6439 129.5306
L111.5487 129.2449
" />
<path d="M111.5487 129.2449
L111.4534 129.0544
" />
<path d="M111.4534 129.0544
L111.2630 128.7687
" />
<path d="M111.2630 128.7687
L111.1677 128.6734
" />
</g></g>
<g style="fill:none; 
stroke:#000000; stroke-width:0.1403; stroke-opacity:1; 
stroke-linecap:round; stroke-linejoin:round;">
<path d="M60.8110 131.9829
L60.8110 133.3857
" />
<path d="M60.1096 132.6843
L61.5124 132.6843
" />
</g>
<g style="fill:none; 
stroke:#000000; stroke-width:0.2000; stroke-opacity:1; 
stroke-linecap:round; stroke-linejoin:round;">
<text x="63.5124" y="133.6843"
textLength="46.8667" font-size="2.6667" lengthAdjust="spacingAndGlyphs"
text-anchor="start" opacity="0" stroke-opacity="0">1.210mm / 0.0476" (4 holes)</text>
<g class="stroked-text"><desc>1.210mm / 0.0476" (4 holes)</desc>
<path d="M65.1677 133.5992
L64.0249 133.5992
" />
<path d="M64.5963 133.5992
L64.5963 131.5992
" />
<path d="M64.5963 131.5992
L64.4058 131.8849
" />
<path d="M64.4058 131.8849
L64.2154 132.0753
" />
<path d="M64.2154 132.0753
L64.0249 132.1706
" />
<path d="M66.0249 133.4087
L66.1201 133.5039
" />
<path d="M66.1201 133.5039
L66.0249 133.5992
" />
<path d="M66.0249 133.5992
L65.9296 133.5039
" />
<path d="M65.9296 133.5039
L66.0249 133.4087
" />
<path d="M66.0249 133.4087
L66.0249 133.5992
" />
<path d="M66.8820 131.7896
L66.9773 131.6944
" />
<path d="M66.9773 131.6944
L67.1677 131.5992
" />
<path d="M67.1677 131.5992
L67.6439 131.5992
" />
<path d="M67.6439 131.5992
L67.8344 131.6944
" />
<path d="M67.8344 131.6944
L67.9296 131.7896
" />
<path d="M67.9296 131.7896
L68.0249 131.9801
" />
<path d="M68.0249 131.9801
L68.0249 132.1706
" />
<path d="M68.0249 132.1706
L67.9296 132.4563
" />
<path d="M67.9296 132.4563
L66.7868 133.5992
" />
<path d="M66.7868 133.5992
L68.0249 133.5992
" />
<path d="M69.9296 133.5992
L68.7868 133.5992
" />
<path d="M69.3582 133.5992
L69.3582 131.5992
" />
<path d="M69.3582 131.5992
L69.1677 131.8849
" />
<path d="M69.1677 131.8849
L68.9773 132.0753
" />
<path d="M68.9773 132.0753
L68.7868 132.1706
" />
<path d="M71.1677 131.5992
L71.3582 131.5992
" />
<path d="M71.3582 131.5992
L71.5487 131.6944
" />
<path d="M71.5487 131.6944
L71.6439 131.7896
" />
<path d="M71.6439 131.7896
L71.7392 131.9801
" />
<path d="M71.7392 131.9801
L71.8344 132.3611
" />
<path d="M71.8344 132.3611
L71.8344 132.8373
" />
<path d="M71.8344 132.8373
L71.7392 133.2182
" />
<path d="M71.7392 133.2182
L71.6439 133.4087
" />
<path d="M71.6439 133.4087
L71.5487 133.5039
" />
<path d="M71.5487 133.5039
L71.3582 133.5992
" />
<path d="M71.3582 133.5992
L71.1677 133.5992
" />
<path d="M71.1677 133.5992
L70.9773 133.5039
" />
<path d="M70.9773 133.5039
L70.8820 133.4087
" />
<path d="M70.8820 133.4087
L70.7868 133.2182
" />
<path d="M70.7868 133.2182
L70.6915 132.8373
" />
<path d="M70.6915 132.8373
L70.6915 132.3611
" />
<path d="M70.6915 132.3611
L70.7868 131.9801
" />
<path d="M70.7868 131.9801
L70.8820 131.7896
" />
<path d="M70.8820 131.7896
L70.9773 131.6944
" />
<path d="M70.9773 131.6944
L71.1677 131.5992
" />
<path d="M72.6915 133.5992
L72.6915 132.2658
" />
<path d="M72.6915 132.4563
L72.7868 132.3611
" />
<path d="M72.7868 132.3611
L72.9773 132.2658
" />
<path d="M72.9773 132.2658
L73.2630 132.2658
" />
<path d="M73.2630 132.2658
L73.4535 132.3611
" />
<path d="M73.4535 132.3611
L73.5487 132.5515
" />
<path d="M73.5487 132.5515
L73.5487 133.5992
" />
<path d="M73.5487 132.5515
L73.6439 132.3611
" />
<path d="M73.6439 132.3611
L73.8344 132.2658
" />
<path d="M73.8344 132.2658
L74.1201 132.2658
" />
<path d="M74.1201 132.2658
L74.3106 132.3611
" />
<path d="M74.3106 132.3611
L74.4058 132.5515
" />
<path d="M74.4058 132.5515
L74.4058 133.5992
" />
<path d="M75.3582 133.5992
L75.3582 132.2658
" />
<path d="M75.3582 132.4563
L75.4535 132.3611
" />
<path d="M75.4535 132.3611
L75.6439 132.2658
" />
<path d="M75.6439 132.2658
L75.9296 132.2658
" />
<path d="M75.9296 132.2658
L76.1201 132.3611
" />
<path d="M76.1201 132.3611
L76.2154 132.5515
" />
<path d="M76.2154 132.5515
L76.2154 133.5992
" />
<path d="M76.2154 132.5515
L76.3106 132.3611
" />
<path d="M76.3106 132.3611
L76.5011 132.2658
" />
<path d="M76.5011 132.2658
L76.7868 132.2658
" />
<path d="M76.7868 132.2658
L76.9773 132.3611
" />
<path d="M76.9773 132.3611
L77.0725 132.5515
" />
<path d="M77.0725 132.5515
L77.0725 133.5992
" />
<path d="M80.9773 131.5039
L79.2630 134.0753
" />
<path d="M83.5487 131.5992
L83.7392 131.5992
" />
<path d="M83.7392 131.5992
L83.9296 131.6944
" />
<path d="M83.9296 131.6944
L84.0249 131.7896
" />
<path d="M84.0249 131.7896
L84.1201 131.9801
" />
<path d="M84.1201 131.9801
L84.2154 132.3611
" />
<path d="M84.2154 132.3611
L84.2154 132.8373
" />
<path d="M84.2154 132.8373
L84.1201 133.2182
" />
<path d="M84.1201 133.2182
L84.0249 133.4087
" />
<path d="M84.0249 133.4087
L83.9296 133.5039
" />
<path d="M83.9296 133.5039
L83.7392 133.5992
" />
<path d="M83.7392 133.5992
L83.5487 133.5992
" />
<path d="M83.5487 133.5992
L83.3582 133.5039
" />
<path d="M83.3582 133.5039
L83.2630 133.4087
" />
<path d="M83.2630 133.4087
L83.1677 133.2182
" />
<path d="M83.1677 133.2182
L83.0725 132.8373
" />
<path d="M83.0725 132.8373
L83.0725 132.3611
" />
<path d="M83.0725 132.3611
L83.1677 131.9801
" />
<path d="M83.1677 131.9801
L83.2630 131.7896
" />
<path d="M83.2630 131.7896
L83.3582 131.6944
" />
<path d="M83.3582 131.6944
L83.5487 131.5992
" />
<path d="M85.0725 133.4087
L85.1677 133.5039
" />
<path d="M85.1677 133.5039
L85.0725 133.5992
" />
<path d="M85.0725 133.5992
L84.9773 133.5039
" />
<path d="M84.9773 133.5039
L85.0725 133.4087
" />
<path d="M85.0725 133.4087
L85.0725 133.5992
" />
<path d="M86.4058 131.5992
L86.5963 131.5992
" />
<path d="M86.5963 131.5992
L86.7868 131.6944
" />
<path d="M86.7868 131.6944
L86.8820 131.7896
" />
<path d="M86.8820 131.7896
L86.9773 131.9801
" />
<path d="M86.9773 131.9801
L87.0725 132.3611
" />
<path d="M87.0725 132.3611
L87.0725 132.8373
" />
<path d="M87.0725 132.8373
L86.9773 133.2182
" />
<path d="M86.9773 133.2182
L86.8820 133.4087
" />
<path d="M86.8820 133.4087
L86.7868 133.5039
" />
<path d="M86.7868 133.5039
L86.5963 133.5992
" />
<path d="M86.5963 133.5992
L86.4058 133.5992
" />
<path d="M86.4058 133.5992
L86.2154 133.5039
" />
<path d="M86.2154 133.5039
L86.1201 133.4087
" />
<path d="M86.1201 133.4087
L86.0249 133.2182
" />
<path d="M86.0249 133.2182
L85.9296 132.8373
" />
<path d="M85.9296 132.8373
L85.9296 132.3611
" />
<path d="M85.9296 132.3611
L86.0249 131.9801
" />
<path d="M86.0249 131.9801
L86.1201 131.7896
" />
<path d="M86.1201 131.7896
L86.2154 131.6944
" />
<path d="M86.2154 131.6944
L86.4058 131.5992
" />
<path d="M88.7868 132.2658
L88.7868 133.5992
" />
<path d="M88.3106 131.5039
L87.8344 132.9325
" />
<path d="M87.8344 132.9325
L89.0725 132.9325
" />
<path d="M89.6439 131.5992
L90.9773 131.5992
" />
<path d="M90.9773 131.5992
L90.1201 133.5992
" />
<path d="M92.5963 131.5992
L92.2154 131.5992
" />
<path d="M92.2154 131.5992
L92.0249 131.6944
" />
<path d="M92.0249 131.6944
L91.9296 131.7896
" />
<path d="M91.9296 131.7896
L91.7392 132.0753
" />
<path d="M91.7392 132.0753
L91.6439 132.4563
" />
<path d="M91.6439 132.4563
L91.6439 133.2182
" />
<path d="M91.6439 133.2182
L91.7392 133.4087
" />
<path d="M91.7392 133.4087
L91.8344 133.5039
" />
<path d="M91.8344 133.5039
L92.0249 133.5992
" />
<path d="M92.0249 133.5992
L92.4058 133.5992
" />
<path d="M92.4058 133.5992
L92.5963 133.5039
" />
<path d="M92.5963 133.5039
L92.6915 133.4087
" />
<path d="M92.6915 133.4087
L92.7868 133.2182
" />
<path d="M92.7868 133.2182
L92.7868 132.7420
" />
<path d="M92.7868 132.7420
L92.6915 132.5515
" />
<path d="M92.6915 132.5515
L92.5963 132.4563
" />
<path d="M92.5963 132.4563
L92.4058 132.3611
" />
<path d="M92.4058 132.3611
L92.0249 132.3611
" />
<path d="M92.0249 132.3611
L91.8344 132.4563
" />
<path d="M91.8344 132.4563
L91.7392 132.5515
" />
<path d="M91.7392 132.5515
L91.6439 132.7420
" />
<path d="M93.5487 131.5992
L93.5487 131.9801
" />
<path d="M94.3106 131.5992
L94.3106 131.9801
" />
<path d="M97.2630 134.3611
L97.1677 134.2658
" />
<path d="M97.1677 134.2658
L96.9773 133.9801
" />
<path d="M96.9773 133.9801
L96.8820 133.7896
" />
<path d="M96.8820 133.7896
L96.7868 133.5039
" />
<path d="M96.7868 133.5039
L96.6915 133.0277
" />
<path d="M96.6915 133.0277
L96.6915 132.6468
" />
<path d="M96.6915 132.6468
L96.7868 132.1706
" />
<path d="M96.7868 132.1706
L96.8820 131.8849
" />
<path d="M96.8820 131.8849
L96.9773 131.6944
" />
<path d="M96.9773 131.6944
L97.1677 131.4087
" />
<path d="M97.1677 131.4087
L97.2630 131.3134
" />
<path d="M98.8820 132.2658
L98.8820 133.5992
" />
<path d="M98.4058 131.5039
L97.9296 132.9325
" />
<path d="M97.9296 132.9325
L99.1677 132.9325
" />
<path d="M101.4534 133.5992
L101.4534 131.5992
" />
<path d="M102.3106 133.5992
L102.3106 132.5515
" />
<path d="M102.3106 132.5515
L102.2154 132.3611
" />
<path d="M102.2154 132.3611
L102.0249 132.2658
" />
<path d="M102.0249 132.2658
L101.7392 132.2658
" />
<path d="M101.7392 132.2658
L101.5487 132.3611
" />
<path d="M101.5487 132.3611
L101.4534 132.4563
" />
<path d="M103.5487 133.5992
L103.3582 133.5039
" />
<path d="M103.3582 133.5039
L103.2630 133.4087
" />
<path d="M103.2630 133.4087
L103.1677 133.2182
" />
<path d="M103.1677 133.2182
L103.1677 132.6468
" />
<path d="M103.1677 132.6468
L103.2630 132.4563
" />
<path d="M103.2630 132.4563
L103.3582 132.3611
" />
<path d="M103.3582 132.3611
L103.5487 132.2658
" />
<path d="M103.5487 132.2658
L103.8344 132.2658
" />
<path d="M103.8344 132.2658
L104.0249 132.3611
" />
<path d="M104.0249 132.3611
L104.1201 132.4563
" />
<path d="M104.1201 132.4563
L104.2154 132.6468
" />
<path d="M104.2154 132.6468
L104.2154 133.2182
" />
<path d="M104.2154 133.2182
L104.1201 133.4087
" />
<path d="M104.1201 133.4087
L104.0249 133.5039
" />
<path d="M104.0249 133.5039
L103.8344 133.5992
" />
<path d="M103.8344 133.5992
L103.5487 133.5992
" />
<path d="M105.3582 133.5992
L105.1677 133.5039
" />
<path d="M105.1677 133.5039
L105.0725 133.3134
" />
<path d="M105.0725 133.3134
L105.0725 131.5992
" />
<path d="M106.8820 133.5039
L106.6915 133.5992
" />
<path d="M106.6915 133.5992
L106.3106 133.5992
" />
<path d="M106.3106 133.5992
L106.1201 133.5039
" />
<path d="M106.1201 133.5039
L106.0249 133.3134
" />
<path d="M106.0249 133.3134
L106.0249 132.5515
" />
<path d="M106.0249 132.5515
L106.1201 132.3611
" />
<path d="M106.1201 132.3611
L106.3106 132.2658
" />
<path d="M106.3106 132.2658
L106.6915 132.2658
" />
<path d="M106.6915 132.2658
L106.8820 132.3611
" />
<path d="M106.8820 132.3611
L106.9773 132.5515
" />
<path d="M106.9773 132.5515
L106.9773 132.7420
" />
<path d="M106.9773 132.7420
L106.0249 132.9325
" />
<path d="M107.7392 133.5039
L107.9296 133.5992
" />
<path d="M107.9296 133.5992
L108.3106 133.5992
" />
<path d="M108.3106 133.5992
L108.5011 133.5039
" />
<path d="M108.5011 133.5039
L108.5963 133.3134
" />
<path d="M108.5963 133.3134
L108.5963 133.2182
" />
<path d="M108.5963 133.2182
L108.5011 133.0277
" />
<path d="M108.5011 133.0277
L108.3106 132.9325
" />
<path d="M108.3106 132.9325
L108.0249 132.9325
" />
<path d="M108.0249 132.9325
L107.8344 132.8373
" />
<path d="M107.8344 132.8373
L107.7392 132.6468
" />
<path d="M107.7392 132.6468
L107.7392 132.5515
" />
<path d="M107.7392 132.5515
L107.8344 132.3611
" />
<path d="M107.8344 132.3611
L108.0249 132.2658
" />
<path d="M108.0249 132.2658
L108.3106 132.2658
" />
<path d="M108.3106 132.2658
L108.5011 132.3611
" />
<path d="M109.2630 134.3611
L109.3582 134.2658
" />
<path d="M109.3582 134.2658
L109.5487 133.9801
" />
<path d="M109.5487 133.9801
L109.6439 133.7896
" />
<path d="M109.6439 133.7896
L109.7392 133.5039
" />
<path d="M109.7392 133.5039
L109.8344 133.0277
" />
<path d="M109.8344 133.0277
L109.8344 132.6468
" />
<path d="M109.8344 132.6468
L109.7392 132.1706
" />
<path d="M109.7392 132.1706
L109.6439 131.8849
" />
<path d="M109.6439 131.8849
L109.5487 131.6944
" />
<path d="M109.5487 131.6944
L109.3582 131.4087
" />
<path d="M109.3582 131.4087
L109.2630 131.3134
" />
</g><path style="fill:none; 
stroke:#000000; stroke-width:0.1739; stroke-opacity:1; 
stroke-linecap:round; stroke-linejoin:round;fill:none"
d="M 61.2577,135.9391
61.2577,134.7095
60.0280,134.7095
60.0280,135.9391
Z" /> 
</g>
<g style="fill:none; 
stroke:#000000; stroke-width:0.2000; stroke-opacity:1; 
stroke-linecap:round; stroke-linejoin:round;">
<text x="63.5124" y="136.3243"
textLength="48.7714" font-size="2.6667" lengthAdjust="spacingAndGlyphs"
text-anchor="start" opacity="0" stroke-opacity="0">1.500mm / 0.0591" (18 holes)</text>
<g class="stroked-text"><desc>1.500mm / 0.0591" (18 holes)</desc>
<path d="M65.1677 136.2392
L64.0249 136.2392
" />
<path d="M64.5963 136.2392
L64.5963 134.2392
" />
<path d="M64.5963 134.2392
L64.4058 134.5249
" />
<path d="M64.4058 134.5249
L64.2154 134.7153
" />
<path d="M64.2154 134.7153
L64.0249 134.8106
" />
<path d="M66.0249 136.0487
L66.1201 136.1439
" />
<path d="M66.1201 136.1439
L66.0249 136.2392
" />
<path d="M66.0249 136.2392
L65.9296 136.1439
" />
<path d="M65.9296 136.1439
L66.0249 136.0487
" />
<path d="M66.0249 136.0487
L66.0249 136.2392
" />
<path d="M67.9296 134.2392
L66.9773 134.2392
" />
<path d="M66.9773 134.2392
L66.8820 135.1915
" />
<path d="M66.8820 135.1915
L66.9773 135.0963
" />
<path d="M66.9773 135.0963
L67.1677 135.0011
" />
<path d="M67.1677 135.0011
L67.6439 135.0011
" />
<path d="M67.6439 135.0011
L67.8344 135.0963
" />
<path d="M67.8344 135.0963
L67.9296 135.1915
" />
<path d="M67.9296 135.1915
L68.0249 135.3820
" />
<path d="M68.0249 135.3820
L68.0249 135.8582
" />
<path d="M68.0249 135.8582
L67.9296 136.0487
" />
<path d="M67.9296 136.0487
L67.8344 136.1439
" />
<path d="M67.8344 136.1439
L67.6439 136.2392
" />
<path d="M67.6439 136.2392
L67.1677 136.2392
" />
<path d="M67.1677 136.2392
L66.9773 136.1439
" />
<path d="M66.9773 136.1439
L66.8820 136.0487
" />
<path d="M69.2630 134.2392
L69.4535 134.2392
" />
<path d="M69.4535 134.2392
L69.6439 134.3344
" />
<path d="M69.6439 134.3344
L69.7392 134.4296
" />
<path d="M69.7392 134.4296
L69.8344 134.6201
" />
<path d="M69.8344 134.6201
L69.9296 135.0011
" />
<path d="M69.9296 135.0011
L69.9296 135.4773
" />
<path d="M69.9296 135.4773
L69.8344 135.8582
" />
<path d="M69.8344 135.8582
L69.7392 136.0487
" />
<path d="M69.7392 136.0487
L69.6439 136.1439
" />
<path d="M69.6439 136.1439
L69.4535 136.2392
" />
<path d="M69.4535 136.2392
L69.2630 136.2392
" />
<path d="M69.2630 136.2392
L69.0725 136.1439
" />
<path d="M69.0725 136.1439
L68.9773 136.0487
" />
<path d="M68.9773 136.0487
L68.8820 135.8582
" />
<path d="M68.8820 135.8582
L68.7868 135.4773
" />
<path d="M68.7868 135.4773
L68.7868 135.0011
" />
<path d="M68.7868 135.0011
L68.8820 134.6201
" />
<path d="M68.8820 134.6201
L68.9773 134.4296
" />
<path d="M68.9773 134.4296
L69.0725 134.3344
" />
<path d="M69.0725 134.3344
L69.2630 134.2392
" />
<path d="M71.1677 134.2392
L71.3582 134.2392
" />
<path d="M71.3582 134.2392
L71.5487 134.3344
" />
<path d="M71.5487 134.3344
L71.6439 134.4296
" />
<path d="M71.6439 134.4296
L71.7392 134.6201
" />
<path d="M71.7392 134.6201
L71.8344 135.0011
" />
<path d="M71.8344 135.0011
L71.8344 135.4773
" />
<path d="M71.8344 135.4773
L71.7392 135.8582
" />
<path d="M71.7392 135.8582
L71.6439 136.0487
" />
<path d="M71.6439 136.0487
L71.5487 136.1439
" />
<path d="M71.5487 136.1439
L71.3582 136.2392
" />
<path d="M71.3582 136.2392
L71.1677 136.2392
" />
<path d="M71.1677 136.2392
L70.9773 136.1439
" />
<path d="M70.9773 136.1439
L70.8820 136.0487
" />
<path d="M70.8820 136.0487
L70.7868 135.8582
" />
<path d="M70.7868 135.8582
L70.6915 135.4773
" />
<path d="M70.6915 135.4773
L70.6915 135.0011
" />
<path d="M70.6915 135.0011
L70.7868 134.6201
" />
<path d="M70.7868 134.6201
L70.8820 134.4296
" />
<path d="M70.8820 134.4296
L70.9773 134.3344
" />
<path d="M70.9773 134.3344
L71.1677 134.2392
" />
<path d="M72.6915 136.2392
L72.6915 134.9058
" />
<path d="M72.6915 135.0963
L72.7868 135.0011
" />
<path d="M72.7868 135.0011
L72.9773 134.9058
" />
<path d="M72.9773 134.9058
L73.2630 134.9058
" />
<path d="M73.2630 134.9058
L73.4535 135.0011
" />
<path d="M73.4535 135.0011
L73.5487 135.1915
" />
<path d="M73.5487 135.1915
L73.5487 136.2392
" />
<path d="M73.5487 135.1915
L73.6439 135.0011
" />
<path d="M73.6439 135.0011
L73.8344 134.9058
" />
<path d="M73.8344 134.9058
L74.1201 134.9058
" />
<path d="M74.1201 134.9058
L74.3106 135.0011
" />
<path d="M74.3106 135.0011
L74.4058 135.1915
" />
<path d="M74.4058 135.1915
L74.4058 136.2392
" />
<path d="M75.3582 136.2392
L75.3582 134.9058
" />
<path d="M75.3582 135.0963
L75.4535 135.0011
" />
<path d="M75.4535 135.0011
L75.6439 134.9058
" />
<path d="M75.6439 134.9058
L75.9296 134.9058
" />
<path d="M75.9296 134.9058
L76.1201 135.0011
" />
<path d="M76.1201 135.0011
L76.2154 135.1915
" />
<path d="M76.2154 135.1915
L76.2154 136.2392
" />
<path d="M76.2154 135.1915
L76.3106 135.0011
" />
<path d="M76.3106 135.0011
L76.5011 134.9058
" />
<path d="M76.5011 134.9058
L76.7868 134.9058
" />
<path d="M76.7868 134.9058
L76.9773 135.0011
" />
<path d="M76.9773 135.0011
L77.0725 135.1915
" />
<path d="M77.0725 135.1915
L77.0725 136.2392
" />
<path d="M80.9773 134.1439
L79.2630 136.7153
" />
<path d="M83.5487 134.2392
L83.7392 134.2392
" />
<path d="M83.7392 134.2392
L83.9296 134.3344
" />
<path d="M83.9296 134.3344
L84.0249 134.4296
" />
<path d="M84.0249 134.4296
L84.1201 134.6201
" />
<path d="M84.1201 134.6201
L84.2154 135.0011
" />
<path d="M84.2154 135.0011
L84.2154 135.4773
" />
<path d="M84.2154 135.4773
L84.1201 135.8582
" />
<path d="M84.1201 135.8582
L84.0249 136.0487
" />
<path d="M84.0249 136.0487
L83.9296 136.1439
" />
<path d="M83.9296 136.1439
L83.7392 136.2392
" />
<path d="M83.7392 136.2392
L83.5487 136.2392
" />
<path d="M83.5487 136.2392
L83.3582 136.1439
" />
<path d="M83.3582 136.1439
L83.2630 136.0487
" />
<path d="M83.2630 136.0487
L83.1677 135.8582
" />
<path d="M83.1677 135.8582
L83.0725 135.4773
" />
<path d="M83.0725 135.4773
L83.0725 135.0011
" />
<path d="M83.0725 135.0011
L83.1677 134.6201
" />
<path d="M83.1677 134.6201
L83.2630 134.4296
" />
<path d="M83.2630 134.4296
L83.3582 134.3344
" />
<path d="M83.3582 134.3344
L83.5487 134.2392
" />
<path d="M85.0725 136.0487
L85.1677 136.1439
" />
<path d="M85.1677 136.1439
L85.0725 136.2392
" />
<path d="M85.0725 136.2392
L84.9773 136.1439
" />
<path d="M84.9773 136.1439
L85.0725 136.0487
" />
<path d="M85.0725 136.0487
L85.0725 136.2392
" />
<path d="M86.4058 134.2392
L86.5963 134.2392
" />
<path d="M86.5963 134.2392
L86.7868 134.3344
" />
<path d="M86.7868 134.3344
L86.8820 134.4296
" />
<path d="M86.8820 134.4296
L86.9773 134.6201
" />
<path d="M86.9773 134.6201
L87.0725 135.0011
" />
<path d="M87.0725 135.0011
L87.0725 135.4773
" />
<path d="M87.0725 135.4773
L86.9773 135.8582
" />
<path d="M86.9773 135.8582
L86.8820 136.0487
" />
<path d="M86.8820 136.0487
L86.7868 136.1439
" />
<path d="M86.7868 136.1439
L86.5963 136.2392
" />
<path d="M86.5963 136.2392
L86.4058 136.2392
" />
<path d="M86.4058 136.2392
L86.2154 136.1439
" />
<path d="M86.2154 136.1439
L86.1201 136.0487
" />
<path d="M86.1201 136.0487
L86.0249 135.8582
" />
<path d="M86.0249 135.8582
L85.9296 135.4773
" />
<path d="M85.9296 135.4773
L85.9296 135.0011
" />
<path d="M85.9296 135.0011
L86.0249 134.6201
" />
<path d="M86.0249 134.6201
L86.1201 134.4296
" />
<path d="M86.1201 134.4296
L86.2154 134.3344
" />
<path d="M86.2154 134.3344
L86.4058 134.2392
" />
<path d="M88.8820 134.2392
L87.9296 134.2392
" />
<path d="M87.9296 134.2392
L87.8344 135.1915
" />
<path d="M87.8344 135.1915
L87.9296 135.0963
" />
<path d="M87.9296 135.0963
L88.1201 135.0011
" />
<path d="M88.1201 135.0011
L88.5963 135.0011
" />
<path d="M88.5963 135.0011
L88.7868 135.0963
" />
<path d="M88.7868 135.0963
L88.8820 135.1915
" />
<path d="M88.8820 135.1915
L88.9773 135.3820
" />
<path d="M88.9773 135.3820
L88.9773 135.8582
" />
<path d="M88.9773 135.8582
L88.8820 136.0487
" />
<path d="M88.8820 136.0487
L88.7868 136.1439
" />
<path d="M88.7868 136.1439
L88.5963 136.2392
" />
<path d="M88.5963 136.2392
L88.1201 136.2392
" />
<path d="M88.1201 136.2392
L87.9296 136.1439
" />
<path d="M87.9296 136.1439
L87.8344 136.0487
" />
<path d="M89.9296 136.2392
L90.3106 136.2392
" />
<path d="M90.3106 136.2392
L90.5011 136.1439
" />
<path d="M90.5011 136.1439
L90.5963 136.0487
" />
<path d="M90.5963 136.0487
L90.7868 135.7630
" />
<path d="M90.7868 135.7630
L90.8820 135.3820
" />
<path d="M90.8820 135.3820
L90.8820 134.6201
" />
<path d="M90.8820 134.6201
L90.7868 134.4296
" />
<path d="M90.7868 134.4296
L90.6915 134.3344
" />
<path d="M90.6915 134.3344
L90.5011 134.2392
" />
<path d="M90.5011 134.2392
L90.1201 134.2392
" />
<path d="M90.1201 134.2392
L89.9296 134.3344
" />
<path d="M89.9296 134.3344
L89.8344 134.4296
" />
<path d="M89.8344 134.4296
L89.7392 134.6201
" />
<path d="M89.7392 134.6201
L89.7392 135.0963
" />
<path d="M89.7392 135.0963
L89.8344 135.2868
" />
<path d="M89.8344 135.2868
L89.9296 135.3820
" />
<path d="M89.9296 135.3820
L90.1201 135.4773
" />
<path d="M90.1201 135.4773
L90.5011 135.4773
" />
<path d="M90.5011 135.4773
L90.6915 135.3820
" />
<path d="M90.6915 135.3820
L90.7868 135.2868
" />
<path d="M90.7868 135.2868
L90.8820 135.0963
" />
<path d="M92.7868 136.2392
L91.6439 136.2392
" />
<path d="M92.2154 136.2392
L92.2154 134.2392
" />
<path d="M92.2154 134.2392
L92.0249 134.5249
" />
<path d="M92.0249 134.5249
L91.8344 134.7153
" />
<path d="M91.8344 134.7153
L91.6439 134.8106
" />
<path d="M93.5487 134.2392
L93.5487 134.6201
" />
<path d="M94.3106 134.2392
L94.3106 134.6201
" />
<path d="M97.2630 137.0011
L97.1677 136.9058
" />
<path d="M97.1677 136.9058
L96.9773 136.6201
" />
<path d="M96.9773 136.6201
L96.8820 136.4296
" />
<path d="M96.8820 136.4296
L96.7868 136.1439
" />
<path d="M96.7868 136.1439
L96.6915 135.6677
" />
<path d="M96.6915 135.6677
L96.6915 135.2868
" />
<path d="M96.6915 135.2868
L96.7868 134.8106
" />
<path d="M96.7868 134.8106
L96.8820 134.5249
" />
<path d="M96.8820 134.5249
L96.9773 134.3344
" />
<path d="M96.9773 134.3344
L97.1677 134.0487
" />
<path d="M97.1677 134.0487
L97.2630 133.9534
" />
<path d="M99.0725 136.2392
L97.9296 136.2392
" />
<path d="M98.5011 136.2392
L98.5011 134.2392
" />
<path d="M98.5011 134.2392
L98.3106 134.5249
" />
<path d="M98.3106 134.5249
L98.1201 134.7153
" />
<path d="M98.1201 134.7153
L97.9296 134.8106
" />
<path d="M100.2154 135.0963
L100.0249 135.0011
" />
<path d="M100.0249 135.0011
L99.9296 134.9058
" />
<path d="M99.9296 134.9058
L99.8344 134.7153
" />
<path d="M99.8344 134.7153
L99.8344 134.6201
" />
<path d="M99.8344 134.6201
L99.9296 134.4296
" />
<path d="M99.9296 134.4296
L100.0249 134.3344
" />
<path d="M100.0249 134.3344
L100.2154 134.2392
" />
<path d="M100.2154 134.2392
L100.5963 134.2392
" />
<path d="M100.5963 134.2392
L100.7868 134.3344
" />
<path d="M100.7868 134.3344
L100.8820 134.4296
" />
<path d="M100.8820 134.4296
L100.9773 134.6201
" />
<path d="M100.9773 134.6201
L100.9773 134.7153
" />
<path d="M100.9773 134.7153
L100.8820 134.9058
" />
<path d="M100.8820 134.9058
L100.7868 135.0011
" />
<path d="M100.7868 135.0011
L100.5963 135.0963
" />
<path d="M100.5963 135.0963
L100.2154 135.0963
" />
<path d="M100.2154 135.0963
L100.0249 135.1915
" />
<path d="M100.0249 135.1915
L99.9296 135.2868
" />
<path d="M99.9296 135.2868
L99.8344 135.4773
" />
<path d="M99.8344 135.4773
L99.8344 135.8582
" />
<path d="M99.8344 135.8582
L99.9296 136.0487
" />
<path d="M99.9296 136.0487
L100.0249 136.1439
" />
<path d="M100.0249 136.1439
L100.2154 136.2392
" />
<path d="M100.2154 136.2392
L100.5963 136.2392
" />
<path d="M100.5963 136.2392
L100.7868 136.1439
" />
<path d="M100.7868 136.1439
L100.8820 136.0487
" />
<path d="M100.8820 136.0487
L100.9773 135.8582
" />
<path d="M100.9773 135.8582
L100.9773 135.4773
" />
<path d="M100.9773 135.4773
L100.8820 135.2868
" />
<path d="M100.8820 135.2868
L100.7868 135.1915
" />
<path d="M100.7868 135.1915
L100.5963 135.0963
" />
<path d="M103.3582 136.2392
L103.3582 134.2392
" />
<path d="M104.2154 136.2392
L104.2154 135.1915
" />
<path d="M104.2154 135.1915
L104.1201 135.0011
" />
<path d="M104.1201 135.0011
L103.9296 134.9058
" />
<path d="M103.9296 134.9058
L103.6439 134.9058
" />
<path d="M103.6439 134.9058
L103.4534 135.0011
" />
<path d="M103.4534 135.0011
L103.3582 135.0963
" />
<path d="M105.4534 136.2392
L105.2630 136.1439
" />
<path d="M105.2630 136.1439
L105.1677 136.0487
" />
<path d="M105.1677 136.0487
L105.0725 135.8582
" />
<path d="M105.0725 135.8582
L105.0725 135.2868
" />
<path d="M105.0725 135.2868
L105.1677 135.0963
" />
<path d="M105.1677 135.0963
L105.2630 135.0011
" />
<path d="M105.2630 135.0011
L105.4534 134.9058
" />
<path d="M105.4534 134.9058
L105.7392 134.9058
" />
<path d="M105.7392 134.9058
L105.9296 135.0011
" />
<path d="M105.9296 135.0011
L106.0249 135.0963
" />
<path d="M106.0249 135.0963
L106.1201 135.2868
" />
<path d="M106.1201 135.2868
L106.1201 135.8582
" />
<path d="M106.1201 135.8582
L106.0249 136.0487
" />
<path d="M106.0249 136.0487
L105.9296 136.1439
" />
<path d="M105.9296 136.1439
L105.7392 136.2392
" />
<path d="M105.7392 136.2392
L105.4534 136.2392
" />
<path d="M107.2630 136.2392
L107.0725 136.1439
" />
<path d="M107.0725 136.1439
L106.9773 135.9534
" />
<path d="M106.9773 135.9534
L106.9773 134.2392
" />
<path d="M108.7868 136.1439
L108.5963 136.2392
" />
<path d="M108.5963 136.2392
L108.2154 136.2392
" />
<path d="M108.2154 136.2392
L108.0249 136.1439
" />
<path d="M108.0249 136.1439
L107.9296 135.9534
" />
<path d="M107.9296 135.9534
L107.9296 135.1915
" />
<path d="M107.9296 135.1915
L108.0249 135.0011
" />
<path d="M108.0249 135.0011
L108.2154 134.9058
" />
<path d="M108.2154 134.9058
L108.5963 134.9058
" />
<path d="M108.5963 134.9058
L108.7868 135.0011
" />
<path d="M108.7868 135.0011
L108.8820 135.1915
" />
<path d="M108.8820 135.1915
L108.8820 135.3820
" />
<path d="M108.8820 135.3820
L107.9296 135.5725
" />
<path d="M109.6439 136.1439
L109.8344 136.2392
" />
<path d="M109.8344 136.2392
L110.2154 136.2392
" />
<path d="M110.2154 136.2392
L110.4058 136.1439
" />
<path d="M110.4058 136.1439
L110.5011 135.9534
" />
<path d="M110.5011 135.9534
L110.5011 135.8582
" />
<path d="M110.5011 135.8582
L110.4058 135.6677
" />
<path d="M110.4058 135.6677
L110.2154 135.5725
" />
<path d="M110.2154 135.5725
L109.9296 135.5725
" />
<path d="M109.9296 135.5725
L109.7392 135.4773
" />
<path d="M109.7392 135.4773
L109.6439 135.2868
" />
<path d="M109.6439 135.2868
L109.6439 135.1915
" />
<path d="M109.6439 135.1915
L109.7392 135.0011
" />
<path d="M109.7392 135.0011
L109.9296 134.9058
" />
<path d="M109.9296 134.9058
L110.2154 134.9058
" />
<path d="M110.2154 134.9058
L110.4058 135.0011
" />
<path d="M111.1677 137.0011
L111.2630 136.9058
" />
<path d="M111.2630 136.9058
L111.4534 136.6201
" />
<path d="M111.4534 136.6201
L111.5487 136.4296
" />
<path d="M111.5487 136.4296
L111.6439 136.1439
" />
<path d="M111.6439 136.1439
L111.7392 135.6677
" />
<path d="M111.7392 135.6677
L111.7392 135.2868
" />
<path d="M111.7392 135.2868
L111.6439 134.8106
" />
<path d="M111.6439 134.8106
L111.5487 134.5249
" />
<path d="M111.5487 134.5249
L111.4534 134.3344
" />
<path d="M111.4534 134.3344
L111.2630 134.0487
" />
<path d="M111.2630 134.0487
L111.1677 133.9534
" />
</g></g> 
</svg>
