<?xml version="1.0" standalone="no"?>
 <!DOCTYPE svg PUBLIC "-//W3C//DTD SVG 1.1//EN" 
 "http://www.w3.org/Graphics/SVG/1.1/DTD/svg11.dtd"> 
<svg
  xmlns:svg="http://www.w3.org/2000/svg"
  xmlns="http://www.w3.org/2000/svg"
  xmlns:xlink="http://www.w3.org/1999/xlink"
  xmlns:inkscape="http://www.inkscape.org/namespaces/inkscape"
  version="1.1"
  width="297.0022mm" height="210.0072mm" viewBox="0.0000 0.0000 297.0022 210.0072">
<title>SVG Image created as pathfinder-NPTH-drl_map.svg date 2026-06-04T10:59:53 </title>
  <desc>Image generated by PCBNEW </desc>
<g style="fill:#000000; fill-opacity:1.0000;stroke:#000000; stroke-opacity:1.0000;
stroke-linecap:round; stroke-linejoin:round;"
 transform="translate(0 0) scale(1 1)">
</g>
<g style="fill:none; 
stroke:#000000; stroke-width:0.0580; stroke-opacity:1; 
stroke-linecap:round; stroke-linejoin:round;">
<path d="M61.5413 27.1140
L61.5413 120.9753
" />
<path d="M61.5413 27.1140
L116.7539 27.1140
" />
<path d="M116.7539 5.0290
L183.0089 5.0290
" />
<path d="M116.7539 27.1140
L116.7539 5.0290
" />
<path d="M183.0089 5.0290
L183.0089 27.1140
" />
<path d="M183.0089 27.1140
L235.4609 27.1140
" />
<path d="M235.4609 27.1140
L235.4609 120.9753
" />
<path d="M235.4609 120.9753
L61.5413 120.9753
" />
</g>
<g style="fill:none; 
stroke:#000000; stroke-width:0.1971; stroke-opacity:1; 
stroke-linecap:round; stroke-linejoin:round;">
<path d="M71.2303 73.0592
L73.2012 75.0301
" />
<path d="M73.2012 73.0592
L71.2303 75.0301
" />
<path d="M83.0090 73.0592
L84.9799 75.0301
" />
<path d="M84.9799 73.0592
L83.0090 75.0301
" />
<path d="M93.3154 50.9742
L95.2862 52.9451
" />
<path d="M95.2862 50.9742
L93.3154 52.9451
" />
<path d="M93.4298 73.0592
L95.4007 75.0301
" />
<path d="M95.4007 73.0592
L93.4298 75.0301
" />
<path d="M105.0940 50.9742
L107.0649 52.9451
" />
<path d="M107.0649 50.9742
L105.0940 52.9451
" />
<path d="M105.2085 73.0592
L107.1794 75.0301
" />
<path d="M107.1794 73.0592
L105.2085 75.0301
" />
<path d="M115.4004 73.0592
L117.3712 75.0301
" />
<path d="M117.3712 73.0592
L115.4004 75.0301
" />
<path d="M127.1791 73.0592
L129.1499 75.0301
" />
<path d="M129.1499 73.0592
L127.1791 75.0301
" />
<path d="M131.9641 103.6102
L133.9350 105.5810
" />
<path d="M133.9350 103.6102
L131.9641 105.5810
" />
<path d="M143.7428 103.6102
L145.7137 105.5810
" />
<path d="M145.7137 103.6102
L143.7428 105.5810
" />
<path d="M154.0492 103.6102
L156.0200 105.5810
" />
<path d="M156.0200 103.6102
L154.0492 105.5810
" />
<path d="M165.8278 103.6102
L167.7987 105.5810
" />
<path d="M167.7987 103.6102
L165.8278 105.5810
" />
<path d="M179.2629 73.0592
L181.2337 75.0301
" />
<path d="M181.2337 73.0592
L179.2629 75.0301
" />
<path d="M190.3054 50.9742
L192.2762 52.9451
" />
<path d="M192.2762 50.9742
L190.3054 52.9451
" />
<path d="M191.0416 73.0592
L193.0124 75.0301
" />
<path d="M193.0124 73.0592
L191.0416 75.0301
" />
<path d="M201.3479 73.0592
L203.3188 75.0301
" />
<path d="M203.3188 73.0592
L201.3479 75.0301
" />
<path d="M202.0841 50.9742
L204.0549 52.9451
" />
<path d="M204.0549 50.9742
L202.0841 52.9451
" />
<path d="M213.1266 73.0592
L215.0974 75.0301
" />
<path d="M215.0974 73.0592
L213.1266 75.0301
" />
</g>
<g style="fill:none; 
stroke:#000000; stroke-width:0.3710; stroke-opacity:1; 
stroke-linecap:round; stroke-linejoin:round;">
<circle cx="67.7944" cy="34.7510" r="1.8549" /> 
<circle cx="67.7944" cy="114.1643" r="1.8549" /> 
<circle cx="227.7804" cy="34.7510" r="1.8549" /> 
<circle cx="227.7804" cy="113.5847" r="1.8549" /> 
</g>
<g style="fill:none; 
stroke:#000000; stroke-width:0.4637; stroke-opacity:1; 
stroke-linecap:round; stroke-linejoin:round;">
<path d="M78.1051 71.7260
L78.1051 76.3633
" />
<path d="M75.7865 74.0447
L80.4237 74.0447
" />
<path d="M100.1901 49.6410
L100.1901 54.2783
" />
<path d="M97.8715 51.9596
L102.5088 51.9596
" />
<path d="M100.3046 71.7260
L100.3046 76.3633
" />
<path d="M97.9860 74.0447
L102.6232 74.0447
" />
<path d="M122.2751 71.7260
L122.2751 76.3633
" />
<path d="M119.9565 74.0447
L124.5938 74.0447
" />
<path d="M138.8389 102.2770
L138.8389 106.9143
" />
<path d="M136.5203 104.5956
L141.1575 104.5956
" />
<path d="M160.9239 102.2770
L160.9239 106.9143
" />
<path d="M158.6053 104.5956
L163.2426 104.5956
" />
<path d="M186.1377 71.7260
L186.1377 76.3633
" />
<path d="M183.8190 74.0447
L188.4563 74.0447
" />
<path d="M197.1802 49.6410
L197.1802 54.2783
" />
<path d="M194.8615 51.9596
L199.4988 51.9596
" />
<path d="M208.2227 71.7260
L208.2227 76.3633
" />
<path d="M205.9040 74.0447
L210.5413 74.0447
" />
</g>
<g style="fill:none; 
stroke:#000000; stroke-width:0.2000; stroke-opacity:1; 
stroke-linecap:round; stroke-linejoin:round;">
<text x="63.5124" y="124.2043"
textLength="14.8667" font-size="2.6667" lengthAdjust="spacingAndGlyphs"
text-anchor="start" opacity="0" stroke-opacity="0">Drill Map:</text>
<g class="stroked-text"><desc>Drill Map:</desc>
<path d="M64.1201 124.1192
L64.1201 122.1192
" />
<path d="M64.1201 122.1192
L64.5963 122.1192
" />
<path d="M64.5963 122.1192
L64.8820 122.2144
" />
<path d="M64.8820 122.2144
L65.0725 122.4049
" />
<path d="M65.0725 122.4049
L65.1677 122.5953
" />
<path d="M65.1677 122.5953
L65.2630 122.9763
" />
<path d="M65.2630 122.9763
L65.2630 123.2620
" />
<path d="M65.2630 123.2620
L65.1677 123.6430
" />
<path d="M65.1677 123.6430
L65.0725 123.8334
" />
<path d="M65.0725 123.8334
L64.8820 124.0239
" />
<path d="M64.8820 124.0239
L64.5963 124.1192
" />
<path d="M64.5963 124.1192
L64.1201 124.1192
" />
<path d="M66.1201 124.1192
L66.1201 122.7858
" />
<path d="M66.1201 123.1668
L66.2154 122.9763
" />
<path d="M66.2154 122.9763
L66.3106 122.8811
" />
<path d="M66.3106 122.8811
L66.5011 122.7858
" />
<path d="M66.5011 122.7858
L66.6915 122.7858
" />
<path d="M67.3582 124.1192
L67.3582 122.7858
" />
<path d="M67.3582 122.1192
L67.2630 122.2144
" />
<path d="M67.2630 122.2144
L67.3582 122.3096
" />
<path d="M67.3582 122.3096
L67.4535 122.2144
" />
<path d="M67.4535 122.2144
L67.3582 122.1192
" />
<path d="M67.3582 122.1192
L67.3582 122.3096
" />
<path d="M68.5963 124.1192
L68.4058 124.0239
" />
<path d="M68.4058 124.0239
L68.3106 123.8334
" />
<path d="M68.3106 123.8334
L68.3106 122.1192
" />
<path d="M69.6439 124.1192
L69.4535 124.0239
" />
<path d="M69.4535 124.0239
L69.3582 123.8334
" />
<path d="M69.3582 123.8334
L69.3582 122.1192
" />
<path d="M71.9296 124.1192
L71.9296 122.1192
" />
<path d="M71.9296 122.1192
L72.5963 123.5477
" />
<path d="M72.5963 123.5477
L73.2630 122.1192
" />
<path d="M73.2630 122.1192
L73.2630 124.1192
" />
<path d="M75.0725 124.1192
L75.0725 123.0715
" />
<path d="M75.0725 123.0715
L74.9773 122.8811
" />
<path d="M74.9773 122.8811
L74.7868 122.7858
" />
<path d="M74.7868 122.7858
L74.4058 122.7858
" />
<path d="M74.4058 122.7858
L74.2154 122.8811
" />
<path d="M75.0725 124.0239
L74.8820 124.1192
" />
<path d="M74.8820 124.1192
L74.4058 124.1192
" />
<path d="M74.4058 124.1192
L74.2154 124.0239
" />
<path d="M74.2154 124.0239
L74.1201 123.8334
" />
<path d="M74.1201 123.8334
L74.1201 123.6430
" />
<path d="M74.1201 123.6430
L74.2154 123.4525
" />
<path d="M74.2154 123.4525
L74.4058 123.3573
" />
<path d="M74.4058 123.3573
L74.8820 123.3573
" />
<path d="M74.8820 123.3573
L75.0725 123.2620
" />
<path d="M76.0249 122.7858
L76.0249 124.7858
" />
<path d="M76.0249 122.8811
L76.2154 122.7858
" />
<path d="M76.2154 122.7858
L76.5963 122.7858
" />
<path d="M76.5963 122.7858
L76.7868 122.8811
" />
<path d="M76.7868 122.8811
L76.8820 122.9763
" />
<path d="M76.8820 122.9763
L76.9773 123.1668
" />
<path d="M76.9773 123.1668
L76.9773 123.7382
" />
<path d="M76.9773 123.7382
L76.8820 123.9287
" />
<path d="M76.8820 123.9287
L76.7868 124.0239
" />
<path d="M76.7868 124.0239
L76.5963 124.1192
" />
<path d="M76.5963 124.1192
L76.2154 124.1192
" />
<path d="M76.2154 124.1192
L76.0249 124.0239
" />
<path d="M77.8344 123.9287
L77.9296 124.0239
" />
<path d="M77.9296 124.0239
L77.8344 124.1192
" />
<path d="M77.8344 124.1192
L77.7392 124.0239
" />
<path d="M77.7392 124.0239
L77.8344 123.9287
" />
<path d="M77.8344 123.9287
L77.8344 124.1192
" />
<path d="M77.8344 122.8811
L77.9296 122.9763
" />
<path d="M77.9296 122.9763
L77.8344 123.0715
" />
<path d="M77.8344 123.0715
L77.7392 122.9763
" />
<path d="M77.7392 122.9763
L77.8344 122.8811
" />
<path d="M77.8344 122.8811
L77.8344 123.0715
" />
</g></g>
<g style="fill:none; 
stroke:#000000; stroke-width:0.1971; stroke-opacity:1; 
stroke-linecap:round; stroke-linejoin:round;">
<path d="M59.5415 126.4189
L61.5124 128.3897
" />
<path d="M61.5124 126.4189
L59.5415 128.3897
" />
</g>
<g style="fill:none; 
stroke:#000000; stroke-width:0.2000; stroke-opacity:1; 
stroke-linecap:round; stroke-linejoin:round;">
<text x="63.5124" y="128.4043"
textLength="68.5809" font-size="2.6667" lengthAdjust="spacingAndGlyphs"
text-anchor="start" opacity="0" stroke-opacity="0">1.700mm / 0.0669" (18 holes) (not plated)</text>
<g class="stroked-text"><desc>1.700mm / 0.0669" (18 holes) (not plated)</desc>
<path d="M65.1677 128.3192
L64.0249 128.3192
" />
<path d="M64.5963 128.3192
L64.5963 126.3192
" />
<path d="M64.5963 126.3192
L64.4058 126.6049
" />
<path d="M64.4058 126.6049
L64.2154 126.7953
" />
<path d="M64.2154 126.7953
L64.0249 126.8906
" />
<path d="M66.0249 128.1287
L66.1201 128.2239
" />
<path d="M66.1201 128.2239
L66.0249 128.3192
" />
<path d="M66.0249 128.3192
L65.9296 128.2239
" />
<path d="M65.9296 128.2239
L66.0249 128.1287
" />
<path d="M66.0249 128.1287
L66.0249 128.3192
" />
<path d="M66.7868 126.3192
L68.1201 126.3192
" />
<path d="M68.1201 126.3192
L67.2630 128.3192
" />
<path d="M69.2630 126.3192
L69.4535 126.3192
" />
<path d="M69.4535 126.3192
L69.6439 126.4144
" />
<path d="M69.6439 126.4144
L69.7392 126.5096
" />
<path d="M69.7392 126.5096
L69.8344 126.7001
" />
<path d="M69.8344 126.7001
L69.9296 127.0811
" />
<path d="M69.9296 127.0811
L69.9296 127.5573
" />
<path d="M69.9296 127.5573
L69.8344 127.9382
" />
<path d="M69.8344 127.9382
L69.7392 128.1287
" />
<path d="M69.7392 128.1287
L69.6439 128.2239
" />
<path d="M69.6439 128.2239
L69.4535 128.3192
" />
<path d="M69.4535 128.3192
L69.2630 128.3192
" />
<path d="M69.2630 128.3192
L69.0725 128.2239
" />
<path d="M69.0725 128.2239
L68.9773 128.1287
" />
<path d="M68.9773 128.1287
L68.8820 127.9382
" />
<path d="M68.8820 127.9382
L68.7868 127.5573
" />
<path d="M68.7868 127.5573
L68.7868 127.0811
" />
<path d="M68.7868 127.0811
L68.8820 126.7001
" />
<path d="M68.8820 126.7001
L68.9773 126.5096
" />
<path d="M68.9773 126.5096
L69.0725 126.4144
" />
<path d="M69.0725 126.4144
L69.2630 126.3192
" />
<path d="M71.1677 126.3192
L71.3582 126.3192
" />
<path d="M71.3582 126.3192
L71.5487 126.4144
" />
<path d="M71.5487 126.4144
L71.6439 126.5096
" />
<path d="M71.6439 126.5096
L71.7392 126.7001
" />
<path d="M71.7392 126.7001
L71.8344 127.0811
" />
<path d="M71.8344 127.0811
L71.8344 127.5573
" />
<path d="M71.8344 127.5573
L71.7392 127.9382
" />
<path d="M71.7392 127.9382
L71.6439 128.1287
" />
<path d="M71.6439 128.1287
L71.5487 128.2239
" />
<path d="M71.5487 128.2239
L71.3582 128.3192
" />
<path d="M71.3582 128.3192
L71.1677 128.3192
" />
<path d="M71.1677 128.3192
L70.9773 128.2239
" />
<path d="M70.9773 128.2239
L70.8820 128.1287
" />
<path d="M70.8820 128.1287
L70.7868 127.9382
" />
<path d="M70.7868 127.9382
L70.6915 127.5573
" />
<path d="M70.6915 127.5573
L70.6915 127.0811
" />
<path d="M70.6915 127.0811
L70.7868 126.7001
" />
<path d="M70.7868 126.7001
L70.8820 126.5096
" />
<path d="M70.8820 126.5096
L70.9773 126.4144
" />
<path d="M70.9773 126.4144
L71.1677 126.3192
" />
<path d="M72.6915 128.3192
L72.6915 126.9858
" />
<path d="M72.6915 127.1763
L72.7868 127.0811
" />
<path d="M72.7868 127.0811
L72.9773 126.9858
" />
<path d="M72.9773 126.9858
L73.2630 126.9858
" />
<path d="M73.2630 126.9858
L73.4535 127.0811
" />
<path d="M73.4535 127.0811
L73.5487 127.2715
" />
<path d="M73.5487 127.2715
L73.5487 128.3192
" />
<path d="M73.5487 127.2715
L73.6439 127.0811
" />
<path d="M73.6439 127.0811
L73.8344 126.9858
" />
<path d="M73.8344 126.9858
L74.1201 126.9858
" />
<path d="M74.1201 126.9858
L74.3106 127.0811
" />
<path d="M74.3106 127.0811
L74.4058 127.2715
" />
<path d="M74.4058 127.2715
L74.4058 128.3192
" />
<path d="M75.3582 128.3192
L75.3582 126.9858
" />
<path d="M75.3582 127.1763
L75.4535 127.0811
" />
<path d="M75.4535 127.0811
L75.6439 126.9858
" />
<path d="M75.6439 126.9858
L75.9296 126.9858
" />
<path d="M75.9296 126.9858
L76.1201 127.0811
" />
<path d="M76.1201 127.0811
L76.2154 127.2715
" />
<path d="M76.2154 127.2715
L76.2154 128.3192
" />
<path d="M76.2154 127.2715
L76.3106 127.0811
" />
<path d="M76.3106 127.0811
L76.5011 126.9858
" />
<path d="M76.5011 126.9858
L76.7868 126.9858
" />
<path d="M76.7868 126.9858
L76.9773 127.0811
" />
<path d="M76.9773 127.0811
L77.0725 127.2715
" />
<path d="M77.0725 127.2715
L77.0725 128.3192
" />
<path d="M80.9773 126.2239
L79.2630 128.7953
" />
<path d="M83.5487 126.3192
L83.7392 126.3192
" />
<path d="M83.7392 126.3192
L83.9296 126.4144
" />
<path d="M83.9296 126.4144
L84.0249 126.5096
" />
<path d="M84.0249 126.5096
L84.1201 126.7001
" />
<path d="M84.1201 126.7001
L84.2154 127.0811
" />
<path d="M84.2154 127.0811
L84.2154 127.5573
" />
<path d="M84.2154 127.5573
L84.1201 127.9382
" />
<path d="M84.1201 127.9382
L84.0249 128.1287
" />
<path d="M84.0249 128.1287
L83.9296 128.2239
" />
<path d="M83.9296 128.2239
L83.7392 128.3192
" />
<path d="M83.7392 128.3192
L83.5487 128.3192
" />
<path d="M83.5487 128.3192
L83.3582 128.2239
" />
<path d="M83.3582 128.2239
L83.2630 128.1287
" />
<path d="M83.2630 128.1287
L83.1677 127.9382
" />
<path d="M83.1677 127.9382
L83.0725 127.5573
" />
<path d="M83.0725 127.5573
L83.0725 127.0811
" />
<path d="M83.0725 127.0811
L83.1677 126.7001
" />
<path d="M83.1677 126.7001
L83.2630 126.5096
" />
<path d="M83.2630 126.5096
L83.3582 126.4144
" />
<path d="M83.3582 126.4144
L83.5487 126.3192
" />
<path d="M85.0725 128.1287
L85.1677 128.2239
" />
<path d="M85.1677 128.2239
L85.0725 128.3192
" />
<path d="M85.0725 128.3192
L84.9773 128.2239
" />
<path d="M84.9773 128.2239
L85.0725 128.1287
" />
<path d="M85.0725 128.1287
L85.0725 128.3192
" />
<path d="M86.4058 126.3192
L86.5963 126.3192
" />
<path d="M86.5963 126.3192
L86.7868 126.4144
" />
<path d="M86.7868 126.4144
L86.8820 126.5096
" />
<path d="M86.8820 126.5096
L86.9773 126.7001
" />
<path d="M86.9773 126.7001
L87.0725 127.0811
" />
<path d="M87.0725 127.0811
L87.0725 127.5573
" />
<path d="M87.0725 127.5573
L86.9773 127.9382
" />
<path d="M86.9773 127.9382
L86.8820 128.1287
" />
<path d="M86.8820 128.1287
L86.7868 128.2239
" />
<path d="M86.7868 128.2239
L86.5963 128.3192
" />
<path d="M86.5963 128.3192
L86.4058 128.3192
" />
<path d="M86.4058 128.3192
L86.2154 128.2239
" />
<path d="M86.2154 128.2239
L86.1201 128.1287
" />
<path d="M86.1201 128.1287
L86.0249 127.9382
" />
<path d="M86.0249 127.9382
L85.9296 127.5573
" />
<path d="M85.9296 127.5573
L85.9296 127.0811
" />
<path d="M85.9296 127.0811
L86.0249 126.7001
" />
<path d="M86.0249 126.7001
L86.1201 126.5096
" />
<path d="M86.1201 126.5096
L86.2154 126.4144
" />
<path d="M86.2154 126.4144
L86.4058 126.3192
" />
<path d="M88.7868 126.3192
L88.4058 126.3192
" />
<path d="M88.4058 126.3192
L88.2154 126.4144
" />
<path d="M88.2154 126.4144
L88.1201 126.5096
" />
<path d="M88.1201 126.5096
L87.9296 126.7953
" />
<path d="M87.9296 126.7953
L87.8344 127.1763
" />
<path d="M87.8344 127.1763
L87.8344 127.9382
" />
<path d="M87.8344 127.9382
L87.9296 128.1287
" />
<path d="M87.9296 128.1287
L88.0249 128.2239
" />
<path d="M88.0249 128.2239
L88.2154 128.3192
" />
<path d="M88.2154 128.3192
L88.5963 128.3192
" />
<path d="M88.5963 128.3192
L88.7868 128.2239
" />
<path d="M88.7868 128.2239
L88.8820 128.1287
" />
<path d="M88.8820 128.1287
L88.9773 127.9382
" />
<path d="M88.9773 127.9382
L88.9773 127.4620
" />
<path d="M88.9773 127.4620
L88.8820 127.2715
" />
<path d="M88.8820 127.2715
L88.7868 127.1763
" />
<path d="M88.7868 127.1763
L88.5963 127.0811
" />
<path d="M88.5963 127.0811
L88.2154 127.0811
" />
<path d="M88.2154 127.0811
L88.0249 127.1763
" />
<path d="M88.0249 127.1763
L87.9296 127.2715
" />
<path d="M87.9296 127.2715
L87.8344 127.4620
" />
<path d="M90.6915 126.3192
L90.3106 126.3192
" />
<path d="M90.3106 126.3192
L90.1201 126.4144
" />
<path d="M90.1201 126.4144
L90.0249 126.5096
" />
<path d="M90.0249 126.5096
L89.8344 126.7953
" />
<path d="M89.8344 126.7953
L89.7392 127.1763
" />
<path d="M89.7392 127.1763
L89.7392 127.9382
" />
<path d="M89.7392 127.9382
L89.8344 128.1287
" />
<path d="M89.8344 128.1287
L89.9296 128.2239
" />
<path d="M89.9296 128.2239
L90.1201 128.3192
" />
<path d="M90.1201 128.3192
L90.5011 128.3192
" />
<path d="M90.5011 128.3192
L90.6915 128.2239
" />
<path d="M90.6915 128.2239
L90.7868 128.1287
" />
<path d="M90.7868 128.1287
L90.8820 127.9382
" />
<path d="M90.8820 127.9382
L90.8820 127.4620
" />
<path d="M90.8820 127.4620
L90.7868 127.2715
" />
<path d="M90.7868 127.2715
L90.6915 127.1763
" />
<path d="M90.6915 127.1763
L90.5011 127.0811
" />
<path d="M90.5011 127.0811
L90.1201 127.0811
" />
<path d="M90.1201 127.0811
L89.9296 127.1763
" />
<path d="M89.9296 127.1763
L89.8344 127.2715
" />
<path d="M89.8344 127.2715
L89.7392 127.4620
" />
<path d="M91.8344 128.3192
L92.2154 128.3192
" />
<path d="M92.2154 128.3192
L92.4058 128.2239
" />
<path d="M92.4058 128.2239
L92.5011 128.1287
" />
<path d="M92.5011 128.1287
L92.6915 127.8430
" />
<path d="M92.6915 127.8430
L92.7868 127.4620
" />
<path d="M92.7868 127.4620
L92.7868 126.7001
" />
<path d="M92.7868 126.7001
L92.6915 126.5096
" />
<path d="M92.6915 126.5096
L92.5963 126.4144
" />
<path d="M92.5963 126.4144
L92.4058 126.3192
" />
<path d="M92.4058 126.3192
L92.0249 126.3192
" />
<path d="M92.0249 126.3192
L91.8344 126.4144
" />
<path d="M91.8344 126.4144
L91.7392 126.5096
" />
<path d="M91.7392 126.5096
L91.6439 126.7001
" />
<path d="M91.6439 126.7001
L91.6439 127.1763
" />
<path d="M91.6439 127.1763
L91.7392 127.3668
" />
<path d="M91.7392 127.3668
L91.8344 127.4620
" />
<path d="M91.8344 127.4620
L92.0249 127.5573
" />
<path d="M92.0249 127.5573
L92.4058 127.5573
" />
<path d="M92.4058 127.5573
L92.5963 127.4620
" />
<path d="M92.5963 127.4620
L92.6915 127.3668
" />
<path d="M92.6915 127.3668
L92.7868 127.1763
" />
<path d="M93.5487 126.3192
L93.5487 126.7001
" />
<path d="M94.3106 126.3192
L94.3106 126.7001
" />
<path d="M97.2630 129.0811
L97.1677 128.9858
" />
<path d="M97.1677 128.9858
L96.9773 128.7001
" />
<path d="M96.9773 128.7001
L96.8820 128.5096
" />
<path d="M96.8820 128.5096
L96.7868 128.2239
" />
<path d="M96.7868 128.2239
L96.6915 127.7477
" />
<path d="M96.6915 127.7477
L96.6915 127.3668
" />
<path d="M96.6915 127.3668
L96.7868 126.8906
" />
<path d="M96.7868 126.8906
L96.8820 126.6049
" />
<path d="M96.8820 126.6049
L96.9773 126.4144
" />
<path d="M96.9773 126.4144
L97.1677 126.1287
" />
<path d="M97.1677 126.1287
L97.2630 126.0334
" />
<path d="M99.0725 128.3192
L97.9296 128.3192
" />
<path d="M98.5011 128.3192
L98.5011 126.3192
" />
<path d="M98.5011 126.3192
L98.3106 126.6049
" />
<path d="M98.3106 126.6049
L98.1201 126.7953
" />
<path d="M98.1201 126.7953
L97.9296 126.8906
" />
<path d="M100.2154 127.1763
L100.0249 127.0811
" />
<path d="M100.0249 127.0811
L99.9296 126.9858
" />
<path d="M99.9296 126.9858
L99.8344 126.7953
" />
<path d="M99.8344 126.7953
L99.8344 126.7001
" />
<path d="M99.8344 126.7001
L99.9296 126.5096
" />
<path d="M99.9296 126.5096
L100.0249 126.4144
" />
<path d="M100.0249 126.4144
L100.2154 126.3192
" />
<path d="M100.2154 126.3192
L100.5963 126.3192
" />
<path d="M100.5963 126.3192
L100.7868 126.4144
" />
<path d="M100.7868 126.4144
L100.8820 126.5096
" />
<path d="M100.8820 126.5096
L100.9773 126.7001
" />
<path d="M100.9773 126.7001
L100.9773 126.7953
" />
<path d="M100.9773 126.7953
L100.8820 126.9858
" />
<path d="M100.8820 126.9858
L100.7868 127.0811
" />
<path d="M100.7868 127.0811
L100.5963 127.1763
" />
<path d="M100.5963 127.1763
L100.2154 127.1763
" />
<path d="M100.2154 127.1763
L100.0249 127.2715
" />
<path d="M100.0249 127.2715
L99.9296 127.3668
" />
<path d="M99.9296 127.3668
L99.8344 127.5573
" />
<path d="M99.8344 127.5573
L99.8344 127.9382
" />
<path d="M99.8344 127.9382
L99.9296 128.1287
" />
<path d="M99.9296 128.1287
L100.0249 128.2239
" />
<path d="M100.0249 128.2239
L100.2154 128.3192
" />
<path d="M100.2154 128.3192
L100.5963 128.3192
" />
<path d="M100.5963 128.3192
L100.7868 128.2239
" />
<path d="M100.7868 128.2239
L100.8820 128.1287
" />
<path d="M100.8820 128.1287
L100.9773 127.9382
" />
<path d="M100.9773 127.9382
L100.9773 127.5573
" />
<path d="M100.9773 127.5573
L100.8820 127.3668
" />
<path d="M100.8820 127.3668
L100.7868 127.2715
" />
<path d="M100.7868 127.2715
L100.5963 127.1763
" />
<path d="M103.3582 128.3192
L103.3582 126.3192
" />
<path d="M104.2154 128.3192
L104.2154 127.2715
" />
<path d="M104.2154 127.2715
L104.1201 127.0811
" />
<path d="M104.1201 127.0811
L103.9296 126.9858
" />
<path d="M103.9296 126.9858
L103.6439 126.9858
" />
<path d="M103.6439 126.9858
L103.4534 127.0811
" />
<path d="M103.4534 127.0811
L103.3582 127.1763
" />
<path d="M105.4534 128.3192
L105.2630 128.2239
" />
<path d="M105.2630 128.2239
L105.1677 128.1287
" />
<path d="M105.1677 128.1287
L105.0725 127.9382
" />
<path d="M105.0725 127.9382
L105.0725 127.3668
" />
<path d="M105.0725 127.3668
L105.1677 127.1763
" />
<path d="M105.1677 127.1763
L105.2630 127.0811
" />
<path d="M105.2630 127.0811
L105.4534 126.9858
" />
<path d="M105.4534 126.9858
L105.7392 126.9858
" />
<path d="M105.7392 126.9858
L105.9296 127.0811
" />
<path d="M105.9296 127.0811
L106.0249 127.1763
" />
<path d="M106.0249 127.1763
L106.1201 127.3668
" />
<path d="M106.1201 127.3668
L106.1201 127.9382
" />
<path d="M106.1201 127.9382
L106.0249 128.1287
" />
<path d="M106.0249 128.1287
L105.9296 128.2239
" />
<path d="M105.9296 128.2239
L105.7392 128.3192
" />
<path d="M105.7392 128.3192
L105.4534 128.3192
" />
<path d="M107.2630 128.3192
L107.0725 128.2239
" />
<path d="M107.0725 128.2239
L106.9773 128.0334
" />
<path d="M106.9773 128.0334
L106.9773 126.3192
" />
<path d="M108.7868 128.2239
L108.5963 128.3192
" />
<path d="M108.5963 128.3192
L108.2154 128.3192
" />
<path d="M108.2154 128.3192
L108.0249 128.2239
" />
<path d="M108.0249 128.2239
L107.9296 128.0334
" />
<path d="M107.9296 128.0334
L107.9296 127.2715
" />
<path d="M107.9296 127.2715
L108.0249 127.0811
" />
<path d="M108.0249 127.0811
L108.2154 126.9858
" />
<path d="M108.2154 126.9858
L108.5963 126.9858
" />
<path d="M108.5963 126.9858
L108.7868 127.0811
" />
<path d="M108.7868 127.0811
L108.8820 127.2715
" />
<path d="M108.8820 127.2715
L108.8820 127.4620
" />
<path d="M108.8820 127.4620
L107.9296 127.6525
" />
<path d="M109.6439 128.2239
L109.8344 128.3192
" />
<path d="M109.8344 128.3192
L110.2154 128.3192
" />
<path d="M110.2154 128.3192
L110.4058 128.2239
" />
<path d="M110.4058 128.2239
L110.5011 128.0334
" />
<path d="M110.5011 128.0334
L110.5011 127.9382
" />
<path d="M110.5011 127.9382
L110.4058 127.7477
" />
<path d="M110.4058 127.7477
L110.2154 127.6525
" />
<path d="M110.2154 127.6525
L109.9296 127.6525
" />
<path d="M109.9296 127.6525
L109.7392 127.5573
" />
<path d="M109.7392 127.5573
L109.6439 127.3668
" />
<path d="M109.6439 127.3668
L109.6439 127.2715
" />
<path d="M109.6439 127.2715
L109.7392 127.0811
" />
<path d="M109.7392 127.0811
L109.9296 126.9858
" />
<path d="M109.9296 126.9858
L110.2154 126.9858
" />
<path d="M110.2154 126.9858
L110.4058 127.0811
" />
<path d="M111.1677 129.0811
L111.2630 128.9858
" />
<path d="M111.2630 128.9858
L111.4534 128.7001
" />
<path d="M111.4534 128.7001
L111.5487 128.5096
" />
<path d="M111.5487 128.5096
L111.6439 128.2239
" />
<path d="M111.6439 128.2239
L111.7392 127.7477
" />
<path d="M111.7392 127.7477
L111.7392 127.3668
" />
<path d="M111.7392 127.3668
L111.6439 126.8906
" />
<path d="M111.6439 126.8906
L111.5487 126.6049
" />
<path d="M111.5487 126.6049
L111.4534 126.4144
" />
<path d="M111.4534 126.4144
L111.2630 126.1287
" />
<path d="M111.2630 126.1287
L111.1677 126.0334
" />
<path d="M114.7868 129.0811
L114.6915 128.9858
" />
<path d="M114.6915 128.9858
L114.5011 128.7001
" />
<path d="M114.5011 128.7001
L114.4058 128.5096
" />
<path d="M114.4058 128.5096
L114.3106 128.2239
" />
<path d="M114.3106 128.2239
L114.2154 127.7477
" />
<path d="M114.2154 127.7477
L114.2154 127.3668
" />
<path d="M114.2154 127.3668
L114.3106 126.8906
" />
<path d="M114.3106 126.8906
L114.4058 126.6049
" />
<path d="M114.4058 126.6049
L114.5011 126.4144
" />
<path d="M114.5011 126.4144
L114.6915 126.1287
" />
<path d="M114.6915 126.1287
L114.7868 126.0334
" />
<path d="M115.5487 126.9858
L115.5487 128.3192
" />
<path d="M115.5487 127.1763
L115.6439 127.0811
" />
<path d="M115.6439 127.0811
L115.8344 126.9858
" />
<path d="M115.8344 126.9858
L116.1201 126.9858
" />
<path d="M116.1201 126.9858
L116.3106 127.0811
" />
<path d="M116.3106 127.0811
L116.4058 127.2715
" />
<path d="M116.4058 127.2715
L116.4058 128.3192
" />
<path d="M117.6439 128.3192
L117.4534 128.2239
" />
<path d="M117.4534 128.2239
L117.3582 128.1287
" />
<path d="M117.3582 128.1287
L117.2630 127.9382
" />
<path d="M117.2630 127.9382
L117.2630 127.3668
" />
<path d="M117.2630 127.3668
L117.3582 127.1763
" />
<path d="M117.3582 127.1763
L117.4534 127.0811
" />
<path d="M117.4534 127.0811
L117.6439 126.9858
" />
<path d="M117.6439 126.9858
L117.9296 126.9858
" />
<path d="M117.9296 126.9858
L118.1201 127.0811
" />
<path d="M118.1201 127.0811
L118.2154 127.1763
" />
<path d="M118.2154 127.1763
L118.3106 127.3668
" />
<path d="M118.3106 127.3668
L118.3106 127.9382
" />
<path d="M118.3106 127.9382
L118.2154 128.1287
" />
<path d="M118.2154 128.1287
L118.1201 128.2239
" />
<path d="M118.1201 128.2239
L117.9296 128.3192
" />
<path d="M117.9296 128.3192
L117.6439 128.3192
" />
<path d="M118.8820 126.9858
L119.6439 126.9858
" />
<path d="M119.1677 126.3192
L119.1677 128.0334
" />
<path d="M119.1677 128.0334
L119.2630 128.2239
" />
<path d="M119.2630 128.2239
L119.4534 128.3192
" />
<path d="M119.4534 128.3192
L119.6439 128.3192
" />
<path d="M121.8344 126.9858
L121.8344 128.9858
" />
<path d="M121.8344 127.0811
L122.0249 126.9858
" />
<path d="M122.0249 126.9858
L122.4058 126.9858
" />
<path d="M122.4058 126.9858
L122.5963 127.0811
" />
<path d="M122.5963 127.0811
L122.6915 127.1763
" />
<path d="M122.6915 127.1763
L122.7868 127.3668
" />
<path d="M122.7868 127.3668
L122.7868 127.9382
" />
<path d="M122.7868 127.9382
L122.6915 128.1287
" />
<path d="M122.6915 128.1287
L122.5963 128.2239
" />
<path d="M122.5963 128.2239
L122.4058 128.3192
" />
<path d="M122.4058 128.3192
L122.0249 128.3192
" />
<path d="M122.0249 128.3192
L121.8344 128.2239
" />
<path d="M123.9296 128.3192
L123.7392 128.2239
" />
<path d="M123.7392 128.2239
L123.6439 128.0334
" />
<path d="M123.6439 128.0334
L123.6439 126.3192
" />
<path d="M125.5487 128.3192
L125.5487 127.2715
" />
<path d="M125.5487 127.2715
L125.4534 127.0811
" />
<path d="M125.4534 127.0811
L125.2630 126.9858
" />
<path d="M125.2630 126.9858
L124.8820 126.9858
" />
<path d="M124.8820 126.9858
L124.6915 127.0811
" />
<path d="M125.5487 128.2239
L125.3582 128.3192
" />
<path d="M125.3582 128.3192
L124.8820 128.3192
" />
<path d="M124.8820 128.3192
L124.6915 128.2239
" />
<path d="M124.6915 128.2239
L124.5963 128.0334
" />
<path d="M124.5963 128.0334
L124.5963 127.8430
" />
<path d="M124.5963 127.8430
L124.6915 127.6525
" />
<path d="M124.6915 127.6525
L124.8820 127.5573
" />
<path d="M124.8820 127.5573
L125.3582 127.5573
" />
<path d="M125.3582 127.5573
L125.5487 127.4620
" />
<path d="M126.2154 126.9858
L126.9773 126.9858
" />
<path d="M126.5011 126.3192
L126.5011 128.0334
" />
<path d="M126.5011 128.0334
L126.5963 128.2239
" />
<path d="M126.5963 128.2239
L126.7868 128.3192
" />
<path d="M126.7868 128.3192
L126.9773 128.3192
" />
<path d="M128.4058 128.2239
L128.2154 128.3192
" />
<path d="M128.2154 128.3192
L127.8344 128.3192
" />
<path d="M127.8344 128.3192
L127.6439 128.2239
" />
<path d="M127.6439 128.2239
L127.5487 128.0334
" />
<path d="M127.5487 128.0334
L127.5487 127.2715
" />
<path d="M127.5487 127.2715
L127.6439 127.0811
" />
<path d="M127.6439 127.0811
L127.8344 126.9858
" />
<path d="M127.8344 126.9858
L128.2154 126.9858
" />
<path d="M128.2154 126.9858
L128.4058 127.0811
" />
<path d="M128.4058 127.0811
L128.5011 127.2715
" />
<path d="M128.5011 127.2715
L128.5011 127.4620
" />
<path d="M128.5011 127.4620
L127.5487 127.6525
" />
<path d="M130.2154 128.3192
L130.2154 126.3192
" />
<path d="M130.2154 128.2239
L130.0249 128.3192
" />
<path d="M130.0249 128.3192
L129.6439 128.3192
" />
<path d="M129.6439 128.3192
L129.4534 128.2239
" />
<path d="M129.4534 128.2239
L129.3582 128.1287
" />
<path d="M129.3582 128.1287
L129.2630 127.9382
" />
<path d="M129.2630 127.9382
L129.2630 127.3668
" />
<path d="M129.2630 127.3668
L129.3582 127.1763
" />
<path d="M129.3582 127.1763
L129.4534 127.0811
" />
<path d="M129.4534 127.0811
L129.6439 126.9858
" />
<path d="M129.6439 126.9858
L130.0249 126.9858
" />
<path d="M130.0249 126.9858
L130.2154 127.0811
" />
<path d="M130.9773 129.0811
L131.0725 128.9858
" />
<path d="M131.0725 128.9858
L131.2630 128.7001
" />
<path d="M131.2630 128.7001
L131.3582 128.5096
" />
<path d="M131.3582 128.5096
L131.4534 128.2239
" />
<path d="M131.4534 128.2239
L131.5487 127.7477
" />
<path d="M131.5487 127.7477
L131.5487 127.3668
" />
<path d="M131.5487 127.3668
L131.4534 126.8906
" />
<path d="M131.4534 126.8906
L131.3582 126.6049
" />
<path d="M131.3582 126.6049
L131.2630 126.4144
" />
<path d="M131.2630 126.4144
L131.0725 126.1287
" />
<path d="M131.0725 126.1287
L130.9773 126.0334
" />
</g><circle cx="60.5124" cy="130.5752" r="1.0000" /> 
</g>
<g style="fill:none; 
stroke:#000000; stroke-width:0.2000; stroke-opacity:1; 
stroke-linecap:round; stroke-linejoin:round;">
<text x="63.5124" y="131.5752"
textLength="66.6762" font-size="2.6667" lengthAdjust="spacingAndGlyphs"
text-anchor="start" opacity="0" stroke-opacity="0">3.200mm / 0.1260" (4 holes) (not plated)</text>
<g class="stroked-text"><desc>3.200mm / 0.1260" (4 holes) (not plated)</desc>
<path d="M63.9296 129.4900
L65.1677 129.4900
" />
<path d="M65.1677 129.4900
L64.5011 130.2519
" />
<path d="M64.5011 130.2519
L64.7868 130.2519
" />
<path d="M64.7868 130.2519
L64.9773 130.3471
" />
<path d="M64.9773 130.3471
L65.0725 130.4424
" />
<path d="M65.0725 130.4424
L65.1677 130.6329
" />
<path d="M65.1677 130.6329
L65.1677 131.1090
" />
<path d="M65.1677 131.1090
L65.0725 131.2995
" />
<path d="M65.0725 131.2995
L64.9773 131.3948
" />
<path d="M64.9773 131.3948
L64.7868 131.4900
" />
<path d="M64.7868 131.4900
L64.2154 131.4900
" />
<path d="M64.2154 131.4900
L64.0249 131.3948
" />
<path d="M64.0249 131.3948
L63.9296 131.2995
" />
<path d="M66.0249 131.2995
L66.1201 131.3948
" />
<path d="M66.1201 131.3948
L66.0249 131.4900
" />
<path d="M66.0249 131.4900
L65.9296 131.3948
" />
<path d="M65.9296 131.3948
L66.0249 131.2995
" />
<path d="M66.0249 131.2995
L66.0249 131.4900
" />
<path d="M66.8820 129.6805
L66.9773 129.5852
" />
<path d="M66.9773 129.5852
L67.1677 129.4900
" />
<path d="M67.1677 129.4900
L67.6439 129.4900
" />
<path d="M67.6439 129.4900
L67.8344 129.5852
" />
<path d="M67.8344 129.5852
L67.9296 129.6805
" />
<path d="M67.9296 129.6805
L68.0249 129.8709
" />
<path d="M68.0249 129.8709
L68.0249 130.0614
" />
<path d="M68.0249 130.0614
L67.9296 130.3471
" />
<path d="M67.9296 130.3471
L66.7868 131.4900
" />
<path d="M66.7868 131.4900
L68.0249 131.4900
" />
<path d="M69.2630 129.4900
L69.4535 129.4900
" />
<path d="M69.4535 129.4900
L69.6439 129.5852
" />
<path d="M69.6439 129.5852
L69.7392 129.6805
" />
<path d="M69.7392 129.6805
L69.8344 129.8709
" />
<path d="M69.8344 129.8709
L69.9296 130.2519
" />
<path d="M69.9296 130.2519
L69.9296 130.7281
" />
<path d="M69.9296 130.7281
L69.8344 131.1090
" />
<path d="M69.8344 131.1090
L69.7392 131.2995
" />
<path d="M69.7392 131.2995
L69.6439 131.3948
" />
<path d="M69.6439 131.3948
L69.4535 131.4900
" />
<path d="M69.4535 131.4900
L69.2630 131.4900
" />
<path d="M69.2630 131.4900
L69.0725 131.3948
" />
<path d="M69.0725 131.3948
L68.9773 131.2995
" />
<path d="M68.9773 131.2995
L68.8820 131.1090
" />
<path d="M68.8820 131.1090
L68.7868 130.7281
" />
<path d="M68.7868 130.7281
L68.7868 130.2519
" />
<path d="M68.7868 130.2519
L68.8820 129.8709
" />
<path d="M68.8820 129.8709
L68.9773 129.6805
" />
<path d="M68.9773 129.6805
L69.0725 129.5852
" />
<path d="M69.0725 129.5852
L69.2630 129.4900
" />
<path d="M71.1677 129.4900
L71.3582 129.4900
" />
<path d="M71.3582 129.4900
L71.5487 129.5852
" />
<path d="M71.5487 129.5852
L71.6439 129.6805
" />
<path d="M71.6439 129.6805
L71.7392 129.8709
" />
<path d="M71.7392 129.8709
L71.8344 130.2519
" />
<path d="M71.8344 130.2519
L71.8344 130.7281
" />
<path d="M71.8344 130.7281
L71.7392 131.1090
" />
<path d="M71.7392 131.1090
L71.6439 131.2995
" />
<path d="M71.6439 131.2995
L71.5487 131.3948
" />
<path d="M71.5487 131.3948
L71.3582 131.4900
" />
<path d="M71.3582 131.4900
L71.1677 131.4900
" />
<path d="M71.1677 131.4900
L70.9773 131.3948
" />
<path d="M70.9773 131.3948
L70.8820 131.2995
" />
<path d="M70.8820 131.2995
L70.7868 131.1090
" />
<path d="M70.7868 131.1090
L70.6915 130.7281
" />
<path d="M70.6915 130.7281
L70.6915 130.2519
" />
<path d="M70.6915 130.2519
L70.7868 129.8709
" />
<path d="M70.7868 129.8709
L70.8820 129.6805
" />
<path d="M70.8820 129.6805
L70.9773 129.5852
" />
<path d="M70.9773 129.5852
L71.1677 129.4900
" />
<path d="M72.6915 131.4900
L72.6915 130.1567
" />
<path d="M72.6915 130.3471
L72.7868 130.2519
" />
<path d="M72.7868 130.2519
L72.9773 130.1567
" />
<path d="M72.9773 130.1567
L73.2630 130.1567
" />
<path d="M73.2630 130.1567
L73.4535 130.2519
" />
<path d="M73.4535 130.2519
L73.5487 130.4424
" />
<path d="M73.5487 130.4424
L73.5487 131.4900
" />
<path d="M73.5487 130.4424
L73.6439 130.2519
" />
<path d="M73.6439 130.2519
L73.8344 130.1567
" />
<path d="M73.8344 130.1567
L74.1201 130.1567
" />
<path d="M74.1201 130.1567
L74.3106 130.2519
" />
<path d="M74.3106 130.2519
L74.4058 130.4424
" />
<path d="M74.4058 130.4424
L74.4058 131.4900
" />
<path d="M75.3582 131.4900
L75.3582 130.1567
" />
<path d="M75.3582 130.3471
L75.4535 130.2519
" />
<path d="M75.4535 130.2519
L75.6439 130.1567
" />
<path d="M75.6439 130.1567
L75.9296 130.1567
" />
<path d="M75.9296 130.1567
L76.1201 130.2519
" />
<path d="M76.1201 130.2519
L76.2154 130.4424
" />
<path d="M76.2154 130.4424
L76.2154 131.4900
" />
<path d="M76.2154 130.4424
L76.3106 130.2519
" />
<path d="M76.3106 130.2519
L76.5011 130.1567
" />
<path d="M76.5011 130.1567
L76.7868 130.1567
" />
<path d="M76.7868 130.1567
L76.9773 130.2519
" />
<path d="M76.9773 130.2519
L77.0725 130.4424
" />
<path d="M77.0725 130.4424
L77.0725 131.4900
" />
<path d="M80.9773 129.3948
L79.2630 131.9662
" />
<path d="M83.5487 129.4900
L83.7392 129.4900
" />
<path d="M83.7392 129.4900
L83.9296 129.5852
" />
<path d="M83.9296 129.5852
L84.0249 129.6805
" />
<path d="M84.0249 129.6805
L84.1201 129.8709
" />
<path d="M84.1201 129.8709
L84.2154 130.2519
" />
<path d="M84.2154 130.2519
L84.2154 130.7281
" />
<path d="M84.2154 130.7281
L84.1201 131.1090
" />
<path d="M84.1201 131.1090
L84.0249 131.2995
" />
<path d="M84.0249 131.2995
L83.9296 131.3948
" />
<path d="M83.9296 131.3948
L83.7392 131.4900
" />
<path d="M83.7392 131.4900
L83.5487 131.4900
" />
<path d="M83.5487 131.4900
L83.3582 131.3948
" />
<path d="M83.3582 131.3948
L83.2630 131.2995
" />
<path d="M83.2630 131.2995
L83.1677 131.1090
" />
<path d="M83.1677 131.1090
L83.0725 130.7281
" />
<path d="M83.0725 130.7281
L83.0725 130.2519
" />
<path d="M83.0725 130.2519
L83.1677 129.8709
" />
<path d="M83.1677 129.8709
L83.2630 129.6805
" />
<path d="M83.2630 129.6805
L83.3582 129.5852
" />
<path d="M83.3582 129.5852
L83.5487 129.4900
" />
<path d="M85.0725 131.2995
L85.1677 131.3948
" />
<path d="M85.1677 131.3948
L85.0725 131.4900
" />
<path d="M85.0725 131.4900
L84.9773 131.3948
" />
<path d="M84.9773 131.3948
L85.0725 131.2995
" />
<path d="M85.0725 131.2995
L85.0725 131.4900
" />
<path d="M87.0725 131.4900
L85.9296 131.4900
" />
<path d="M86.5011 131.4900
L86.5011 129.4900
" />
<path d="M86.5011 129.4900
L86.3106 129.7757
" />
<path d="M86.3106 129.7757
L86.1201 129.9662
" />
<path d="M86.1201 129.9662
L85.9296 130.0614
" />
<path d="M87.8344 129.6805
L87.9296 129.5852
" />
<path d="M87.9296 129.5852
L88.1201 129.4900
" />
<path d="M88.1201 129.4900
L88.5963 129.4900
" />
<path d="M88.5963 129.4900
L88.7868 129.5852
" />
<path d="M88.7868 129.5852
L88.8820 129.6805
" />
<path d="M88.8820 129.6805
L88.9773 129.8709
" />
<path d="M88.9773 129.8709
L88.9773 130.0614
" />
<path d="M88.9773 130.0614
L88.8820 130.3471
" />
<path d="M88.8820 130.3471
L87.7392 131.4900
" />
<path d="M87.7392 131.4900
L88.9773 131.4900
" />
<path d="M90.6915 129.4900
L90.3106 129.4900
" />
<path d="M90.3106 129.4900
L90.1201 129.5852
" />
<path d="M90.1201 129.5852
L90.0249 129.6805
" />
<path d="M90.0249 129.6805
L89.8344 129.9662
" />
<path d="M89.8344 129.9662
L89.7392 130.3471
" />
<path d="M89.7392 130.3471
L89.7392 131.1090
" />
<path d="M89.7392 131.1090
L89.8344 131.2995
" />
<path d="M89.8344 131.2995
L89.9296 131.3948
" />
<path d="M89.9296 131.3948
L90.1201 131.4900
" />
<path d="M90.1201 131.4900
L90.5011 131.4900
" />
<path d="M90.5011 131.4900
L90.6915 131.3948
" />
<path d="M90.6915 131.3948
L90.7868 131.2995
" />
<path d="M90.7868 131.2995
L90.8820 131.1090
" />
<path d="M90.8820 131.1090
L90.8820 130.6329
" />
<path d="M90.8820 130.6329
L90.7868 130.4424
" />
<path d="M90.7868 130.4424
L90.6915 130.3471
" />
<path d="M90.6915 130.3471
L90.5011 130.2519
" />
<path d="M90.5011 130.2519
L90.1201 130.2519
" />
<path d="M90.1201 130.2519
L89.9296 130.3471
" />
<path d="M89.9296 130.3471
L89.8344 130.4424
" />
<path d="M89.8344 130.4424
L89.7392 130.6329
" />
<path d="M92.1201 129.4900
L92.3106 129.4900
" />
<path d="M92.3106 129.4900
L92.5011 129.5852
" />
<path d="M92.5011 129.5852
L92.5963 129.6805
" />
<path d="M92.5963 129.6805
L92.6915 129.8709
" />
<path d="M92.6915 129.8709
L92.7868 130.2519
" />
<path d="M92.7868 130.2519
L92.7868 130.7281
" />
<path d="M92.7868 130.7281
L92.6915 131.1090
" />
<path d="M92.6915 131.1090
L92.5963 131.2995
" />
<path d="M92.5963 131.2995
L92.5011 131.3948
" />
<path d="M92.5011 131.3948
L92.3106 131.4900
" />
<path d="M92.3106 131.4900
L92.1201 131.4900
" />
<path d="M92.1201 131.4900
L91.9296 131.3948
" />
<path d="M91.9296 131.3948
L91.8344 131.2995
" />
<path d="M91.8344 131.2995
L91.7392 131.1090
" />
<path d="M91.7392 131.1090
L91.6439 130.7281
" />
<path d="M91.6439 130.7281
L91.6439 130.2519
" />
<path d="M91.6439 130.2519
L91.7392 129.8709
" />
<path d="M91.7392 129.8709
L91.8344 129.6805
" />
<path d="M91.8344 129.6805
L91.9296 129.5852
" />
<path d="M91.9296 129.5852
L92.1201 129.4900
" />
<path d="M93.5487 129.4900
L93.5487 129.8709
" />
<path d="M94.3106 129.4900
L94.3106 129.8709
" />
<path d="M97.2630 132.2519
L97.1677 132.1567
" />
<path d="M97.1677 132.1567
L96.9773 131.8709
" />
<path d="M96.9773 131.8709
L96.8820 131.6805
" />
<path d="M96.8820 131.6805
L96.7868 131.3948
" />
<path d="M96.7868 131.3948
L96.6915 130.9186
" />
<path d="M96.6915 130.9186
L96.6915 130.5376
" />
<path d="M96.6915 130.5376
L96.7868 130.0614
" />
<path d="M96.7868 130.0614
L96.8820 129.7757
" />
<path d="M96.8820 129.7757
L96.9773 129.5852
" />
<path d="M96.9773 129.5852
L97.1677 129.2995
" />
<path d="M97.1677 129.2995
L97.2630 129.2043
" />
<path d="M98.8820 130.1567
L98.8820 131.4900
" />
<path d="M98.4058 129.3948
L97.9296 130.8233
" />
<path d="M97.9296 130.8233
L99.1677 130.8233
" />
<path d="M101.4534 131.4900
L101.4534 129.4900
" />
<path d="M102.3106 131.4900
L102.3106 130.4424
" />
<path d="M102.3106 130.4424
L102.2154 130.2519
" />
<path d="M102.2154 130.2519
L102.0249 130.1567
" />
<path d="M102.0249 130.1567
L101.7392 130.1567
" />
<path d="M101.7392 130.1567
L101.5487 130.2519
" />
<path d="M101.5487 130.2519
L101.4534 130.3471
" />
<path d="M103.5487 131.4900
L103.3582 131.3948
" />
<path d="M103.3582 131.3948
L103.2630 131.2995
" />
<path d="M103.2630 131.2995
L103.1677 131.1090
" />
<path d="M103.1677 131.1090
L103.1677 130.5376
" />
<path d="M103.1677 130.5376
L103.2630 130.3471
" />
<path d="M103.2630 130.3471
L103.3582 130.2519
" />
<path d="M103.3582 130.2519
L103.5487 130.1567
" />
<path d="M103.5487 130.1567
L103.8344 130.1567
" />
<path d="M103.8344 130.1567
L104.0249 130.2519
" />
<path d="M104.0249 130.2519
L104.1201 130.3471
" />
<path d="M104.1201 130.3471
L104.2154 130.5376
" />
<path d="M104.2154 130.5376
L104.2154 131.1090
" />
<path d="M104.2154 131.1090
L104.1201 131.2995
" />
<path d="M104.1201 131.2995
L104.0249 131.3948
" />
<path d="M104.0249 131.3948
L103.8344 131.4900
" />
<path d="M103.8344 131.4900
L103.5487 131.4900
" />
<path d="M105.3582 131.4900
L105.1677 131.3948
" />
<path d="M105.1677 131.3948
L105.0725 131.2043
" />
<path d="M105.0725 131.2043
L105.0725 129.4900
" />
<path d="M106.8820 131.3948
L106.6915 131.4900
" />
<path d="M106.6915 131.4900
L106.3106 131.4900
" />
<path d="M106.3106 131.4900
L106.1201 131.3948
" />
<path d="M106.1201 131.3948
L106.0249 131.2043
" />
<path d="M106.0249 131.2043
L106.0249 130.4424
" />
<path d="M106.0249 130.4424
L106.1201 130.2519
" />
<path d="M106.1201 130.2519
L106.3106 130.1567
" />
<path d="M106.3106 130.1567
L106.6915 130.1567
" />
<path d="M106.6915 130.1567
L106.8820 130.2519
" />
<path d="M106.8820 130.2519
L106.9773 130.4424
" />
<path d="M106.9773 130.4424
L106.9773 130.6329
" />
<path d="M106.9773 130.6329
L106.0249 130.8233
" />
<path d="M107.7392 131.3948
L107.9296 131.4900
" />
<path d="M107.9296 131.4900
L108.3106 131.4900
" />
<path d="M108.3106 131.4900
L108.5011 131.3948
" />
<path d="M108.5011 131.3948
L108.5963 131.2043
" />
<path d="M108.5963 131.2043
L108.5963 131.1090
" />
<path d="M108.5963 131.1090
L108.5011 130.9186
" />
<path d="M108.5011 130.9186
L108.3106 130.8233
" />
<path d="M108.3106 130.8233
L108.0249 130.8233
" />
<path d="M108.0249 130.8233
L107.8344 130.7281
" />
<path d="M107.8344 130.7281
L107.7392 130.5376
" />
<path d="M107.7392 130.5376
L107.7392 130.4424
" />
<path d="M107.7392 130.4424
L107.8344 130.2519
" />
<path d="M107.8344 130.2519
L108.0249 130.1567
" />
<path d="M108.0249 130.1567
L108.3106 130.1567
" />
<path d="M108.3106 130.1567
L108.5011 130.2519
" />
<path d="M109.2630 132.2519
L109.3582 132.1567
" />
<path d="M109.3582 132.1567
L109.5487 131.8709
" />
<path d="M109.5487 131.8709
L109.6439 131.6805
" />
<path d="M109.6439 131.6805
L109.7392 131.3948
" />
<path d="M109.7392 131.3948
L109.8344 130.9186
" />
<path d="M109.8344 130.9186
L109.8344 130.5376
" />
<path d="M109.8344 130.5376
L109.7392 130.0614
" />
<path d="M109.7392 130.0614
L109.6439 129.7757
" />
<path d="M109.6439 129.7757
L109.5487 129.5852
" />
<path d="M109.5487 129.5852
L109.3582 129.2995
" />
<path d="M109.3582 129.2995
L109.2630 129.2043
" />
<path d="M112.8820 132.2519
L112.7868 132.1567
" />
<path d="M112.7868 132.1567
L112.5963 131.8709
" />
<path d="M112.5963 131.8709
L112.5011 131.6805
" />
<path d="M112.5011 131.6805
L112.4058 131.3948
" />
<path d="M112.4058 131.3948
L112.3106 130.9186
" />
<path d="M112.3106 130.9186
L112.3106 130.5376
" />
<path d="M112.3106 130.5376
L112.4058 130.0614
" />
<path d="M112.4058 130.0614
L112.5011 129.7757
" />
<path d="M112.5011 129.7757
L112.5963 129.5852
" />
<path d="M112.5963 129.5852
L112.7868 129.2995
" />
<path d="M112.7868 129.2995
L112.8820 129.2043
" />
<path d="M113.6439 130.1567
L113.6439 131.4900
" />
<path d="M113.6439 130.3471
L113.7392 130.2519
" />
<path d="M113.7392 130.2519
L113.9296 130.1567
" />
<path d="M113.9296 130.1567
L114.2154 130.1567
" />
<path d="M114.2154 130.1567
L114.4058 130.2519
" />
<path d="M114.4058 130.2519
L114.5011 130.4424
" />
<path d="M114.5011 130.4424
L114.5011 131.4900
" />
<path d="M115.7392 131.4900
L115.5487 131.3948
" />
<path d="M115.5487 131.3948
L115.4534 131.2995
" />
<path d="M115.4534 131.2995
L115.3582 131.1090
" />
<path d="M115.3582 131.1090
L115.3582 130.5376
" />
<path d="M115.3582 130.5376
L115.4534 130.3471
" />
<path d="M115.4534 130.3471
L115.5487 130.2519
" />
<path d="M115.5487 130.2519
L115.7392 130.1567
" />
<path d="M115.7392 130.1567
L116.0249 130.1567
" />
<path d="M116.0249 130.1567
L116.2154 130.2519
" />
<path d="M116.2154 130.2519
L116.3106 130.3471
" />
<path d="M116.3106 130.3471
L116.4058 130.5376
" />
<path d="M116.4058 130.5376
L116.4058 131.1090
" />
<path d="M116.4058 131.1090
L116.3106 131.2995
" />
<path d="M116.3106 131.2995
L116.2154 131.3948
" />
<path d="M116.2154 131.3948
L116.0249 131.4900
" />
<path d="M116.0249 131.4900
L115.7392 131.4900
" />
<path d="M116.9773 130.1567
L117.7392 130.1567
" />
<path d="M117.2630 129.4900
L117.2630 131.2043
" />
<path d="M117.2630 131.2043
L117.3582 131.3948
" />
<path d="M117.3582 131.3948
L117.5487 131.4900
" />
<path d="M117.5487 131.4900
L117.7392 131.4900
" />
<path d="M119.9296 130.1567
L119.9296 132.1567
" />
<path d="M119.9296 130.2519
L120.1201 130.1567
" />
<path d="M120.1201 130.1567
L120.5011 130.1567
" />
<path d="M120.5011 130.1567
L120.6915 130.2519
" />
<path d="M120.6915 130.2519
L120.7868 130.3471
" />
<path d="M120.7868 130.3471
L120.8820 130.5376
" />
<path d="M120.8820 130.5376
L120.8820 131.1090
" />
<path d="M120.8820 131.1090
L120.7868 131.2995
" />
<path d="M120.7868 131.2995
L120.6915 131.3948
" />
<path d="M120.6915 131.3948
L120.5011 131.4900
" />
<path d="M120.5011 131.4900
L120.1201 131.4900
" />
<path d="M120.1201 131.4900
L119.9296 131.3948
" />
<path d="M122.0249 131.4900
L121.8344 131.3948
" />
<path d="M121.8344 131.3948
L121.7392 131.2043
" />
<path d="M121.7392 131.2043
L121.7392 129.4900
" />
<path d="M123.6439 131.4900
L123.6439 130.4424
" />
<path d="M123.6439 130.4424
L123.5487 130.2519
" />
<path d="M123.5487 130.2519
L123.3582 130.1567
" />
<path d="M123.3582 130.1567
L122.9773 130.1567
" />
<path d="M122.9773 130.1567
L122.7868 130.2519
" />
<path d="M123.6439 131.3948
L123.4534 131.4900
" />
<path d="M123.4534 131.4900
L122.9773 131.4900
" />
<path d="M122.9773 131.4900
L122.7868 131.3948
" />
<path d="M122.7868 131.3948
L122.6915 131.2043
" />
<path d="M122.6915 131.2043
L122.6915 131.0138
" />
<path d="M122.6915 131.0138
L122.7868 130.8233
" />
<path d="M122.7868 130.8233
L122.9773 130.7281
" />
<path d="M122.9773 130.7281
L123.4534 130.7281
" />
<path d="M123.4534 130.7281
L123.6439 130.6329
" />
<path d="M124.3106 130.1567
L125.0725 130.1567
" />
<path d="M124.5963 129.4900
L124.5963 131.2043
" />
<path d="M124.5963 131.2043
L124.6915 131.3948
" />
<path d="M124.6915 131.3948
L124.8820 131.4900
" />
<path d="M124.8820 131.4900
L125.0725 131.4900
" />
<path d="M126.5011 131.3948
L126.3106 131.4900
" />
<path d="M126.3106 131.4900
L125.9296 131.4900
" />
<path d="M125.9296 131.4900
L125.7392 131.3948
" />
<path d="M125.7392 131.3948
L125.6439 131.2043
" />
<path d="M125.6439 131.2043
L125.6439 130.4424
" />
<path d="M125.6439 130.4424
L125.7392 130.2519
" />
<path d="M125.7392 130.2519
L125.9296 130.1567
" />
<path d="M125.9296 130.1567
L126.3106 130.1567
" />
<path d="M126.3106 130.1567
L126.5011 130.2519
" />
<path d="M126.5011 130.2519
L126.5963 130.4424
" />
<path d="M126.5963 130.4424
L126.5963 130.6329
" />
<path d="M126.5963 130.6329
L125.6439 130.8233
" />
<path d="M128.3106 131.4900
L128.3106 129.4900
" />
<path d="M128.3106 131.3948
L128.1201 131.4900
" />
<path d="M128.1201 131.4900
L127.7392 131.4900
" />
<path d="M127.7392 131.4900
L127.5487 131.3948
" />
<path d="M127.5487 131.3948
L127.4534 131.2995
" />
<path d="M127.4534 131.2995
L127.3582 131.1090
" />
<path d="M127.3582 131.1090
L127.3582 130.5376
" />
<path d="M127.3582 130.5376
L127.4534 130.3471
" />
<path d="M127.4534 130.3471
L127.5487 130.2519
" />
<path d="M127.5487 130.2519
L127.7392 130.1567
" />
<path d="M127.7392 130.1567
L128.1201 130.1567
" />
<path d="M128.1201 130.1567
L128.3106 130.2519
" />
<path d="M129.0725 132.2519
L129.1677 132.1567
" />
<path d="M129.1677 132.1567
L129.3582 131.8709
" />
<path d="M129.3582 131.8709
L129.4534 131.6805
" />
<path d="M129.4534 131.6805
L129.5487 131.3948
" />
<path d="M129.5487 131.3948
L129.6439 130.9186
" />
<path d="M129.6439 130.9186
L129.6439 130.5376
" />
<path d="M129.6439 130.5376
L129.5487 130.0614
" />
<path d="M129.5487 130.0614
L129.4534 129.7757
" />
<path d="M129.4534 129.7757
L129.3582 129.5852
" />
<path d="M129.3582 129.5852
L129.1677 129.2995
" />
<path d="M129.1677 129.2995
L129.0725 129.2043
" />
</g><path d="M60.5124 132.7752
L60.5124 134.7752
" />
<path d="M59.5124 133.7752
L61.5124 133.7752
" />
</g>
<g style="fill:none; 
stroke:#000000; stroke-width:0.2000; stroke-opacity:1; 
stroke-linecap:round; stroke-linejoin:round;">
<text x="63.5124" y="134.7752"
textLength="66.6762" font-size="2.6667" lengthAdjust="spacingAndGlyphs"
text-anchor="start" opacity="0" stroke-opacity="0">4.000mm / 0.1575" (9 holes) (not plated)</text>
<g class="stroked-text"><desc>4.000mm / 0.1575" (9 holes) (not plated)</desc>
<path d="M64.9773 133.3567
L64.9773 134.6900
" />
<path d="M64.5011 132.5948
L64.0249 134.0233
" />
<path d="M64.0249 134.0233
L65.2630 134.0233
" />
<path d="M66.0249 134.4995
L66.1201 134.5948
" />
<path d="M66.1201 134.5948
L66.0249 134.6900
" />
<path d="M66.0249 134.6900
L65.9296 134.5948
" />
<path d="M65.9296 134.5948
L66.0249 134.4995
" />
<path d="M66.0249 134.4995
L66.0249 134.6900
" />
<path d="M67.3582 132.6900
L67.5487 132.6900
" />
<path d="M67.5487 132.6900
L67.7392 132.7852
" />
<path d="M67.7392 132.7852
L67.8344 132.8805
" />
<path d="M67.8344 132.8805
L67.9296 133.0709
" />
<path d="M67.9296 133.0709
L68.0249 133.4519
" />
<path d="M68.0249 133.4519
L68.0249 133.9281
" />
<path d="M68.0249 133.9281
L67.9296 134.3090
" />
<path d="M67.9296 134.3090
L67.8344 134.4995
" />
<path d="M67.8344 134.4995
L67.7392 134.5948
" />
<path d="M67.7392 134.5948
L67.5487 134.6900
" />
<path d="M67.5487 134.6900
L67.3582 134.6900
" />
<path d="M67.3582 134.6900
L67.1677 134.5948
" />
<path d="M67.1677 134.5948
L67.0725 134.4995
" />
<path d="M67.0725 134.4995
L66.9773 134.3090
" />
<path d="M66.9773 134.3090
L66.8820 133.9281
" />
<path d="M66.8820 133.9281
L66.8820 133.4519
" />
<path d="M66.8820 133.4519
L66.9773 133.0709
" />
<path d="M66.9773 133.0709
L67.0725 132.8805
" />
<path d="M67.0725 132.8805
L67.1677 132.7852
" />
<path d="M67.1677 132.7852
L67.3582 132.6900
" />
<path d="M69.2630 132.6900
L69.4535 132.6900
" />
<path d="M69.4535 132.6900
L69.6439 132.7852
" />
<path d="M69.6439 132.7852
L69.7392 132.8805
" />
<path d="M69.7392 132.8805
L69.8344 133.0709
" />
<path d="M69.8344 133.0709
L69.9296 133.4519
" />
<path d="M69.9296 133.4519
L69.9296 133.9281
" />
<path d="M69.9296 133.9281
L69.8344 134.3090
" />
<path d="M69.8344 134.3090
L69.7392 134.4995
" />
<path d="M69.7392 134.4995
L69.6439 134.5948
" />
<path d="M69.6439 134.5948
L69.4535 134.6900
" />
<path d="M69.4535 134.6900
L69.2630 134.6900
" />
<path d="M69.2630 134.6900
L69.0725 134.5948
" />
<path d="M69.0725 134.5948
L68.9773 134.4995
" />
<path d="M68.9773 134.4995
L68.8820 134.3090
" />
<path d="M68.8820 134.3090
L68.7868 133.9281
" />
<path d="M68.7868 133.9281
L68.7868 133.4519
" />
<path d="M68.7868 133.4519
L68.8820 133.0709
" />
<path d="M68.8820 133.0709
L68.9773 132.8805
" />
<path d="M68.9773 132.8805
L69.0725 132.7852
" />
<path d="M69.0725 132.7852
L69.2630 132.6900
" />
<path d="M71.1677 132.6900
L71.3582 132.6900
" />
<path d="M71.3582 132.6900
L71.5487 132.7852
" />
<path d="M71.5487 132.7852
L71.6439 132.8805
" />
<path d="M71.6439 132.8805
L71.7392 133.0709
" />
<path d="M71.7392 133.0709
L71.8344 133.4519
" />
<path d="M71.8344 133.4519
L71.8344 133.9281
" />
<path d="M71.8344 133.9281
L71.7392 134.3090
" />
<path d="M71.7392 134.3090
L71.6439 134.4995
" />
<path d="M71.6439 134.4995
L71.5487 134.5948
" />
<path d="M71.5487 134.5948
L71.3582 134.6900
" />
<path d="M71.3582 134.6900
L71.1677 134.6900
" />
<path d="M71.1677 134.6900
L70.9773 134.5948
" />
<path d="M70.9773 134.5948
L70.8820 134.4995
" />
<path d="M70.8820 134.4995
L70.7868 134.3090
" />
<path d="M70.7868 134.3090
L70.6915 133.9281
" />
<path d="M70.6915 133.9281
L70.6915 133.4519
" />
<path d="M70.6915 133.4519
L70.7868 133.0709
" />
<path d="M70.7868 133.0709
L70.8820 132.8805
" />
<path d="M70.8820 132.8805
L70.9773 132.7852
" />
<path d="M70.9773 132.7852
L71.1677 132.6900
" />
<path d="M72.6915 134.6900
L72.6915 133.3567
" />
<path d="M72.6915 133.5471
L72.7868 133.4519
" />
<path d="M72.7868 133.4519
L72.9773 133.3567
" />
<path d="M72.9773 133.3567
L73.2630 133.3567
" />
<path d="M73.2630 133.3567
L73.4535 133.4519
" />
<path d="M73.4535 133.4519
L73.5487 133.6424
" />
<path d="M73.5487 133.6424
L73.5487 134.6900
" />
<path d="M73.5487 133.6424
L73.6439 133.4519
" />
<path d="M73.6439 133.4519
L73.8344 133.3567
" />
<path d="M73.8344 133.3567
L74.1201 133.3567
" />
<path d="M74.1201 133.3567
L74.3106 133.4519
" />
<path d="M74.3106 133.4519
L74.4058 133.6424
" />
<path d="M74.4058 133.6424
L74.4058 134.6900
" />
<path d="M75.3582 134.6900
L75.3582 133.3567
" />
<path d="M75.3582 133.5471
L75.4535 133.4519
" />
<path d="M75.4535 133.4519
L75.6439 133.3567
" />
<path d="M75.6439 133.3567
L75.9296 133.3567
" />
<path d="M75.9296 133.3567
L76.1201 133.4519
" />
<path d="M76.1201 133.4519
L76.2154 133.6424
" />
<path d="M76.2154 133.6424
L76.2154 134.6900
" />
<path d="M76.2154 133.6424
L76.3106 133.4519
" />
<path d="M76.3106 133.4519
L76.5011 133.3567
" />
<path d="M76.5011 133.3567
L76.7868 133.3567
" />
<path d="M76.7868 133.3567
L76.9773 133.4519
" />
<path d="M76.9773 133.4519
L77.0725 133.6424
" />
<path d="M77.0725 133.6424
L77.0725 134.6900
" />
<path d="M80.9773 132.5948
L79.2630 135.1662
" />
<path d="M83.5487 132.6900
L83.7392 132.6900
" />
<path d="M83.7392 132.6900
L83.9296 132.7852
" />
<path d="M83.9296 132.7852
L84.0249 132.8805
" />
<path d="M84.0249 132.8805
L84.1201 133.0709
" />
<path d="M84.1201 133.0709
L84.2154 133.4519
" />
<path d="M84.2154 133.4519
L84.2154 133.9281
" />
<path d="M84.2154 133.9281
L84.1201 134.3090
" />
<path d="M84.1201 134.3090
L84.0249 134.4995
" />
<path d="M84.0249 134.4995
L83.9296 134.5948
" />
<path d="M83.9296 134.5948
L83.7392 134.6900
" />
<path d="M83.7392 134.6900
L83.5487 134.6900
" />
<path d="M83.5487 134.6900
L83.3582 134.5948
" />
<path d="M83.3582 134.5948
L83.2630 134.4995
" />
<path d="M83.2630 134.4995
L83.1677 134.3090
" />
<path d="M83.1677 134.3090
L83.0725 133.9281
" />
<path d="M83.0725 133.9281
L83.0725 133.4519
" />
<path d="M83.0725 133.4519
L83.1677 133.0709
" />
<path d="M83.1677 133.0709
L83.2630 132.8805
" />
<path d="M83.2630 132.8805
L83.3582 132.7852
" />
<path d="M83.3582 132.7852
L83.5487 132.6900
" />
<path d="M85.0725 134.4995
L85.1677 134.5948
" />
<path d="M85.1677 134.5948
L85.0725 134.6900
" />
<path d="M85.0725 134.6900
L84.9773 134.5948
" />
<path d="M84.9773 134.5948
L85.0725 134.4995
" />
<path d="M85.0725 134.4995
L85.0725 134.6900
" />
<path d="M87.0725 134.6900
L85.9296 134.6900
" />
<path d="M86.5011 134.6900
L86.5011 132.6900
" />
<path d="M86.5011 132.6900
L86.3106 132.9757
" />
<path d="M86.3106 132.9757
L86.1201 133.1662
" />
<path d="M86.1201 133.1662
L85.9296 133.2614
" />
<path d="M88.8820 132.6900
L87.9296 132.6900
" />
<path d="M87.9296 132.6900
L87.8344 133.6424
" />
<path d="M87.8344 133.6424
L87.9296 133.5471
" />
<path d="M87.9296 133.5471
L88.1201 133.4519
" />
<path d="M88.1201 133.4519
L88.5963 133.4519
" />
<path d="M88.5963 133.4519
L88.7868 133.5471
" />
<path d="M88.7868 133.5471
L88.8820 133.6424
" />
<path d="M88.8820 133.6424
L88.9773 133.8329
" />
<path d="M88.9773 133.8329
L88.9773 134.3090
" />
<path d="M88.9773 134.3090
L88.8820 134.4995
" />
<path d="M88.8820 134.4995
L88.7868 134.5948
" />
<path d="M88.7868 134.5948
L88.5963 134.6900
" />
<path d="M88.5963 134.6900
L88.1201 134.6900
" />
<path d="M88.1201 134.6900
L87.9296 134.5948
" />
<path d="M87.9296 134.5948
L87.8344 134.4995
" />
<path d="M89.6439 132.6900
L90.9773 132.6900
" />
<path d="M90.9773 132.6900
L90.1201 134.6900
" />
<path d="M92.6915 132.6900
L91.7392 132.6900
" />
<path d="M91.7392 132.6900
L91.6439 133.6424
" />
<path d="M91.6439 133.6424
L91.7392 133.5471
" />
<path d="M91.7392 133.5471
L91.9296 133.4519
" />
<path d="M91.9296 133.4519
L92.4058 133.4519
" />
<path d="M92.4058 133.4519
L92.5963 133.5471
" />
<path d="M92.5963 133.5471
L92.6915 133.6424
" />
<path d="M92.6915 133.6424
L92.7868 133.8329
" />
<path d="M92.7868 133.8329
L92.7868 134.3090
" />
<path d="M92.7868 134.3090
L92.6915 134.4995
" />
<path d="M92.6915 134.4995
L92.5963 134.5948
" />
<path d="M92.5963 134.5948
L92.4058 134.6900
" />
<path d="M92.4058 134.6900
L91.9296 134.6900
" />
<path d="M91.9296 134.6900
L91.7392 134.5948
" />
<path d="M91.7392 134.5948
L91.6439 134.4995
" />
<path d="M93.5487 132.6900
L93.5487 133.0709
" />
<path d="M94.3106 132.6900
L94.3106 133.0709
" />
<path d="M97.2630 135.4519
L97.1677 135.3567
" />
<path d="M97.1677 135.3567
L96.9773 135.0709
" />
<path d="M96.9773 135.0709
L96.8820 134.8805
" />
<path d="M96.8820 134.8805
L96.7868 134.5948
" />
<path d="M96.7868 134.5948
L96.6915 134.1186
" />
<path d="M96.6915 134.1186
L96.6915 133.7376
" />
<path d="M96.6915 133.7376
L96.7868 133.2614
" />
<path d="M96.7868 133.2614
L96.8820 132.9757
" />
<path d="M96.8820 132.9757
L96.9773 132.7852
" />
<path d="M96.9773 132.7852
L97.1677 132.4995
" />
<path d="M97.1677 132.4995
L97.2630 132.4043
" />
<path d="M98.1201 134.6900
L98.5011 134.6900
" />
<path d="M98.5011 134.6900
L98.6915 134.5948
" />
<path d="M98.6915 134.5948
L98.7868 134.4995
" />
<path d="M98.7868 134.4995
L98.9773 134.2138
" />
<path d="M98.9773 134.2138
L99.0725 133.8329
" />
<path d="M99.0725 133.8329
L99.0725 133.0709
" />
<path d="M99.0725 133.0709
L98.9773 132.8805
" />
<path d="M98.9773 132.8805
L98.8820 132.7852
" />
<path d="M98.8820 132.7852
L98.6915 132.6900
" />
<path d="M98.6915 132.6900
L98.3106 132.6900
" />
<path d="M98.3106 132.6900
L98.1201 132.7852
" />
<path d="M98.1201 132.7852
L98.0249 132.8805
" />
<path d="M98.0249 132.8805
L97.9296 133.0709
" />
<path d="M97.9296 133.0709
L97.9296 133.5471
" />
<path d="M97.9296 133.5471
L98.0249 133.7376
" />
<path d="M98.0249 133.7376
L98.1201 133.8329
" />
<path d="M98.1201 133.8329
L98.3106 133.9281
" />
<path d="M98.3106 133.9281
L98.6915 133.9281
" />
<path d="M98.6915 133.9281
L98.8820 133.8329
" />
<path d="M98.8820 133.8329
L98.9773 133.7376
" />
<path d="M98.9773 133.7376
L99.0725 133.5471
" />
<path d="M101.4534 134.6900
L101.4534 132.6900
" />
<path d="M102.3106 134.6900
L102.3106 133.6424
" />
<path d="M102.3106 133.6424
L102.2154 133.4519
" />
<path d="M102.2154 133.4519
L102.0249 133.3567
" />
<path d="M102.0249 133.3567
L101.7392 133.3567
" />
<path d="M101.7392 133.3567
L101.5487 133.4519
" />
<path d="M101.5487 133.4519
L101.4534 133.5471
" />
<path d="M103.5487 134.6900
L103.3582 134.5948
" />
<path d="M103.3582 134.5948
L103.2630 134.4995
" />
<path d="M103.2630 134.4995
L103.1677 134.3090
" />
<path d="M103.1677 134.3090
L103.1677 133.7376
" />
<path d="M103.1677 133.7376
L103.2630 133.5471
" />
<path d="M103.2630 133.5471
L103.3582 133.4519
" />
<path d="M103.3582 133.4519
L103.5487 133.3567
" />
<path d="M103.5487 133.3567
L103.8344 133.3567
" />
<path d="M103.8344 133.3567
L104.0249 133.4519
" />
<path d="M104.0249 133.4519
L104.1201 133.5471
" />
<path d="M104.1201 133.5471
L104.2154 133.7376
" />
<path d="M104.2154 133.7376
L104.2154 134.3090
" />
<path d="M104.2154 134.3090
L104.1201 134.4995
" />
<path d="M104.1201 134.4995
L104.0249 134.5948
" />
<path d="M104.0249 134.5948
L103.8344 134.6900
" />
<path d="M103.8344 134.6900
L103.5487 134.6900
" />
<path d="M105.3582 134.6900
L105.1677 134.5948
" />
<path d="M105.1677 134.5948
L105.0725 134.4043
" />
<path d="M105.0725 134.4043
L105.0725 132.6900
" />
<path d="M106.8820 134.5948
L106.6915 134.6900
" />
<path d="M106.6915 134.6900
L106.3106 134.6900
" />
<path d="M106.3106 134.6900
L106.1201 134.5948
" />
<path d="M106.1201 134.5948
L106.0249 134.4043
" />
<path d="M106.0249 134.4043
L106.0249 133.6424
" />
<path d="M106.0249 133.6424
L106.1201 133.4519
" />
<path d="M106.1201 133.4519
L106.3106 133.3567
" />
<path d="M106.3106 133.3567
L106.6915 133.3567
" />
<path d="M106.6915 133.3567
L106.8820 133.4519
" />
<path d="M106.8820 133.4519
L106.9773 133.6424
" />
<path d="M106.9773 133.6424
L106.9773 133.8329
" />
<path d="M106.9773 133.8329
L106.0249 134.0233
" />
<path d="M107.7392 134.5948
L107.9296 134.6900
" />
<path d="M107.9296 134.6900
L108.3106 134.6900
" />
<path d="M108.3106 134.6900
L108.5011 134.5948
" />
<path d="M108.5011 134.5948
L108.5963 134.4043
" />
<path d="M108.5963 134.4043
L108.5963 134.3090
" />
<path d="M108.5963 134.3090
L108.5011 134.1186
" />
<path d="M108.5011 134.1186
L108.3106 134.0233
" />
<path d="M108.3106 134.0233
L108.0249 134.0233
" />
<path d="M108.0249 134.0233
L107.8344 133.9281
" />
<path d="M107.8344 133.9281
L107.7392 133.7376
" />
<path d="M107.7392 133.7376
L107.7392 133.6424
" />
<path d="M107.7392 133.6424
L107.8344 133.4519
" />
<path d="M107.8344 133.4519
L108.0249 133.3567
" />
<path d="M108.0249 133.3567
L108.3106 133.3567
" />
<path d="M108.3106 133.3567
L108.5011 133.4519
" />
<path d="M109.2630 135.4519
L109.3582 135.3567
" />
<path d="M109.3582 135.3567
L109.5487 135.0709
" />
<path d="M109.5487 135.0709
L109.6439 134.8805
" />
<path d="M109.6439 134.8805
L109.7392 134.5948
" />
<path d="M109.7392 134.5948
L109.8344 134.1186
" />
<path d="M109.8344 134.1186
L109.8344 133.7376
" />
<path d="M109.8344 133.7376
L109.7392 133.2614
" />
<path d="M109.7392 133.2614
L109.6439 132.9757
" />
<path d="M109.6439 132.9757
L109.5487 132.7852
" />
<path d="M109.5487 132.7852
L109.3582 132.4995
" />
<path d="M109.3582 132.4995
L109.2630 132.4043
" />
<path d="M112.8820 135.4519
L112.7868 135.3567
" />
<path d="M112.7868 135.3567
L112.5963 135.0709
" />
<path d="M112.5963 135.0709
L112.5011 134.8805
" />
<path d="M112.5011 134.8805
L112.4058 134.5948
" />
<path d="M112.4058 134.5948
L112.3106 134.1186
" />
<path d="M112.3106 134.1186
L112.3106 133.7376
" />
<path d="M112.3106 133.7376
L112.4058 133.2614
" />
<path d="M112.4058 133.2614
L112.5011 132.9757
" />
<path d="M112.5011 132.9757
L112.5963 132.7852
" />
<path d="M112.5963 132.7852
L112.7868 132.4995
" />
<path d="M112.7868 132.4995
L112.8820 132.4043
" />
<path d="M113.6439 133.3567
L113.6439 134.6900
" />
<path d="M113.6439 133.5471
L113.7392 133.4519
" />
<path d="M113.7392 133.4519
L113.9296 133.3567
" />
<path d="M113.9296 133.3567
L114.2154 133.3567
" />
<path d="M114.2154 133.3567
L114.4058 133.4519
" />
<path d="M114.4058 133.4519
L114.5011 133.6424
" />
<path d="M114.5011 133.6424
L114.5011 134.6900
" />
<path d="M115.7392 134.6900
L115.5487 134.5948
" />
<path d="M115.5487 134.5948
L115.4534 134.4995
" />
<path d="M115.4534 134.4995
L115.3582 134.3090
" />
<path d="M115.3582 134.3090
L115.3582 133.7376
" />
<path d="M115.3582 133.7376
L115.4534 133.5471
" />
<path d="M115.4534 133.5471
L115.5487 133.4519
" />
<path d="M115.5487 133.4519
L115.7392 133.3567
" />
<path d="M115.7392 133.3567
L116.0249 133.3567
" />
<path d="M116.0249 133.3567
L116.2154 133.4519
" />
<path d="M116.2154 133.4519
L116.3106 133.5471
" />
<path d="M116.3106 133.5471
L116.4058 133.7376
" />
<path d="M116.4058 133.7376
L116.4058 134.3090
" />
<path d="M116.4058 134.3090
L116.3106 134.4995
" />
<path d="M116.3106 134.4995
L116.2154 134.5948
" />
<path d="M116.2154 134.5948
L116.0249 134.6900
" />
<path d="M116.0249 134.6900
L115.7392 134.6900
" />
<path d="M116.9773 133.3567
L117.7392 133.3567
" />
<path d="M117.2630 132.6900
L117.2630 134.4043
" />
<path d="M117.2630 134.4043
L117.3582 134.5948
" />
<path d="M117.3582 134.5948
L117.5487 134.6900
" />
<path d="M117.5487 134.6900
L117.7392 134.6900
" />
<path d="M119.9296 133.3567
L119.9296 135.3567
" />
<path d="M119.9296 133.4519
L120.1201 133.3567
" />
<path d="M120.1201 133.3567
L120.5011 133.3567
" />
<path d="M120.5011 133.3567
L120.6915 133.4519
" />
<path d="M120.6915 133.4519
L120.7868 133.5471
" />
<path d="M120.7868 133.5471
L120.8820 133.7376
" />
<path d="M120.8820 133.7376
L120.8820 134.3090
" />
<path d="M120.8820 134.3090
L120.7868 134.4995
" />
<path d="M120.7868 134.4995
L120.6915 134.5948
" />
<path d="M120.6915 134.5948
L120.5011 134.6900
" />
<path d="M120.5011 134.6900
L120.1201 134.6900
" />
<path d="M120.1201 134.6900
L119.9296 134.5948
" />
<path d="M122.0249 134.6900
L121.8344 134.5948
" />
<path d="M121.8344 134.5948
L121.7392 134.4043
" />
<path d="M121.7392 134.4043
L121.7392 132.6900
" />
<path d="M123.6439 134.6900
L123.6439 133.6424
" />
<path d="M123.6439 133.6424
L123.5487 133.4519
" />
<path d="M123.5487 133.4519
L123.3582 133.3567
" />
<path d="M123.3582 133.3567
L122.9773 133.3567
" />
<path d="M122.9773 133.3567
L122.7868 133.4519
" />
<path d="M123.6439 134.5948
L123.4534 134.6900
" />
<path d="M123.4534 134.6900
L122.9773 134.6900
" />
<path d="M122.9773 134.6900
L122.7868 134.5948
" />
<path d="M122.7868 134.5948
L122.6915 134.4043
" />
<path d="M122.6915 134.4043
L122.6915 134.2138
" />
<path d="M122.6915 134.2138
L122.7868 134.0233
" />
<path d="M122.7868 134.0233
L122.9773 133.9281
" />
<path d="M122.9773 133.9281
L123.4534 133.9281
" />
<path d="M123.4534 133.9281
L123.6439 133.8329
" />
<path d="M124.3106 133.3567
L125.0725 133.3567
" />
<path d="M124.5963 132.6900
L124.5963 134.4043
" />
<path d="M124.5963 134.4043
L124.6915 134.5948
" />
<path d="M124.6915 134.5948
L124.8820 134.6900
" />
<path d="M124.8820 134.6900
L125.0725 134.6900
" />
<path d="M126.5011 134.5948
L126.3106 134.6900
" />
<path d="M126.3106 134.6900
L125.9296 134.6900
" />
<path d="M125.9296 134.6900
L125.7392 134.5948
" />
<path d="M125.7392 134.5948
L125.6439 134.4043
" />
<path d="M125.6439 134.4043
L125.6439 133.6424
" />
<path d="M125.6439 133.6424
L125.7392 133.4519
" />
<path d="M125.7392 133.4519
L125.9296 133.3567
" />
<path d="M125.9296 133.3567
L126.3106 133.3567
" />
<path d="M126.3106 133.3567
L126.5011 133.4519
" />
<path d="M126.5011 133.4519
L126.5963 133.6424
" />
<path d="M126.5963 133.6424
L126.5963 133.8329
" />
<path d="M126.5963 133.8329
L125.6439 134.0233
" />
<path d="M128.3106 134.6900
L128.3106 132.6900
" />
<path d="M128.3106 134.5948
L128.1201 134.6900
" />
<path d="M128.1201 134.6900
L127.7392 134.6900
" />
<path d="M127.7392 134.6900
L127.5487 134.5948
" />
<path d="M127.5487 134.5948
L127.4534 134.4995
" />
<path d="M127.4534 134.4995
L127.3582 134.3090
" />
<path d="M127.3582 134.3090
L127.3582 133.7376
" />
<path d="M127.3582 133.7376
L127.4534 133.5471
" />
<path d="M127.4534 133.5471
L127.5487 133.4519
" />
<path d="M127.5487 133.4519
L127.7392 133.3567
" />
<path d="M127.7392 133.3567
L128.1201 133.3567
" />
<path d="M128.1201 133.3567
L128.3106 133.4519
" />
<path d="M129.0725 135.4519
L129.1677 135.3567
" />
<path d="M129.1677 135.3567
L129.3582 135.0709
" />
<path d="M129.3582 135.0709
L129.4534 134.8805
" />
<path d="M129.4534 134.8805
L129.5487 134.5948
" />
<path d="M129.5487 134.5948
L129.6439 134.1186
" />
<path d="M129.6439 134.1186
L129.6439 133.7376
" />
<path d="M129.6439 133.7376
L129.5487 133.2614
" />
<path d="M129.5487 133.2614
L129.4534 132.9757
" />
<path d="M129.4534 132.9757
L129.3582 132.7852
" />
<path d="M129.3582 132.7852
L129.1677 132.4995
" />
<path d="M129.1677 132.4995
L129.0725 132.4043
" />
</g></g> 
</svg>
