%TF.GenerationSoftware,KiCad,Pcbnew,10.0.3*%
%TF.CreationDate,2026-06-04T10:59:47+05:30*%
%TF.ProjectId,pathfinder,70617468-6669-46e6-9465-722e6b696361,rev?*%
%TF.SameCoordinates,Original*%
%TF.FileFunction,Drillmap*%
%TF.FilePolarity,Positive*%
%FSLAX45Y45*%
G04 Gerber Fmt 4.5, Leading zero omitted, Abs format (unit mm)*
G04 Created by KiCad (PCBNEW 10.0.3) date 2026-06-04 10:59:47*
%MOMM*%
%LPD*%
G01*
G04 APERTURE LIST*
%ADD10C,0.050000*%
%ADD11C,0.200000*%
%ADD12C,0.100000*%
%ADD13C,0.121000*%
%ADD14C,0.150000*%
G04 APERTURE END LIST*
D10*
X8810625Y-6191250D02*
X8810625Y-14287500D01*
X8810625Y-6191250D02*
X13573125Y-6191250D01*
X13573125Y-4286250D02*
X19288125Y-4286250D01*
X13573125Y-6191250D02*
X13573125Y-4286250D01*
X19288125Y-4286250D02*
X19288125Y-6191250D01*
X19288125Y-6191250D02*
X23812500Y-6191250D01*
X23812500Y-6191250D02*
X23812500Y-14287500D01*
X23812500Y-14287500D02*
X8810625Y-14287500D01*
D11*
D12*
X14109625Y-5950261D02*
X14179625Y-6020261D01*
X14179625Y-5950261D02*
X14109625Y-6020261D01*
X14617625Y-5950261D02*
X14687625Y-6020261D01*
X14687625Y-5950261D02*
X14617625Y-6020261D01*
X18300625Y-5950261D02*
X18370625Y-6020261D01*
X18370625Y-5950261D02*
X18300625Y-6020261D01*
X18808625Y-5950261D02*
X18878625Y-6020261D01*
X18878625Y-5950261D02*
X18808625Y-6020261D01*
X15713075Y-6858000D02*
G75*
G02*
X15624175Y-6858000I-44450J0D01*
G01*
X15624175Y-6858000D02*
G75*
G02*
X15713075Y-6858000I44450J0D01*
G01*
X15713075Y-7112000D02*
G75*
G02*
X15624175Y-7112000I-44450J0D01*
G01*
X15624175Y-7112000D02*
G75*
G02*
X15713075Y-7112000I44450J0D01*
G01*
X15713075Y-7366000D02*
G75*
G02*
X15624175Y-7366000I-44450J0D01*
G01*
X15624175Y-7366000D02*
G75*
G02*
X15713075Y-7366000I44450J0D01*
G01*
X15713075Y-7620000D02*
G75*
G02*
X15624175Y-7620000I-44450J0D01*
G01*
X15624175Y-7620000D02*
G75*
G02*
X15713075Y-7620000I44450J0D01*
G01*
X15713075Y-7874000D02*
G75*
G02*
X15624175Y-7874000I-44450J0D01*
G01*
X15624175Y-7874000D02*
G75*
G02*
X15713075Y-7874000I44450J0D01*
G01*
X15713075Y-8128000D02*
G75*
G02*
X15624175Y-8128000I-44450J0D01*
G01*
X15624175Y-8128000D02*
G75*
G02*
X15713075Y-8128000I44450J0D01*
G01*
X15713075Y-8382000D02*
G75*
G02*
X15624175Y-8382000I-44450J0D01*
G01*
X15624175Y-8382000D02*
G75*
G02*
X15713075Y-8382000I44450J0D01*
G01*
X17237075Y-6858000D02*
G75*
G02*
X17148175Y-6858000I-44450J0D01*
G01*
X17148175Y-6858000D02*
G75*
G02*
X17237075Y-6858000I44450J0D01*
G01*
X17237075Y-7112000D02*
G75*
G02*
X17148175Y-7112000I-44450J0D01*
G01*
X17148175Y-7112000D02*
G75*
G02*
X17237075Y-7112000I44450J0D01*
G01*
X17237075Y-7366000D02*
G75*
G02*
X17148175Y-7366000I-44450J0D01*
G01*
X17148175Y-7366000D02*
G75*
G02*
X17237075Y-7366000I44450J0D01*
G01*
X17237075Y-7620000D02*
G75*
G02*
X17148175Y-7620000I-44450J0D01*
G01*
X17148175Y-7620000D02*
G75*
G02*
X17237075Y-7620000I44450J0D01*
G01*
X17237075Y-7874000D02*
G75*
G02*
X17148175Y-7874000I-44450J0D01*
G01*
X17148175Y-7874000D02*
G75*
G02*
X17237075Y-7874000I44450J0D01*
G01*
X17237075Y-8128000D02*
G75*
G02*
X17148175Y-8128000I-44450J0D01*
G01*
X17148175Y-8128000D02*
G75*
G02*
X17237075Y-8128000I44450J0D01*
G01*
X17237075Y-8382000D02*
G75*
G02*
X17148175Y-8382000I-44450J0D01*
G01*
X17148175Y-8382000D02*
G75*
G02*
X17237075Y-8382000I44450J0D01*
G01*
D13*
X14287500Y-4940125D02*
X14287500Y-5061125D01*
X14227000Y-5000625D02*
X14348000Y-5000625D01*
X14541500Y-4940125D02*
X14541500Y-5061125D01*
X14481000Y-5000625D02*
X14602000Y-5000625D01*
X18446750Y-4972261D02*
X18446750Y-5093261D01*
X18386250Y-5032761D02*
X18507250Y-5032761D01*
X18700750Y-4972261D02*
X18700750Y-5093261D01*
X18640250Y-5032761D02*
X18761250Y-5032761D01*
D14*
X9911409Y-10038409D02*
X9911409Y-9932342D01*
X9805342Y-9932342D01*
X9805342Y-10038409D01*
X9911409Y-10038409D01*
X10546409Y-9784409D02*
X10546409Y-9678342D01*
X10440342Y-9678342D01*
X10440342Y-9784409D01*
X10546409Y-9784409D01*
X11816408Y-8133408D02*
X11816408Y-8027341D01*
X11710341Y-8027341D01*
X11710341Y-8133408D01*
X11816408Y-8133408D01*
X11826283Y-10038409D02*
X11826283Y-9932342D01*
X11720216Y-9932342D01*
X11720216Y-10038409D01*
X11826283Y-10038409D01*
X12451408Y-7879408D02*
X12451408Y-7773341D01*
X12345341Y-7773341D01*
X12345341Y-7879408D01*
X12451408Y-7879408D01*
X12461283Y-9784409D02*
X12461283Y-9678342D01*
X12355216Y-9678342D01*
X12355216Y-9784409D01*
X12461283Y-9784409D01*
X13721408Y-10038409D02*
X13721408Y-9932342D01*
X13615341Y-9932342D01*
X13615341Y-10038409D01*
X13721408Y-10038409D01*
X14356408Y-9784409D02*
X14356408Y-9678342D01*
X14250341Y-9678342D01*
X14250341Y-9784409D01*
X14356408Y-9784409D01*
X15150158Y-12673658D02*
X15150158Y-12567591D01*
X15044091Y-12567591D01*
X15044091Y-12673658D01*
X15150158Y-12673658D01*
X15785158Y-12419658D02*
X15785158Y-12313591D01*
X15679091Y-12313591D01*
X15679091Y-12419658D01*
X15785158Y-12419658D01*
X17055159Y-12673658D02*
X17055159Y-12567591D01*
X16949092Y-12567591D01*
X16949092Y-12673658D01*
X17055159Y-12673658D01*
X17690159Y-12419658D02*
X17690159Y-12313591D01*
X17584092Y-12313591D01*
X17584092Y-12419658D01*
X17690159Y-12419658D01*
X19230034Y-10038409D02*
X19230034Y-9932342D01*
X19123967Y-9932342D01*
X19123967Y-10038409D01*
X19230034Y-10038409D01*
X19865034Y-9784409D02*
X19865034Y-9678342D01*
X19758967Y-9678342D01*
X19758967Y-9784409D01*
X19865034Y-9784409D01*
X20182534Y-8133408D02*
X20182534Y-8027341D01*
X20076467Y-8027341D01*
X20076467Y-8133408D01*
X20182534Y-8133408D01*
X20817534Y-7879408D02*
X20817534Y-7773341D01*
X20711467Y-7773341D01*
X20711467Y-7879408D01*
X20817534Y-7879408D01*
X21135034Y-10038409D02*
X21135034Y-9932342D01*
X21028967Y-9932342D01*
X21028967Y-10038409D01*
X21135034Y-10038409D01*
X21770034Y-9784409D02*
X21770034Y-9678342D01*
X21663967Y-9678342D01*
X21663967Y-9784409D01*
X21770034Y-9784409D01*
D11*
X9068902Y-14601484D02*
X9068902Y-14401484D01*
X9068902Y-14401484D02*
X9116521Y-14401484D01*
X9116521Y-14401484D02*
X9145092Y-14411008D01*
X9145092Y-14411008D02*
X9164140Y-14430055D01*
X9164140Y-14430055D02*
X9173664Y-14449103D01*
X9173664Y-14449103D02*
X9183188Y-14487198D01*
X9183188Y-14487198D02*
X9183188Y-14515769D01*
X9183188Y-14515769D02*
X9173664Y-14553865D01*
X9173664Y-14553865D02*
X9164140Y-14572912D01*
X9164140Y-14572912D02*
X9145092Y-14591960D01*
X9145092Y-14591960D02*
X9116521Y-14601484D01*
X9116521Y-14601484D02*
X9068902Y-14601484D01*
X9268902Y-14601484D02*
X9268902Y-14468150D01*
X9268902Y-14506246D02*
X9278426Y-14487198D01*
X9278426Y-14487198D02*
X9287949Y-14477674D01*
X9287949Y-14477674D02*
X9306997Y-14468150D01*
X9306997Y-14468150D02*
X9326045Y-14468150D01*
X9392711Y-14601484D02*
X9392711Y-14468150D01*
X9392711Y-14401484D02*
X9383188Y-14411008D01*
X9383188Y-14411008D02*
X9392711Y-14420531D01*
X9392711Y-14420531D02*
X9402235Y-14411008D01*
X9402235Y-14411008D02*
X9392711Y-14401484D01*
X9392711Y-14401484D02*
X9392711Y-14420531D01*
X9516521Y-14601484D02*
X9497473Y-14591960D01*
X9497473Y-14591960D02*
X9487949Y-14572912D01*
X9487949Y-14572912D02*
X9487949Y-14401484D01*
X9621283Y-14601484D02*
X9602235Y-14591960D01*
X9602235Y-14591960D02*
X9592711Y-14572912D01*
X9592711Y-14572912D02*
X9592711Y-14401484D01*
X9849854Y-14601484D02*
X9849854Y-14401484D01*
X9849854Y-14401484D02*
X9916521Y-14544341D01*
X9916521Y-14544341D02*
X9983188Y-14401484D01*
X9983188Y-14401484D02*
X9983188Y-14601484D01*
X10164140Y-14601484D02*
X10164140Y-14496722D01*
X10164140Y-14496722D02*
X10154616Y-14477674D01*
X10154616Y-14477674D02*
X10135569Y-14468150D01*
X10135569Y-14468150D02*
X10097473Y-14468150D01*
X10097473Y-14468150D02*
X10078426Y-14477674D01*
X10164140Y-14591960D02*
X10145092Y-14601484D01*
X10145092Y-14601484D02*
X10097473Y-14601484D01*
X10097473Y-14601484D02*
X10078426Y-14591960D01*
X10078426Y-14591960D02*
X10068902Y-14572912D01*
X10068902Y-14572912D02*
X10068902Y-14553865D01*
X10068902Y-14553865D02*
X10078426Y-14534817D01*
X10078426Y-14534817D02*
X10097473Y-14525293D01*
X10097473Y-14525293D02*
X10145092Y-14525293D01*
X10145092Y-14525293D02*
X10164140Y-14515769D01*
X10259378Y-14468150D02*
X10259378Y-14668150D01*
X10259378Y-14477674D02*
X10278426Y-14468150D01*
X10278426Y-14468150D02*
X10316521Y-14468150D01*
X10316521Y-14468150D02*
X10335569Y-14477674D01*
X10335569Y-14477674D02*
X10345092Y-14487198D01*
X10345092Y-14487198D02*
X10354616Y-14506246D01*
X10354616Y-14506246D02*
X10354616Y-14563388D01*
X10354616Y-14563388D02*
X10345092Y-14582436D01*
X10345092Y-14582436D02*
X10335569Y-14591960D01*
X10335569Y-14591960D02*
X10316521Y-14601484D01*
X10316521Y-14601484D02*
X10278426Y-14601484D01*
X10278426Y-14601484D02*
X10259378Y-14591960D01*
X10440330Y-14582436D02*
X10449854Y-14591960D01*
X10449854Y-14591960D02*
X10440330Y-14601484D01*
X10440330Y-14601484D02*
X10430807Y-14591960D01*
X10430807Y-14591960D02*
X10440330Y-14582436D01*
X10440330Y-14582436D02*
X10440330Y-14601484D01*
X10440330Y-14477674D02*
X10449854Y-14487198D01*
X10449854Y-14487198D02*
X10440330Y-14496722D01*
X10440330Y-14496722D02*
X10430807Y-14487198D01*
X10430807Y-14487198D02*
X10440330Y-14477674D01*
X10440330Y-14477674D02*
X10440330Y-14496722D01*
D12*
X8738125Y-14895000D02*
X8808125Y-14965000D01*
X8808125Y-14895000D02*
X8738125Y-14965000D01*
D11*
X9106997Y-14821484D02*
X9126045Y-14821484D01*
X9126045Y-14821484D02*
X9145092Y-14831008D01*
X9145092Y-14831008D02*
X9154616Y-14840531D01*
X9154616Y-14840531D02*
X9164140Y-14859579D01*
X9164140Y-14859579D02*
X9173664Y-14897674D01*
X9173664Y-14897674D02*
X9173664Y-14945293D01*
X9173664Y-14945293D02*
X9164140Y-14983388D01*
X9164140Y-14983388D02*
X9154616Y-15002436D01*
X9154616Y-15002436D02*
X9145092Y-15011960D01*
X9145092Y-15011960D02*
X9126045Y-15021484D01*
X9126045Y-15021484D02*
X9106997Y-15021484D01*
X9106997Y-15021484D02*
X9087949Y-15011960D01*
X9087949Y-15011960D02*
X9078426Y-15002436D01*
X9078426Y-15002436D02*
X9068902Y-14983388D01*
X9068902Y-14983388D02*
X9059378Y-14945293D01*
X9059378Y-14945293D02*
X9059378Y-14897674D01*
X9059378Y-14897674D02*
X9068902Y-14859579D01*
X9068902Y-14859579D02*
X9078426Y-14840531D01*
X9078426Y-14840531D02*
X9087949Y-14831008D01*
X9087949Y-14831008D02*
X9106997Y-14821484D01*
X9259378Y-15002436D02*
X9268902Y-15011960D01*
X9268902Y-15011960D02*
X9259378Y-15021484D01*
X9259378Y-15021484D02*
X9249854Y-15011960D01*
X9249854Y-15011960D02*
X9259378Y-15002436D01*
X9259378Y-15002436D02*
X9259378Y-15021484D01*
X9335569Y-14821484D02*
X9468902Y-14821484D01*
X9468902Y-14821484D02*
X9383188Y-15021484D01*
X9583188Y-14821484D02*
X9602235Y-14821484D01*
X9602235Y-14821484D02*
X9621283Y-14831008D01*
X9621283Y-14831008D02*
X9630807Y-14840531D01*
X9630807Y-14840531D02*
X9640330Y-14859579D01*
X9640330Y-14859579D02*
X9649854Y-14897674D01*
X9649854Y-14897674D02*
X9649854Y-14945293D01*
X9649854Y-14945293D02*
X9640330Y-14983388D01*
X9640330Y-14983388D02*
X9630807Y-15002436D01*
X9630807Y-15002436D02*
X9621283Y-15011960D01*
X9621283Y-15011960D02*
X9602235Y-15021484D01*
X9602235Y-15021484D02*
X9583188Y-15021484D01*
X9583188Y-15021484D02*
X9564140Y-15011960D01*
X9564140Y-15011960D02*
X9554616Y-15002436D01*
X9554616Y-15002436D02*
X9545092Y-14983388D01*
X9545092Y-14983388D02*
X9535569Y-14945293D01*
X9535569Y-14945293D02*
X9535569Y-14897674D01*
X9535569Y-14897674D02*
X9545092Y-14859579D01*
X9545092Y-14859579D02*
X9554616Y-14840531D01*
X9554616Y-14840531D02*
X9564140Y-14831008D01*
X9564140Y-14831008D02*
X9583188Y-14821484D01*
X9773664Y-14821484D02*
X9792711Y-14821484D01*
X9792711Y-14821484D02*
X9811759Y-14831008D01*
X9811759Y-14831008D02*
X9821283Y-14840531D01*
X9821283Y-14840531D02*
X9830807Y-14859579D01*
X9830807Y-14859579D02*
X9840330Y-14897674D01*
X9840330Y-14897674D02*
X9840330Y-14945293D01*
X9840330Y-14945293D02*
X9830807Y-14983388D01*
X9830807Y-14983388D02*
X9821283Y-15002436D01*
X9821283Y-15002436D02*
X9811759Y-15011960D01*
X9811759Y-15011960D02*
X9792711Y-15021484D01*
X9792711Y-15021484D02*
X9773664Y-15021484D01*
X9773664Y-15021484D02*
X9754616Y-15011960D01*
X9754616Y-15011960D02*
X9745092Y-15002436D01*
X9745092Y-15002436D02*
X9735569Y-14983388D01*
X9735569Y-14983388D02*
X9726045Y-14945293D01*
X9726045Y-14945293D02*
X9726045Y-14897674D01*
X9726045Y-14897674D02*
X9735569Y-14859579D01*
X9735569Y-14859579D02*
X9745092Y-14840531D01*
X9745092Y-14840531D02*
X9754616Y-14831008D01*
X9754616Y-14831008D02*
X9773664Y-14821484D01*
X9926045Y-15021484D02*
X9926045Y-14888150D01*
X9926045Y-14907198D02*
X9935569Y-14897674D01*
X9935569Y-14897674D02*
X9954616Y-14888150D01*
X9954616Y-14888150D02*
X9983188Y-14888150D01*
X9983188Y-14888150D02*
X10002235Y-14897674D01*
X10002235Y-14897674D02*
X10011759Y-14916722D01*
X10011759Y-14916722D02*
X10011759Y-15021484D01*
X10011759Y-14916722D02*
X10021283Y-14897674D01*
X10021283Y-14897674D02*
X10040330Y-14888150D01*
X10040330Y-14888150D02*
X10068902Y-14888150D01*
X10068902Y-14888150D02*
X10087950Y-14897674D01*
X10087950Y-14897674D02*
X10097473Y-14916722D01*
X10097473Y-14916722D02*
X10097473Y-15021484D01*
X10192711Y-15021484D02*
X10192711Y-14888150D01*
X10192711Y-14907198D02*
X10202235Y-14897674D01*
X10202235Y-14897674D02*
X10221283Y-14888150D01*
X10221283Y-14888150D02*
X10249854Y-14888150D01*
X10249854Y-14888150D02*
X10268902Y-14897674D01*
X10268902Y-14897674D02*
X10278426Y-14916722D01*
X10278426Y-14916722D02*
X10278426Y-15021484D01*
X10278426Y-14916722D02*
X10287950Y-14897674D01*
X10287950Y-14897674D02*
X10306997Y-14888150D01*
X10306997Y-14888150D02*
X10335569Y-14888150D01*
X10335569Y-14888150D02*
X10354616Y-14897674D01*
X10354616Y-14897674D02*
X10364140Y-14916722D01*
X10364140Y-14916722D02*
X10364140Y-15021484D01*
X10754616Y-14811960D02*
X10583188Y-15069103D01*
X11011759Y-14821484D02*
X11030807Y-14821484D01*
X11030807Y-14821484D02*
X11049854Y-14831008D01*
X11049854Y-14831008D02*
X11059378Y-14840531D01*
X11059378Y-14840531D02*
X11068902Y-14859579D01*
X11068902Y-14859579D02*
X11078426Y-14897674D01*
X11078426Y-14897674D02*
X11078426Y-14945293D01*
X11078426Y-14945293D02*
X11068902Y-14983388D01*
X11068902Y-14983388D02*
X11059378Y-15002436D01*
X11059378Y-15002436D02*
X11049854Y-15011960D01*
X11049854Y-15011960D02*
X11030807Y-15021484D01*
X11030807Y-15021484D02*
X11011759Y-15021484D01*
X11011759Y-15021484D02*
X10992712Y-15011960D01*
X10992712Y-15011960D02*
X10983188Y-15002436D01*
X10983188Y-15002436D02*
X10973664Y-14983388D01*
X10973664Y-14983388D02*
X10964140Y-14945293D01*
X10964140Y-14945293D02*
X10964140Y-14897674D01*
X10964140Y-14897674D02*
X10973664Y-14859579D01*
X10973664Y-14859579D02*
X10983188Y-14840531D01*
X10983188Y-14840531D02*
X10992712Y-14831008D01*
X10992712Y-14831008D02*
X11011759Y-14821484D01*
X11164140Y-15002436D02*
X11173664Y-15011960D01*
X11173664Y-15011960D02*
X11164140Y-15021484D01*
X11164140Y-15021484D02*
X11154616Y-15011960D01*
X11154616Y-15011960D02*
X11164140Y-15002436D01*
X11164140Y-15002436D02*
X11164140Y-15021484D01*
X11297473Y-14821484D02*
X11316521Y-14821484D01*
X11316521Y-14821484D02*
X11335569Y-14831008D01*
X11335569Y-14831008D02*
X11345092Y-14840531D01*
X11345092Y-14840531D02*
X11354616Y-14859579D01*
X11354616Y-14859579D02*
X11364140Y-14897674D01*
X11364140Y-14897674D02*
X11364140Y-14945293D01*
X11364140Y-14945293D02*
X11354616Y-14983388D01*
X11354616Y-14983388D02*
X11345092Y-15002436D01*
X11345092Y-15002436D02*
X11335569Y-15011960D01*
X11335569Y-15011960D02*
X11316521Y-15021484D01*
X11316521Y-15021484D02*
X11297473Y-15021484D01*
X11297473Y-15021484D02*
X11278426Y-15011960D01*
X11278426Y-15011960D02*
X11268902Y-15002436D01*
X11268902Y-15002436D02*
X11259378Y-14983388D01*
X11259378Y-14983388D02*
X11249854Y-14945293D01*
X11249854Y-14945293D02*
X11249854Y-14897674D01*
X11249854Y-14897674D02*
X11259378Y-14859579D01*
X11259378Y-14859579D02*
X11268902Y-14840531D01*
X11268902Y-14840531D02*
X11278426Y-14831008D01*
X11278426Y-14831008D02*
X11297473Y-14821484D01*
X11440331Y-14840531D02*
X11449854Y-14831008D01*
X11449854Y-14831008D02*
X11468902Y-14821484D01*
X11468902Y-14821484D02*
X11516521Y-14821484D01*
X11516521Y-14821484D02*
X11535569Y-14831008D01*
X11535569Y-14831008D02*
X11545092Y-14840531D01*
X11545092Y-14840531D02*
X11554616Y-14859579D01*
X11554616Y-14859579D02*
X11554616Y-14878627D01*
X11554616Y-14878627D02*
X11545092Y-14907198D01*
X11545092Y-14907198D02*
X11430807Y-15021484D01*
X11430807Y-15021484D02*
X11554616Y-15021484D01*
X11621283Y-14821484D02*
X11754616Y-14821484D01*
X11754616Y-14821484D02*
X11668902Y-15021484D01*
X11916521Y-14821484D02*
X11878426Y-14821484D01*
X11878426Y-14821484D02*
X11859378Y-14831008D01*
X11859378Y-14831008D02*
X11849854Y-14840531D01*
X11849854Y-14840531D02*
X11830807Y-14869103D01*
X11830807Y-14869103D02*
X11821283Y-14907198D01*
X11821283Y-14907198D02*
X11821283Y-14983388D01*
X11821283Y-14983388D02*
X11830807Y-15002436D01*
X11830807Y-15002436D02*
X11840331Y-15011960D01*
X11840331Y-15011960D02*
X11859378Y-15021484D01*
X11859378Y-15021484D02*
X11897473Y-15021484D01*
X11897473Y-15021484D02*
X11916521Y-15011960D01*
X11916521Y-15011960D02*
X11926045Y-15002436D01*
X11926045Y-15002436D02*
X11935569Y-14983388D01*
X11935569Y-14983388D02*
X11935569Y-14935769D01*
X11935569Y-14935769D02*
X11926045Y-14916722D01*
X11926045Y-14916722D02*
X11916521Y-14907198D01*
X11916521Y-14907198D02*
X11897473Y-14897674D01*
X11897473Y-14897674D02*
X11859378Y-14897674D01*
X11859378Y-14897674D02*
X11840331Y-14907198D01*
X11840331Y-14907198D02*
X11830807Y-14916722D01*
X11830807Y-14916722D02*
X11821283Y-14935769D01*
X12011759Y-14821484D02*
X12011759Y-14859579D01*
X12087950Y-14821484D02*
X12087950Y-14859579D01*
X12383188Y-15097674D02*
X12373664Y-15088150D01*
X12373664Y-15088150D02*
X12354616Y-15059579D01*
X12354616Y-15059579D02*
X12345093Y-15040531D01*
X12345093Y-15040531D02*
X12335569Y-15011960D01*
X12335569Y-15011960D02*
X12326045Y-14964341D01*
X12326045Y-14964341D02*
X12326045Y-14926246D01*
X12326045Y-14926246D02*
X12335569Y-14878627D01*
X12335569Y-14878627D02*
X12345093Y-14850055D01*
X12345093Y-14850055D02*
X12354616Y-14831008D01*
X12354616Y-14831008D02*
X12373664Y-14802436D01*
X12373664Y-14802436D02*
X12383188Y-14792912D01*
X12545093Y-14888150D02*
X12545093Y-15021484D01*
X12497473Y-14811960D02*
X12449854Y-14954817D01*
X12449854Y-14954817D02*
X12573664Y-14954817D01*
X12802235Y-15021484D02*
X12802235Y-14821484D01*
X12887950Y-15021484D02*
X12887950Y-14916722D01*
X12887950Y-14916722D02*
X12878426Y-14897674D01*
X12878426Y-14897674D02*
X12859378Y-14888150D01*
X12859378Y-14888150D02*
X12830807Y-14888150D01*
X12830807Y-14888150D02*
X12811759Y-14897674D01*
X12811759Y-14897674D02*
X12802235Y-14907198D01*
X13011759Y-15021484D02*
X12992712Y-15011960D01*
X12992712Y-15011960D02*
X12983188Y-15002436D01*
X12983188Y-15002436D02*
X12973664Y-14983388D01*
X12973664Y-14983388D02*
X12973664Y-14926246D01*
X12973664Y-14926246D02*
X12983188Y-14907198D01*
X12983188Y-14907198D02*
X12992712Y-14897674D01*
X12992712Y-14897674D02*
X13011759Y-14888150D01*
X13011759Y-14888150D02*
X13040331Y-14888150D01*
X13040331Y-14888150D02*
X13059378Y-14897674D01*
X13059378Y-14897674D02*
X13068902Y-14907198D01*
X13068902Y-14907198D02*
X13078426Y-14926246D01*
X13078426Y-14926246D02*
X13078426Y-14983388D01*
X13078426Y-14983388D02*
X13068902Y-15002436D01*
X13068902Y-15002436D02*
X13059378Y-15011960D01*
X13059378Y-15011960D02*
X13040331Y-15021484D01*
X13040331Y-15021484D02*
X13011759Y-15021484D01*
X13192712Y-15021484D02*
X13173664Y-15011960D01*
X13173664Y-15011960D02*
X13164140Y-14992912D01*
X13164140Y-14992912D02*
X13164140Y-14821484D01*
X13345093Y-15011960D02*
X13326045Y-15021484D01*
X13326045Y-15021484D02*
X13287950Y-15021484D01*
X13287950Y-15021484D02*
X13268902Y-15011960D01*
X13268902Y-15011960D02*
X13259378Y-14992912D01*
X13259378Y-14992912D02*
X13259378Y-14916722D01*
X13259378Y-14916722D02*
X13268902Y-14897674D01*
X13268902Y-14897674D02*
X13287950Y-14888150D01*
X13287950Y-14888150D02*
X13326045Y-14888150D01*
X13326045Y-14888150D02*
X13345093Y-14897674D01*
X13345093Y-14897674D02*
X13354616Y-14916722D01*
X13354616Y-14916722D02*
X13354616Y-14935769D01*
X13354616Y-14935769D02*
X13259378Y-14954817D01*
X13430807Y-15011960D02*
X13449855Y-15021484D01*
X13449855Y-15021484D02*
X13487950Y-15021484D01*
X13487950Y-15021484D02*
X13506997Y-15011960D01*
X13506997Y-15011960D02*
X13516521Y-14992912D01*
X13516521Y-14992912D02*
X13516521Y-14983388D01*
X13516521Y-14983388D02*
X13506997Y-14964341D01*
X13506997Y-14964341D02*
X13487950Y-14954817D01*
X13487950Y-14954817D02*
X13459378Y-14954817D01*
X13459378Y-14954817D02*
X13440331Y-14945293D01*
X13440331Y-14945293D02*
X13430807Y-14926246D01*
X13430807Y-14926246D02*
X13430807Y-14916722D01*
X13430807Y-14916722D02*
X13440331Y-14897674D01*
X13440331Y-14897674D02*
X13459378Y-14888150D01*
X13459378Y-14888150D02*
X13487950Y-14888150D01*
X13487950Y-14888150D02*
X13506997Y-14897674D01*
X13583188Y-15097674D02*
X13592712Y-15088150D01*
X13592712Y-15088150D02*
X13611759Y-15059579D01*
X13611759Y-15059579D02*
X13621283Y-15040531D01*
X13621283Y-15040531D02*
X13630807Y-15011960D01*
X13630807Y-15011960D02*
X13640331Y-14964341D01*
X13640331Y-14964341D02*
X13640331Y-14926246D01*
X13640331Y-14926246D02*
X13630807Y-14878627D01*
X13630807Y-14878627D02*
X13621283Y-14850055D01*
X13621283Y-14850055D02*
X13611759Y-14831008D01*
X13611759Y-14831008D02*
X13592712Y-14802436D01*
X13592712Y-14802436D02*
X13583188Y-14792912D01*
D12*
X8808125Y-15194000D02*
G75*
G02*
X8719225Y-15194000I-44450J0D01*
G01*
X8719225Y-15194000D02*
G75*
G02*
X8808125Y-15194000I44450J0D01*
G01*
D11*
X9106997Y-15085484D02*
X9126045Y-15085484D01*
X9126045Y-15085484D02*
X9145092Y-15095008D01*
X9145092Y-15095008D02*
X9154616Y-15104531D01*
X9154616Y-15104531D02*
X9164140Y-15123579D01*
X9164140Y-15123579D02*
X9173664Y-15161674D01*
X9173664Y-15161674D02*
X9173664Y-15209293D01*
X9173664Y-15209293D02*
X9164140Y-15247388D01*
X9164140Y-15247388D02*
X9154616Y-15266436D01*
X9154616Y-15266436D02*
X9145092Y-15275960D01*
X9145092Y-15275960D02*
X9126045Y-15285484D01*
X9126045Y-15285484D02*
X9106997Y-15285484D01*
X9106997Y-15285484D02*
X9087949Y-15275960D01*
X9087949Y-15275960D02*
X9078426Y-15266436D01*
X9078426Y-15266436D02*
X9068902Y-15247388D01*
X9068902Y-15247388D02*
X9059378Y-15209293D01*
X9059378Y-15209293D02*
X9059378Y-15161674D01*
X9059378Y-15161674D02*
X9068902Y-15123579D01*
X9068902Y-15123579D02*
X9078426Y-15104531D01*
X9078426Y-15104531D02*
X9087949Y-15095008D01*
X9087949Y-15095008D02*
X9106997Y-15085484D01*
X9259378Y-15266436D02*
X9268902Y-15275960D01*
X9268902Y-15275960D02*
X9259378Y-15285484D01*
X9259378Y-15285484D02*
X9249854Y-15275960D01*
X9249854Y-15275960D02*
X9259378Y-15266436D01*
X9259378Y-15266436D02*
X9259378Y-15285484D01*
X9383188Y-15171198D02*
X9364140Y-15161674D01*
X9364140Y-15161674D02*
X9354616Y-15152150D01*
X9354616Y-15152150D02*
X9345092Y-15133103D01*
X9345092Y-15133103D02*
X9345092Y-15123579D01*
X9345092Y-15123579D02*
X9354616Y-15104531D01*
X9354616Y-15104531D02*
X9364140Y-15095008D01*
X9364140Y-15095008D02*
X9383188Y-15085484D01*
X9383188Y-15085484D02*
X9421283Y-15085484D01*
X9421283Y-15085484D02*
X9440330Y-15095008D01*
X9440330Y-15095008D02*
X9449854Y-15104531D01*
X9449854Y-15104531D02*
X9459378Y-15123579D01*
X9459378Y-15123579D02*
X9459378Y-15133103D01*
X9459378Y-15133103D02*
X9449854Y-15152150D01*
X9449854Y-15152150D02*
X9440330Y-15161674D01*
X9440330Y-15161674D02*
X9421283Y-15171198D01*
X9421283Y-15171198D02*
X9383188Y-15171198D01*
X9383188Y-15171198D02*
X9364140Y-15180722D01*
X9364140Y-15180722D02*
X9354616Y-15190246D01*
X9354616Y-15190246D02*
X9345092Y-15209293D01*
X9345092Y-15209293D02*
X9345092Y-15247388D01*
X9345092Y-15247388D02*
X9354616Y-15266436D01*
X9354616Y-15266436D02*
X9364140Y-15275960D01*
X9364140Y-15275960D02*
X9383188Y-15285484D01*
X9383188Y-15285484D02*
X9421283Y-15285484D01*
X9421283Y-15285484D02*
X9440330Y-15275960D01*
X9440330Y-15275960D02*
X9449854Y-15266436D01*
X9449854Y-15266436D02*
X9459378Y-15247388D01*
X9459378Y-15247388D02*
X9459378Y-15209293D01*
X9459378Y-15209293D02*
X9449854Y-15190246D01*
X9449854Y-15190246D02*
X9440330Y-15180722D01*
X9440330Y-15180722D02*
X9421283Y-15171198D01*
X9573664Y-15171198D02*
X9554616Y-15161674D01*
X9554616Y-15161674D02*
X9545092Y-15152150D01*
X9545092Y-15152150D02*
X9535569Y-15133103D01*
X9535569Y-15133103D02*
X9535569Y-15123579D01*
X9535569Y-15123579D02*
X9545092Y-15104531D01*
X9545092Y-15104531D02*
X9554616Y-15095008D01*
X9554616Y-15095008D02*
X9573664Y-15085484D01*
X9573664Y-15085484D02*
X9611759Y-15085484D01*
X9611759Y-15085484D02*
X9630807Y-15095008D01*
X9630807Y-15095008D02*
X9640330Y-15104531D01*
X9640330Y-15104531D02*
X9649854Y-15123579D01*
X9649854Y-15123579D02*
X9649854Y-15133103D01*
X9649854Y-15133103D02*
X9640330Y-15152150D01*
X9640330Y-15152150D02*
X9630807Y-15161674D01*
X9630807Y-15161674D02*
X9611759Y-15171198D01*
X9611759Y-15171198D02*
X9573664Y-15171198D01*
X9573664Y-15171198D02*
X9554616Y-15180722D01*
X9554616Y-15180722D02*
X9545092Y-15190246D01*
X9545092Y-15190246D02*
X9535569Y-15209293D01*
X9535569Y-15209293D02*
X9535569Y-15247388D01*
X9535569Y-15247388D02*
X9545092Y-15266436D01*
X9545092Y-15266436D02*
X9554616Y-15275960D01*
X9554616Y-15275960D02*
X9573664Y-15285484D01*
X9573664Y-15285484D02*
X9611759Y-15285484D01*
X9611759Y-15285484D02*
X9630807Y-15275960D01*
X9630807Y-15275960D02*
X9640330Y-15266436D01*
X9640330Y-15266436D02*
X9649854Y-15247388D01*
X9649854Y-15247388D02*
X9649854Y-15209293D01*
X9649854Y-15209293D02*
X9640330Y-15190246D01*
X9640330Y-15190246D02*
X9630807Y-15180722D01*
X9630807Y-15180722D02*
X9611759Y-15171198D01*
X9745092Y-15285484D02*
X9783188Y-15285484D01*
X9783188Y-15285484D02*
X9802235Y-15275960D01*
X9802235Y-15275960D02*
X9811759Y-15266436D01*
X9811759Y-15266436D02*
X9830807Y-15237865D01*
X9830807Y-15237865D02*
X9840330Y-15199769D01*
X9840330Y-15199769D02*
X9840330Y-15123579D01*
X9840330Y-15123579D02*
X9830807Y-15104531D01*
X9830807Y-15104531D02*
X9821283Y-15095008D01*
X9821283Y-15095008D02*
X9802235Y-15085484D01*
X9802235Y-15085484D02*
X9764140Y-15085484D01*
X9764140Y-15085484D02*
X9745092Y-15095008D01*
X9745092Y-15095008D02*
X9735569Y-15104531D01*
X9735569Y-15104531D02*
X9726045Y-15123579D01*
X9726045Y-15123579D02*
X9726045Y-15171198D01*
X9726045Y-15171198D02*
X9735569Y-15190246D01*
X9735569Y-15190246D02*
X9745092Y-15199769D01*
X9745092Y-15199769D02*
X9764140Y-15209293D01*
X9764140Y-15209293D02*
X9802235Y-15209293D01*
X9802235Y-15209293D02*
X9821283Y-15199769D01*
X9821283Y-15199769D02*
X9830807Y-15190246D01*
X9830807Y-15190246D02*
X9840330Y-15171198D01*
X9926045Y-15285484D02*
X9926045Y-15152150D01*
X9926045Y-15171198D02*
X9935569Y-15161674D01*
X9935569Y-15161674D02*
X9954616Y-15152150D01*
X9954616Y-15152150D02*
X9983188Y-15152150D01*
X9983188Y-15152150D02*
X10002235Y-15161674D01*
X10002235Y-15161674D02*
X10011759Y-15180722D01*
X10011759Y-15180722D02*
X10011759Y-15285484D01*
X10011759Y-15180722D02*
X10021283Y-15161674D01*
X10021283Y-15161674D02*
X10040330Y-15152150D01*
X10040330Y-15152150D02*
X10068902Y-15152150D01*
X10068902Y-15152150D02*
X10087950Y-15161674D01*
X10087950Y-15161674D02*
X10097473Y-15180722D01*
X10097473Y-15180722D02*
X10097473Y-15285484D01*
X10192711Y-15285484D02*
X10192711Y-15152150D01*
X10192711Y-15171198D02*
X10202235Y-15161674D01*
X10202235Y-15161674D02*
X10221283Y-15152150D01*
X10221283Y-15152150D02*
X10249854Y-15152150D01*
X10249854Y-15152150D02*
X10268902Y-15161674D01*
X10268902Y-15161674D02*
X10278426Y-15180722D01*
X10278426Y-15180722D02*
X10278426Y-15285484D01*
X10278426Y-15180722D02*
X10287950Y-15161674D01*
X10287950Y-15161674D02*
X10306997Y-15152150D01*
X10306997Y-15152150D02*
X10335569Y-15152150D01*
X10335569Y-15152150D02*
X10354616Y-15161674D01*
X10354616Y-15161674D02*
X10364140Y-15180722D01*
X10364140Y-15180722D02*
X10364140Y-15285484D01*
X10754616Y-15075960D02*
X10583188Y-15333103D01*
X11011759Y-15085484D02*
X11030807Y-15085484D01*
X11030807Y-15085484D02*
X11049854Y-15095008D01*
X11049854Y-15095008D02*
X11059378Y-15104531D01*
X11059378Y-15104531D02*
X11068902Y-15123579D01*
X11068902Y-15123579D02*
X11078426Y-15161674D01*
X11078426Y-15161674D02*
X11078426Y-15209293D01*
X11078426Y-15209293D02*
X11068902Y-15247388D01*
X11068902Y-15247388D02*
X11059378Y-15266436D01*
X11059378Y-15266436D02*
X11049854Y-15275960D01*
X11049854Y-15275960D02*
X11030807Y-15285484D01*
X11030807Y-15285484D02*
X11011759Y-15285484D01*
X11011759Y-15285484D02*
X10992712Y-15275960D01*
X10992712Y-15275960D02*
X10983188Y-15266436D01*
X10983188Y-15266436D02*
X10973664Y-15247388D01*
X10973664Y-15247388D02*
X10964140Y-15209293D01*
X10964140Y-15209293D02*
X10964140Y-15161674D01*
X10964140Y-15161674D02*
X10973664Y-15123579D01*
X10973664Y-15123579D02*
X10983188Y-15104531D01*
X10983188Y-15104531D02*
X10992712Y-15095008D01*
X10992712Y-15095008D02*
X11011759Y-15085484D01*
X11164140Y-15266436D02*
X11173664Y-15275960D01*
X11173664Y-15275960D02*
X11164140Y-15285484D01*
X11164140Y-15285484D02*
X11154616Y-15275960D01*
X11154616Y-15275960D02*
X11164140Y-15266436D01*
X11164140Y-15266436D02*
X11164140Y-15285484D01*
X11297473Y-15085484D02*
X11316521Y-15085484D01*
X11316521Y-15085484D02*
X11335569Y-15095008D01*
X11335569Y-15095008D02*
X11345092Y-15104531D01*
X11345092Y-15104531D02*
X11354616Y-15123579D01*
X11354616Y-15123579D02*
X11364140Y-15161674D01*
X11364140Y-15161674D02*
X11364140Y-15209293D01*
X11364140Y-15209293D02*
X11354616Y-15247388D01*
X11354616Y-15247388D02*
X11345092Y-15266436D01*
X11345092Y-15266436D02*
X11335569Y-15275960D01*
X11335569Y-15275960D02*
X11316521Y-15285484D01*
X11316521Y-15285484D02*
X11297473Y-15285484D01*
X11297473Y-15285484D02*
X11278426Y-15275960D01*
X11278426Y-15275960D02*
X11268902Y-15266436D01*
X11268902Y-15266436D02*
X11259378Y-15247388D01*
X11259378Y-15247388D02*
X11249854Y-15209293D01*
X11249854Y-15209293D02*
X11249854Y-15161674D01*
X11249854Y-15161674D02*
X11259378Y-15123579D01*
X11259378Y-15123579D02*
X11268902Y-15104531D01*
X11268902Y-15104531D02*
X11278426Y-15095008D01*
X11278426Y-15095008D02*
X11297473Y-15085484D01*
X11430807Y-15085484D02*
X11554616Y-15085484D01*
X11554616Y-15085484D02*
X11487950Y-15161674D01*
X11487950Y-15161674D02*
X11516521Y-15161674D01*
X11516521Y-15161674D02*
X11535569Y-15171198D01*
X11535569Y-15171198D02*
X11545092Y-15180722D01*
X11545092Y-15180722D02*
X11554616Y-15199769D01*
X11554616Y-15199769D02*
X11554616Y-15247388D01*
X11554616Y-15247388D02*
X11545092Y-15266436D01*
X11545092Y-15266436D02*
X11535569Y-15275960D01*
X11535569Y-15275960D02*
X11516521Y-15285484D01*
X11516521Y-15285484D02*
X11459378Y-15285484D01*
X11459378Y-15285484D02*
X11440331Y-15275960D01*
X11440331Y-15275960D02*
X11430807Y-15266436D01*
X11735569Y-15085484D02*
X11640331Y-15085484D01*
X11640331Y-15085484D02*
X11630807Y-15180722D01*
X11630807Y-15180722D02*
X11640331Y-15171198D01*
X11640331Y-15171198D02*
X11659378Y-15161674D01*
X11659378Y-15161674D02*
X11706997Y-15161674D01*
X11706997Y-15161674D02*
X11726045Y-15171198D01*
X11726045Y-15171198D02*
X11735569Y-15180722D01*
X11735569Y-15180722D02*
X11745092Y-15199769D01*
X11745092Y-15199769D02*
X11745092Y-15247388D01*
X11745092Y-15247388D02*
X11735569Y-15266436D01*
X11735569Y-15266436D02*
X11726045Y-15275960D01*
X11726045Y-15275960D02*
X11706997Y-15285484D01*
X11706997Y-15285484D02*
X11659378Y-15285484D01*
X11659378Y-15285484D02*
X11640331Y-15275960D01*
X11640331Y-15275960D02*
X11630807Y-15266436D01*
X11868902Y-15085484D02*
X11887950Y-15085484D01*
X11887950Y-15085484D02*
X11906997Y-15095008D01*
X11906997Y-15095008D02*
X11916521Y-15104531D01*
X11916521Y-15104531D02*
X11926045Y-15123579D01*
X11926045Y-15123579D02*
X11935569Y-15161674D01*
X11935569Y-15161674D02*
X11935569Y-15209293D01*
X11935569Y-15209293D02*
X11926045Y-15247388D01*
X11926045Y-15247388D02*
X11916521Y-15266436D01*
X11916521Y-15266436D02*
X11906997Y-15275960D01*
X11906997Y-15275960D02*
X11887950Y-15285484D01*
X11887950Y-15285484D02*
X11868902Y-15285484D01*
X11868902Y-15285484D02*
X11849854Y-15275960D01*
X11849854Y-15275960D02*
X11840331Y-15266436D01*
X11840331Y-15266436D02*
X11830807Y-15247388D01*
X11830807Y-15247388D02*
X11821283Y-15209293D01*
X11821283Y-15209293D02*
X11821283Y-15161674D01*
X11821283Y-15161674D02*
X11830807Y-15123579D01*
X11830807Y-15123579D02*
X11840331Y-15104531D01*
X11840331Y-15104531D02*
X11849854Y-15095008D01*
X11849854Y-15095008D02*
X11868902Y-15085484D01*
X12011759Y-15085484D02*
X12011759Y-15123579D01*
X12087950Y-15085484D02*
X12087950Y-15123579D01*
X12383188Y-15361674D02*
X12373664Y-15352150D01*
X12373664Y-15352150D02*
X12354616Y-15323579D01*
X12354616Y-15323579D02*
X12345093Y-15304531D01*
X12345093Y-15304531D02*
X12335569Y-15275960D01*
X12335569Y-15275960D02*
X12326045Y-15228341D01*
X12326045Y-15228341D02*
X12326045Y-15190246D01*
X12326045Y-15190246D02*
X12335569Y-15142627D01*
X12335569Y-15142627D02*
X12345093Y-15114055D01*
X12345093Y-15114055D02*
X12354616Y-15095008D01*
X12354616Y-15095008D02*
X12373664Y-15066436D01*
X12373664Y-15066436D02*
X12383188Y-15056912D01*
X12564140Y-15285484D02*
X12449854Y-15285484D01*
X12506997Y-15285484D02*
X12506997Y-15085484D01*
X12506997Y-15085484D02*
X12487950Y-15114055D01*
X12487950Y-15114055D02*
X12468902Y-15133103D01*
X12468902Y-15133103D02*
X12449854Y-15142627D01*
X12735569Y-15152150D02*
X12735569Y-15285484D01*
X12687950Y-15075960D02*
X12640331Y-15218817D01*
X12640331Y-15218817D02*
X12764140Y-15218817D01*
X12992712Y-15285484D02*
X12992712Y-15085484D01*
X13078426Y-15285484D02*
X13078426Y-15180722D01*
X13078426Y-15180722D02*
X13068902Y-15161674D01*
X13068902Y-15161674D02*
X13049855Y-15152150D01*
X13049855Y-15152150D02*
X13021283Y-15152150D01*
X13021283Y-15152150D02*
X13002235Y-15161674D01*
X13002235Y-15161674D02*
X12992712Y-15171198D01*
X13202235Y-15285484D02*
X13183188Y-15275960D01*
X13183188Y-15275960D02*
X13173664Y-15266436D01*
X13173664Y-15266436D02*
X13164140Y-15247388D01*
X13164140Y-15247388D02*
X13164140Y-15190246D01*
X13164140Y-15190246D02*
X13173664Y-15171198D01*
X13173664Y-15171198D02*
X13183188Y-15161674D01*
X13183188Y-15161674D02*
X13202235Y-15152150D01*
X13202235Y-15152150D02*
X13230807Y-15152150D01*
X13230807Y-15152150D02*
X13249855Y-15161674D01*
X13249855Y-15161674D02*
X13259378Y-15171198D01*
X13259378Y-15171198D02*
X13268902Y-15190246D01*
X13268902Y-15190246D02*
X13268902Y-15247388D01*
X13268902Y-15247388D02*
X13259378Y-15266436D01*
X13259378Y-15266436D02*
X13249855Y-15275960D01*
X13249855Y-15275960D02*
X13230807Y-15285484D01*
X13230807Y-15285484D02*
X13202235Y-15285484D01*
X13383188Y-15285484D02*
X13364140Y-15275960D01*
X13364140Y-15275960D02*
X13354616Y-15256912D01*
X13354616Y-15256912D02*
X13354616Y-15085484D01*
X13535569Y-15275960D02*
X13516521Y-15285484D01*
X13516521Y-15285484D02*
X13478426Y-15285484D01*
X13478426Y-15285484D02*
X13459378Y-15275960D01*
X13459378Y-15275960D02*
X13449855Y-15256912D01*
X13449855Y-15256912D02*
X13449855Y-15180722D01*
X13449855Y-15180722D02*
X13459378Y-15161674D01*
X13459378Y-15161674D02*
X13478426Y-15152150D01*
X13478426Y-15152150D02*
X13516521Y-15152150D01*
X13516521Y-15152150D02*
X13535569Y-15161674D01*
X13535569Y-15161674D02*
X13545093Y-15180722D01*
X13545093Y-15180722D02*
X13545093Y-15199769D01*
X13545093Y-15199769D02*
X13449855Y-15218817D01*
X13621283Y-15275960D02*
X13640331Y-15285484D01*
X13640331Y-15285484D02*
X13678426Y-15285484D01*
X13678426Y-15285484D02*
X13697474Y-15275960D01*
X13697474Y-15275960D02*
X13706997Y-15256912D01*
X13706997Y-15256912D02*
X13706997Y-15247388D01*
X13706997Y-15247388D02*
X13697474Y-15228341D01*
X13697474Y-15228341D02*
X13678426Y-15218817D01*
X13678426Y-15218817D02*
X13649855Y-15218817D01*
X13649855Y-15218817D02*
X13630807Y-15209293D01*
X13630807Y-15209293D02*
X13621283Y-15190246D01*
X13621283Y-15190246D02*
X13621283Y-15180722D01*
X13621283Y-15180722D02*
X13630807Y-15161674D01*
X13630807Y-15161674D02*
X13649855Y-15152150D01*
X13649855Y-15152150D02*
X13678426Y-15152150D01*
X13678426Y-15152150D02*
X13697474Y-15161674D01*
X13773664Y-15361674D02*
X13783188Y-15352150D01*
X13783188Y-15352150D02*
X13802236Y-15323579D01*
X13802236Y-15323579D02*
X13811759Y-15304531D01*
X13811759Y-15304531D02*
X13821283Y-15275960D01*
X13821283Y-15275960D02*
X13830807Y-15228341D01*
X13830807Y-15228341D02*
X13830807Y-15190246D01*
X13830807Y-15190246D02*
X13821283Y-15142627D01*
X13821283Y-15142627D02*
X13811759Y-15114055D01*
X13811759Y-15114055D02*
X13802236Y-15095008D01*
X13802236Y-15095008D02*
X13783188Y-15066436D01*
X13783188Y-15066436D02*
X13773664Y-15056912D01*
D13*
X8747625Y-15397500D02*
X8747625Y-15518500D01*
X8687125Y-15458000D02*
X8808125Y-15458000D01*
D11*
X9173664Y-15549484D02*
X9059378Y-15549484D01*
X9116521Y-15549484D02*
X9116521Y-15349484D01*
X9116521Y-15349484D02*
X9097473Y-15378055D01*
X9097473Y-15378055D02*
X9078426Y-15397103D01*
X9078426Y-15397103D02*
X9059378Y-15406627D01*
X9259378Y-15530436D02*
X9268902Y-15539960D01*
X9268902Y-15539960D02*
X9259378Y-15549484D01*
X9259378Y-15549484D02*
X9249854Y-15539960D01*
X9249854Y-15539960D02*
X9259378Y-15530436D01*
X9259378Y-15530436D02*
X9259378Y-15549484D01*
X9345092Y-15368531D02*
X9354616Y-15359008D01*
X9354616Y-15359008D02*
X9373664Y-15349484D01*
X9373664Y-15349484D02*
X9421283Y-15349484D01*
X9421283Y-15349484D02*
X9440330Y-15359008D01*
X9440330Y-15359008D02*
X9449854Y-15368531D01*
X9449854Y-15368531D02*
X9459378Y-15387579D01*
X9459378Y-15387579D02*
X9459378Y-15406627D01*
X9459378Y-15406627D02*
X9449854Y-15435198D01*
X9449854Y-15435198D02*
X9335569Y-15549484D01*
X9335569Y-15549484D02*
X9459378Y-15549484D01*
X9649854Y-15549484D02*
X9535569Y-15549484D01*
X9592711Y-15549484D02*
X9592711Y-15349484D01*
X9592711Y-15349484D02*
X9573664Y-15378055D01*
X9573664Y-15378055D02*
X9554616Y-15397103D01*
X9554616Y-15397103D02*
X9535569Y-15406627D01*
X9773664Y-15349484D02*
X9792711Y-15349484D01*
X9792711Y-15349484D02*
X9811759Y-15359008D01*
X9811759Y-15359008D02*
X9821283Y-15368531D01*
X9821283Y-15368531D02*
X9830807Y-15387579D01*
X9830807Y-15387579D02*
X9840330Y-15425674D01*
X9840330Y-15425674D02*
X9840330Y-15473293D01*
X9840330Y-15473293D02*
X9830807Y-15511388D01*
X9830807Y-15511388D02*
X9821283Y-15530436D01*
X9821283Y-15530436D02*
X9811759Y-15539960D01*
X9811759Y-15539960D02*
X9792711Y-15549484D01*
X9792711Y-15549484D02*
X9773664Y-15549484D01*
X9773664Y-15549484D02*
X9754616Y-15539960D01*
X9754616Y-15539960D02*
X9745092Y-15530436D01*
X9745092Y-15530436D02*
X9735569Y-15511388D01*
X9735569Y-15511388D02*
X9726045Y-15473293D01*
X9726045Y-15473293D02*
X9726045Y-15425674D01*
X9726045Y-15425674D02*
X9735569Y-15387579D01*
X9735569Y-15387579D02*
X9745092Y-15368531D01*
X9745092Y-15368531D02*
X9754616Y-15359008D01*
X9754616Y-15359008D02*
X9773664Y-15349484D01*
X9926045Y-15549484D02*
X9926045Y-15416150D01*
X9926045Y-15435198D02*
X9935569Y-15425674D01*
X9935569Y-15425674D02*
X9954616Y-15416150D01*
X9954616Y-15416150D02*
X9983188Y-15416150D01*
X9983188Y-15416150D02*
X10002235Y-15425674D01*
X10002235Y-15425674D02*
X10011759Y-15444722D01*
X10011759Y-15444722D02*
X10011759Y-15549484D01*
X10011759Y-15444722D02*
X10021283Y-15425674D01*
X10021283Y-15425674D02*
X10040330Y-15416150D01*
X10040330Y-15416150D02*
X10068902Y-15416150D01*
X10068902Y-15416150D02*
X10087950Y-15425674D01*
X10087950Y-15425674D02*
X10097473Y-15444722D01*
X10097473Y-15444722D02*
X10097473Y-15549484D01*
X10192711Y-15549484D02*
X10192711Y-15416150D01*
X10192711Y-15435198D02*
X10202235Y-15425674D01*
X10202235Y-15425674D02*
X10221283Y-15416150D01*
X10221283Y-15416150D02*
X10249854Y-15416150D01*
X10249854Y-15416150D02*
X10268902Y-15425674D01*
X10268902Y-15425674D02*
X10278426Y-15444722D01*
X10278426Y-15444722D02*
X10278426Y-15549484D01*
X10278426Y-15444722D02*
X10287950Y-15425674D01*
X10287950Y-15425674D02*
X10306997Y-15416150D01*
X10306997Y-15416150D02*
X10335569Y-15416150D01*
X10335569Y-15416150D02*
X10354616Y-15425674D01*
X10354616Y-15425674D02*
X10364140Y-15444722D01*
X10364140Y-15444722D02*
X10364140Y-15549484D01*
X10754616Y-15339960D02*
X10583188Y-15597103D01*
X11011759Y-15349484D02*
X11030807Y-15349484D01*
X11030807Y-15349484D02*
X11049854Y-15359008D01*
X11049854Y-15359008D02*
X11059378Y-15368531D01*
X11059378Y-15368531D02*
X11068902Y-15387579D01*
X11068902Y-15387579D02*
X11078426Y-15425674D01*
X11078426Y-15425674D02*
X11078426Y-15473293D01*
X11078426Y-15473293D02*
X11068902Y-15511388D01*
X11068902Y-15511388D02*
X11059378Y-15530436D01*
X11059378Y-15530436D02*
X11049854Y-15539960D01*
X11049854Y-15539960D02*
X11030807Y-15549484D01*
X11030807Y-15549484D02*
X11011759Y-15549484D01*
X11011759Y-15549484D02*
X10992712Y-15539960D01*
X10992712Y-15539960D02*
X10983188Y-15530436D01*
X10983188Y-15530436D02*
X10973664Y-15511388D01*
X10973664Y-15511388D02*
X10964140Y-15473293D01*
X10964140Y-15473293D02*
X10964140Y-15425674D01*
X10964140Y-15425674D02*
X10973664Y-15387579D01*
X10973664Y-15387579D02*
X10983188Y-15368531D01*
X10983188Y-15368531D02*
X10992712Y-15359008D01*
X10992712Y-15359008D02*
X11011759Y-15349484D01*
X11164140Y-15530436D02*
X11173664Y-15539960D01*
X11173664Y-15539960D02*
X11164140Y-15549484D01*
X11164140Y-15549484D02*
X11154616Y-15539960D01*
X11154616Y-15539960D02*
X11164140Y-15530436D01*
X11164140Y-15530436D02*
X11164140Y-15549484D01*
X11297473Y-15349484D02*
X11316521Y-15349484D01*
X11316521Y-15349484D02*
X11335569Y-15359008D01*
X11335569Y-15359008D02*
X11345092Y-15368531D01*
X11345092Y-15368531D02*
X11354616Y-15387579D01*
X11354616Y-15387579D02*
X11364140Y-15425674D01*
X11364140Y-15425674D02*
X11364140Y-15473293D01*
X11364140Y-15473293D02*
X11354616Y-15511388D01*
X11354616Y-15511388D02*
X11345092Y-15530436D01*
X11345092Y-15530436D02*
X11335569Y-15539960D01*
X11335569Y-15539960D02*
X11316521Y-15549484D01*
X11316521Y-15549484D02*
X11297473Y-15549484D01*
X11297473Y-15549484D02*
X11278426Y-15539960D01*
X11278426Y-15539960D02*
X11268902Y-15530436D01*
X11268902Y-15530436D02*
X11259378Y-15511388D01*
X11259378Y-15511388D02*
X11249854Y-15473293D01*
X11249854Y-15473293D02*
X11249854Y-15425674D01*
X11249854Y-15425674D02*
X11259378Y-15387579D01*
X11259378Y-15387579D02*
X11268902Y-15368531D01*
X11268902Y-15368531D02*
X11278426Y-15359008D01*
X11278426Y-15359008D02*
X11297473Y-15349484D01*
X11535569Y-15416150D02*
X11535569Y-15549484D01*
X11487950Y-15339960D02*
X11440331Y-15482817D01*
X11440331Y-15482817D02*
X11564140Y-15482817D01*
X11621283Y-15349484D02*
X11754616Y-15349484D01*
X11754616Y-15349484D02*
X11668902Y-15549484D01*
X11916521Y-15349484D02*
X11878426Y-15349484D01*
X11878426Y-15349484D02*
X11859378Y-15359008D01*
X11859378Y-15359008D02*
X11849854Y-15368531D01*
X11849854Y-15368531D02*
X11830807Y-15397103D01*
X11830807Y-15397103D02*
X11821283Y-15435198D01*
X11821283Y-15435198D02*
X11821283Y-15511388D01*
X11821283Y-15511388D02*
X11830807Y-15530436D01*
X11830807Y-15530436D02*
X11840331Y-15539960D01*
X11840331Y-15539960D02*
X11859378Y-15549484D01*
X11859378Y-15549484D02*
X11897473Y-15549484D01*
X11897473Y-15549484D02*
X11916521Y-15539960D01*
X11916521Y-15539960D02*
X11926045Y-15530436D01*
X11926045Y-15530436D02*
X11935569Y-15511388D01*
X11935569Y-15511388D02*
X11935569Y-15463769D01*
X11935569Y-15463769D02*
X11926045Y-15444722D01*
X11926045Y-15444722D02*
X11916521Y-15435198D01*
X11916521Y-15435198D02*
X11897473Y-15425674D01*
X11897473Y-15425674D02*
X11859378Y-15425674D01*
X11859378Y-15425674D02*
X11840331Y-15435198D01*
X11840331Y-15435198D02*
X11830807Y-15444722D01*
X11830807Y-15444722D02*
X11821283Y-15463769D01*
X12011759Y-15349484D02*
X12011759Y-15387579D01*
X12087950Y-15349484D02*
X12087950Y-15387579D01*
X12383188Y-15625674D02*
X12373664Y-15616150D01*
X12373664Y-15616150D02*
X12354616Y-15587579D01*
X12354616Y-15587579D02*
X12345093Y-15568531D01*
X12345093Y-15568531D02*
X12335569Y-15539960D01*
X12335569Y-15539960D02*
X12326045Y-15492341D01*
X12326045Y-15492341D02*
X12326045Y-15454246D01*
X12326045Y-15454246D02*
X12335569Y-15406627D01*
X12335569Y-15406627D02*
X12345093Y-15378055D01*
X12345093Y-15378055D02*
X12354616Y-15359008D01*
X12354616Y-15359008D02*
X12373664Y-15330436D01*
X12373664Y-15330436D02*
X12383188Y-15320912D01*
X12545093Y-15416150D02*
X12545093Y-15549484D01*
X12497473Y-15339960D02*
X12449854Y-15482817D01*
X12449854Y-15482817D02*
X12573664Y-15482817D01*
X12802235Y-15549484D02*
X12802235Y-15349484D01*
X12887950Y-15549484D02*
X12887950Y-15444722D01*
X12887950Y-15444722D02*
X12878426Y-15425674D01*
X12878426Y-15425674D02*
X12859378Y-15416150D01*
X12859378Y-15416150D02*
X12830807Y-15416150D01*
X12830807Y-15416150D02*
X12811759Y-15425674D01*
X12811759Y-15425674D02*
X12802235Y-15435198D01*
X13011759Y-15549484D02*
X12992712Y-15539960D01*
X12992712Y-15539960D02*
X12983188Y-15530436D01*
X12983188Y-15530436D02*
X12973664Y-15511388D01*
X12973664Y-15511388D02*
X12973664Y-15454246D01*
X12973664Y-15454246D02*
X12983188Y-15435198D01*
X12983188Y-15435198D02*
X12992712Y-15425674D01*
X12992712Y-15425674D02*
X13011759Y-15416150D01*
X13011759Y-15416150D02*
X13040331Y-15416150D01*
X13040331Y-15416150D02*
X13059378Y-15425674D01*
X13059378Y-15425674D02*
X13068902Y-15435198D01*
X13068902Y-15435198D02*
X13078426Y-15454246D01*
X13078426Y-15454246D02*
X13078426Y-15511388D01*
X13078426Y-15511388D02*
X13068902Y-15530436D01*
X13068902Y-15530436D02*
X13059378Y-15539960D01*
X13059378Y-15539960D02*
X13040331Y-15549484D01*
X13040331Y-15549484D02*
X13011759Y-15549484D01*
X13192712Y-15549484D02*
X13173664Y-15539960D01*
X13173664Y-15539960D02*
X13164140Y-15520912D01*
X13164140Y-15520912D02*
X13164140Y-15349484D01*
X13345093Y-15539960D02*
X13326045Y-15549484D01*
X13326045Y-15549484D02*
X13287950Y-15549484D01*
X13287950Y-15549484D02*
X13268902Y-15539960D01*
X13268902Y-15539960D02*
X13259378Y-15520912D01*
X13259378Y-15520912D02*
X13259378Y-15444722D01*
X13259378Y-15444722D02*
X13268902Y-15425674D01*
X13268902Y-15425674D02*
X13287950Y-15416150D01*
X13287950Y-15416150D02*
X13326045Y-15416150D01*
X13326045Y-15416150D02*
X13345093Y-15425674D01*
X13345093Y-15425674D02*
X13354616Y-15444722D01*
X13354616Y-15444722D02*
X13354616Y-15463769D01*
X13354616Y-15463769D02*
X13259378Y-15482817D01*
X13430807Y-15539960D02*
X13449855Y-15549484D01*
X13449855Y-15549484D02*
X13487950Y-15549484D01*
X13487950Y-15549484D02*
X13506997Y-15539960D01*
X13506997Y-15539960D02*
X13516521Y-15520912D01*
X13516521Y-15520912D02*
X13516521Y-15511388D01*
X13516521Y-15511388D02*
X13506997Y-15492341D01*
X13506997Y-15492341D02*
X13487950Y-15482817D01*
X13487950Y-15482817D02*
X13459378Y-15482817D01*
X13459378Y-15482817D02*
X13440331Y-15473293D01*
X13440331Y-15473293D02*
X13430807Y-15454246D01*
X13430807Y-15454246D02*
X13430807Y-15444722D01*
X13430807Y-15444722D02*
X13440331Y-15425674D01*
X13440331Y-15425674D02*
X13459378Y-15416150D01*
X13459378Y-15416150D02*
X13487950Y-15416150D01*
X13487950Y-15416150D02*
X13506997Y-15425674D01*
X13583188Y-15625674D02*
X13592712Y-15616150D01*
X13592712Y-15616150D02*
X13611759Y-15587579D01*
X13611759Y-15587579D02*
X13621283Y-15568531D01*
X13621283Y-15568531D02*
X13630807Y-15539960D01*
X13630807Y-15539960D02*
X13640331Y-15492341D01*
X13640331Y-15492341D02*
X13640331Y-15454246D01*
X13640331Y-15454246D02*
X13630807Y-15406627D01*
X13630807Y-15406627D02*
X13621283Y-15378055D01*
X13621283Y-15378055D02*
X13611759Y-15359008D01*
X13611759Y-15359008D02*
X13592712Y-15330436D01*
X13592712Y-15330436D02*
X13583188Y-15320912D01*
D14*
X8786159Y-15775033D02*
X8786159Y-15668966D01*
X8680092Y-15668966D01*
X8680092Y-15775033D01*
X8786159Y-15775033D01*
D11*
X9173664Y-15813484D02*
X9059378Y-15813484D01*
X9116521Y-15813484D02*
X9116521Y-15613484D01*
X9116521Y-15613484D02*
X9097473Y-15642055D01*
X9097473Y-15642055D02*
X9078426Y-15661103D01*
X9078426Y-15661103D02*
X9059378Y-15670627D01*
X9259378Y-15794436D02*
X9268902Y-15803960D01*
X9268902Y-15803960D02*
X9259378Y-15813484D01*
X9259378Y-15813484D02*
X9249854Y-15803960D01*
X9249854Y-15803960D02*
X9259378Y-15794436D01*
X9259378Y-15794436D02*
X9259378Y-15813484D01*
X9449854Y-15613484D02*
X9354616Y-15613484D01*
X9354616Y-15613484D02*
X9345092Y-15708722D01*
X9345092Y-15708722D02*
X9354616Y-15699198D01*
X9354616Y-15699198D02*
X9373664Y-15689674D01*
X9373664Y-15689674D02*
X9421283Y-15689674D01*
X9421283Y-15689674D02*
X9440330Y-15699198D01*
X9440330Y-15699198D02*
X9449854Y-15708722D01*
X9449854Y-15708722D02*
X9459378Y-15727769D01*
X9459378Y-15727769D02*
X9459378Y-15775388D01*
X9459378Y-15775388D02*
X9449854Y-15794436D01*
X9449854Y-15794436D02*
X9440330Y-15803960D01*
X9440330Y-15803960D02*
X9421283Y-15813484D01*
X9421283Y-15813484D02*
X9373664Y-15813484D01*
X9373664Y-15813484D02*
X9354616Y-15803960D01*
X9354616Y-15803960D02*
X9345092Y-15794436D01*
X9583188Y-15613484D02*
X9602235Y-15613484D01*
X9602235Y-15613484D02*
X9621283Y-15623008D01*
X9621283Y-15623008D02*
X9630807Y-15632531D01*
X9630807Y-15632531D02*
X9640330Y-15651579D01*
X9640330Y-15651579D02*
X9649854Y-15689674D01*
X9649854Y-15689674D02*
X9649854Y-15737293D01*
X9649854Y-15737293D02*
X9640330Y-15775388D01*
X9640330Y-15775388D02*
X9630807Y-15794436D01*
X9630807Y-15794436D02*
X9621283Y-15803960D01*
X9621283Y-15803960D02*
X9602235Y-15813484D01*
X9602235Y-15813484D02*
X9583188Y-15813484D01*
X9583188Y-15813484D02*
X9564140Y-15803960D01*
X9564140Y-15803960D02*
X9554616Y-15794436D01*
X9554616Y-15794436D02*
X9545092Y-15775388D01*
X9545092Y-15775388D02*
X9535569Y-15737293D01*
X9535569Y-15737293D02*
X9535569Y-15689674D01*
X9535569Y-15689674D02*
X9545092Y-15651579D01*
X9545092Y-15651579D02*
X9554616Y-15632531D01*
X9554616Y-15632531D02*
X9564140Y-15623008D01*
X9564140Y-15623008D02*
X9583188Y-15613484D01*
X9773664Y-15613484D02*
X9792711Y-15613484D01*
X9792711Y-15613484D02*
X9811759Y-15623008D01*
X9811759Y-15623008D02*
X9821283Y-15632531D01*
X9821283Y-15632531D02*
X9830807Y-15651579D01*
X9830807Y-15651579D02*
X9840330Y-15689674D01*
X9840330Y-15689674D02*
X9840330Y-15737293D01*
X9840330Y-15737293D02*
X9830807Y-15775388D01*
X9830807Y-15775388D02*
X9821283Y-15794436D01*
X9821283Y-15794436D02*
X9811759Y-15803960D01*
X9811759Y-15803960D02*
X9792711Y-15813484D01*
X9792711Y-15813484D02*
X9773664Y-15813484D01*
X9773664Y-15813484D02*
X9754616Y-15803960D01*
X9754616Y-15803960D02*
X9745092Y-15794436D01*
X9745092Y-15794436D02*
X9735569Y-15775388D01*
X9735569Y-15775388D02*
X9726045Y-15737293D01*
X9726045Y-15737293D02*
X9726045Y-15689674D01*
X9726045Y-15689674D02*
X9735569Y-15651579D01*
X9735569Y-15651579D02*
X9745092Y-15632531D01*
X9745092Y-15632531D02*
X9754616Y-15623008D01*
X9754616Y-15623008D02*
X9773664Y-15613484D01*
X9926045Y-15813484D02*
X9926045Y-15680150D01*
X9926045Y-15699198D02*
X9935569Y-15689674D01*
X9935569Y-15689674D02*
X9954616Y-15680150D01*
X9954616Y-15680150D02*
X9983188Y-15680150D01*
X9983188Y-15680150D02*
X10002235Y-15689674D01*
X10002235Y-15689674D02*
X10011759Y-15708722D01*
X10011759Y-15708722D02*
X10011759Y-15813484D01*
X10011759Y-15708722D02*
X10021283Y-15689674D01*
X10021283Y-15689674D02*
X10040330Y-15680150D01*
X10040330Y-15680150D02*
X10068902Y-15680150D01*
X10068902Y-15680150D02*
X10087950Y-15689674D01*
X10087950Y-15689674D02*
X10097473Y-15708722D01*
X10097473Y-15708722D02*
X10097473Y-15813484D01*
X10192711Y-15813484D02*
X10192711Y-15680150D01*
X10192711Y-15699198D02*
X10202235Y-15689674D01*
X10202235Y-15689674D02*
X10221283Y-15680150D01*
X10221283Y-15680150D02*
X10249854Y-15680150D01*
X10249854Y-15680150D02*
X10268902Y-15689674D01*
X10268902Y-15689674D02*
X10278426Y-15708722D01*
X10278426Y-15708722D02*
X10278426Y-15813484D01*
X10278426Y-15708722D02*
X10287950Y-15689674D01*
X10287950Y-15689674D02*
X10306997Y-15680150D01*
X10306997Y-15680150D02*
X10335569Y-15680150D01*
X10335569Y-15680150D02*
X10354616Y-15689674D01*
X10354616Y-15689674D02*
X10364140Y-15708722D01*
X10364140Y-15708722D02*
X10364140Y-15813484D01*
X10754616Y-15603960D02*
X10583188Y-15861103D01*
X11011759Y-15613484D02*
X11030807Y-15613484D01*
X11030807Y-15613484D02*
X11049854Y-15623008D01*
X11049854Y-15623008D02*
X11059378Y-15632531D01*
X11059378Y-15632531D02*
X11068902Y-15651579D01*
X11068902Y-15651579D02*
X11078426Y-15689674D01*
X11078426Y-15689674D02*
X11078426Y-15737293D01*
X11078426Y-15737293D02*
X11068902Y-15775388D01*
X11068902Y-15775388D02*
X11059378Y-15794436D01*
X11059378Y-15794436D02*
X11049854Y-15803960D01*
X11049854Y-15803960D02*
X11030807Y-15813484D01*
X11030807Y-15813484D02*
X11011759Y-15813484D01*
X11011759Y-15813484D02*
X10992712Y-15803960D01*
X10992712Y-15803960D02*
X10983188Y-15794436D01*
X10983188Y-15794436D02*
X10973664Y-15775388D01*
X10973664Y-15775388D02*
X10964140Y-15737293D01*
X10964140Y-15737293D02*
X10964140Y-15689674D01*
X10964140Y-15689674D02*
X10973664Y-15651579D01*
X10973664Y-15651579D02*
X10983188Y-15632531D01*
X10983188Y-15632531D02*
X10992712Y-15623008D01*
X10992712Y-15623008D02*
X11011759Y-15613484D01*
X11164140Y-15794436D02*
X11173664Y-15803960D01*
X11173664Y-15803960D02*
X11164140Y-15813484D01*
X11164140Y-15813484D02*
X11154616Y-15803960D01*
X11154616Y-15803960D02*
X11164140Y-15794436D01*
X11164140Y-15794436D02*
X11164140Y-15813484D01*
X11297473Y-15613484D02*
X11316521Y-15613484D01*
X11316521Y-15613484D02*
X11335569Y-15623008D01*
X11335569Y-15623008D02*
X11345092Y-15632531D01*
X11345092Y-15632531D02*
X11354616Y-15651579D01*
X11354616Y-15651579D02*
X11364140Y-15689674D01*
X11364140Y-15689674D02*
X11364140Y-15737293D01*
X11364140Y-15737293D02*
X11354616Y-15775388D01*
X11354616Y-15775388D02*
X11345092Y-15794436D01*
X11345092Y-15794436D02*
X11335569Y-15803960D01*
X11335569Y-15803960D02*
X11316521Y-15813484D01*
X11316521Y-15813484D02*
X11297473Y-15813484D01*
X11297473Y-15813484D02*
X11278426Y-15803960D01*
X11278426Y-15803960D02*
X11268902Y-15794436D01*
X11268902Y-15794436D02*
X11259378Y-15775388D01*
X11259378Y-15775388D02*
X11249854Y-15737293D01*
X11249854Y-15737293D02*
X11249854Y-15689674D01*
X11249854Y-15689674D02*
X11259378Y-15651579D01*
X11259378Y-15651579D02*
X11268902Y-15632531D01*
X11268902Y-15632531D02*
X11278426Y-15623008D01*
X11278426Y-15623008D02*
X11297473Y-15613484D01*
X11545092Y-15613484D02*
X11449854Y-15613484D01*
X11449854Y-15613484D02*
X11440331Y-15708722D01*
X11440331Y-15708722D02*
X11449854Y-15699198D01*
X11449854Y-15699198D02*
X11468902Y-15689674D01*
X11468902Y-15689674D02*
X11516521Y-15689674D01*
X11516521Y-15689674D02*
X11535569Y-15699198D01*
X11535569Y-15699198D02*
X11545092Y-15708722D01*
X11545092Y-15708722D02*
X11554616Y-15727769D01*
X11554616Y-15727769D02*
X11554616Y-15775388D01*
X11554616Y-15775388D02*
X11545092Y-15794436D01*
X11545092Y-15794436D02*
X11535569Y-15803960D01*
X11535569Y-15803960D02*
X11516521Y-15813484D01*
X11516521Y-15813484D02*
X11468902Y-15813484D01*
X11468902Y-15813484D02*
X11449854Y-15803960D01*
X11449854Y-15803960D02*
X11440331Y-15794436D01*
X11649854Y-15813484D02*
X11687950Y-15813484D01*
X11687950Y-15813484D02*
X11706997Y-15803960D01*
X11706997Y-15803960D02*
X11716521Y-15794436D01*
X11716521Y-15794436D02*
X11735569Y-15765865D01*
X11735569Y-15765865D02*
X11745092Y-15727769D01*
X11745092Y-15727769D02*
X11745092Y-15651579D01*
X11745092Y-15651579D02*
X11735569Y-15632531D01*
X11735569Y-15632531D02*
X11726045Y-15623008D01*
X11726045Y-15623008D02*
X11706997Y-15613484D01*
X11706997Y-15613484D02*
X11668902Y-15613484D01*
X11668902Y-15613484D02*
X11649854Y-15623008D01*
X11649854Y-15623008D02*
X11640331Y-15632531D01*
X11640331Y-15632531D02*
X11630807Y-15651579D01*
X11630807Y-15651579D02*
X11630807Y-15699198D01*
X11630807Y-15699198D02*
X11640331Y-15718246D01*
X11640331Y-15718246D02*
X11649854Y-15727769D01*
X11649854Y-15727769D02*
X11668902Y-15737293D01*
X11668902Y-15737293D02*
X11706997Y-15737293D01*
X11706997Y-15737293D02*
X11726045Y-15727769D01*
X11726045Y-15727769D02*
X11735569Y-15718246D01*
X11735569Y-15718246D02*
X11745092Y-15699198D01*
X11935569Y-15813484D02*
X11821283Y-15813484D01*
X11878426Y-15813484D02*
X11878426Y-15613484D01*
X11878426Y-15613484D02*
X11859378Y-15642055D01*
X11859378Y-15642055D02*
X11840331Y-15661103D01*
X11840331Y-15661103D02*
X11821283Y-15670627D01*
X12011759Y-15613484D02*
X12011759Y-15651579D01*
X12087950Y-15613484D02*
X12087950Y-15651579D01*
X12383188Y-15889674D02*
X12373664Y-15880150D01*
X12373664Y-15880150D02*
X12354616Y-15851579D01*
X12354616Y-15851579D02*
X12345093Y-15832531D01*
X12345093Y-15832531D02*
X12335569Y-15803960D01*
X12335569Y-15803960D02*
X12326045Y-15756341D01*
X12326045Y-15756341D02*
X12326045Y-15718246D01*
X12326045Y-15718246D02*
X12335569Y-15670627D01*
X12335569Y-15670627D02*
X12345093Y-15642055D01*
X12345093Y-15642055D02*
X12354616Y-15623008D01*
X12354616Y-15623008D02*
X12373664Y-15594436D01*
X12373664Y-15594436D02*
X12383188Y-15584912D01*
X12564140Y-15813484D02*
X12449854Y-15813484D01*
X12506997Y-15813484D02*
X12506997Y-15613484D01*
X12506997Y-15613484D02*
X12487950Y-15642055D01*
X12487950Y-15642055D02*
X12468902Y-15661103D01*
X12468902Y-15661103D02*
X12449854Y-15670627D01*
X12678426Y-15699198D02*
X12659378Y-15689674D01*
X12659378Y-15689674D02*
X12649854Y-15680150D01*
X12649854Y-15680150D02*
X12640331Y-15661103D01*
X12640331Y-15661103D02*
X12640331Y-15651579D01*
X12640331Y-15651579D02*
X12649854Y-15632531D01*
X12649854Y-15632531D02*
X12659378Y-15623008D01*
X12659378Y-15623008D02*
X12678426Y-15613484D01*
X12678426Y-15613484D02*
X12716521Y-15613484D01*
X12716521Y-15613484D02*
X12735569Y-15623008D01*
X12735569Y-15623008D02*
X12745093Y-15632531D01*
X12745093Y-15632531D02*
X12754616Y-15651579D01*
X12754616Y-15651579D02*
X12754616Y-15661103D01*
X12754616Y-15661103D02*
X12745093Y-15680150D01*
X12745093Y-15680150D02*
X12735569Y-15689674D01*
X12735569Y-15689674D02*
X12716521Y-15699198D01*
X12716521Y-15699198D02*
X12678426Y-15699198D01*
X12678426Y-15699198D02*
X12659378Y-15708722D01*
X12659378Y-15708722D02*
X12649854Y-15718246D01*
X12649854Y-15718246D02*
X12640331Y-15737293D01*
X12640331Y-15737293D02*
X12640331Y-15775388D01*
X12640331Y-15775388D02*
X12649854Y-15794436D01*
X12649854Y-15794436D02*
X12659378Y-15803960D01*
X12659378Y-15803960D02*
X12678426Y-15813484D01*
X12678426Y-15813484D02*
X12716521Y-15813484D01*
X12716521Y-15813484D02*
X12735569Y-15803960D01*
X12735569Y-15803960D02*
X12745093Y-15794436D01*
X12745093Y-15794436D02*
X12754616Y-15775388D01*
X12754616Y-15775388D02*
X12754616Y-15737293D01*
X12754616Y-15737293D02*
X12745093Y-15718246D01*
X12745093Y-15718246D02*
X12735569Y-15708722D01*
X12735569Y-15708722D02*
X12716521Y-15699198D01*
X12992712Y-15813484D02*
X12992712Y-15613484D01*
X13078426Y-15813484D02*
X13078426Y-15708722D01*
X13078426Y-15708722D02*
X13068902Y-15689674D01*
X13068902Y-15689674D02*
X13049855Y-15680150D01*
X13049855Y-15680150D02*
X13021283Y-15680150D01*
X13021283Y-15680150D02*
X13002235Y-15689674D01*
X13002235Y-15689674D02*
X12992712Y-15699198D01*
X13202235Y-15813484D02*
X13183188Y-15803960D01*
X13183188Y-15803960D02*
X13173664Y-15794436D01*
X13173664Y-15794436D02*
X13164140Y-15775388D01*
X13164140Y-15775388D02*
X13164140Y-15718246D01*
X13164140Y-15718246D02*
X13173664Y-15699198D01*
X13173664Y-15699198D02*
X13183188Y-15689674D01*
X13183188Y-15689674D02*
X13202235Y-15680150D01*
X13202235Y-15680150D02*
X13230807Y-15680150D01*
X13230807Y-15680150D02*
X13249855Y-15689674D01*
X13249855Y-15689674D02*
X13259378Y-15699198D01*
X13259378Y-15699198D02*
X13268902Y-15718246D01*
X13268902Y-15718246D02*
X13268902Y-15775388D01*
X13268902Y-15775388D02*
X13259378Y-15794436D01*
X13259378Y-15794436D02*
X13249855Y-15803960D01*
X13249855Y-15803960D02*
X13230807Y-15813484D01*
X13230807Y-15813484D02*
X13202235Y-15813484D01*
X13383188Y-15813484D02*
X13364140Y-15803960D01*
X13364140Y-15803960D02*
X13354616Y-15784912D01*
X13354616Y-15784912D02*
X13354616Y-15613484D01*
X13535569Y-15803960D02*
X13516521Y-15813484D01*
X13516521Y-15813484D02*
X13478426Y-15813484D01*
X13478426Y-15813484D02*
X13459378Y-15803960D01*
X13459378Y-15803960D02*
X13449855Y-15784912D01*
X13449855Y-15784912D02*
X13449855Y-15708722D01*
X13449855Y-15708722D02*
X13459378Y-15689674D01*
X13459378Y-15689674D02*
X13478426Y-15680150D01*
X13478426Y-15680150D02*
X13516521Y-15680150D01*
X13516521Y-15680150D02*
X13535569Y-15689674D01*
X13535569Y-15689674D02*
X13545093Y-15708722D01*
X13545093Y-15708722D02*
X13545093Y-15727769D01*
X13545093Y-15727769D02*
X13449855Y-15746817D01*
X13621283Y-15803960D02*
X13640331Y-15813484D01*
X13640331Y-15813484D02*
X13678426Y-15813484D01*
X13678426Y-15813484D02*
X13697474Y-15803960D01*
X13697474Y-15803960D02*
X13706997Y-15784912D01*
X13706997Y-15784912D02*
X13706997Y-15775388D01*
X13706997Y-15775388D02*
X13697474Y-15756341D01*
X13697474Y-15756341D02*
X13678426Y-15746817D01*
X13678426Y-15746817D02*
X13649855Y-15746817D01*
X13649855Y-15746817D02*
X13630807Y-15737293D01*
X13630807Y-15737293D02*
X13621283Y-15718246D01*
X13621283Y-15718246D02*
X13621283Y-15708722D01*
X13621283Y-15708722D02*
X13630807Y-15689674D01*
X13630807Y-15689674D02*
X13649855Y-15680150D01*
X13649855Y-15680150D02*
X13678426Y-15680150D01*
X13678426Y-15680150D02*
X13697474Y-15689674D01*
X13773664Y-15889674D02*
X13783188Y-15880150D01*
X13783188Y-15880150D02*
X13802236Y-15851579D01*
X13802236Y-15851579D02*
X13811759Y-15832531D01*
X13811759Y-15832531D02*
X13821283Y-15803960D01*
X13821283Y-15803960D02*
X13830807Y-15756341D01*
X13830807Y-15756341D02*
X13830807Y-15718246D01*
X13830807Y-15718246D02*
X13821283Y-15670627D01*
X13821283Y-15670627D02*
X13811759Y-15642055D01*
X13811759Y-15642055D02*
X13802236Y-15623008D01*
X13802236Y-15623008D02*
X13783188Y-15594436D01*
X13783188Y-15594436D02*
X13773664Y-15584912D01*
M02*
